/* XPM */
static char *_a50581bfde140d8d8771190f6821faefPka1jYPxJKfoQKB[] = {
/* columns rows colors chars-per-pixel */
"64 64 235 2 ",
"   c None",
".  c #000001",
"X  c #0A0604",
"o  c #020C04",
"O  c #0D0906",
"+  c #0B0B0B",
"@  c #150C09",
"#  c #041405",
"$  c #061A08",
"%  c #151409",
"&  c #1C110B",
"*  c #081016",
"=  c #181614",
"-  c #26160C",
";  c #2A1913",
":  c #331C16",
">  c #082309",
",  c #052A0E",
"<  c #092B09",
"1  c #09350A",
"2  c #0B3D0C",
"3  c #16370E",
"4  c #0F3112",
"5  c #2B2B11",
"6  c #3A2517",
"7  c #121C29",
"8  c #162C2D",
"9  c #363028",
"0  c #4C2B15",
"q  c #44261D",
"w  c #472919",
"e  c #522E1A",
"r  c #4B381D",
"t  c #593319",
"y  c #65391C",
"u  c #6D3C1E",
"i  c #713E1E",
"p  c #783D1F",
"a  c #4B2920",
"s  c #4C3426",
"d  c #583421",
"f  c #483E32",
"g  c #693B21",
"h  c #733E20",
"j  c #793E20",
"k  c #0D420D",
"l  c #104B0D",
"z  c #0D4A11",
"x  c #0A4817",
"c  c #134C10",
"v  c #1C4A17",
"b  c #0E5516",
"n  c #0B521B",
"m  c #0D5A1B",
"M  c #185916",
"N  c #2C4B18",
"B  c #0F651E",
"V  c #0F681F",
"C  c #1E6317",
"Z  c #186A1E",
"A  c #18791D",
"S  c #276B1A",
"D  c #2A781D",
"F  c #37771B",
"G  c #155721",
"H  c #0D6421",
"J  c #0E6C23",
"K  c #196C27",
"L  c #0D7626",
"P  c #0E7B29",
"I  c #107626",
"U  c #197627",
"Y  c #107B29",
"T  c #296B26",
"R  c #2E6F27",
"E  c #524E0F",
"W  c #73401F",
"Q  c #506509",
"!  c #514C29",
"~  c #545423",
"^  c #57493B",
"/  c #694724",
"(  c #744120",
")  c #7A4926",
"_  c #6B552E",
"`  c #567034",
"'  c #6C642B",
"]  c #1E3449",
"[  c #23374C",
"{  c #1B5162",
"}  c #304D6C",
"|  c #325374",
" . c #335579",
".. c #514F52",
"X. c #645542",
"o. c #736D4D",
"O. c #606969",
"+. c #926C19",
"@. c #A27F18",
"#. c #824F27",
"$. c #87572B",
"%. c #865732",
"&. c #90682E",
"*. c #946936",
"=. c #997439",
"-. c #A06E35",
";. c #A5793D",
":. c #956944",
">. c #8B765B",
",. c #A47B41",
"<. c #A67C43",
"1. c #A57B57",
"2. c #2F821F",
"3. c #37851D",
"4. c #15812A",
"5. c #1B8429",
"6. c #1E8131",
"7. c #298825",
"8. c #218A29",
"9. c #328821",
"0. c #2D9329",
"q. c #379727",
"w. c #3C9A26",
"e. c #319629",
"r. c #248435",
"t. c #3BAE25",
"y. c #3EA229",
"u. c #4E951C",
"i. c #6AAE1B",
"p. c #4D8A27",
"a. c #4C9329",
"s. c #659829",
"d. c #41A429",
"f. c #44A92A",
"g. c #55AB27",
"h. c #77AA34",
"j. c #7EC21C",
"k. c #338D48",
"l. c #7C8D5E",
"z. c #4F9E61",
"x. c #8C8C01",
"c. c #B09B0F",
"v. c #A48415",
"b. c #B0A807",
"n. c #AD8839",
"m. c #B28F33",
"M. c #B99934",
"N. c #97A82D",
"B. c #CEBD0B",
"V. c #CBB810",
"C. c #C4A92C",
"Z. c #D2AA3C",
"A. c #D2B431",
"S. c #85C51A",
"D. c #BBDB13",
"F. c #D6CD0A",
"G. c #DAC81B",
"H. c #E4D716",
"J. c #CFE70B",
"K. c #E9E703",
"L. c #F2ED05",
"P. c #E9F504",
"I. c #FFFE00",
"U. c #FAF608",
"Y. c #F6E915",
"T. c #F8E915",
"R. c #F4E31B",
"E. c #F5F216",
"W. c #DCD22D",
"Q. c #E9CE2B",
"!. c #F1DB25",
"~. c #EACA35",
"^. c #E7C23C",
"/. c #E8C538",
"(. c #AC8347",
"). c #B58946",
"_. c #B38D55",
"`. c #ADA948",
"'. c #988A72",
"]. c #AC8E6C",
"[. c #B69A78",
"{. c #B9A379",
"}. c #C59947",
"|. c #CB9C4C",
" X c #D29E4E",
".X c #D4A44B",
"XX c #D1AC4C",
"oX c #D8A752",
"OX c #DEAB53",
"+X c #E3B64A",
"@X c #E1AD53",
"#X c #E6B256",
"$X c #C29D71",
"%X c #D1AE6F",
"&X c #C6A57B",
"*X c #305099",
"=X c #435C98",
"-X c #5A6E9B",
";X c #6C8A90",
":X c #748AB2",
">X c #5AAAA9",
",X c #0BBCFA",
"<X c #699DC6",
"1X c #50C0DF",
"2X c #958F91",
"3X c #9EA794",
"4X c #ABAFAF",
"5X c #CAAB87",
"6X c #CDB188",
"7X c #D7B58B",
"8X c #D6B58C",
"9X c #DAB98E",
"0X c #DCBB92",
"qX c #D5BFA3",
"wX c #B1D4B9",
"eX c #D5C398",
"rX c #E5C989",
"tX c #E4C59A",
"yX c #DAD0A6",
"uX c #E7CCA4",
"iX c #F2D7AD",
"pX c #EBD7B1",
"aX c #F7DDB4",
"sX c #FDE7A9",
"dX c #FAE1B7",
"fX c #FFE6BD",
"gX c #FFE8BF",
"hX c #B3BBC3",
"jX c #D2D5D7",
"kX c #FBE5C3",
"lX c #FFEAC2",
"zX c #F8ECD0",
"xX c #EDECEA",
"cX c #F9F8F5",
"vX c #FEFEFD",
/* pixels */
"                                                                                                                                ",
"                                                                                                                                ",
"                                                                                                                                ",
"                                                                                                                                ",
"                                                                                                                                ",
"                                                                                                                                ",
"                                                                                                                                ",
"                                                Y Y Y Y Y e.d.d.d.d.d.d.d.S k z I Y R ( ( *.,.,.                                ",
"                                                P P P P I e.d.d.d.d.d.d.f.C k l J P T u u &.;.;.                                ",
"                                                5.5.5.U 5.q.d.d.d.d.y.9.9.S M M q.u.p.+.+.;.(.).                                ",
"                                          Y Y 4.w.y.y.d.y.y.d.d.d.d.2.l k 2.d.g.P.U.U.U.U.~.oXOXOXOX|.,.<.                      ",
"                                          Y Y U y.d.d.d.d.d.d.d.d.d.9.2 k 2.d.g.P.I.I.I.I.~.OXOXOX@X|.,.<.                      ",
"                                k k b Y P 0.e.e.y.d.d.d.d.d.d.w.S M S 2.2.h.`.`./././././.!.R.R.R.R.Q.|.|.).;.,.                ",
"                                k 2 b Y Y e.f.d.d.d.d.d.d.d.d.w.c 2 S d.d.`.@X@XoXoXOXOXOXR.I.I.I.I.R.OXOX).,.,.                ",
"                                x b m Y Y e.d.d.d.d.d.d.d.d.d.w.c k C d.d.`.~./.^.^.+X X XQ.E.Y.Y.Y.!.^.^.Z.M.M.                ",
"                          k k x I Y Y Y P e.d.d.y.d.d.d.d.d.d.q.c k C d.w.D.I.I.I.I.H.=.,.|.@XOXOXOX~.I.I.I.I.L.n.,.,.          ",
"                          k k z I Y Y Y Y e.d.d.d.d.d.d.d.d.d.w.c 2 C d.t.D.I.I.I.I.G.,.;. XOXOXOXOX~.I.I.I.I.U.n.,.,.          ",
"                      . . n J J I Y Y Y Y 4.5.8.y.d.d.d.d.d.d.w.c k C y.f.`.^.~.U.I.G.,.;.*.$.*..X@X+X^./.T.I.L.n.,.,.          ",
"                      . . n P Y Y Y Y Y Y Y I 4.y.d.d.d.d.d.f.w.c 2 C t.y.`.@X+XU.I.H.,.,.#.i ) .X@XOXOX@XR.I.U.n.,.,.          ",
"                      . . n Y Y Y Y Y Y Y Y Y 4.0.e.q.d.d.9.9.7.C C 3.j.j.C.OX@XH.H.A._._.,.*.:.}.|.|.|.|.C.F.V.n.,.            ",
"                      . . n Y Y Y Y Y Y Y Y Y Y Y P 8.d.y.S 2 c w.y.S.I.I.~.OXoX<.;._.8X8X8X8X6X1.;.,.,.,.$.i (                 ",
"                      . . n Y Y Y Y Y I Y Y Y Y Y Y 8.y.y.C 2 c w.y.j.I.I./.OXoX(.<._.8X8X8X8X5X(.=.,.<.,.$.( (                 ",
"                . . $ 1 1 H Y Y Y P P Y Y Y Y Y Y Y Y 5.5.b 2 z Y P i.I.I./.OXOX%X&X0XaXaXtX7X&X6 & 5                           ",
"                . . $ k k V Y Y Y Y P L Y Y Y Y Y Y Y Y Y b 2 z L L i.I.I.^.OXOX7X9XtXzXlXtX9X[.= . .                           ",
"                . . $ k k V Y Y Y Y Y Y Y Y Y Y Y Y I B V m m M p.l.N.G.G.Q.Q./.rXuX8X'.].]._.1.@ . .                           ",
"                . . $ k k B Y Y Y Y Y Y Y Y Y Y Y P H 2 k J Y 8.XXXX|.<.,.G.I.U.sXlX2X. . w p y O . .                           ",
"                . . # k k B Y Y Y Y I Y I I I Y r.r.K v v U 6.7.`.oX}.;.<.G.U.E.sXkX3X= + e ( y = + @                           ",
"                . . # k k J Y Y P I J z x c x C eXyXyXyXyX6X{.[.$.#.-.oXoX}.m.`.aXgXaXjXjX:X*X=X].[.o.. .                       ",
"                . . # k k V Y P Y Y V k k k k N pXgXgXgXgXtX6X5X) h *.@X@X).<.(.iXkXzXvXvX<X*X=X5X0X>.. .                       ",
"                . . # k k V Y Y B B x > > > > 3 {.6XtXgXfXiXuX0X%.h @.Q.Q.m.*.:.iXfXzXvXvX:X*X=X5X0X>.. .                       ",
"                . . $ k k V P I k k < . . . . + =.;.$XgXgXlXlXpX#.g v.I.I.@.u #.iXgXzXvXvX:X*X=X5X8X>.. .                       ",
"                . . # k k V Y I k 2 < . . . . @ ' =._.dXiXpXzXyX%.j v.I.I.@.h %.iXlXzXvXvX:X*X-X2X5X>.. .                       ",
"                . . $ k k V Y J # o .     . . . % + r (.(.>X,X,X$XoX/.I.I.v.u %.iXfXgXkXlXqX5X3X: & =                           ",
"                . . # k k V Y J o . .     . . . . . 6 ;.(.1X,X,X%XOX/.I.I.v.g ) iXgXfXgXgXtX0X&X& . .                           ",
"                    # $ > x H n o . .     x.x.x.' ' _ r r { { { W.!.G.c.c.n.1.].tXuXuXtXuX>.X.^ %                               ",
"                      . . < k 2 . . .     I.I.I.+X#X=.. . . . - K.U.B.y j ].9X9X9X7X7X7X9Xf . .                                 ",
"                      . . < 2 1 o . .     F.J.F.}.}.' X . . . % H.U.V.t y 1.[.{.{.{.[.[.[.f . .                                 ",
"                          . . .           % @ % & @ % 2 2 $ . % }.+X=.. X 4 v v v c 3 + @                                       ",
"                          . . .           . . . . o # k k $ . & |.+X=.. . < k k 2 k < . .                                       ",
"                                          . . X 6 0 5 B V n x n p.s.~ . . x B B B B F b.x.E . .                                 ",
"                                          . . X u ) ~ P 4.P P Y P P G . . n P P P P g.I.I.E . X                                 ",
"                                          * * = e t ! Z K U P U T U G * # T z.k.H H u.J.J.Q > >                                 ",
"                                      . . ] | } + . ; ( ( R Y U / ( ~ P L wXvXjX= . < U 5.0.a.9.# . .                           ",
"                                      . . ] } } + . - ( W R Y U / h ~ P P wXvXxX7 . , Y Y e.f.q.# . .                           ",
"                                . . s >.>.9 7 7 x n G T S ~ ~ ! - & X.wXwX3X;X;X[ [ 8 , , D f.q.# . . . .                       ",
"                                . . ! 9X0X^ . o L 4.4.P P ~ p y X . O.vXcX:X} |  . .] . . R f.q.O . . . .                       ",
"                                . . s '.'.9 . o m V A 5.5.` ' ~ < $ ..4XhX-X| | ..} [ - & N 2.D % @ @ & & @                     ",
"                                      X . . . o 2 2 C y.y.y.d.w.U 4.n o . [ | } _ ( #.p p - . X 6 a t W ( - . .                 ",
"                                      . . . . o 2 2 S w.d.d.d.y.4.Y n . . ]  .} / ( h ) ( ; . X a a a h ( - . .                 ",
"                                . . - e t w : : + # < M M 9.d.d.q.e.7.m m 4 7 = g h :.0X0Xf . X a a d ( ( - . .                 ",
"                                . . - ( p d a q X . # k 3 9.f.f.f.f.e.4.Y , . X g j 1.zXlXX.. X 6 a d h ( - . .                 ",
"                                . . - W W d q q X . o 1 < M D S R D K n n $ . X w 0 _ [.3Xf @ @ a a e 0 0 - . .                 ",
"                                . . - ( h d a q X . . . . . . . . . . . . . . . . . . . . : a a a a : . .                       ",
"                                . . ; h h a a 6 X . . . . . . . . . . . . . . . . . . . . ; a a a a : . .                       ",
"                                . . & d a a a q . . .                           . . . . . X O @ X + O                           ",
"                                . . & a a a a q X . .                           . . . . . . . . . . .                           ",
"                                . . & a a a a q X . .                           . . . . . . . . . .                             ",
"                                . . & a a a a a X . .                                                                           ",
"                                . . @ a q a q : X . .                                                                           ",
"                                      X X X X X                                                                                 ",
"                                      . . . . .                                                                                 ",
"                                      . . . .                                                                                   ",
"                                                                                                                                ",
"                                                                                                                                "
};
