/* XPM */
static char *edf7ed6f6dcb4c6298579bd04a6fb8135CqLzhTgiAVhxi7W[] = {
/* columns rows colors chars-per-pixel */
"64 64 222 2 ",
"   c None",
".  c #000001",
"X  c #0A0604",
"o  c #020C04",
"O  c #0D0906",
"+  c #0B0B0B",
"@  c #150C09",
"#  c #041405",
"$  c #061A08",
"%  c #151409",
"&  c #1C110B",
"*  c #081016",
"=  c #181614",
"-  c #26160C",
";  c #2A1913",
":  c #331C16",
">  c #082309",
",  c #052A0E",
"<  c #092B09",
"1  c #09350A",
"2  c #0B3D0C",
"3  c #16370E",
"4  c #0F3112",
"5  c #2B2B11",
"6  c #3A2517",
"7  c #121C29",
"8  c #363028",
"9  c #4C2B15",
"0  c #44261D",
"q  c #472919",
"w  c #522E1A",
"e  c #593319",
"r  c #65391C",
"t  c #6D3C1E",
"y  c #713E1E",
"u  c #783D1F",
"i  c #4B2920",
"p  c #4C3426",
"a  c #583421",
"s  c #483E32",
"d  c #693B21",
"f  c #733E20",
"g  c #0D420D",
"h  c #104B0D",
"j  c #0D4A11",
"k  c #0A4817",
"l  c #134C10",
"z  c #1C4A17",
"x  c #0E5516",
"c  c #0B521B",
"v  c #0D5A1B",
"b  c #185916",
"n  c #0F651E",
"m  c #0F681F",
"M  c #1E6317",
"N  c #186A1E",
"B  c #18791D",
"V  c #276B1A",
"C  c #2A781D",
"Z  c #37771B",
"A  c #155721",
"S  c #2F4E2A",
"D  c #0D6421",
"F  c #0E6C23",
"G  c #0D7626",
"H  c #0E7B29",
"J  c #107626",
"K  c #197627",
"L  c #107B29",
"P  c #296B26",
"I  c #2E6F27",
"U  c #6A4E19",
"Y  c #73401F",
"T  c #784B1C",
"R  c #514C29",
"E  c #545423",
"W  c #57493B",
"Q  c #694724",
"!  c #744120",
"~  c #7A4926",
"^  c #6B552E",
"/  c #567034",
"(  c #6C642B",
")  c #1E3449",
"_  c #1B5162",
"`  c #304D6C",
"'  c #325374",
"]  c #335579",
"[  c #514F52",
"{  c #645542",
"}  c #736D4D",
"|  c #81551C",
" . c #926C19",
".. c #824F27",
"X. c #87572B",
"o. c #865732",
"O. c #90682E",
"+. c #946936",
"@. c #997439",
"#. c #A5793D",
"$. c #956944",
"%. c #8B765B",
"&. c #937451",
"*. c #A47B41",
"=. c #A67C43",
"-. c #A57B57",
";. c #8E7D6A",
":. c #2F821F",
">. c #15812A",
",. c #1B8429",
"<. c #1E8131",
"1. c #298825",
"2. c #218A29",
"3. c #328821",
"4. c #379727",
"5. c #3C9A26",
"6. c #319629",
"7. c #3BAE25",
"8. c #3EA229",
"9. c #4E951C",
"0. c #6AAE1B",
"q. c #4D8A27",
"w. c #4C9329",
"e. c #659829",
"r. c #41A429",
"t. c #44A92A",
"y. c #55AB27",
"u. c #77AA34",
"i. c #639D66",
"p. c #8C8C01",
"a. c #B09B0F",
"s. c #B0A807",
"d. c #AD8839",
"f. c #B28F33",
"g. c #B99934",
"h. c #97A82D",
"j. c #CEBD0B",
"k. c #C4A92C",
"l. c #D2B431",
"z. c #85C51A",
"x. c #B2D510",
"c. c #BBDB13",
"v. c #D6CD0A",
"b. c #DAC81B",
"n. c #E4D716",
"m. c #E9DA17",
"M. c #CFE70B",
"N. c #F2ED05",
"B. c #E9F504",
"V. c #FFFE00",
"C. c #FAF608",
"Z. c #F6E915",
"A. c #F8E915",
"S. c #F4E31B",
"D. c #F5F216",
"F. c #E9CE2B",
"G. c #F1DB25",
"H. c #EACA35",
"J. c #E7C23C",
"K. c #E8C538",
"L. c #959755",
"P. c #AC8347",
"I. c #B58946",
"U. c #B38D55",
"Y. c #ADA948",
"T. c #988A72",
"R. c #AC8E6C",
"E. c #B69A78",
"W. c #A4A377",
"Q. c #B9A379",
"!. c #C59947",
"~. c #CB9C4C",
"^. c #D29E4E",
"/. c #D4A44B",
"(. c #D1AC4C",
"). c #D8A752",
"_. c #DEAB53",
"`. c #E3B64A",
"'. c #E1AD53",
"]. c #E6B256",
"[. c #C29D71",
"{. c #D1AE6F",
"}. c #C6A57B",
"|. c #F2DE6A",
" X c #305099",
".X c #435C98",
"XX c #6C8A90",
"oX c #748AB2",
"OX c #5AAAA9",
"+X c #0BBCFA",
"@X c #958F91",
"#X c #9EA794",
"$X c #ABAFAF",
"%X c #CAAB87",
"&X c #CDB188",
"*X c #D7B58B",
"=X c #D6B58C",
"-X c #DAB98E",
";X c #DCBB92",
":X c #95C3BD",
">X c #B1D4B9",
",X c #D5C398",
"<X c #E5C989",
"1X c #E4C59A",
"2X c #DAD0A6",
"3X c #E7CCA4",
"4X c #F2D7AD",
"5X c #EBD7B1",
"6X c #F7DDB4",
"7X c #FDE7A9",
"8X c #FAE1B7",
"9X c #FFE6BD",
"0X c #FFE8BF",
"qX c #B3BBC3",
"wX c #B9C4DA",
"eX c #D2D5D7",
"rX c #FBE5C3",
"tX c #FFEAC2",
"yX c #F8ECD0",
"uX c #EDECEA",
"iX c #F9F8F5",
"pX c #FEFEFD",
/* pixels */
"                                                                                                                                ",
"                                                                                                                                ",
"                                                                                                                                ",
"                                                                                                                                ",
"                                                                                                                                ",
"                                                                                                                                ",
"                                                                                                                                ",
"                                                L H 2.r.r.r.r.r.r.r.3.g g F H K Q y X.*.*.                                      ",
"                                                H H ,.t.r.r.r.r.r.r.:.g 2 m H J Q y X.*.*.                                      ",
"                                                ,.,.1.r.r.r.r.r.4.4.C b b Z 9.9. . .O.I.I.                                      ",
"                                      L L L L L 4.8.r.r.r.r.r.5.z g V r.8.c.V.B.B.V.m._.)._._.).P.*.*.                          ",
"                                      L L L L ,.8.r.r.r.r.r.r.5.l 2 b r.8.c.V.V.V.V.S._._._._./.=.=.*.                          ",
"                            g j J L ,.6.6.6.6.6.8.r.r.r.r.C M M 1.3.q.Y.Y.l.K.K.K.K.F.S.S.S.S.G./.~.!.*.*.                      ",
"                          g g j J L 2.t.r.r.r.r.r.r.r.r.8.M 2 l 5.t.u.].'._.'.)._._.H.V.V.V.V.V.`._.~.*.*.                      ",
"                          x j x J L 2.r.r.r.r.r.r.r.r.r.r.M g l 4.8.u.J.J.J.J.J././.l.A.Z.Z.Z.S.K.J.l.g.g.f.                    ",
"                      g g m L L L L 2.r.r.r.r.r.r.r.r.r.r.M 2 l 5.8.z.V.V.V.V.D.d.=.I.]._._._.`.C.V.V.V.V.k.*.=.                ",
"                      g g n L H L J 2.r.r.r.r.r.r.r.8.r.r.M g h 4.8.z.V.V.V.V.N.d.*.I._.'._.'.`.C.V.V.V.V.k.*.*.                ",
"                . . $ g g D L L L L L ,.,.M b b b b C r.r.M g l 8.8.u.J.J.A.V.N.d.=.+.O.X.!._.'.`.J.G.V.V.k.*.*.                ",
"                . . $ g g n L L L L L L L x 2 g g 2 M r.t.M 2 h 8.8.u._._.S.V.C.d.*.+.y Y d.'.'.'._.K.V.V.k.*.*.                ",
"                . . $ x x F L L L L L L L n x x b V V :.:.V M V 0.z.h._._.K.n.b.U.U.-.$.$.I.~.~.~.~.k.v.j.g.*.*.                ",
"                . . , L L L L L L L L L L J L >.8.7.:.g g :.r.y.B.V.S._.'.I.*.P.*X*X=X=X=XU.P.*.*.*.+.f !                       ",
"                . . , L H L L L L L L L L H L L 5.8.:.g g :.8.y.B.V.S._.'.I.=.P.&X=X*X=X=XU.@.@.*.*.+.! !                       ",
"                . . , L L L L L L L L L L L L L >.,.N g g F ,.6.B.V.S._.'.{.}.%X4X8X3X=X=XW - ;                                 ",
"                . . , L L L L L L L L L L L L L H H n g g m H :.B.V.S._._.{.=X;X8XtX4X-X-Xs . .                                 ",
"                $ $ 4 H L L L L L L L H L F D N m m n x x q.e.e.b.b.b.H.H.|.1X1XR.T.;.R.U.8 . .                                 ",
"          . . o 2 g x H L H H L L L L L L x 2 g g g c >.H L.'.).=.*.k.V.V.7XyX3X= X ; f f - . X                                 ",
"          . . . 2 g x L L L L L G G H G J A z b z z b <.K L.).^.P.#.k.C.N.|.yX3X8 * : d f : @ +                                 ",
"          . . o 2 g x H L L L J x j j j h W.2X2X2X2X,XQ.Q.$...o.^./.~.d.f.<XtXtXeXeX$X]  X@X[.;.= . .                           ",
"          . . . 2 g x H L L L J g g g g g #X0XtX0X0X4X*X;X$.t ~ ~._.~.*.#.1XrXtXpXpXwX X X#X-X}.= . .                           ",
"            . o > > g H L m n x < > > > > %.{.<X8X9X6X3X3X-.y | K.G.k.O.o.-X0XtXiXpXwX X X@X-X}.% . .                           ",
"                . . , L L x g 2 . . . . . ^ d.P.6X0X0X0XtX-.t | N.V.j.y Y %XtXtXpXpXwX X X@X=X%X= . .                           ",
"                . . > J J x 2 1 o . . . . R +.P.3X4X5XeXrX-.!  .N.V.j.Y Y &X0XtXiXpXwX.X.X@XQ.R.% . .                           ",
"                . . $ j j $ o .       . . O @ - *.P.XX+X+X#X(.(.V.V.j.Y Y &X0X0XrXtX5X%X%X[ @ @                                 ",
"                . . $ g g # . .       . . . . O +.P.XX+X+X#X`.`.C.V.j.Y y %XtX0X9X0X4X-X-Xs . .                                 ",
"                    # $ $ #           p.p.( X.( R p S _ _ L.G.F.a.a.f.P.-.=X3X3X3X3XQ.{ W 8                                     ",
"                      . .             V.V.H.]./.@ . o o . s.V.N.X.d $.=X-X*X=X=X=X-X%.. X                                       ",
"                      . .             v.M.k.I.P.= # o . . a.C.S.T e o.Q.Q.Q.Q.E.E.E.} . .                                       ",
"                                      % @ % + % m L k . . @.`.~.- . $ z z z z k + @ X . . . . .                                 ",
"                                      . . . . o F >.c . . +.].^.% . $ g g g g 2 . . . . . . . .                                 ",
"                                                , 1 > . . I e./ + . > m n j g 2 o . * ) ) 6 q q X .                             ",
"                                                . . X o . c H F o . , H L x g 2 . . 7 ' ' W ..t X . .                           ",
"                                                . . = 8 8 D >.F % @ 4 H L v l k > $ 7 ` _ s u r O . .                           ",
"                                          . . . . . [ iXiXi.>.B Q ! E H L L J J G L k . . 9 u r X . .                           ",
"                                          . . . . . [ pXiXOXG B Q ! E H H L L L H H c . . 9 u t X . .                           ",
"                                      . . . . + ) ) ` oXoX:X>X$X6 - 3 L L L H 2.x.x.0.V C 5 - -                                 ",
"                                      . . . . o ` ' ' ` ' wXpXuX= . , >.H H H 1.B.V.M.8.t.3 . .                                 ",
"                                    . . . @ & - ` [ ` ` ` @XqX$X: & 3 P P P I Z x.M.x.8.r.3 . .                                 ",
"                                . . . . . 9 u y y ! ^ ' ' 7 X @ d f ! f ! Q ~ U 9.r.r.r.r.3 . .                                 ",
"                                . . . . . w Y Y ! ! W ` ` 7 . + d Q ! ! ! ! ! Q w.r.r.8.t.3 . .                                 ",
"                                . . & w e &.[.R.~ ! p 7 7 k v D q.q.q.w.q.q.q.w.r.r.4.,.,.4 . . . . . . .                       ",
"                                . . ; Y u R.;X}.~ ~ 9 . . c H >.5.r.r.8.8.t.t.r.r.r.6.H >., . . . . . . .                       ",
"                                . . - r d $.;.&.a w 6 , > N ,.2.8.8.r.r.r.r.r.8.6.6.1.c c $ . . - - - - - @                     ",
"                                . . @ i q @ . . . . , L J 6.r.r.r.r.r.r.r.r.r.8.>.H c . . . . X r ! f f Y - . .                 ",
"                                . . & i i & . X . . , G G 3.r.r.5.5.w.r.8.5.5.5.K L c . X . . X r y ! f ! - . .                 ",
"                                      + @ ; : : X . o $ $ > > > > > > > > > > > $ $ - e e q : 0 w a r y ! - . .                 ",
"                                      . . : i i X . . . . . . . . . . . X . . . . . - ~ ! a i i i i a ~ ! - . .                 ",
"                                      . . - ; ; X . . . . . . . . . . . . . . . . . - d a i i i i i 0 q 9 - . .                 ",
"                                          . . . . . .                           . . @ i i i i i i i ; . .                       ",
"                                          . . . . . .                           . . & 0 i i 0 i 0 0 : . .                       ",
"                                                                                      X X X X O X X X                           ",
"                                                                                      . . . . . . . .                           ",
"                                                                                      . . . . . . .                             ",
"                                                                                                                                ",
"                                                                                                                                "
};
