/* XPM */
static char *d0ba4bf77c474cbe910d1d6c77d08b2dn962ld2mqrPyTitP[] = {
/* columns rows colors chars-per-pixel */
"64 64 221 2 ",
"   c None",
".  c #000001",
"X  c #0A0604",
"o  c #020C04",
"O  c #0D0906",
"+  c #0B0B0B",
"@  c #150C09",
"#  c #041405",
"$  c #061A08",
"%  c #1C110B",
"&  c #081016",
"*  c #181614",
"=  c #26160C",
"-  c #351E0F",
";  c #2A1913",
":  c #331C16",
">  c #082309",
",  c #052A0E",
"<  c #092B09",
"1  c #09350A",
"2  c #0B3D0C",
"3  c #16370E",
"4  c #0F3112",
"5  c #2B2B11",
"6  c #3A2517",
"7  c #121C29",
"8  c #162C2D",
"9  c #363028",
"0  c #44261D",
"q  c #472919",
"w  c #522E1A",
"e  c #4B381D",
"r  c #593319",
"t  c #65391C",
"y  c #6D3C1E",
"u  c #783D1F",
"i  c #4B2920",
"p  c #4C3426",
"a  c #583421",
"s  c #483E32",
"d  c #693B21",
"f  c #733E20",
"g  c #793E20",
"h  c #0D420D",
"j  c #104B0D",
"k  c #0D4A11",
"l  c #0A4817",
"z  c #134C10",
"x  c #1C4A17",
"c  c #0E5516",
"v  c #0B521B",
"b  c #0D5A1B",
"n  c #185916",
"m  c #2C4B18",
"M  c #0F651E",
"N  c #0F681F",
"B  c #1E6317",
"V  c #186A1E",
"C  c #18791D",
"Z  c #276B1A",
"A  c #2A781D",
"S  c #37771B",
"D  c #155721",
"F  c #0D6421",
"G  c #0E6C23",
"H  c #0D7626",
"J  c #0E7B29",
"K  c #107626",
"L  c #197627",
"P  c #107B29",
"I  c #296B26",
"U  c #2E6F27",
"Y  c #524E0F",
"T  c #6A4E19",
"R  c #73401F",
"E  c #506509",
"W  c #6D6A05",
"Q  c #514C29",
"!  c #545423",
"~  c #57493B",
"^  c #694724",
"/  c #744120",
"(  c #7A4926",
")  c #6B552E",
"_  c #567034",
"`  c #6C642B",
"'  c #1B5162",
"]  c #304D6C",
"[  c #325374",
"{  c #514F52",
"}  c #645542",
"|  c #736D4D",
" . c #606969",
".. c #81551C",
"X. c #824F27",
"o. c #87572B",
"O. c #865732",
"+. c #90682E",
"@. c #946936",
"#. c #997439",
"$. c #A5793D",
"%. c #8B765B",
"&. c #937451",
"*. c #A47B41",
"=. c #A67C43",
"-. c #A57B57",
";. c #8E7D6A",
":. c #2F821F",
">. c #37851D",
",. c #15812A",
"<. c #1B8429",
"1. c #298825",
"2. c #218A29",
"3. c #328821",
"4. c #2D9329",
"5. c #379727",
"6. c #3C9A26",
"7. c #319629",
"8. c #3BAE25",
"9. c #3EA229",
"0. c #4E951C",
"q. c #6AAE1B",
"w. c #4D8A27",
"e. c #4C9329",
"r. c #659829",
"t. c #41A429",
"y. c #44A92A",
"u. c #55AB27",
"i. c #77AA34",
"p. c #338D48",
"a. c #7C8D5E",
"s. c #4F9E61",
"d. c #639D66",
"f. c #8C8C01",
"g. c #B09B0F",
"h. c #A48415",
"j. c #B0A807",
"k. c #AD8839",
"l. c #B28F33",
"z. c #B99934",
"x. c #CEBD0B",
"c. c #CBB810",
"v. c #D2AA3C",
"b. c #D2B431",
"n. c #85C51A",
"m. c #B2D510",
"M. c #BBDB13",
"N. c #D6CD0A",
"B. c #DAC81B",
"V. c #E4D716",
"C. c #E9DA17",
"Z. c #CFE70B",
"A. c #E9E703",
"S. c #F2ED05",
"D. c #E9F504",
"F. c #FFFE00",
"G. c #FAF608",
"H. c #F6E915",
"J. c #F8E915",
"K. c #F4E31B",
"L. c #F5F216",
"P. c #E9CE2B",
"I. c #F1DB25",
"U. c #EACA35",
"Y. c #E7C23C",
"T. c #E8C538",
"R. c #959755",
"E. c #AC8347",
"W. c #B58946",
"Q. c #B38D55",
"!. c #988A72",
"~. c #AC8E6C",
"^. c #B69A78",
"/. c #A4A377",
"(. c #C59947",
"). c #CB9C4C",
"_. c #D4A44B",
"`. c #D1AC4C",
"'. c #D8A752",
"]. c #DEAB53",
"[. c #E3B64A",
"{. c #E1AD53",
"}. c #E6B256",
"|. c #C29D71",
" X c #D1AE6F",
".X c #C6A57B",
"XX c #F2DE6A",
"oX c #305099",
"OX c #435C98",
"+X c #5A6E9B",
"@X c #6C8A90",
"#X c #5AAAA9",
"$X c #1AA5D3",
"%X c #0BBCFA",
"&X c #50C0DF",
"*X c #958F91",
"=X c #9EA794",
"-X c #CAAB87",
";X c #D7B58B",
":X c #D6B58C",
">X c #DAB98E",
",X c #DCBB92",
"<X c #D5BFA3",
"1X c #D5C398",
"2X c #E4C59A",
"3X c #E7CCA4",
"4X c #F2D7AD",
"5X c #EBD7B1",
"6X c #F7DDB4",
"7X c #FAE1B7",
"8X c #FFE6BD",
"9X c #FFE8BF",
"0X c #93C9D9",
"qX c #D2D5D7",
"wX c #DDE8DF",
"eX c #FBE5C3",
"rX c #FFEAC2",
"tX c #F8ECD0",
"yX c #EDECEA",
"uX c #F9F8F5",
"iX c #FEFEFD",
/* pixels */
"                                                                                                                                ",
"                                                                                                                                ",
"                                                                                                                                ",
"                                                                                                                                ",
"                                                                                                                                ",
"                                                                                                                                ",
"                                                                                                                                ",
"                                                                                                                                ",
"                                                                                                                                ",
"                                                                                                                                ",
"                                                              P P ,.6.t.t.t.t.B h h K P U R / @.=.*.=.*.*.                      ",
"                                                              P P ,.9.t.t.t.9.B h k K P U / f @.=.=.*.*.=.                      ",
"                                                h h K J 2.t.t.5.7.7.9.t.t.9.t.B h k 3.7.q.x.x.v.).).).)._.].].W.$.*.            ",
"                                              h h k K J 2.t.t.t.t.t.t.t.t.t.t.B h z 5.9.n.F.F.U.].{.{.].].].].W.*.*.            ",
"                                              B n n <.<.4.6.t.t.9.t.t.t.t.t.t.Z 2 z 6.9.n.K.H.P.Y.Y.Y.Y.Y.Y.Y.(.W.W.            ",
"                              h h h h h c J J 7.t.t.t.t.t.t.t.t.t.t.t.t.t.t.t.B 2 z 6.9.i.].].K.F.F.F.F.F.F.F.T.'.'.E.*.=.      ",
"                              h h h h j c ,.P 7.t.t.t.t.t.t.t.t.t.t.t.t.t.t.y.B h j t.y.i.{.].K.F.F.F.F.F.F.F.U.].'.E.$.=.      ",
"                          h h M G G N G L 7.7.t.t.t.t.t.t.t.t.t.t.t.t.y.3.n n A 3.0.Z.Z.Z.J.H.U.Y.Y.Y.Y.Y.Y.Y.I.J.H.A.C.c.f /   ",
"                          h 2 N P P P J 2.y.t.t.t.t.t.t.t.y.t.t.y.9.t.t.:.h h :.y.u.A.F.F.F.F.U.].{.].].].].].K.F.F.F.F.N.f /   ",
"                        1 b c G P P P P <.7.7.9.t.t.t.9.6.:.:.3.3.3.9.y.:.h h :.y.u.D.F.G.K.K.b.).).).).).).).P.K.C.N.x.g.f /   ",
"                    . . , J P P P P P P P P P 7.t.t.9.y.:.h h h h j 6.t.:.h h 1.9.u.D.F.K.].].W.$.=.=.=.*.*.*.(.{._.( / /       ",
"                    . . 4 J P P P P P P P P P 7.t.9.9.9.:.h h j j j 5.t.:.h h :.y.u.D.F.I.].].W.=.=.=.=.E.*.*.(.]._.( f /       ",
"              . . o b F G P J P P P P P P P P ,.<.<.<.<.1.3.5.3.5.>.n n Z 3.5.m.A.Z.Y.Y.`.E.E.|..X-X-X.X&.= *                   ",
"              . . o G P P P P P P J J K P P P P H P J ,.2.y.t.y.y.6.j h B y.9.M.F.G.[.].).$.$.|.:X:X:X>X%.. .                   ",
"              . . o G P P P P P P P P P P P P P P P P J <.7.2.:.:.C n c V 4.4.m.F.G.[.].'.Q.Q.,X3X2X:X>X%.. .                   ",
"              . . o H P P P P P P P P P P P P P P P J P J J ,.c h k H ,.P P J m.F.G.[.}. X;X:X4XrX6X,X>X%.. .                   ",
"              o . $ G P P K K K K H K H K H K K P K K K K K H c h j H J H K K m.G.G.[.[. X,X>X3X5X5X-X:X%.. .                   ",
"          . . l G N P P N l k k k h $ # > k k k k k k k k k k N H H j j m ^ ^ #.l.z.L.L.I.6X6X| ; 9 ( o.a . .                   ",
"          . . v P P P P N h h j h 2 . . # h h h h 2 h h h 2 2 M ,.,.h h m R y +.*.k.G.F.I.rX7X~ . X t g q X X                   ",
"        # $ $ l M M F N l > > > > > . . # > > 2 h h h h I a.a.a./.d.| | ` R R $.(.W.B.c.XXrX9X-X+X .{ { { } ~ 9                 ",
"    . . $ h h h h 2 2 h < . . . . .       . . < h h h h _ tXrX9X9X8X1X>X~.u g k.{.'.E.$.|.9X9XuXiXuX+XoX+X,X:Xs . .             ",
"    . . # 2 2 2 2 2 2 2 < . . . . .       . . < 2 2 2 1 | 6X6X7X9X7X,X>X~.u f (.[.`.$.#.|.eXrXtXiXyXOXoX+X>X:X~ . .             ",
"          o . o . o . o o                     . o . o o 6 Q.E.2X9X7X7X9X.XR / c.F.H.../ -.9X9XuXiXyXOXoX+X<X:Xs . .             ",
"          . . . . . . . .                     . . . . . 6 =.$.2XrX9X9X9X-Xy R x.F.A...y -.9X7XuXiXyXOXoX+X,X>Xs . .             ",
"                                                  . . . * e e Q..X-X0X&X=Xk.$.V.F.S...y -.eX7XrXtXtX*X*X;.} } 9                 ",
"                                                    . . . . . ^ $.R.%X%X&X[.{.K.F.S...y -.rX8X8XrX9X,X,X;.. .                   ",
"                                                    5 5 = = = ) +.| $X$X#X[.[.C.A.N.O.X.Q.6X6X6X6X5X-X^.| X .                   ",
"                                                    A.S.N.`._.e X o . + E G.G.h...o..X-X-X,X,X,X>X.X7 . @                       ",
"                                                    F.F.K.}.{.e . . . . E F.F.h.u ( -X:X,X,X:X:X:X^.% . .                       ",
"                                                    W W Y Q Q 5 < > . . Y U.U.T = - _ | _ _ _ ~ ~ ~                             ",
"                                                    . . . . . , h 2 . . e {.{.e . o 1 h 2 2 2 # . .                             ",
"                                                    . . . . . 1 c l > $ m W.E.e o # k j k k v , $ $                             ",
"                                                          . . l P P K K D X X < 2 h H P J J P K H G o . .                       ",
"                                                          . . v P J P P v . . < k k H P J J P P P H o . .                       ",
"                                                          . . v J H 4 , 1 v v F F F , < l P P K J L j.j.r.. .                   ",
"                                                          . . v J G o . , ,.J J J G o . , P J J J 4.D.F.j.. .                   ",
"                                                        # > > x U I o . 8 s.s.s.s.p.# . 4 I I I I S m.Z.f.. .                   ",
"                                                    . . , J J ! R r O . { iXiXiXiXwX* . = f / / / ^ L ,.v . .                   ",
"                                                    . . , P J ! / T + . { iXiXiXiXqX* . = / R R R ^ L J v . .                   ",
"                                                    . . , P P 3.w._ + . 9 +X@X@X+X+X& . 3 w.w.w.w.w.7.5.Z . .                   ",
"                                                    . . , P J 7.y.3.$ . 7 [ [ [ ] ' + . 3 y.8.t.t.t.y.y.Z . .                   ",
"                                                    . . , v v 3.y.w.# . & { { ] { { + . 3 t.t.t.t.t.S Z x . .                   ",
"                                                          . . I y.5.# . = / R / / t X . 3 y.t.t.t.5.# . . . .                   ",
"                                                          . . Z t.5.O . = ( ( ( ( d X . 3 t.e.t.t.>.# . . . .                   ",
"                                                              $ > $ . . p ^.^.,X2X-X* . o $ > > > $ . . .                       ",
"                                                              . X . . . ~ ,X>X6XrX5X; . . . . . . . . . .                       ",
"                                                                . . . . 5 %.| ;.!.;.* . X % @ ; - = X . .                       ",
"                                                                    . . . . . . . X . . % i i d / y X . .                       ",
"                                                                    . . . . . . . . X X = i i d f t X . .                       ",
"                                                                          . . . . X : : w t d f / t O . .                       ",
"                                                                          . . . . X 0 i a u R u / d X . .                       ",
"                                                                          . . . . . = ; ; q 6 6 q - X . .                       ",
"                                                                              . . . . . . . . . . . . . .                       ",
"                                                                              . . . . . . . . . . . . . .                       "
};
