/* XPM */
static char *_d313629dcc445e8d8f868427710d3fbRDRPVXZn6luglPh0[] = {
/* columns rows colors chars-per-pixel */
"64 64 160 2 ",
"   c None",
".  c #000000",
"X  c #060B02",
"o  c #080F03",
"O  c #0A1304",
"+  c #0F1D05",
"@  c #101E05",
"#  c #2F1D12",
"$  c #321E13",
"%  c #122205",
"&  c #193107",
"*  c #1C3509",
"=  c #1E3A0A",
"-  c #2A3E0E",
";  c #213A0C",
":  c #2F2012",
">  c #342214",
",  c #3C2616",
"<  c #332913",
"1  c #3B2916",
"2  c #3D2818",
"3  c #2E3510",
"4  c #343213",
"5  c #313E11",
"6  c #3D3A17",
"7  c #452617",
"8  c #482617",
"9  c #432A17",
"0  c #402519",
"q  c #432B1A",
"w  c #4B2D19",
"e  c #413517",
"r  c #453118",
"t  c #4C311C",
"y  c #413818",
"u  c #4C3C1C",
"i  c #53331C",
"p  c #5A371E",
"a  c #573B1F",
"s  c #5A381F",
"d  c #5A3723",
"f  c #553823",
"g  c #5B3A22",
"h  c #633D22",
"j  c #254A0B",
"k  c #2C4E0E",
"l  c #2B560D",
"z  c #2D5A0E",
"x  c #2E4210",
"c  c #364711",
"v  c #3C4617",
"b  c #3C4917",
"n  c #3E4A18",
"m  c #2E5611",
"M  c #305A12",
"N  c #3D5E17",
"B  c #404718",
"V  c #4A411A",
"C  c #414E18",
"Z  c #4A4F19",
"A  c #52451C",
"S  c #54491D",
"D  c #594C1E",
"F  c #42571A",
"G  c #4C501A",
"H  c #4A5D1C",
"J  c #53551E",
"K  c #436519",
"L  c #4C641D",
"P  c #57671F",
"I  c #536E1F",
"U  c #596B1F",
"Y  c #407718",
"T  c #4D771E",
"R  c #427A18",
"E  c #487E1B",
"W  c #56711F",
"Q  c #594420",
"!  c #5E5124",
"~  c #664026",
"^  c #6B4225",
"/  c #6C4F26",
"(  c #694328",
")  c #6C482D",
"_  c #714627",
"`  c #734827",
"'  c #734728",
"]  c #764A2B",
"[  c #794C2C",
"{  c #6E5027",
"}  c #774F32",
"|  c #7D5232",
" . c #556A21",
".. c #5C6D20",
"X. c #5A7320",
"o. c #776F30",
"O. c #786F31",
"+. c #7E7534",
"@. c #825433",
"#. c #8D5D3B",
"$. c #905F3C",
"%. c #8F603D",
"&. c #94633E",
"*. c #98643F",
"=. c #96763F",
"-. c #9C6642",
";. c #9D6943",
":. c #987440",
">. c #A16A45",
",. c #47851A",
"<. c #4C811C",
"1. c #4B8C1C",
"2. c #50831D",
"3. c #4D911D",
"4. c #51961E",
"5. c #549B1F",
"6. c #598622",
"7. c #538920",
"8. c #569620",
"9. c #5D9423",
"0. c #569C22",
"q. c #5E9824",
"w. c #5CAC23",
"e. c #64A127",
"r. c #63AA2B",
"t. c #65BA26",
"y. c #6CBE29",
"u. c #68C027",
"i. c #6EC029",
"p. c #6EC42A",
"a. c #6FCD2A",
"s. c #7AC82F",
"d. c #71C22B",
"f. c #75D62C",
"g. c #75D72C",
"h. c #74D62C",
"j. c #74DA2B",
"k. c #75D82C",
"l. c #76DB2D",
"z. c #77DC2D",
"x. c #77DB2D",
"c. c #78DD2D",
"v. c #78DC2D",
"b. c #79DF2E",
"n. c #78DE2D",
"m. c #7ECE30",
"M. c #7ADC30",
"N. c #79E32E",
"B. c #7CE52F",
"V. c #79E22E",
"C. c #7CE231",
"Z. c #848D36",
"A. c #8F913B",
"S. c #82DE3B",
"D. c #85E43C",
"F. c #8EEF45",
"G. c #8EF243",
"H. c #94FA47",
"J. c #95FC48",
"K. c #9BFF4C",
/* pixels */
"                          . . . . . . . . . . . . . . . . . . . . . . . . . . . . . . . . . . . .                               ",
"                          . . . . . . . . . . . . . . . . . . . . . . . . . . . . . . . . . . . .                               ",
"                          . . . . . . . . . . . . . . . . . . . . . . . . . . . . . . . . . . . .                               ",
"                          + @ @ @ @ @ + @ @ @ @ @ @ @ @ @ @ @ @ @ O O O O O O O O O O O O O O O O                               ",
"                  . . . . E u.t.t.t.t.t.t.t.t.t.t.t.t.t.t.t.t.t.t.3.Y Y R R R R R R R R Y R R R R & . . .                       ",
"                  . . . . 1.B.z.z.M.z.z.N.M.l.M.M.M.z.z.z.z.b.b.z.w.1.3.3.3.3.1.1.4.3.3.3.3.3.3.1.* . . .                       ",
"                  . . . . ,.N.j.j.j.j.j.j.j.M.l.z.z.z.z.z.z.j.k.z.w.1.1.3.3.1.1.1.1.1.4.1.1.3.3.1.* . . .                       ",
"                  + @ @ @ 7.m.m.s.s.s.s.s.p.i.u.y.y.i.y.i.i.p.y.i.8.E E E <.2.2.2.E E E E E E E E ; o O O                       ",
"          . . . . R u.t.t.Z.:.=.=.=.=.:.=.! 4 6 6 6 y y 6 u A A A y 4 6 4 D ` ` { u < 4 < 4 4 4 4 N R Y Y * . . .               ",
"          . . . . 1.B.b.b.A.-.-.-.-.-.-.-.d # $ $ $ > $ $ 7 w w 8 > $ $ $ s ' _ _ w $ > > $ $ $ > K 4.3.3.* . . .               ",
"          . . . . 1.M.k.s.A.>.-.;.;.;.;.-.g $ $ > > > > > 9 w t w 2 > > > s ' _ ' q # > > > > > > K 3.1.1.* . . .               ",
"          . . . . 1.M.k.h.Z.#.#.#.#.&.#.#.g , 2 1 > > > > 9 w w 8 2 , > > s ' _ _ f 2 q q 9 > 1 2 K 3.1.<.* . . .               ",
"          . . . . ,.b.k.h. .2 q 9 t p p p h h ^ ^ p 9 w 8 2 > > > q w w w h ' _ ' @.#.#.#.] h ^ ( X.1.1.1.* . . .               ",
"          . . . . ,.b.k.h.L # $ $ , w w w h ] ' ' p w w w 2 > > > q i w w h _ _ _ #.>.;.;.@._ ` ) X.1.1.1.* . . .               ",
"          . . . . 1.b.h.h.L $ $ > 9 w w w h ' _ _ p w w w 2 $ $ $ 9 w t w h _ _ ^ #.-.;.;.@._ _ ) X.3.1.1.* . . .               ",
"          . . . . 1.b.h.h. .$ > , w i w i h ] ] ' p w w 8 6 6 6 6 r w 8 w h ] ] ] $.-.-.-.| ^ ^ ^ W ,.,.<.* . . .               ",
"          . . . . 1.b.k.h...8 w w h _ h _ @.*.*.-.f > > < 6.p.u.y.H $ > > } &.-.&.-.-.-.-.( w i i c z z z % . . .               ",
"          . . . . 1.b.h.h...w w w h ' _ ' #.;.-.;.g : > > q.N.N.v.L $ > < } ;.;.-.-.-.-.-.( w w w c l z l + . . .               ",
"          . . . . ,.V.z.h...8 w w h _ _ _ #.>.>.;.g # $ > 9.M.k.h.L $ $ > } >.;.;.-.;.;.;.( w w t c l l l @ . . .               ",
"          . . . . ,.h.a.a. .8 w w h _ _ _ @.#.#.#.f : > > q.l.k.f.L $ > > ) %.#.%.%.&.&.&.~ w 8 w c l l l @ . . .               ",
"          . . . . M 0.4.4.F > > < d ' ' _ i 2 q q , > > > q.M.k.f.L $ > > 2 q q q ~ [ ' ] t > > < x l l l @ . . .               ",
"          . . . . M 3.1.<.B $ > > d ' ' _ w : > $ $ > > > q.j.j.f.L $ > > > > # : a ` _ ` q > < > x l l l @ . . .               ",
"          . . . . M 4.1.1.n $ > > g ' ' ' w # $ $ $ $ $ # 9.j.j.h.L $ $ > $ $ > > g ' ` _ w $ < > x l l l @ . . .               ",
"          . . . . M 3.1.,.n > > > p ^ ^ ~ u 6 6 6 6 6 6 6 e.C.M.M. .< 1 4 1 4 4 1 f ^ ^ ^ w , > > x z l l + . . .               ",
"          . . . . M 8.,.1.G 8 w w 9 > 9 1 6.p.i.i.i.y.i.u.F.G.H.H.r.R E E E E E E B , , , q w w w c l l l @ . . .               ",
"          . . . . M 3.1.1.G w w w , > > > q.V.z.z.z.z.j.l.G.K.K.K.t.1.3.1.3.3.1.1.b $ $ > 9 w w w c l l l @ . . .               ",
"          . . . . M 3.1.1.G 8 8 w > > > > q.V.j.z.j.z.z.M.G.K.K.K.y.,.1.1.3.3.1.1.b $ < > 9 w w w c l l l @ . . .               ",
"          . . . . M 3.1.,.J d d p q > > > 6.p.y.i.i.y.i.d.M.F.F.F.r.T E ,.E E E E B > > > 9 w w w c l l l @ . . .               ",
"          . . . . M 3.3.,.+.$.$.&.h 9 w w e 6 6 6 6 6 6 6 T w.8.0.F < 4 < 4 4 1 < q w w w , > > > x l l l @ . . .               ",
"          . . . . M 3.1.,.+.>.;.;.( w t w , $ $ $ # $ $ $ K 1.1.<.v $ > > $ $ > $ 9 t w w , < > > x l l l + . . .               ",
"          . . . . M 3.1.1.+.;.-.-.( q w w , # : : : > > > K 3.1.1.n $ > > > > > > q w w w , > > > x l l l + . . .               ",
"          . . . . M 3.3.1.+.;.;.-.( w w w w q q q , > > > K 3.,.1.n $ > > 2 q 2 q w i w i 9 > > > x l l l % . . .               ",
"          . . . . z 3.1.3.o.>.-.-.~ w w w [ %.#.%.f : > > K 3.1.1.v $ > > ) -.#.#.[ ^ ^ ^ w : > > x l l l @ . . .               ",
"          . . . . z 3.1.1.%.-.-.-.~ w w t @.>.;.-.g : > > K 3.1.1.n $ > > } ;.-.>.@._ _ ` t > > > x l l l @ . . .               ",
"          . . . . M 4.1.1.+.>.>.-.~ w w w | ;.;.-.g > > < K 3.1.1.v $ > > } ;.;.*.@._ _ ` t : > > x l l l @ . . .               ",
"          . . . . z 1.,.,.o.$.*.&.( w t w | ;.-.-.Q : > > F 1.,.,.v $ > > ) -.-.&.| ^ ^ ^ w > > > x l l l @ . . .               ",
"          . . . . = M z m D [ ] ] s w w t | ;.-.-.g : > > k z z z 4 $ > > g [ ] ' h i w i 9 > > > x l l l % . . .               ",
"          . . . . * l l l D ' _ ) p w w t | ;.;.-.f : > > x l l l 4 > > > f _ ' _ p w w w > > > > x l l l % . . .               ",
"          . . . . = z l l D ' ' ` s w w q | -.-.;.g : , > x l l l 3 > > > g ' ' _ p w t w , > > > x l l l % . . .               ",
"          . . . . * z l l D h ^ ^ p w w r } -.-.-.g : : > x l l l 4 > > > g ' ^ _ p w w w , > > > x l l l + . . .               ",
"          . . . . = l l l 4 , , 1 w w w w ^ [ ] ] t > > > x l l l 3 > < > s ' _ _ s w w t , > > > x l l l @ . . .               ",
"          . . . . * z l l 3 $ > > 9 w w w h _ _ ^ w > > > x l l l 3 $ > > s ' ` _ s w w w 9 > > > x l l l @ . . .               ",
"          . . . . * z l z 3 $ > > 9 w w w h ` _ ` t : > > x l l l 3 $ , > s ' ' _ p w w w > > > > x l z l % . . .               ",
"          . . . . * j j j 3 < < < 1 w w w h _ ^ ^ w > > > x l l l 4 $ > > p ^ ^ ^ p w w w 1 < > < - j j j + . . .               ",
"                  X X X X ; k k k 4 > > > w w w i , > > > x l l l 3 > > > w i i i 9 > > > c l k k % X X X                       ",
"                  . . . . * z l z 3 > > > 9 w w w , > > > x l l l 3 $ > > 9 w w w > > > > x l l l % . . .                       ",
"                  . . . . * z l z 4 $ > > 9 i w w , > $ > x z l l 3 > > > 9 w w w 9 > > $ x z l l % . . .                       ",
"                  . . . . & j j j 3 < < < 9 w w w , > , < 5 k k k 4 > , > 9 w w w 1 < < < - j j j + . . .                       ",
"                          X X X X * l k k 4 > > > 9 w w w 1 < < < w w w 8 , > > > x k k k % X X X                               ",
"                          . . . . * m l l 3 $ $ > w w w w , : > > 9 w w t , < > > x l l l @ . . .                               ",
"                          . . . . = z l z 3 $ , > 9 w w w 9 > > > 9 w w w , > $ > c l z z % . . .                               ",
"                          . . . . & j j j 3 < < < 9 w w w > > > > 9 w w w 1 < < < - j j j + . . .                               ",
"                                  X X X X ; l k k 4 , > , > > > > > > < > c k k k % X X X                                       ",
"                                  . . . . * m l l 3 $ > > > > > > > > $ > x l l l + . . .                                       ",
"                                  . . . . * z z z 3 $ > > $ > > > $ > > > x z l l % . . .                                       ",
"                                  . . . . & j j j 3 < < < < < < < < < < < - j j j + . . .                                       ",
"                                          X X X . ; k k k k k k k k k k k % X X X                                               ",
"                                          . . . . = z l l l l l l l l l l @ . . .                                               ",
"                                          . . . . = z l l z l z l l l z l % . . .                                               ",
"                                          . . . . & j j j j j j j j j j j @ . . .                                               ",
"                                                  X X X X X X X X X X X X                                                       ",
"                                                  . . . . . . . . . . . .                                                       ",
"                                                  . . . . . . . . . . . .                                                       ",
"                                                  . . . . . . . . . . . .                                                       "
};
