/* XPM */
static char *c17402aba1a54ecce245dca966cf112a1EqwnUEBV7IMrtFt[] = {
/* columns rows colors chars-per-pixel */
"48 48 152 2 ",
"   c None",
".  c #531A20",
"X  c #4D2122",
"o  c #412929",
"O  c #4D2F2D",
"+  c #512122",
"@  c #592324",
"#  c #6C2425",
"$  c #6E2C2E",
"%  c #632324",
"&  c #722D2F",
"*  c #782A28",
"=  c #74332D",
"-  c #7B3232",
";  c #7F3A30",
":  c #444C36",
">  c #0F3E43",
",  c #352D44",
"<  c #2A3D44",
"1  c #422A43",
"2  c #412542",
"3  c #403144",
"4  c #433F48",
"5  c #164344",
"6  c #194644",
"7  c #1B4B44",
"8  c #1C5645",
"9  c #3B4C48",
"0  c #225042",
"q  c #3F5043",
"w  c #325149",
"e  c #3E5D4B",
"r  c #1F6644",
"t  c #22664B",
"y  c #3A6647",
"u  c #356649",
"i  c #27784D",
"p  c #29794D",
"a  c #3F7044",
"s  c #37754D",
"d  c #336E52",
"f  c #297D51",
"g  c #357653",
"h  c #434148",
"j  c #477348",
"k  c #467345",
"l  c #466952",
"z  c #466251",
"x  c #477256",
"c  c #487C59",
"v  c #972D2E",
"b  c #9B2929",
"n  c #873A35",
"m  c #9E3B36",
"M  c #903E38",
"N  c #9F3F38",
"B  c #A22929",
"V  c #AA2D2E",
"C  c #B52B2B",
"Z  c #A3332F",
"A  c #AC293E",
"S  c #AB273E",
"D  c #B0273B",
"F  c #B42B3A",
"G  c #BA2B39",
"H  c #BA343C",
"J  c #B3363F",
"K  c #CD2D2E",
"L  c #D12D2E",
"P  c #D6302F",
"I  c #C52C33",
"U  c #CA2C31",
"Y  c #C02F38",
"T  c #C03330",
"R  c #C5383E",
"E  c #D63432",
"W  c #D63A34",
"Q  c #DA3C36",
"!  c #D83F38",
"~  c #AC4336",
"^  c #AE443A",
"/  c #A84D3F",
"(  c #A3443B",
")  c #B8483C",
"_  c #B54239",
"`  c #DE433A",
"'  c #DF493D",
"]  c #E34B3E",
"[  c #A82840",
"{  c #B83341",
"}  c #BB3944",
"|  c #C43C42",
" . c #BF5945",
".. c #BE6549",
"X. c #C14343",
"o. c #CE5141",
"O. c #C35C46",
"+. c #C85F48",
"@. c #D15141",
"#. c #DF5543",
"$. c #E24F40",
"%. c #E55543",
"&. c #E85241",
"*. c #E65945",
"=. c #EA5B46",
"-. c #CC6549",
";. c #C16347",
":. c #DA654B",
">. c #C47350",
",. c #EE644A",
"<. c #E1694D",
"1. c #F36B4E",
"2. c #EF6F50",
"3. c #F36F50",
"4. c #F37754",
"5. c #FC7C57",
"6. c #F27854",
"7. c #428B38",
"8. c #7C9F2C",
"9. c #6F9033",
"0. c #48A13C",
"q. c #47BE3F",
"w. c #51B83F",
"e. c #70A62C",
"r. c #64D938",
"t. c #268145",
"y. c #3D8640",
"u. c #2B9846",
"i. c #3E9A47",
"p. c #3D9E55",
"a. c #329954",
"s. c #37A947",
"d. c #35A246",
"f. c #498F5E",
"g. c #44875B",
"h. c #4A915E",
"j. c #69AF53",
"k. c #77B251",
"l. c #4C9660",
"z. c #38CF49",
"x. c #36CA49",
"c. c #3CDC47",
"v. c #92BF24",
"b. c #A2DF1E",
"n. c #88C524",
"m. c #89D02B",
"M. c #9FC63F",
"N. c #83A94D",
"B. c #9ED341",
"V. c #9DC151",
"C. c #A4D355",
"Z. c #C6EB54",
/* pixels */
"                                                                                                ",
"                                                                                                ",
"                                                                                                ",
"                                                                                                ",
"                                                                                                ",
"                                                                                                ",
"                                                                                                ",
"                                                                                                ",
"                                                                                                ",
"                                                                                                ",
"                                                                                                ",
"                                                                                                ",
"                                                                                                ",
"                                                                                                ",
"                                                                                                ",
"                                                                                                ",
"                                                  $ $ $                                         ",
"                                                n / ( m                                         ",
"                                              $ M 5.1.#.- &                                     ",
"                                            & +.<.,.*.*.@.^ $                                   ",
"                                          & & :.1.$.%.*.=.) &                                   ",
"                                        $ $ & o.&.L ' *.=.) $ $ $                               ",
"                                      -  .O.O.X.R L W ! | H V _ ^ &                             ",
"                                    - n 4.5.5.} D U K K S G E &.@.-                             ",
"                                  $  .6.5.4.=.E I A [ D U ! *.*.%.#.N $                         ",
"                                  $ O.5.5.,.` E I A F G L ` *.*.*.] m $                         ",
"                                  $  .5.5.*.L L U [ I L L Q *.*.&.L v $                         ",
"                                    = ; 6.1.] H F I U K F Y E W T # #                           ",
"                                      @ -.-...J G W W W { G C C B X                             ",
"                                        . : a.~ E *.*.*.=.^ X + +                               ",
"                                      7 7.y.s ;.*.*.' Q ` Z X +                                 ",
"                                    7 t z.s.u >.1.%.Q K K b X                                   ",
"                                  5 u.x.a.f 6 O * P P K % @                                     ",
"                                  5 0.r.f t 6 o # b b b @                                       ",
"                                  5 e.b.0 5       X X X                                         ",
"                                  , 8.b.0 5                                                     ",
"                                  1 9.m.j y                                                     ",
"                                  1 d p.Z.N.>                                                   ",
"                                    9 z j.k.N.y                                                 ",
"                                    O , f j.Z.x 0                                               ",
"                                        3 e p.C.V.7                                             ",
"                                        1 w i B.B.<                                             ",
"                                            6 n.v.2                                             ",
"                                  f.l.f.l.d 6 q.w.2 z h.h.h.h.                                  ",
"                                  l.f.f.y.g r d.i.h x h.h.h.h.                                  ",
"                              h.h.f.f.f.6 t.c.q 4 f.h.h.h.h.h.h.h.                              ",
"                                l.f.f.f.g g k l x h.h.h.h.h.h.h.                                ",
"                                  h.h.h.l.l 2 c h.h.h.h.h.h.h.                                  "
};
