/* XPM */
static char *b007d2abbc484dc792a7a79c15b8275bPP8rDRvNJrjxqSNf[] = {
/* columns rows colors chars-per-pixel */
"48 48 180 2 ",
"   c None",
".  c #123F3D",
"X  c #3E273E",
"o  c #3F293E",
"O  c #13413F",
"+  c #3E2B41",
"@  c #412C43",
"#  c #46344A",
"$  c #473753",
"%  c #164342",
"&  c #194644",
"*  c #1B4946",
"=  c #1F5149",
"-  c #21544B",
";  c #275D4F",
":  c #2E5F5B",
">  c #265A53",
",  c #2E684F",
"<  c #2D655B",
"1  c #346C58",
"2  c #377554",
"3  c #387755",
"4  c #2E6763",
"5  c #346965",
"6  c #3E6869",
"7  c #3A7A6E",
"8  c #3F7D78",
"9  c #424455",
"0  c #4F4666",
"q  c #514A6B",
"w  c #525664",
"e  c #58577B",
"r  c #5B5B7C",
"t  c #555174",
"y  c #4B5365",
"u  c #41726D",
"i  c #427572",
"p  c #497B76",
"a  c #4D7F79",
"s  c #426469",
"d  c #62626F",
"f  c #666875",
"g  c #666975",
"h  c #6D747E",
"j  c #43865A",
"k  c #478C5C",
"l  c #4A925E",
"z  c #42817C",
"x  c #428673",
"c  c #4B947C",
"v  c #397C86",
"b  c #5A5C83",
"n  c #5E6187",
"m  c #5E6189",
"M  c #467F8B",
"N  c #5F6690",
"B  c #6F7680",
"V  c #656C96",
"C  c #65709D",
"Z  c #656A82",
"A  c #6B7BAB",
"S  c #6975A1",
"D  c #4B898B",
"F  c #538580",
"G  c #588A89",
"H  c #4C9088",
"J  c #579297",
"K  c #639E96",
"L  c #699D96",
"P  c #639790",
"I  c #71999A",
"U  c #68A89A",
"Y  c #67B69B",
"T  c #5286A9",
"R  c #6293AC",
"E  c #6F84B7",
"W  c #6CA5A0",
"Q  c #6EBDA1",
"!  c #7DC9AF",
"~  c #0F9EF0",
"^  c #159FF4",
"/  c #369EF3",
"(  c #1AA2F5",
")  c #24A4ED",
"_  c #2EB3ED",
"`  c #39AFF4",
"'  c #25A7F3",
"]  c #5E8FC2",
"[  c #6E99C6",
"{  c #7294CC",
"}  c #7B9EDE",
"|  c #7698D3",
" . c #7CA2DF",
".. c #76A3CB",
"X. c #4C9FF5",
"o. c #7F9FF8",
"O. c #76A1EA",
"+. c #79A2FA",
"@. c #7BBBF6",
"#. c #49C4E8",
"$. c #75C8F2",
"%. c #819AA1",
"&. c #81B6AD",
"*. c #8EAFB5",
"=. c #89B8B2",
"-. c #98B7B6",
";. c #8CA3AB",
":. c #86C6B8",
">. c #9CC0BD",
",. c #8CD4BE",
"<. c #ADC4BC",
"1. c #99B5DD",
"2. c #82A9E4",
"3. c #82A1F5",
"4. c #82A2FA",
"5. c #86ACFA",
"6. c #89B5FE",
"7. c #8DBBFF",
"8. c #89BBF7",
"9. c #94BCF6",
"0. c #9EBFF1",
"q. c #91B7EA",
"w. c #A3BBE3",
"e. c #95CDC3",
"r. c #99D1C6",
"t. c #9BDBCB",
"y. c #97DDC7",
"u. c #A2DACF",
"i. c #A4DDD2",
"p. c #AEDED6",
"a. c #A9D7D7",
"s. c #8DEFDA",
"d. c #87E9DD",
"f. c #97EDDE",
"g. c #92F1D9",
"h. c #AAE6D8",
"j. c #B1EDDF",
"k. c #B0E0D8",
"l. c #A1FBD6",
"z. c #9BC0EA",
"x. c #9FDCEF",
"c. c #87C8F6",
"v. c #95C4FF",
"b. c #98C4FF",
"n. c #98C2F5",
"m. c #8CD0F2",
"M. c #9BD4F5",
"N. c #AAC3E9",
"B. c #B6CBEA",
"V. c #A6C6F3",
"C. c #ACCBF7",
"Z. c #B1CDF5",
"A. c #A8DCF4",
"S. c #B3D1FB",
"D. c #97EAE0",
"F. c #ABE3E4",
"G. c #ACE2EE",
"H. c #B4E7EE",
"J. c #B2EBE8",
"K. c #BDF7EA",
"L. c #BCF7E9",
"P. c #BBF5F1",
"I. c #DFE7DA",
"U. c #C4DBF9",
"Y. c #C8DEF9",
"T. c #C1FCED",
"R. c #D7FDE4",
"E. c #D2E4F6",
"W. c #D9EBF3",
"Q. c #C4FFF2",
"!. c #F5FBEC",
"~. c #FFFEEF",
"^. c #F0F6EC",
"/. c #E3EDF4",
"(. c #E4EFF8",
"). c #ECF3F3",
"_. c #E6F0F6",
"`. c #F1F6F2",
"'. c #F5F9F2",
"]. c #FDFEF1",
/* pixels */
"                                                                                                ",
"                                                                                                ",
"                                                                                                ",
"                                                                                                ",
"                                                                                                ",
"                                                                                                ",
"                                                                                                ",
"                                                                                                ",
"                                                                                                ",
"                                                                                                ",
"                                                                                                ",
"                                                                                                ",
"                                          o @                                                   ",
"                                          0 0                                                   ",
"                                        @ 2.| o                                                 ",
"                              @ @ @ o b A B.B.A e o @ @ @                                       ",
"                              # # # @ S b.`.).v.V @ # # #                                       ",
"                          X h p.p.a.2.B.'.].].'.B.2.a.p.k.f X                                   ",
"                          X h Q.H.A.7.S./.'.'./.C.6.A.H.T.f X                                   ",
"                          X B Q.9.4.4.5.7.)./.7.5.4.o.9.T.f +                                   ",
"                          o w W } o./ 8./.'.'.W.@./ R R C.r X                                   ",
"                          $ y F { O.) c.'.!.!.'.$.( D R v.m $                                   ",
"                      X # O.B.!.L M !.m.( s.d.^ M.'.9.C.].V.} @                                 ",
"                      r V Z.E.].r.-.~.G.#.g.s.#.H.].S.E.].E.N.V e                               ",
"                    o E b.'.].].].].~.R.l.l.l.l.R.].].].].].'.v.A X                             ",
"                      q e z.Y.].S.S.].x._ s.d._ G.].C.U.].U.0.t q                               ",
"                        # | w.).z.q.W.m.` f.f.` M.W.7.V.I.1.{ @                                 ",
"                          @ m 7.J v ~ m.].].].].$.^ +.[ i 9 @                                   ",
"                          @ Z A...] X.8.Y.'.'.Y.8.X.+.2.=.w +                                   ",
"                          @ B Q.9.4.o.6.7.)./.7.5.3.3.0.Q.g +                                   ",
"                          X B Q.L.F.M -.'.].].'.*.M F.P.Q.f +                                   ",
"                          X g e.-.*.6 ;._.'.'.(.%.s -.e.-.d +                                   ",
"                              @ @ @ X C v.)._.v.N + + @ @                                       ",
"                                      t m w.1.m q                                               ",
"                                        @ | { +                                                 ",
"                                        * F 8 &                                                 ",
"                                        * U K &                                                 ",
"                              &         * i.r.&         &                                       ",
"                          O a e.7 . % & * i.r.& & & . p e.i %                                   ",
"                          % F Q.G : > = * u.r.& = > : P Q.p %                                   ",
"                          % c Q.K.h.Y 7 & u.r.% x Y J.K.Q.p %                                   ",
"                            u I i.L.y.U 5 h.t.< U y.L.u.L 6                                     ",
"                              % :.K.P.:.H h.i.H e.T.T.&.O                                       ",
"                              j 1 5 K :.j.! ! J.,.! 5 1 j                                       ",
"                            l l , ; 7 K e.Y Y ,.U c , , l                                       ",
"                          l l l l j & % % z i & O O k l l l l                                   ",
"                            l l l k 3 2 2 < < 2 2 2 k l l l                                     ",
"                              l l l l l l = - l l l l l l                                       "
};
