/* XPM */
static char *f09dcb8097714566b635a56f4795cdd2BdLAawplehkwKqQY[] = {
/* columns rows colors chars-per-pixel */
"48 48 170 2 ",
"   c None",
".  c #5F3E3A",
"X  c #6D282E",
"o  c #6E2B2F",
"O  c #712D2F",
"+  c #722E2F",
"@  c #732F2F",
"#  c #74302E",
"$  c #6D2830",
"%  c #6E2A30",
"&  c #732F31",
"*  c #723032",
"=  c #5B403C",
"-  c #5B413C",
";  c #5C413C",
":  c #5A643F",
">  c #50793B",
",  c #626D3B",
"<  c #627D3C",
"1  c #3F2740",
"2  c #3F2741",
"3  c #3E2644",
"4  c #3B2944",
"5  c #3B2845",
"6  c #3B2A45",
"7  c #3F2A44",
"8  c #3F2F44",
"9  c #293D44",
"0  c #412742",
"q  c #412842",
"w  c #402943",
"e  c #412A42",
"r  c #402B43",
"t  c #412C43",
"y  c #412D43",
"u  c #412E43",
"i  c #412E44",
"p  c #422E44",
"a  c #433D48",
"s  c #174143",
"d  c #174243",
"f  c #174343",
"g  c #134245",
"h  c #144145",
"j  c #174444",
"k  c #1A4043",
"l  c #184544",
"z  c #184644",
"x  c #184744",
"c  c #1D4544",
"v  c #174945",
"b  c #184845",
"n  c #194A45",
"m  c #1F5E49",
"M  c #3D554B",
"N  c #25724E",
"B  c #27774F",
"V  c #35714E",
"C  c #207A55",
"Z  c #327E50",
"A  c #327F51",
"S  c #466853",
"D  c #476E54",
"F  c #476E55",
"G  c #B5741E",
"H  c #85422A",
"J  c #8D4228",
"K  c #8A472A",
"L  c #A05E24",
"P  c #93622A",
"I  c #95692A",
"U  c #99722C",
"Y  c #AB6A22",
"T  c #B07021",
"R  c #B57B3A",
"E  c #4E8A3D",
"W  c #258957",
"Q  c #268857",
"!  c #2C8B52",
"~  c #308052",
"^  c #328E57",
"/  c #348B5A",
"(  c #269A5E",
")  c #309B58",
"_  c #26A261",
"`  c #26A362",
"'  c #37A567",
"]  c #2DB363",
"[  c #2FB464",
"{  c #2BBE6A",
"}  c #2ABF6A",
"|  c #2DBD6A",
" . c #31BB6A",
".. c #32BA6A",
"X. c #4A925E",
"o. c #4A945F",
"O. c #4A955F",
"+. c #29C06A",
"@. c #2AC06B",
"#. c #2ECD6E",
"$. c #38D476",
"%. c #31DA75",
"&. c #36E371",
"*. c #38E07A",
"=. c #80A634",
"-. c #81A634",
";. c #CF8F17",
":. c #C1811D",
">. c #DB8B13",
",. c #DD9512",
"<. c #DAA416",
"1. c #FDA70A",
"2. c #FFB90C",
"3. c #FBBF0C",
"4. c #E0A215",
"5. c #E8AA14",
"6. c #FDB11F",
"7. c #FCBF28",
"8. c #E6B431",
"9. c #EEBF3E",
"0. c #F2BD3A",
"q. c #94E434",
"w. c #95E434",
"e. c #FFC30D",
"r. c #FFC60E",
"t. c #FFC810",
"y. c #FBCF36",
"u. c #B6835A",
"i. c #DEAE5E",
"p. c #DFB56F",
"a. c #DEB573",
"s. c #FFD448",
"d. c #FFDC72",
"f. c #FFDA7A",
"g. c #A4B49C",
"h. c #9AB5AD",
"j. c #FBDB81",
"k. c #FFE38A",
"l. c #FCE28D",
"z. c #E6E09D",
"x. c #CFC8A3",
"c. c #C4F4BF",
"v. c #EFE8B0",
"b. c #EFE9B5",
"n. c #E4E5BB",
"m. c #E5E9BC",
"M. c #E6ECBC",
"N. c #B6F4D5",
"B. c #C8CFC8",
"V. c #CBD0C2",
"C. c #C8D2CE",
"Z. c #D6E1D1",
"A. c #E4ECC1",
"S. c #E4F0CF",
"D. c #E5F3CF",
"F. c #E7F1D1",
"G. c #E4F3DB",
"H. c #E5F4DA",
"J. c #E4F3DC",
"K. c #DFF7EA",
"L. c #DEF8EC",
"P. c #DEF8EE",
"I. c #DEF8EF",
"U. c #DDF9F1",
"Y. c #DEF8F0",
"T. c #DFFAF0",
"R. c #DFFBF1",
"E. c #DDF9F2",
"W. c #E0F7E8",
"Q. c #E0FAF0",
/* pixels */
"                                                                                                ",
"                                                                                                ",
"                                                                                                ",
"                                                                                                ",
"                                                                                                ",
"                                                                                                ",
"                                                                                                ",
"                                                                                                ",
"                                                                                                ",
"                                                                                                ",
"                                                                                                ",
"                                                                                                ",
"                                                                                                ",
"                                                                                                ",
"                                                                                                ",
"                                                                                                ",
"                                                                                                ",
"                                              @ @                                               ",
"                                            & ;.;.@                                             ",
"                                          H K 8.8.K H                                           ",
"                                        $ G e.M.A.r.G $                                         ",
"                                      @ X R s.S.S.s.R X @                                       ",
"                                  @ & * X u.k.H.H.k.u.X * & @                                   ",
"                              $ Y 5.x.C.C.Z.H.K.K.H.Z.B.C.x.5.Y $                               ",
"                              $ Y 5.z.A.P.P.I.I.I.I.T.T.S.z.5.Y $                               ",
"                                  @ 4.y.P.I.I.I.I.I.I.L.y.4.#                                   ",
"                                  @ ,.y.v.F.I.I.I.I.F.v.7.,.#                                   ",
"                                  @ >.6.f.b.I.I.I.I.b.f.6.>.&                                   ",
"                                  @ i.j.G.K.I.R.T.T.W.J.j.i.@                                   ",
"                                  @ p.l.M.n.n.V.V.n.M.M.l.p.@                                   ",
"                                  $ a.d.r.2.1.J J 1.2.t.d.a.$                                   ",
"                              $ L :.0.9.U P L , S P I U 9.0.:.L $                               ",
"                              $ T r.3.<.w 5 7 ~ ~ 6 5 8 <.3.r.T $                               ",
"                                . - ; -   t t ~ Z t t   - ; - .                                 ",
"                                  7 7 7     t ^ ^ t     7 7 7                                   ",
"                                            i  ...p                                             ",
"                                            t ..| 9                                             ",
"                                            8 ..@.v                                             ",
"                                            c } @.v                                             ",
"                                          z n } @.x z                                           ",
"                                  l s s l l v @.} v l l s s s                                   ",
"                              s C ` ` ( B m l } } x m B ( ` ` C s                               ",
"                              s Q &.*.$.) N n } @.n N ) $.*.&.Q l                               ",
"                              h E q.c.N.%.] ! #.#.! ] %.N.c.q.< 7                               ",
"                              g > -.g.h.' / V [ ] V / ' h.g.=., 3                               ",
"                                  w 0 0 q q q A ~ w q q 2 2 w                                   ",
"                                    S D D D D M M D D D F S                                     ",
"                                    O.O.O.O.X.a a X.o.o.O.O.                                    "
};
