/* XPM */
static char *c0ec0872fb4a41d6a2b549c457058237X32MLjPeSxu4wsDs[] = {
/* columns rows colors chars-per-pixel */
"64 64 27 1 ",
"  c None",
". c #181818",
"X c gray27",
"o c #464646",
"O c #67674D",
"+ c #67674E",
"@ c #68684E",
"# c #906F45",
"$ c #907045",
"% c #917045",
"& c #917046",
"* c #B89034",
"= c #B99034",
"- c #B99134",
"; c #B99135",
": c #D8B034",
"> c #D8B134",
", c #D9B134",
"< c #D9B135",
"1 c #80806F",
"2 c #98986F",
"3 c #808070",
"4 c #818170",
"5 c #999970",
"6 c #E8D878",
"7 c #E8D978",
"8 c #E9D978",
/* pixels */
"            3333OOOOXXoo88776666O@@@@@@@++++++++++++3333        ",
"            3333OOOOoooo88776666@@@@@@@@++++++++++++3333        ",
"            3333OOOOoooo77776666@@@@@@@@@@OO++++++++3333        ",
"            3333OOOOoooo77776668@@@@@@@@@@OO++++++++333&        ",
"    3333++++++++XXXX6666<<,,oXXXXXXXXXXXXXXXXXXX++++++++3334    ",
"    3333++++++++XXXX6666>>,,XXXXXXXXXXXXXXXXXXXX++++++++3334    ",
"    3333++++++++XXXX6688>>,,XXXXXXXXXXXXXXXXXXXX++++++++3344    ",
"    3333++++++++XXXX6688>>,,XXXXXXXXXXXXXXXXXXXX++++++++3344    ",
"    ++++++++XXXXXXXX<<,,ooooXXXXXXXXooooooooooooXXXXOOO+++++3333",
"    ++++++++XXXXXXXX>>,,ooooXXXXXXXXooooooooooooXXXXOOO+++++3333",
"    ++++++++XXXXXXXX>,,,ooooXXXXXXXXooooooooooooXXXXOO++++++1133",
"    ++++++++XXXXXXXX,,,,ooooXXXoXXXXooooooooooooXXXXOO++++++1333",
"3333++++XXXXXXXXoooo$$%%>,,,ooooooooXXXXooooXXXXXooo&&&&###$++++",
"3333++++XXXXXXXXoooo$$%%,,,,ooooooooXXXXooooXXXXXXoo&&&&###$++++",
"3333++++XXXXXXXXooXX$$%%,,,,ooooooooXXXXooooXXXXoooo&&$$##$$++++",
"3333++++XXXXXXXXoooX$$##,,,,ooooooooXXXXooooXXXXoooo&&&$##$$++++",
"@@@@XoooXXXX....oooo<>>>====8888........XXXXoooo%###88888888OO@@",
"@@@@XXooXXXX....oooo>>>>====8888........XXXXoooo$$##88888888OO@@",
"@@@@ooooXXXX....oooo>>>>====8888........XXXXoooo####88888888++@+",
"@@@@ooooXXXX....oooo>>>>====8888........XXXooooo####88888888++++",
"++++XXXX........oooo<<<<....====8886............7777<>,,oooo++++",
"++++XXXX........oooo<<<<....====8866............7777>>,,oooo++OO",
"++@+XXXX........oooo<<<<....====6666............7777>,,,ooXoOOOO",
"++@@XXXX........oooX<<<<....==--6666............7777>>,,ooXXOOOO",
"++++............oooo>>>>........##%%8888....&&&&8888....XXXXO@@@",
"++++............oooo>>>>........##%%8888....&&&&8888....XXXXO@@@",
"++++............oooo>>>>........#&&%8888....&&&&8888....XXXX@@@@",
"++++............oooo>>>>........#&&%8888....&&&&8888....XXXX@@@@",
"++++............oooo;;-->>,,........----<<<<oooo8888........@@@@",
"++++............oooo;;-->>,,........----<<<<oooo8888........@@@@",
"++++............oooo---->,,,........----<<<<oooo8888........@@@@",
"++++............oooo----,,,,........----<<<<oooo8888........@@@@",
"++++............oooo----****<<<<........====XXXX::::........OOO@",
"++++............oooo----****<<<<........====XXXX::,,........OO@@",
"++++............ooXo----****<<<<........==**XXXX,,,,........++@@",
"++++............ooXX----****<<<<........****XXXX,,,,........++++",
"++++............oooo----....;;;;,,,,........XXXX,,>>........++++",
"++++............oooo----....;;;;,,,,........XXXX,,>>........++++",
"++++............oooo--;;....;;;;,,,,........XXXX,>>>........++++",
"++++............oooo--;;....;;;;,,,,........XXXX>>>>........++++",
"++++................@@++........-===::::....XXXX,,<<........++++",
"++++................@O++........====::::....XXXX,:<<........++++",
"++++................++++........====,,,,....XXXX,,::........++++",
"++++................++++........====,,,>....XXXX,,::........++++",
"++++................@@@@****........#&&&,,,,XXXX,,,,........++++",
"++++................@@@@****........&&&&,,,,XXXX,,:,........++++",
"++++................@@@@****........&&&&,,,,XXXX::::........++++",
"++++................@@@@****........&&&&,,,,XXXX::::........++++",
"++++XXXX................@@@@++++........%%$$oooo::::........@@@@",
"++OOXXXX................@@@@++++........%%%$oooo::::........@@@@",
"OOOOXXXX................@@@@++++........%%$$oooo>:::........@@@@",
"OOOOXXXX................@@@@++++........%%$$oooo>:::........@@@@",
"2222O@@@XXXX................@@++@@@@........XXXX+@@@....XXXX2555",
"2222@@@@XXXX................OO++@@@@........XXXX@@@@....XXXX5555",
"2222@@@@XXXX................O+++@@@@........XXXX@@@@....XXoX5555",
"2222@@@@XXXX................@+++@@@@........XXXX@@@@....XXoo5555",
"    2222OO++++++oooooooo........@@++++++....ooXX....XXXX2255    ",
"    2222OO++++++oooooooo........@@+@++++....XXXX....XXXX5255    ",
"    2252O+++++++ooXXoooo........OOOO++++....XXXX....XXoX5555    ",
"    2255@+++++++oooXoooo........OOOO++++....XXXX....XXoo5555    ",
"        55553334++++++++++++++++OOO+@@@@@@@@+++++@@@2222        ",
"        55553344++++++++++++++++OOO+@@@@@@@@+++++@@@2222        ",
"        55554444++++++++++++++++OO++@@@@@@@@++++@@@@2222        ",
"        55554444++++++++++++++++OO++@@@@@@@@++++@@@@2222        "
};
