/* XPM */
static char *_ec8dc8150a5470c834ee15973213c49pOAOVhHbuaLhgp0I[] = {
/* columns rows colors chars-per-pixel */
"64 64 256 2 ",
"   c None",
".  c #14161A",
"X  c #1C1C1E",
"o  c #15151A",
"O  c #0F1118",
"+  c #1C2A1E",
"@  c #1D361D",
"#  c #312F1D",
"$  c #1D1C20",
"%  c #221C22",
"&  c #2A1C23",
"*  c #3F1B22",
"=  c #1E2322",
"-  c #183C22",
";  c #242424",
":  c #2A2523",
">  c #232C21",
",  c #282828",
"<  c #2A2826",
"1  c #352924",
"2  c #263824",
"3  c #35322C",
"4  c #393A31",
"5  c #261F1E",
"6  c #4B321C",
"7  c #711726",
"8  c #432422",
"9  c #463626",
"0  c #553522",
"q  c #4B362F",
"w  c #6C2D25",
"e  c #5F2721",
"r  c #1B4D1B",
"t  c #27551E",
"y  c #177A16",
"u  c #176B1A",
"i  c #2C731B",
"p  c #185224",
"a  c #2B4823",
"s  c #2B5824",
"d  c #3A4536",
"f  c #32562C",
"g  c #366827",
"h  c #377426",
"j  c #2A7124",
"k  c #147024",
"l  c #534E1B",
"z  c #72551D",
"x  c #58691D",
"c  c #48761A",
"v  c #76701D",
"b  c #564528",
"n  c #5B5923",
"m  c #47463A",
"M  c #55483B",
"N  c #484D2A",
"B  c #674625",
"V  c #754927",
"C  c #795735",
"Z  c #6F512D",
"A  c #5A6723",
"S  c #4D7527",
"D  c #706B30",
"F  c #524E45",
"G  c #775848",
"H  c #685B4C",
"J  c #526F4C",
"K  c #796958",
"L  c #6E7454",
"P  c #7B7060",
"I  c #604A6A",
"U  c #8E2825",
"Y  c #B42727",
"T  c #961528",
"R  c #CF2728",
"E  c #C11E29",
"W  c #97781B",
"Q  c #85582B",
"!  c #865A34",
"~  c #8A6439",
"^  c #946937",
"/  c #997131",
"(  c #A4793C",
")  c #A26E3E",
"_  c #956C48",
"`  c #9A7447",
"'  c #997456",
"]  c #876F53",
"[  c #A57B44",
"{  c #A37A56",
"}  c #8B7C64",
"|  c #967C68",
" . c #895D40",
".. c #159717",
"X. c #158314",
"o. c #339619",
"O. c #15AA15",
"+. c #2EB318",
"@. c #2A8222",
"#. c #388526",
"$. c #399C26",
"%. c #35863B",
"&. c #3BA625",
"*. c #3BB024",
"=. c #118421",
"-. c #4A8E17",
";. c #498B26",
":. c #439A28",
">. c #528F2C",
",. c #6A8D2D",
"<. c #44A02A",
"1. c #49AD27",
"2. c #5DAA24",
"3. c #63AF26",
"4. c #769E1C",
"5. c #12D50C",
"6. c #1CDA12",
"7. c #13C812",
"8. c #2AC71A",
"9. c #24D816",
"0. c #2CCC14",
"q. c #17E90C",
"w. c #0CFC07",
"e. c #0AF808",
"r. c #07FF06",
"t. c #12F409",
"y. c #10F808",
"u. c #1DF209",
"i. c #18E50F",
"p. c #25F807",
"a. c #24F50A",
"s. c #36F609",
"d. c #3FC320",
"f. c #52D019",
"g. c #74F805",
"h. c #77F408",
"j. c #6EEC0F",
"k. c #61D720",
"l. c #6D8557",
"z. c #6BA444",
"x. c #739766",
"c. c #7C8D66",
"v. c #77A66B",
"b. c #4E954B",
"n. c #7EC073",
"m. c #AA9517",
"M. c #95B017",
"N. c #B8A518",
"B. c #8E8F33",
"V. c #B8982C",
"C. c #B48A3B",
"Z. c #B59537",
"A. c #AD8A26",
"S. c #AFB124",
"D. c #8C951B",
"F. c #CCB91A",
"G. c #CCB917",
"H. c #C59A3E",
"J. c #C7AC27",
"K. c #CCB623",
"L. c #C6A63D",
"P. c #DAB735",
"I. c #E0BD3B",
"U. c #ACD710",
"Y. c #95FF02",
"T. c #9FC527",
"R. c #D6C518",
"E. c #D6D10D",
"W. c #E5D90C",
"Q. c #E8D918",
"!. c #F3DD1D",
"~. c #CDF901",
"^. c #CBF208",
"/. c #CCEB07",
"(. c #EBE509",
"). c #F4ED0A",
"_. c #F6F403",
"`. c #FAF602",
"'. c #FAF900",
"]. c #F3F605",
"[. c #F1E515",
"{. c #EBF307",
"}. c #DCC42A",
"|. c #E4C92B",
" X c #EAD423",
".X c #E4C436",
"XX c #AC8346",
"oX c #B68A47",
"OX c #AB8456",
"+X c #B28C59",
"@X c #B89557",
"#X c #B69346",
"$X c #9B8568",
"%X c #948A75",
"&X c #AB8763",
"*X c #B38D65",
"=X c #B9956B",
"-X c #BB9974",
";X c #A68E76",
":X c #90B172",
">X c #A4AA6A",
",X c #A1A37B",
"<X c #95964A",
"1X c #C29748",
"2X c #C69A5A",
"3X c #CDA346",
"4X c #D3A847",
"5X c #C39E71",
"6X c #C5A37A",
"7X c #CEA96E",
"8X c #E1BB67",
"9X c #B2C55D",
"0X c #625E9A",
"qX c #3D58EE",
"wX c #526AEF",
"eX c #4C61E3",
"rX c #7887E6",
"tX c #B9A782",
"yX c #B6ABB8",
"uX c #97978C",
"iX c #CBAB82",
"pX c #C6A985",
"aX c #D1B38B",
"sX c #D6B48A",
"dX c #D8BC96",
"fX c #CBB291",
"gX c #E2BF91",
"hX c #CBBBB1",
"jX c #9CD489",
"kX c #95C784",
"lX c #A4D18A",
"zX c #B6F39D",
"xX c #AFE997",
"cX c #B9F6A0",
"vX c #D1C89C",
"bX c #E2C59D",
"nX c #EACB8F",
"mX c #D3CBB2",
"MX c #E7C9A2",
"NX c #EDD4AB",
"BX c #F4D6AC",
"VX c #F4DAB2",
"CX c #E5D1B4",
"ZX c #FAE1B9",
"AX c #C4EDA3",
"SX c #9498D4",
"DX c #8698F7",
"FX c #A6B0F2",
"GX c #A0A6E1",
"HX c #D7D1D6",
"JX c #E7D9CB",
"KX c #FAE6C4",
"LX c #FDF1D7",
"PX c #D1D2EB",
"IX c #EFE9E7",
"UX c #BBC2F1",
/* pixels */
"                                          o X a h :.<.:.:.<.:.<.<.;.g > X                                                       ",
"                                          ; @ a h &.*.*.&.<.&.*.&.&.j 2 ;                                                       ",
"                                        : 2 f i &.8.8.8.8.8.8.8.8.+.o.j a 2                                                     ",
"                                      X 2 s h *.8.i.q.i.q.i.i.i.q.i.8.$.h a ; $                                                 ",
"                                    @ a t @.*.8.i.y.w.y.y.y.y.w.y.t.9.8.$.i t r                                                 ",
"                                  + u X.O.O.9.9.q.w.w.w.w.w.w.w.w.t.u.6.0.O...y r X                                             ",
"                                5 @ y 7.q.t.t.t.y.y.y.y.y.y.y.y.y.y.t.t.t.t.5.O.u + %                                           ",
"                              > 2 t ..5.w.w.w.e.e.e.e.e.w.y.e.y.e.y.e.w.w.w.w.7.i a <                                           ",
"                            X 2 f @.+.q.r.r.e.e.e.e.e.e.e.e.e.e.e.e.e.e.r.r.e.6.&.h a > $                                       ",
"                          ; 2 a S <.8.9.a.a.p.p.p.p.a.a.p.p.p.p.p.p.p.a.a.u.i.9.8.$.j a >                                       ",
"                        2 a s S S ,.3.k.k.j.j.g.g.g.g.g.g.g.h.g.g.g.g.g.j.f.f.*.8.8.o.j s 2                                     ",
"                      % 2 s h ;.,.` <X#X9X/.^.~.~.~.~.~.~.~.~.~.~.~.~.~.^.S.B.2.d.9.7.$.h a > %                                 ",
"                      5 > g S ,.B.Z.3XP..X!._.'.'.'.'.'.'.'.'.'.`.`.'.'.).K.V.M.f.9.8.1.#.f > X                                 ",
"                      X > a n 4.N.F. X X!.).`.'.'.'.'.'.'.`.'.'.'.'.'.'.`.[.R.S.M.3.1.1.$.s + X                                 ",
"                      : # 9 z W G.(.`.).).`.`.'.'._.`.'.'.'.'.'.'.'.'.'.`.`.(.R.Z.B.,.:.#.s : &                                 ",
"                    M 3 6 w Q A.W.`.`.[.[.)._.`._.'.`.'.].'.'.'.'.`.(.W.W.(.'.(.R.Z.B.>.S a # 9 G                               ",
"            [ +X6X5X] B B ! ( P.[.`.[.|..X!._.`.'.'.].].'.'.`.'.'.].E.J.J.E.].'.(.G.m.v n 0 0 Z OX6X-XOX(                       ",
"          / ` OX6XiX{ ! Q ( L.I.!.(.Q.I.I.!.].'.'.].'.'.'.].).]._.(.K.V.Z.K.(.'.'.W.G.W V w C _ -XpX=XXX(                       ",
"          Q ^ OXiXdX5X` / J.I. XR.K.P.|. X[._.`.'.'.'.'.].[.!. XR.K.L.@X@XL.F.E.`.).G.A.) { +X6XdXdX5X` ~                       ",
"          V V ` iXMXiX{ ( G.W.Q.J.V.K.Q.)._._.'.'.'.'.'.). XI.L.Z.Z.@X5X-X@XZ.J.W.). XP.2X7XdXNXVXMX-X^ Z                       ",
"            V _ 6XdXiX+XC.F.E.G.V.Z.J.(.`.'.'.'.'.'._.).!.P.3X2X+XOX=X6XpX=X+XL.R.[.|.4X7XnXNXVXMXdX*X! w                       ",
"              ! { *X*X=X@XZ.m.A.C.1XP.{.'.'.'.'.`.'.[. XP.3X1XoX@X-X6XiXaXaXsX8X.X.XP.1X2X7XbXsX-X&X` !                         ",
"                V ! { -X-X[ Q / oX4X.X[.`.].].'._.). XI.4XC.[ +X5X6XsXaXsXMXNXnX8X4XH.C.@X5X6X=X_ C V                           ",
"                0 0 ] -X6X' C ~ ( 3X.X X[.[.[.[.[.!..X3X1X) ^ ` =XsXdXdXbXNXNXbX2XoXC.V.Z.#X*X{ ! w                             ",
"                1 9 K -X6X*X_ ^ [ oXL.I..X.X.XI..XI.4X1X[ ! Q _ =XaXbXNXNXNXgXpX{ / m.G.G.V./ Q V                               ",
"                X 1 H ;X6X2XC./ ( ( oX#X3X3X3X4X4X2X#XXX^ Q Q _ *XaXbXMXMXdXpX{ ! Q m.W.E.m.z e                                 ",
"                $ , q _ XXZ.J.V./ ^ ! C _ XXoX1X1XoX( ^ ! ~ _ { 5XiXaX6X=X' ] G C ^ N.(.W.D.6 6                                 ",
"                $ ; 9 Z / G.E.G.m.V 0 9 b C [ [ XX( ^ Q ! ' -XpXiXiX=X_ C M q M C / G.W.E.W 6 5                                 ",
"                $ ; * 0 z G.Q.G.W w q F F I P P _ ^ ! ! _ *XaXaXiX*X' I F F F F C ( J.Q.E.v 2 .                                 ",
"                    5 1 l A.}.J.W V G uXyX0X0XI G Q ! ' *XsXbXaX{ _ I I 0X0XuX%X_ ^ V.P.J.D 1 $                                 ",
"                      ; 9 / H.Z.Q C ;XhXUXDXwX0XI Q _ =XaXMXBXaX{  .I qXwXDXPXhX| C / 1XC.D 1 $                                 ",
"                      X 3 C ^ ~ V Z ;XJXPXDXwXeX0X| 5XaXbXBXVXbXtX| 0XqXwXFXIXhX] B z ^ ^ M 3                                   ",
"                          N M 9 3 q $XCXHXDXwXwXSXhXCXCXVXZXKXVXCXyXSXqXwXFXJXfXK 1 # b b q                                     ",
"                          ; = $ X 3 K fXCXSXwXwXUXIXLXZXVXVXVXKXIXPXFXwXwXGXmXtXH ; 5 5 >                                       ",
"                              $ o : G *XfXSXGXFXPXLXLXKXZXZXZXKXLXIXPXGXSXyXpX| M = O .                                         ",
"                                X : M _ 5XfXhXJXKXKXKXZXZXZXZXZXKXKXJXJXhXpX+X_ 9 ; .                                           ",
"                                d d M ~ [ 5XgXMXNXNXVXVXVXVXNXVXVXVXNXMXsX2X_ C M m d                                           ",
"                              m l.x.l.~ ! ^ { 6XsXMXMXMXMXbXbXMXMXgXiX=X{ ^ ! ~ l.x.J d                                         ",
"                          $ , J :XlX>XD V V C ] =XaXaXaXaXaXaXdXfXiX&X .V w V ] :XjXx.d ;                                       ",
"                          4 J x.jXzX:XD l l n D <X>X>X>X>X>X>X,X>X>XB.D n l n z.jXxXkXl.F d                                     ",
"                  . . . d J v.lXzXxXn.%.j h ;.>.,.z.z.z.z.z.z.z.z.z.>.>.c g j b.jXzXxXkXv.J = O O $                             ",
"                3 3 , 3 F :XxXcXzXjXv.h k #.$.:.<.<.<.<.<.<.<.$.:.:.<.:.$.@.j b.n.xXzXzXjXP d 3 3 3 4                           ",
"              F H P P P %XlXAXxXkXx.J S g #.&.&.&.&.$.$.&.$.$.&.&.&.&.&.$.h g S l.v.jXzXxXkX%XP P P H 4                         ",
"            : F ;XhXdXdXlXAXAXkXl.d N b n S :.&.<.$.&.&.&.$.$.$.$.<.&.<.;.S b 0 d F x.jXAXAXfXdXhXtX} m X                       ",
"          o > H tXNXZXVXNXAXjXx.f a 2 l A S >.;.;.;.2.2.2.2.2.2.>.;.;.;.;.x x l @ a J n.lXmXNXVXZXMX%Xq X                       ",
"          . ; F ;XMXVXBXdXuXl.J f r y o.-.-.A A x v 4.M.U.U.U.M.4.A n x A -.o.o.u p f J x.tXMXBXBXbX} m X                       ",
"          o ; M $XpXdXaX-XL d - p k O.5.0.-.z B B z m.E.{.].(.G.W B B z x +.0.5...k p 2 F } tXsXdX-XP q =                       ",
"            : m K | &X$XK M > = p k O.q.u.+.-.x n x m.(.'.'.`.E.D.z n x -.9.u.5...p - = 3 H } $X$X$XH 4 $                       ",
"              4 M M M F m 3 : ; = p ..5.y.u.0.o.-.>.M.(.'.'.'./.D.;.$.+.0.u.y.7.u p = = , q m M M F q                           ",
"                ; ; ; ; : ; , ; $ @ y 7.q.t.i.9.+.1.M./.{.'.{.U.3.*.8.5.t.t.5.O.p ; % , ; , , ; > ; ;                           ",
"                  . X X = % ; % X + r X.O.7.9.9.9.0.s.Y.Y.Y.Y.j.s.0.7.7.O.O...y r ; % , ; ; = X X .                             ",
"                    ; ; ; ; = ; X + + @ r @.+.8.9.q.p.s.s.s.s.s.s.i.7.O.=.y r @ + X ; ; , , , ;                                 ",
"                      , , ; $ ; ; 1 * * 3 n S :.+.9.6.7.5.5.5.5.5.7.O.@.s 2 + % 5 ; ; ; , , , ,                                 ",
"                      , , = 5 : 6 6 e U U w B n x c i y y y y y y y i N f 1 5 X ; ; , ; , , , ,                                 ",
"                      , ; ; ; # 6 B U Y Y U 7 w w e 8 : + @ @ @ @ @ a B 0 6 ; = ; ; , , , , , ,                                 ",
"                      , ; ; ; : 6 B Y R R E T T 7 7 * & X X % % % 5 8 6 0 1 : ; , , , , , , ,                                   ",
"                          ; ; < : 8 U Y R R E T 7 * & & , ; & ; & : : 1 1 : : ; , , , , , ,                                     ",
"                          , , ; $ 1 w Y R R R U 8 , = ; , , , , , : ; ; % : , , , , , , ,                                       ",
"                            , ; = & e w U T U e * , = , , , , , , , , ; ; , , , , , , ,                                         ",
"                                    * * 8 8 8 * : , ; , , , , , , , , ; ; : , ,                                                 ",
"                                      = = = $ ; , , , , , , , , , , , , , , , ,                                                 ",
"                                                    , , , , , , ,                                                               ",
"                                                      , , , , ,                                                                 ",
"                                                      , , , , ,                                                                 "
};
