/* XPM */
static char *result[] = {
/* columns rows colors chars-per-pixel */
"64 64 224 2 ",
"   c #000001",
".  c #0A0604",
"X  c #020C04",
"o  c #0D0906",
"O  c #0E0C0B",
"+  c #130B08",
"@  c #1A0E0B",
"#  c #041405",
"$  c #051B08",
"%  c #161408",
"&  c #1C110B",
"*  c #060E15",
"=  c #171614",
"-  c #26160C",
";  c #341D0F",
":  c #2A1A14",
">  c #321C15",
",  c #361E18",
"<  c #082309",
"1  c #062A0E",
"2  c #092B09",
"3  c #09360A",
"4  c #0B3D0B",
"5  c #16360F",
"6  c #103212",
"7  c #2C2C12",
"8  c #3A2417",
"9  c #101B27",
"0  c #172F23",
"q  c #342F28",
"w  c #4C2B15",
"e  c #44251D",
"r  c #48281A",
"t  c #522E1A",
"y  c #4C3A1E",
"u  c #58321A",
"i  c #65391C",
"p  c #6D3C1E",
"a  c #713E1E",
"s  c #452820",
"d  c #4B2A21",
"f  c #4E3425",
"g  c #483D31",
"h  c #693B21",
"j  c #733E20",
"k  c #0D420D",
"l  c #0D4A11",
"z  c #0B4816",
"x  c #134D10",
"c  c #1B4A16",
"v  c #0E5516",
"b  c #0B521B",
"n  c #0D5A1B",
"m  c #185816",
"M  c #0F641E",
"N  c #0F681F",
"B  c #1E6317",
"V  c #166A1E",
"C  c #276A1A",
"Z  c #2B781D",
"A  c #337219",
"S  c #1A5B22",
"D  c #2C5327",
"F  c #0D6321",
"G  c #0E6C23",
"H  c #186924",
"J  c #0F7325",
"K  c #0D7927",
"L  c #0E7B29",
"P  c #107626",
"I  c #187728",
"U  c #107B29",
"Y  c #286B26",
"T  c #326726",
"R  c #30742D",
"E  c #52510F",
"W  c #73401F",
"Q  c #784A1C",
"!  c #695814",
"~  c #4C7512",
"^  c #545423",
"/  c #57493A",
"(  c #684924",
")  c #744120",
"_  c #7A4927",
"`  c #6B552D",
"'  c #547235",
"]  c #6D6A2F",
"[  c #155566",
"{  c #305071",
"}  c #555151",
"|  c #665545",
" . c #577345",
".. c #796655",
"X. c #82551C",
"o. c #926C19",
"O. c #824F27",
"+. c #85552B",
"@. c #865732",
"#. c #906A2E",
"$. c #946835",
"%. c #98763A",
"&. c #A17134",
"*. c #A67A3C",
"=. c #94714D",
"-. c #8B765B",
";. c #A37942",
":. c #A47A41",
">. c #A57B57",
",. c #8C7868",
"<. c #2F821F",
"1. c #15812A",
"2. c #1A8429",
"3. c #1D8030",
"4. c #298725",
"5. c #218A29",
"6. c #338821",
"7. c #2D9329",
"8. c #389727",
"9. c #3C9B26",
"0. c #309629",
"q. c #3EA229",
"w. c #3EAA28",
"e. c #4C931D",
"r. c #60A01B",
"t. c #6CB01C",
"y. c #4E922B",
"u. c #6B8E38",
"i. c #41A429",
"p. c #45A72A",
"a. c #54AB26",
"s. c #75A933",
"d. c #7EC21C",
"f. c #7D8E5F",
"g. c #4F9E62",
"h. c #6E9D6C",
"j. c #8A8B02",
"k. c #B39A10",
"l. c #ADA704",
"z. c #8D8D39",
"x. c #AB853A",
"c. c #AE893A",
"v. c #B49035",
"b. c #BA9933",
"n. c #9EAC27",
"m. c #CCB90F",
"M. c #C3A72B",
"N. c #C4A92B",
"B. c #D1B52D",
"V. c #D5B03A",
"C. c #82C41B",
"Z. c #B6D90E",
"A. c #BEE00E",
"S. c #D4C60C",
"D. c #DAD606",
"F. c #D9CA1A",
"G. c #E1D315",
"H. c #E8DB16",
"J. c #E4D31B",
"K. c #EBE706",
"L. c #F2ED05",
"P. c #FFFE00",
"I. c #F2F50D",
"U. c #F9F508",
"Y. c #F6E718",
"T. c #DBC62D",
"R. c #EBD429",
"E. c #E8C638",
"W. c #949052",
"Q. c #AC8448",
"!. c #B68945",
"~. c #B48E54",
"^. c #B0A84A",
"/. c #978A73",
"(. c #AD906C",
"). c #B59A78",
"_. c #B9A379",
"`. c #C59947",
"'. c #CB9C4D",
"]. c #D39E4D",
"[. c #CFA84B",
"{. c #D7A650",
"}. c #DEAB53",
"|. c #E5B54E",
" X c #E1AD53",
".X c #C6A67B",
"XX c #EFDD5B",
"oX c #2B4E9C",
"OX c #375293",
"+X c #445B96",
"@X c #679AB3",
"#X c #0ABBF8",
"$X c #928E91",
"%X c #AB9D85",
"&X c #92A6A3",
"*X c #ACAEAD",
"=X c #C9AA87",
"-X c #CAB389",
";X c #D6B58C",
":X c #D7B68C",
">X c #DAB98E",
",X c #DCBB92",
"<X c #D6BDA2",
"1X c #B1D2B8",
"2X c #D5C198",
"3X c #E4C59B",
"4X c #D9D0A7",
"5X c #E7CBA3",
"6X c #F2D7AD",
"7X c #EBD7B1",
"8X c #F7DDB3",
"9X c #FFE9A9",
"0X c #FBE1B7",
"qX c #FFE6BD",
"wX c #FFE8BF",
"eX c #A1C7D6",
"rX c #D4D0CF",
"tX c #DCE8DF",
"yX c #F4E2C5",
"uX c #FFEAC2",
"iX c #F1EFED",
"pX c #F8F8F5",
"aX c #FEFEFE",
"sX c None",
/* pixels */
"sXsXsXsXsXsXsXsXsXsXsXsXsXsXsXsXsXsXsXsXsXsXsXsXsXsXsXsXsXsXsXsXsXsXsXsXsXsXsXsXsXsXsXsXsXsXsXsXsXsXsXsXsXsXsXsXsXsXsXsXsXsXsXsX",
"sXsXsXsXsXsXsXsXsXsXsXsXsXsXsXsXsXsXsXsXsXsXsXsXsXsXsXsXsXsXsXsXsXsXsXsXsXsXsXsXsXsXsXsXsXsXsXsXsXsXsXsXsXsXsXsXsXsXsXsXsXsXsXsX",
"sXsXsXsXsXsXsXsXsXsXsXsXsXsXsXsXsXsXsXsXsXsXsXsXsXsXsXsXsXsXsXsXsXsXsXsXsXsXsXsXsXsXsXsXsXsXsXsXsXsXsXsXsXsXsXsXsXsXsXsXsXsXsXsX",
"sXsXsXsXsXsXsXsXsXsXsXsXsXsXsXsXsXsXsXsXsXsXsXsXsXsXsXsXsXsXsXsXsXsXsXsXsXsXsXsXsXsXsXsXsXsXsXsXsXsXsXsXsXsXsXsXsXsXsXsXsXsXsXsX",
"sXsXsXsXsXsXsXsXsXsXsXsXsXsXsXsXsXsXsXsXsXsXsXsXsXsXsXsXsXsXsXsXsXsXsXsXsXsXsXsXsXsXsXsXsXsXsXsXsXsXsXsXsXsXsXsXsXsXsXsXsXsXsXsX",
"sXsXsXsXsXsXsXsXsXsXsXsXsXsXsXsXsXsXsXsXsXsXsXsXsXsXsXsXsXsXsXsXsXsXsXsXsXsXsXsXsXsXsXsXsXsXsXsXsXsXsXsXsXsXsXsXsXsXsXsXsXsXsXsX",
"sXsXsXsXsXsXsXsXsXsXsXsXsXsXsXsXsXsXsXsXsXsXsXsXsXsXsXsXsXsXsXsXsXsXsXsXsXsXsXsXsXsXsXsXsXsXsXsXsXsXsXsXsXsXsXsXsXsXsXsXsXsXsXsX",
"sXsXsXsXsXsXsXsXsXsXsXsXsXsXsXsXsXsX:.:.+.a ( I L M k k <.i.i.i.i.i.i.i.5.U U U U sXsXsXsXsXsXsXsXsXsXsXsXsXsXsXsXsXsXsXsXsXsXsX",
"sXsXsXsXsXsXsXsXsXsXsXsXsXsXsXsXsXsX:.:.@.j ( P L N k k <.p.i.i.i.i.i.p.5.K L U K K sXsXsXsXsXsXsXsXsXsXsXsXsXsXsXsXsXsXsXsXsXsX",
"sXsXsXsXsXsXsXsXsXsXsXsXsXsXsXsXsXsXb.b.o.o.o.R R Y m m Z 8.8.9.i.i.i.i.5.2.2.2.2.2.sXsXsXsXsXsXsXsXsXsXsXsXsXsXsXsXsXsXsXsXsXsX",
"sXsXsXsXsXsXsXsXsXsXsXsX:.:.Q.{.}.E.P.P.U.U.Y.x.;.u.i.q.B k x 9.i.i.i.i.i.i.q.i.i.7.U U sXsXsXsXsXsXsXsXsXsXsXsXsXsXsXsXsXsXsXsX",
"sXsXsXsXsXsXsXsXsXsXsXsX:.*.Q.{.}.E.P.P.P.P.L.x.*.z.i.q.C k x 9.i.i.i.i.i.i.i.i.i.0.U U sXsXsXsXsXsXsXsXsXsXsXsXsXsXsXsXsXsXsXsX",
"sXsXsXsXsXsXsXsXsXsX:.*.B.D.F.!.!.b.M.b.B.E.E.'.'.^.^.^.y.6.Z C B Z i.i.i.9.i.i.i.9.0.0.5.L P l k sXsXsXsXsXsXsXsXsXsXsXsXsXsXsX",
"sXsXsXsXsXsXsXsXsXsX:.:.G.P.U.c.:.;.;.;.]. X}.}.}.}.}. Xz.w.9.k 4 B i.i.i.i.i.i.i.i.i.i.5.L J k k k sXsXsXsXsXsXsXsXsXsXsXsXsXsX",
"sXsXsXsXsXsXsXsXsXv.b.b.F.H.G.b.Q.!.!.!.`.].[.E.E.|.E.E.s.w.9.x 4 B i.i.i.i.i.i.i.i.i.i.5.U P v v v sXsXsXsXsXsXsXsXsXsXsXsXsXsX",
"sXsXsXsXsXsXsX:.:.N.P.P.M.*.Q.{.}.}.}.}.~.:.c.L.P.P.P.P.C.q.9.x k B i.i.i.i.i.i.i.i.i.i.5.L U U U M k k sXsXsXsXsXsXsXsXsXsXsXsX",
"sXsXsXsXsXsXsX:.;.M.P.P.M.:.Q.]. X}.{. X!.*.c.L.P.P.P.P.C.w.9.x k B p.w.q.i.q.i.p.i.p.q.5.U U U U N k k sXsXsXsXsXsXsXsXsXsXsXsX",
"sXsXsXsXsXsXsX:.;.M.P.P.E.'.'.}. X`.$.@.%.:.c.I.P.H.b.b.r.w.0.x 4 B q.i.Z m m m m B 2.2.1.U K U U P G N 3     sXsXsXsXsXsXsXsXsX",
"sXsXsXsXsXsXsX*.;.N.P.P.E.}. X}. Xc.a a $.Q.c.L.P.G.;.:.u.w.q.x 4 B q.p.B 4 4 k 4 v U L U U U U U U K U 1     sXsXsXsXsXsXsXsXsX",
"sXsXsXsXsXsXsX;.*.b.S.m.V.'.'.'.].!.=.$.>.~.~.F.G.B.%.;.n.d.t.C B C 6.<.C B B v v M U U U U U U U U U U 1     sXsXsXsXsXsXsXsXsX",
"sXsXsXsXsXsXsXsXsXsX) ) $.:.:.*.;.(.:X;X;X;X.XQ.%.:.:.=.G.P.I.a.i.<.k k <.i.q.I U U U K U U U U U U U U 1     sXsXsXsXsXsXsXsXsX",
"sXsXsXsXsXsXsXsXsXsX) ) $.:.:.&.&.~.;X;X:X>X-XQ.Q.:.x.x.G.P.K.a.q.<.k k <.q.9.U U U U U U U U U U U U U 1   X sXsXsXsXsXsXsXsXsX",
"sXsXsXsXsXsXsXsXsXsXsXsXsXsXsX- - / :X;X5X8X6X=X=X|.H.K.N.b.x.4.2.N k k V 2.2.U U U U U U U P U L U U U l 2 3       sXsXsXsXsXsX",
"sXsXsXsXsXsXsXsXsXsXsXsXsXsXsX  . g :X;X8XuXqX>X=XXXP.P.M.;.%.I L N k k G L L U U U U U U U U U U U U U v k 4 X     sXsXsXsXsXsX",
"sXsXsXsXsXsXsXsXsXsXsXsXsXsXsX    q (.~././.(.<X5XXXP.P.M.;.;.u.f.6.v n M M N K L L U U U U U U U U U U v k 4 .     sXsXsXsXsXsX",
"sXsXsXsXsXsXsXsXsXsXsXsXsXsXsX    - ) p -   = 5XuX9XP.P.M.;.x.{. Xz.P 1.v k k J L L U U U U U U U U U U n k 4       sXsXsXsXsXsX",
"sXsXsXsXsXsXsXsXsXsXsXsXsXsXsXO . > h h , O q 7XuXXXP.U.M.*.Q.[.{.^.1.3.S c m 3.5.2.P P U K P U U U U U b k 4 X     sXsXsXsXsXsX",
"sXsXsXsXsXsXsXsXsXsXsXsX    = (.)./.OXOX*XtXrXuXuX5Xv.v.'.{.'.+._ =._._.2X4X4X4X7X/.l l l l v J U L U U v k 4       sXsXsXsXsXsX",
"sXsXsXsXsXsXsXsXsXsXsXsX    = =X,X$XOXoXrXaXaXuXuX,X:.;.'. X].O.W =.:X;X6XwXwXuXuX%Xk k k k l P U U U U v 4 5 X     sXsXsXsXsXsX",
"sXsXsXsXsXsXsXsXsXsXsXsX    = .X,X$XoXoXeXaXaXuXqX>X@.@.B.R.T.Q W =.5X3X8XwX0X2X>XW.< < < < 2 n n G L U v k 3       sXsXsXsXsXsX",
"sXsXsXsXsXsXsXsXsXsXsXsX    @ .X:X$XoXoXeXaXpXuXwX;XW j m.P.L.X.p >.yXqXuXwX6XQ.:.`           4 k v U U v k 4 X     sXsXsXsXsXsX",
"sXsXsXsXsXsXsXsXsXsXsXsX    @ (..X$X+X+XrXaXpXwXqX=XW W m.P.L.o._ >.yXyX7X8X5Xz.$.(         X 3 4 v I U v k 4       sXsXsXsXsXsX",
"sXsXsXsXsXsXsXsXsXsXsXsXsXsXsX@ = / =X=X7XuXuXqXwX=Xa W m.P.U.V.V.&X#X#Xh.~.;.- % o     sXsXsXX X 1 L U v k 4 X     sXsXsXsXsXsX",
"sXsXsXsXsXsXsXsXsXsXsXsXsXsXsX    g >X;X7XqXuXwXwX-Xa a S.P.U.|.|.&X#X#X@X*.$.o         sXsXsX    1 1.U v k 4       sXsXsXsXsXsX",
"sXsXsXsXsXsXsXsXsXsXsXsXsXsXsXsXsXq | ` %X5X5X5X5X;X>.>.v.k.k.J.R.^.[ [ g y y ` ] o.j.j.sXsXsX    $ n M 2 $ $ X sXsXsXsXsXsXsXsX",
"sXsXsXsXsXsXsXsXsXsXsXsXsXsXsXsXsXsX  . -.>X;X;X;X;X;X>X=.p X.L.P.l.        % ]. XE.P.P.sXsXsX    $ k k $     sXsXsXsXsXsXsXsXsX",
"sXsXsXsXsXsXsXsXsXsXsXsXsXsXsXsXsXsX    ..).).)._._._._.@.u Q H.U.l.    X   % x.!.N.D.D.sXsXsX    # 4 3 $     sXsXsXsXsXsXsXsXsX",
"sXsXsXsXsXsXsXsXsXsXsXsXsXsXsXsXsXsXsXsXO O % c c x c c $ . & V. X%.    2 k 4 + + o % + sXsXsXsXsXsX    sXsXsXsXsXsXsXsXsXsXsXsX",
"sXsXsXsXsXsXsXsXsXsXsXsXsXsXsXsXsXsXsXsX    X 4 4 k k l $   & '. X#.    2 k 4     X     sXsXsXsXsXsX    sXsXsXsXsXsXsXsXsXsXsXsX",
"sXsXsXsXsXsXsXsXsXsXsXsXsXsXsXsXsXsX    3 z b M M n k k #   X u.y.' z z n M V 8 w ;     sXsXsXsXsXsXsXsXsXsXsXsXsXsXsXsXsXsXsXsX",
"sXsXsXsXsXsXsXsXsXsXsXsXsXsXsXsXsXsX    b L K U U G 4 k #   X G L L L L U U I ( _ w     sXsXsXsXsXsXsXsXsXsXsXsXsXsXsXsXsXsXsXsX",
"sXsXsXsXsXsXsXsXsXsXsXsXsXsXsXsXsXsX< 2 C e.8.G F D R  .0 $ 1 H H I L U I Y Y u u r * * sXsXsXsXsXsXsXsXsXsXsXsXsXsXsXsXsXsXsXsX",
"sXsXsXsXsXsXsXsXsXsXsXsXsXsXsX    5 i.8.Z.P.D.%   } aXpXg.J I ( ) ^ L L ^ ) ( +   9 { { 9 .   sXsXsXsXsXsXsXsXsXsXsXsXsXsXsXsXsX",
"sXsXsXsXsXsXsXsXsXsXsXsXsXsXsX    5 i.w.A.P.K.% X } aXaXh.K I ( j ^ L L ^ j i +   9 { { 9 X   sXsXsXsXsXsXsXsXsXsXsXsXsXsXsXsXsX",
"sXsXsXsXsXsXsXsXsXsXsXsXsX        5 p.p.~ E E 8 8 g ,.,.&X1X*X8 - 7 ^ ^ T T T b n z 9 9 | -.-.%   sXsXsXsXsXsXsXsXsXsXsXsXsXsXsX",
"sXsXsXsXsXsXsXsXsXsXsXsX          5 p.p.6     e r s e e <XaXiX=   - ) j T L K L 1.b     -.3X.X=     sXsXsXsXsXsXsXsXsXsXsXsXsXsX",
"sXsXsXsXsXsXsXsXsXsXsXsX& & & @ O 5 A Z 7 & - t f t s e $X*X*X0 1 7 ` ! R 2.2.P N z     | /.-.=   sXsXsXsXsXsXsXsXsXsXsXsXsXsXsX",
"sXsXsXsXsXsXsXsXsXsX    w W h d d >   X w ) ) ) ) h s d @ O O J K 5.i.p.i.q.9.x k 2     . .   sXsXsXsXsXsXsXsXsXsXsXsXsXsXsXsXsX",
"sXsXsXsXsXsXsXsXsXsX    w ) j d d >     w _ ) j j h s d =   # G U 5.i.i.q.i.9.x 4 2           sXsXsXsXsXsXsXsXsXsXsXsXsXsXsXsXsX",
"sXsXsXsXsXsXsXsXsXsX    w ) j d d >     ,.,X>X).).=.O + 6 F N 7.0.9.i.q.Z m m # # % , , w u t o   sXsXsXsXsXsXsXsXsXsXsXsXsXsXsX",
"sXsXsXsXsXsXsXsXsXsX    w ) ) f d :     ).uXuX,X,X-.    b 1.1.q.p.p.w.p.B k 3     @ d d h ) p .     sXsXsXsXsXsXsXsXsXsXsXsXsXsX",
"sXsXsXsXsXsXsXsXsXsX    8 t r d d 8 & O ..%X%X>.-.|     3 b b Y C A Y A k 2 2 X   @ d d h ) i o     sXsXsXsXsXsXsXsXsXsXsXsXsXsX",
"sXsXsXsXsXsXsXsXsXsXsXsX    . e d s d d @                                         @ d d h j i o     sXsXsXsXsXsXsXsXsXsXsXsXsXsX",
"sXsXsXsXsXsXsXsXsXsXsXsX    . e s s e s @                                         @ d s h ) i .     sXsXsXsXsXsXsXsXsXsXsXsXsXsX",
"sXsXsXsXsXsXsXsXsXsXsXsXsXsXsX+ + + . O .           sXsXsXsXsXsXsXsXsXsXsXsXsX    @ d d d d r .     sXsXsXsXsXsXsXsXsXsXsXsXsXsX",
"sXsXsXsXsXsXsXsXsXsXsXsXsXsXsX                      sXsXsXsXsXsXsXsXsXsXsXsXsX    & d d d d e O     sXsXsXsXsXsXsXsXsXsXsXsXsXsX",
"sXsXsXsXsXsXsXsXsXsXsXsXsXsXsX                    sXsXsXsXsXsXsXsXsXsXsXsXsXsX    @ : : : > : .   sXsXsXsXsXsXsXsXsXsXsXsXsXsXsX",
"sXsXsXsXsXsXsXsXsXsXsXsXsXsXsXsXsXsXsXsXsXsXsXsXsXsXsXsXsXsXsXsXsXsXsXsXsXsXsXsXsXsX          sXsXsXsXsXsXsXsXsXsXsXsXsXsXsXsXsX",
"sXsXsXsXsXsXsXsXsXsXsXsXsXsXsXsXsXsXsXsXsXsXsXsXsXsXsXsXsXsXsXsXsXsXsXsXsXsXsXsXsXsX          sXsXsXsXsXsXsXsXsXsXsXsXsXsXsXsXsX",
"sXsXsXsXsXsXsXsXsXsXsXsXsXsXsXsXsXsXsXsXsXsXsXsXsXsXsXsXsXsXsXsXsXsXsXsXsXsXsXsXsXsXsXsXsXsXsXsXsXsXsXsXsXsXsXsXsXsXsXsXsXsXsXsX",
"sXsXsXsXsXsXsXsXsXsXsXsXsXsXsXsXsXsXsXsXsXsXsXsXsXsXsXsXsXsXsXsXsXsXsXsXsXsXsXsXsXsXsXsXsXsXsXsXsXsXsXsXsXsXsXsXsXsXsXsXsXsXsXsX",
"sXsXsXsXsXsXsXsXsXsXsXsXsXsXsXsXsXsXsXsXsXsXsXsXsXsXsXsXsXsXsXsXsXsXsXsXsXsXsXsXsXsXsXsXsXsXsXsXsXsXsXsXsXsXsXsXsXsXsXsXsXsXsXsX",
"sXsXsXsXsXsXsXsXsXsXsXsXsXsXsXsXsXsXsXsXsXsXsXsXsXsXsXsXsXsXsXsXsXsXsXsXsXsXsXsXsXsXsXsXsXsXsXsXsXsXsXsXsXsXsXsXsXsXsXsXsXsXsXsX",
"sXsXsXsXsXsXsXsXsXsXsXsXsXsXsXsXsXsXsXsXsXsXsXsXsXsXsXsXsXsXsXsXsXsXsXsXsXsXsXsXsXsXsXsXsXsXsXsXsXsXsXsXsXsXsXsXsXsXsXsXsXsXsXsX"
};
