/* XPM */
static char *result[] = {
/* columns rows colors chars-per-pixel */
"64 64 222 2 ",
"   c #000001",
".  c #0A0604",
"X  c #020C04",
"o  c #0D0906",
"O  c #0E0C0B",
"+  c #130B08",
"@  c #1A0E0B",
"#  c #041405",
"$  c #051B08",
"%  c #161408",
"&  c #1C110B",
"*  c #060E15",
"=  c #171614",
"-  c #26160C",
";  c #341D0F",
":  c #2A1A14",
">  c #321C15",
",  c #361E18",
"<  c #082309",
"1  c #062A0E",
"2  c #092B09",
"3  c #09360A",
"4  c #0B3D0B",
"5  c #16360F",
"6  c #103212",
"7  c #2C2C12",
"8  c #3A2417",
"9  c #342F28",
"0  c #4C2B15",
"q  c #44251D",
"w  c #48281A",
"e  c #522E1A",
"r  c #4C3A1E",
"t  c #58321A",
"y  c #65391C",
"u  c #6D3C1E",
"i  c #713E1E",
"p  c #452820",
"a  c #4B2A21",
"s  c #4E3425",
"d  c #583321",
"f  c #693B21",
"g  c #733E20",
"h  c #783F20",
"j  c #0D420D",
"k  c #0F4D0D",
"l  c #0D4A11",
"z  c #0B4816",
"x  c #134D10",
"c  c #1B4A16",
"v  c #0E5516",
"b  c #0B521B",
"n  c #0D5A1B",
"m  c #185816",
"M  c #2C4C17",
"N  c #0F641E",
"B  c #0F681F",
"V  c #1E6317",
"C  c #276A1A",
"Z  c #2B781D",
"A  c #1A5B22",
"S  c #0D6321",
"D  c #0E6C23",
"F  c #186924",
"G  c #0F7325",
"H  c #0D7927",
"J  c #0E7B29",
"K  c #107626",
"L  c #187728",
"P  c #107B29",
"I  c #286B26",
"U  c #326726",
"Y  c #30742D",
"T  c #73401F",
"R  c #784A1C",
"E  c #695814",
"W  c #504B2A",
"Q  c #545423",
"!  c #57493A",
"~  c #684924",
"^  c #744120",
"/  c #7A4927",
"(  c #547235",
")  c #6D6A2F",
"_  c #155566",
"`  c #555151",
"'  c #665545",
"]  c #796655",
"[  c #747172",
"{  c #926C19",
"}  c #824F27",
"|  c #85552B",
" . c #865732",
".. c #906A2E",
"X. c #946835",
"o. c #98763A",
"O. c #A17134",
"+. c #A67A3C",
"@. c #94714D",
"#. c #8B765B",
"$. c #A37942",
"%. c #A47A41",
"&. c #A57B57",
"*. c #8C7868",
"=. c #2F821F",
"-. c #3C851B",
";. c #15812A",
":. c #1A8429",
">. c #218A29",
",. c #338821",
"<. c #2D9329",
"1. c #389727",
"2. c #3C9B26",
"3. c #309629",
"4. c #248436",
"5. c #3EA229",
"6. c #3EAA28",
"7. c #4C931D",
"8. c #60A01B",
"9. c #6CB01C",
"0. c #4E8A27",
"q. c #4E922B",
"w. c #6B8E38",
"e. c #41A429",
"r. c #45A72A",
"t. c #75A933",
"y. c #7EC21C",
"u. c #2A8940",
"i. c #8A8B02",
"p. c #A58515",
"a. c #B39A10",
"s. c #8D8D39",
"d. c #AB853A",
"f. c #AE893A",
"g. c #B49035",
"h. c #BA9933",
"j. c #9EAC27",
"k. c #CCB90F",
"l. c #C3A72B",
"z. c #C4A92B",
"x. c #D1B52D",
"c. c #82C41B",
"v. c #B6D90E",
"b. c #BEE00E",
"n. c #DAD606",
"m. c #D9CA1A",
"M. c #E1D315",
"N. c #E8DB16",
"B. c #E4D31B",
"V. c #D1E70C",
"C. c #EBE706",
"Z. c #F2ED05",
"A. c #FFFE00",
"S. c #F2F50D",
"D. c #F9F508",
"F. c #F6E718",
"G. c #DBC62D",
"H. c #EBD429",
"J. c #E8C638",
"K. c #AC8448",
"L. c #B68945",
"P. c #B48E54",
"I. c #B0A84A",
"U. c #978A73",
"Y. c #AD906C",
"T. c #B59A78",
"R. c #B9A379",
"E. c #C59947",
"W. c #CB9C4D",
"Q. c #D39E4D",
"!. c #CFA84B",
"~. c #D5A54C",
"^. c #D7A650",
"/. c #DEAB53",
"(. c #E5B54E",
"). c #E1AD53",
"_. c #C29E71",
"`. c #CCAD70",
"'. c #C6A67B",
"]. c #2B4E9C",
"[. c #375293",
"{. c #445B96",
"}. c #6A7497",
"|. c #4765A8",
" X c #679AB3",
".X c #1EA6D2",
"XX c #0ABBF8",
"oX c #63A1C8",
"OX c #47C8F0",
"+X c #928E91",
"@X c #AB9D85",
"#X c #92A6A3",
"$X c #ACAEAD",
"%X c #C9AA87",
"&X c #CAB389",
"*X c #D6B58C",
"=X c #D7B68C",
"-X c #DAB98E",
";X c #DCBB92",
":X c #D6BDA2",
">X c #9FC0A6",
",X c #B1D2B8",
"<X c #D5C198",
"1X c #E5C989",
"2X c #E4C59B",
"3X c #D9D0A7",
"4X c #E7CBA3",
"5X c #F2D7AD",
"6X c #EBD7B1",
"7X c #F7DDB3",
"8X c #FFE9A9",
"9X c #FFE6BD",
"0X c #D4D0CF",
"qX c #DCE8DF",
"wX c #F4E2C5",
"eX c #FFEAC2",
"rX c #F6ECCF",
"tX c #FDEDD3",
"yX c #F1EFED",
"uX c #F8F8F5",
"iX c #FEFEFE",
"pX c None",
/* pixels */
"pXpXpXpXpXpXpXpXpXpXpXpXpXpXpXpXpXpXpXpXpXpXpXpXpXpXpXpXpXpXpXpXpXpXpXpXpXpXpXpXpXpXpXpXpXpXpXpXpXpXpXpXpXpXpXpXpXpXpXpXpXpXpXpX",
"pXpXpXpXpXpXpXpXpXpXpXpXpXpXpXpXpXpXpXpXpXpXpXpXpXpXpXpXpXpXpXpXpXpXpXpXpXpXpXpXpXpXpXpXpXpXpXpXpXpXpXpXpXpXpXpXpXpXpXpXpXpXpXpX",
"pXpXpXpXpXpXpXpXpXpXpXpXpXpXpXpXpXpXpXpXpXpXpXpXpXpXpXpXpXpXpXpXpXpXpXpXpXpXpXpXpXpXpXpXpXpXpXpXpXpXpXpXpXpXpXpXpXpXpXpXpXpXpXpX",
"pXpXpXpXpXpXpXpXpXpXpXpXpXpXpXpXpXpXpXpXpXpXpXpXpXpXpXpXpXpXpXpXpXpXpXpXpXpXpXpXpXpXpXpXpXpXpXpXpXpXpXpXpXpXpXpXpXpXpXpXpXpXpXpX",
"pXpXpXpXpXpXpXpXpXpXpXpXpXpXpXpXpXpXpXpXpXpXpXpXpXpXpXpXpXpXpXpXpXpXpXpXpXpXpXpXpXpXpXpXpXpXpXpXpXpXpXpXpXpXpXpXpXpXpXpXpXpXpXpX",
"pXpXpXpXpXpXpXpXpXpXpXpXpXpXpXpXpXpXpXpXpXpXpXpXpXpXpXpXpXpXpXpXpXpXpXpXpXpXpXpXpXpXpXpXpXpXpXpXpXpXpXpXpXpXpXpXpXpXpXpXpXpXpXpX",
"pXpXpXpXpXpXpXpXpXpXpXpXpXpXpXpXpXpXpXpXpXpXpXpXpXpXpXpXpXpXpXpXpXpXpXpXpXpXpXpXpXpXpXpXpXpXpXpXpXpXpXpXpXpXpXpXpXpXpXpXpXpXpXpX",
"pXpXpXpXpXpXpXpXpXpXpXpXpXpXpXpXpXpX%.%.X.^ ^ U J K l j V e.e.e.e.e.e.e.3.P P pXpXpXpXpXpXpXpXpXpXpXpXpXpXpXpXpXpXpXpXpXpXpXpXpX",
"pXpXpXpXpXpXpXpXpXpXpXpXpXpXpXpXpXpXo.K.X.T u I H G j j V r.5.e.e.e.e.e.<.P P pXpXpXpXpXpXpXpXpXpXpXpXpXpXpXpXpXpXpXpXpXpXpXpXpX",
"pXpXpXpXpXpXpXpXpXpXpXpXpXpXpXpXpXpXh.h.O./ / ( Y Y m m C 1.1.1.e.e.e.e.3.:.:.pXpXpXpXpXpXpXpXpXpXpXpXpXpXpXpXpXpXpXpXpXpXpXpXpX",
"pXpXpXpXpXpXpXpXpXpXpXpXpX%.%.W./.(.D.A.m.$.+.o.%.s.e.5.=.j j =.r.e.e.e.e.e.e.>.H P P P P pXpXpXpXpXpXpXpXpXpXpXpXpXpXpXpXpXpXpX",
"pXpXpXpXpXpXpXpXpXpXpXpXpX%.+.W./.(.D.A.M.+.K.%.o.d.q.r.=.j j =.e.e.e.e.e.e.e.>.H P P P P pXpXpXpXpXpXpXpXpXpXpXpXpXpXpXpXpXpXpX",
"pXpXpXpXpXpXpXpXpXpX%.%.l.M.M.l.L.L.l.l.l.W.W.W.W.W.I.I.t.,.=.C V V 2.e.e.e.e.2.3.3.3.3.<.H P v j j pXpXpXpXpXpXpXpXpXpXpXpXpXpX",
"pXpXpXpXpXpXpXpXpXpX$.$.l.A.A.l.$.$.$.@.L.)././././.).).I.r.e.C 4 x 2.e.e.e.e.e.e.e.r.e.3.P P v j j pXpXpXpXpXpXpXpXpXpXpXpXpXpX",
"pXpXpXpXpXpXpXpXpXpXh.h.m.A.A.x.K.K.L.L.P.Q.Q.(.J.J.J.J.j.r.5.V 4 x 2.e.e.e.e.e.e.e.e.e.3.P P n v l pXpXpXpXpXpXpXpXpXpXpXpXpXpX",
"pXpXpXpXpXpXpX%.$.f.Z.A.D.A.A.J./././.).W.%.%.m.D.A.A.D.b.r.e.V j x 1.e.5.e.e.e.e.e.e.e.3.P P P P K l j j pXpXpXpXpXpXpXpXpXpXpX",
"pXpXpXpXpXpXpX%.%.f.Z.A.A.A.A.J./././.).W.+.%.m.A.A.A.A.v.2.5.V j x 1.e.e.e.e.5.r.5.5.e.3.K P P P K l j j pXpXpXpXpXpXpXpXpXpXpX",
"pXpXpXpXpXpXpX%.%.f.D.A.F.J.J.)./.^.X.| X.+.%.B.A.D.z.h.j.r.5.V j x 2.e.,.V V m m V :.:.:.P P P P K l j 1     pXpXpXpXpXpXpXpXpX",
"pXpXpXpXpXpXpX%.%.f.D.A.F./././.).Q.} u } %.%.B.A.D.f.$.s.5.5.V 4 x 1.r.=.4 4 j j j G P J P P P P K l j 2     pXpXpXpXpXpXpXpXpX",
"pXpXpXpXpXpXpXpX%.f.k.k.x.W.W.W.W.W.X.@.@.P.P.x.B.B.d.%.s.y.y.-.V V =.=.Z V V k v v K P P P P H P K v v 3     pXpXpXpXpXpXpXpXpX",
"pXpXpXpXpXpXpXpXpXpXT T | %.%.%.%.K.%X=X*X*X*XP.%.%.%.%.l.A.A.c.r.e.x j C e.r.>.J J P P P K P P P P P P b     pXpXpXpXpXpXpXpXpX",
"pXpXpXpXpXpXpXpXpXpXT T | %.%.+.o.$.%X=X*X*X;XP.%.%.%.%.l.A.A.9.2.2.x j V 5.5.:.J J P P P P P P P P P P b     pXpXpXpXpXpXpXpXpX",
"pXpXpXpXpXpXpXpXpXpXpXpXpXpXpX7 = 8 '.*X2X7X7X;X%X`.N.F.m.g.h.q.:.:.K D N m m B ;.H P P J P P P P P P P b     pXpXpXpXpXpXpXpXpX",
"pXpXpXpXpXpXpXpXpXpXpXpXpXpXpX    = '.=X2XeXeX2X*X`.D.A.B.$.$.Y H H P P N j j B H H P P P P P J P P P P b     pXpXpXpXpXpXpXpXpX",
"pXpXpXpXpXpXpXpXpXpXpXpXpXpXpX    O @.Y.Y.U.U.&X4X1XD.A.M.%.%.w.w.w.P J D j j v N N K P P P H P P P J P n $ $ X pXpXpXpXpXpXpXpX",
"pXpXpXpXpXpXpXpXpXpXpXpXpXpXpX    . u h w     T.eX8XS.A.M.%.%.W./.W.4.;.S j j j j z K P P P P P P P P P B j j $     pXpXpXpXpXpX",
"pXpXpXpXpXpXpXpXpXpXpXpXpXpXpX+ O = f g s = * @XeX8XF.D.B.%.%.E.^.E.<.L F c c c c m K K K P K P P P P P D j j $     pXpXpXpXpXpX",
"pXpXpXpXpXpXpXpXpXpXpXpXpX    ] T.Y.{.[.}.qX0XwX9X7XW.g.I.~.^.o.|  .R.R.&X3X3X3X4X<XA l l l l B P P P P S j j #     pXpXpXpXpXpX",
"pXpXpXpXpXpXpXpXpXpXpXpXpX  . #.;X%X{.]. XiXiXtXeX5XK.%.L./.)...i } %X*X2X9XeXeXeX6XM j j j j D J P P P N j j #     pXpXpXpXpXpX",
"pXpXpXpXpXpXpXpXpXpXpXpXpX  . *.-X%X{.]. XiXiXtX9X5X$. .f.H.H.O.g } ;X4X5X9X9X1X*XR.5 < < < < l N N P J n < < #   pXpXpXpXpXpXpX",
"pXpXpXpXpXpXpXpXpXpXpXpXpX    #.-X%X|.]. XuXiXtX7X5X} f p.A.A.p.f  .6XeX9X9X9X_.o.o.+         2 j l K P b     pXpXpXpXpXpXpXpXpX",
"pXpXpXpXpXpXpXpXpXpXpXpXpX    #.%X@X{.].#XuXiXtXeX6X .g p.A.A.p./  .3XrX6X5X5XY.o. .+         < 4 j D P b     pXpXpXpXpXpXpXpXpX",
"pXpXpXpXpXpXpXpXpXpXpXpXpXpXpX= % : T.%X:XwXeXeX9X5X} g { A.A.J.W.P.OXXXoXK.K.r O o       pXpX  X X j l 2     pXpXpXpXpXpXpXpXpX",
"pXpXpXpXpXpXpXpXpXpXpXpXpXpXpX    = '.-X4XeX9X9X9X5X} f p.A.A.J./.`.XXXX.Xd.K.7           pXpX    X 4 j 2     pXpXpXpXpXpXpXpXpX",
"pXpXpXpXpXpXpXpXpXpXpXpXpXpXpXpXpX= ! ' *.4X4X4X4X2XY.&.K.a.a.m.F.G._ _ _ t r ~ | ) i.i.i.pXpXpXpX  $ < $ pXpXpXpXpXpXpXpXpXpXpX",
"pXpXpXpXpXpXpXpXpXpXpXpXpXpXpXpXpXpX    W -X=X*X=X=X-X-XY.T ^ k.A.C.<       . o.(.(.D.A.A.pXpXpXpXpX      pXpXpXpXpXpXpXpXpXpXpX",
"pXpXpXpXpXpXpXpXpXpXpXpXpXpXpXpXpXpX    9 T.T.R.R.R.T.R.&.t t k.D.M.- X X X # ) L.E.n.n.n.pXpXpXpXpX      pXpXpXpXpXpXpXpXpXpXpX",
"pXpXpXpXpXpXpXpXpXpXpXpXpXpXpX          . + O 5 c c c c 6 . . o.(.!.%   1 G G 6 + O # % % pXpXpXpXpXpXpXpXpXpXpXpXpXpXpXpXpXpXpX",
"pXpXpXpXpXpXpXpXpXpXpXpXpXpXpX                2 j j j j 2     X.(.W.%   1 J P 1           pXpXpXpXpXpXpXpXpXpXpXpXpXpXpXpXpXpXpX",
"pXpXpXpXpXpXpXpXpXpXpXpXpX    ; 0 s +X+X[     2 j j V N j     U w.( #   # 6 6 $ pXpXpXpXpXpXpXpXpXpXpXpXpXpXpXpXpXpXpXpXpXpXpXpX",
"pXpXpXpXpXpXpXpXpXpXpXpXpX    0 ^  .uXiX$X    2 j l K P b     b ;.D X *       pXpXpXpXpXpXpXpXpXpXpXpXpXpXpXpXpXpXpXpXpXpXpXpXpX",
"pXpXpXpXpXpXpXpXpXpXpXpXpX    0 / / $X0X+X$ $ 3 l v K P n @ @ n J L 9 9 :     pXpXpXpXpXpXpXpXpXpXpXpXpXpXpXpXpXpXpXpXpXpXpXpXpX",
"pXpXpXpXpXpXpXpXpXpXpXpXpX    0 / f @ . 6 K H P P K P J U f g U J 4.qXiX#X          pXpXpXpXpXpXpXpXpXpXpXpXpXpXpXpXpXpXpXpXpXpX",
"pXpXpXpXpXpXpXpXpXpXpXpXpX    w ^ y .   1 K H P P P P J U ^ g U P u.yXiX$X          pXpXpXpXpXpXpXpXpXpXpXpXpXpXpXpXpXpXpXpXpXpX",
"pXpXpXpXpXpXpXpXpXpXpXpXpXpXpX- - - C I 8.v.v.e.J P P ;.A - :  X3X>X*.*.` > > +         pXpXpXpXpXpXpXpXpXpXpXpXpXpXpXpXpXpXpXpX",
"pXpXpXpXpXpXpXpXpXpXpXpXpXpXpX    # 1.e.c.D.A.8.J H J P b     $XuXyX! 8 q a w @           pXpXpXpXpXpXpXpXpXpXpXpXpXpXpXpXpXpXpX",
"pXpXpXpXpXpXpXpXpXpXpXpXpXpXpX    # 1.5.9.V.V.8.I I I I c - @ *.,X$Xs q a d d > & @       pXpXpXpXpXpXpXpXpXpXpXpXpXpXpXpXpXpXpX",
"pXpXpXpXpXpXpXpXpXpXpXpXpXpXpX    # 1.r.r.e.e.E g ^ ~ ^ g g g : . . a a d h T T i y o         pXpXpXpXpXpXpXpXpXpXpXpXpXpXpXpXpX",
"pXpXpXpXpXpXpXpXpXpXpXpXpXpXpX    # 1.r.5.e.e.Q R T ^ ^ ^ ~ T -   . q a d ^ ^ T ^ u +         pXpXpXpXpXpXpXpXpXpXpXpXpXpXpXpXpX",
"pXpXpXpXpXpXpXpXpXpX              X L :.<.e.e.q.0.0.0.0.0.0.0.I n v @ O > ^ i &.T.Y.d t 8     pXpXpXpXpXpXpXpXpXpXpXpXpXpXpXpXpX",
"pXpXpXpXpXpXpXpXpXpX              X D P >.r.e.5.r.6.e.e.5.e.e.:.;.G X   - ^ i Y.-X'./ / 0     pXpXpXpXpXpXpXpXpXpXpXpXpXpXpXpXpX",
"pXpXpXpXpXpXpXpXpXpX- - - - - .   X z b F 3.3.5.e.e.e.e.e.e.r.<.:.:.1 1 7 q 0 @.*.@.f f w     pXpXpXpXpXpXpXpXpXpXpXpXpXpXpXpXpX",
"pXpXpXpXpXpXpX    o u ^ g ^ ^ -         1 P P 3.e.e.r.e.e.e.e.e.r.2.P P b         . q p >     pXpXpXpXpXpXpXpXpXpXpXpXpXpXpXpXpX",
"pXpXpXpXpXpXpX    . u g ^ ^ g -         1 P H <.2.e.7.e.2.e.2.2.e.2.L H b         . q p >     pXpXpXpXpXpXpXpXpXpXpXpXpXpXpXpXpX",
"pXpXpXpXpXpXpX    . y ^ f e d q , q 8 q : $ $ $ $ < < < < < < < < < $ $ #     : 8 , + o O pXpXpXpXpXpXpXpXpXpXpXpXpXpXpXpXpXpXpX",
"pXpXpXpXpXpXpX    . f g f a p a a a a a >         .     .                     , a q .     pXpXpXpXpXpXpXpXpXpXpXpXpXpXpXpXpXpXpX",
"pXpXpXpXpXpXpXpX  o w 0 w q a p a w p a >                                     & : : .   pXpXpXpXpXpXpXpXpXpXpXpXpXpXpXpXpXpXpXpX",
"pXpXpXpXpXpXpXpXpXpX    @ w a p a a a a >     pXpXpXpXpXpXpXpXpXpXpXpXpXpX          pXpXpXpXpXpXpXpXpXpXpXpXpXpXpXpXpXpXpXpXpXpX",
"pXpXpXpXpXpXpXpXpXpX    @ q p p p p p q >     pXpXpXpXpXpXpXpXpXpXpXpXpXpX          pXpXpXpXpXpXpXpXpXpXpXpXpXpXpXpXpXpXpXpXpXpX",
"pXpXpXpXpXpXpXpXpXpXpXpXpXo . o . . o o . pXpXpXpXpXpXpXpXpXpXpXpXpXpXpXpXpXpXpXpXpXpXpXpXpXpXpXpXpXpXpXpXpXpXpXpXpXpXpXpXpXpXpX",
"pXpXpXpXpXpXpXpXpXpXpXpXpX                pXpXpXpXpXpXpXpXpXpXpXpXpXpXpXpXpXpXpXpXpXpXpXpXpXpXpXpXpXpXpXpXpXpXpXpXpXpXpXpXpXpXpX",
"pXpXpXpXpXpXpXpXpXpXpXpXpX              pXpXpXpXpXpXpXpXpXpXpXpXpXpXpXpXpXpXpXpXpXpXpXpXpXpXpXpXpXpXpXpXpXpXpXpXpXpXpXpXpXpXpXpX",
"pXpXpXpXpXpXpXpXpXpXpXpXpXpXpXpXpXpXpXpXpXpXpXpXpXpXpXpXpXpXpXpXpXpXpXpXpXpXpXpXpXpXpXpXpXpXpXpXpXpXpXpXpXpXpXpXpXpXpXpXpXpXpXpX",
"pXpXpXpXpXpXpXpXpXpXpXpXpXpXpXpXpXpXpXpXpXpXpXpXpXpXpXpXpXpXpXpXpXpXpXpXpXpXpXpXpXpXpXpXpXpXpXpXpXpXpXpXpXpXpXpXpXpXpXpXpXpXpXpX"
};
