/* XPM */
static char *d78716c3eb3e44f0c1a1c29a1a4dc653bARtSDOxI5jbjjbd[] = {
/* columns rows colors chars-per-pixel */
"64 64 223 2 ",
"   c None",
".  c #000001",
"X  c #0A0604",
"o  c #020C04",
"O  c #0D0906",
"+  c #0E0C0B",
"@  c #130B08",
"#  c #1A0E0B",
"$  c #041405",
"%  c #051B08",
"&  c #161408",
"*  c #1C110B",
"=  c #060E15",
"-  c #171614",
";  c #26160C",
":  c #341D0F",
">  c #2A1A14",
",  c #321C15",
"<  c #361E18",
"1  c #082309",
"2  c #062A0E",
"3  c #092B09",
"4  c #09360A",
"5  c #0B3D0B",
"6  c #16360F",
"7  c #2C2C12",
"8  c #3A2417",
"9  c #172F23",
"0  c #342F28",
"q  c #4C2B15",
"w  c #44251D",
"e  c #48281A",
"r  c #4C3A1E",
"t  c #65391C",
"y  c #6D3C1E",
"u  c #713E1E",
"i  c #452820",
"p  c #4B2A21",
"a  c #4E3425",
"s  c #583321",
"d  c #483D31",
"f  c #693B21",
"g  c #733E20",
"h  c #783F20",
"j  c #0D420D",
"k  c #0F4D0D",
"l  c #0D4A11",
"z  c #0B4816",
"x  c #134D10",
"c  c #1B4A16",
"v  c #0E5516",
"b  c #0B521B",
"n  c #0D5A1B",
"m  c #185816",
"M  c #2C4C17",
"N  c #0F641E",
"B  c #0F681F",
"V  c #1E6317",
"C  c #166A1E",
"Z  c #18791D",
"A  c #276A1A",
"S  c #2B781D",
"D  c #337219",
"F  c #1A5B22",
"G  c #0D6321",
"H  c #0E6C23",
"J  c #0F7325",
"K  c #0D7927",
"L  c #0E7B29",
"P  c #107626",
"I  c #187728",
"U  c #107B29",
"Y  c #286B26",
"T  c #326726",
"R  c #30742D",
"E  c #52510F",
"W  c #73401F",
"Q  c #784A1C",
"!  c #695814",
"~  c #4C7512",
"^  c #6C6A03",
"/  c #504B2A",
"(  c #545423",
")  c #57493A",
"_  c #684924",
"`  c #744120",
"'  c #7A4927",
"]  c #547235",
"[  c #6D6A2F",
"{  c #555151",
"}  c #665545",
"|  c #577345",
" . c #796655",
".. c #747172",
"X. c #82551C",
"o. c #824F27",
"O. c #85552B",
"+. c #865732",
"@. c #906A2E",
"#. c #946835",
"$. c #98763A",
"%. c #A67A3C",
"&. c #8B765B",
"*. c #A37942",
"=. c #A47A41",
"-. c #A57B57",
";. c #8C7868",
":. c #2F821F",
">. c #3C851B",
",. c #15812A",
"<. c #1A8429",
"1. c #298725",
"2. c #218A29",
"3. c #338821",
"4. c #2D9329",
"5. c #389727",
"6. c #3C9B26",
"7. c #309629",
"8. c #248436",
"9. c #3EA229",
"0. c #3EAA28",
"q. c #4C931D",
"w. c #60A01B",
"e. c #6CB01C",
"r. c #4E8A27",
"t. c #4E922B",
"y. c #6B8E38",
"u. c #41A429",
"i. c #45A72A",
"p. c #54AB26",
"a. c #75A933",
"s. c #7EC21C",
"d. c #7D8E5F",
"f. c #4F9E62",
"g. c #6E9D6C",
"h. c #A58515",
"j. c #B39A10",
"k. c #ADA704",
"l. c #8D8D39",
"z. c #AB853A",
"x. c #AE893A",
"c. c #B49035",
"v. c #BA9933",
"b. c #9EAC27",
"n. c #CCB90F",
"m. c #C3A72B",
"M. c #C4A92B",
"N. c #D1B52D",
"B. c #D5B03A",
"V. c #B6D90E",
"C. c #BEE00E",
"Z. c #D4C60C",
"A. c #DAD606",
"S. c #D9CA1A",
"D. c #E1D315",
"F. c #E8DB16",
"G. c #E4D31B",
"H. c #D1E70C",
"J. c #EBE706",
"K. c #F2ED05",
"L. c #FFFE00",
"P. c #F2F50D",
"I. c #F9F508",
"U. c #F6E718",
"Y. c #DBC62D",
"T. c #EBD429",
"R. c #E8C638",
"E. c #F5EA34",
"W. c #949052",
"Q. c #AC8448",
"!. c #B68945",
"~. c #B48E54",
"^. c #978A73",
"/. c #AD906C",
"(. c #B59A78",
"). c #B9A379",
"_. c #C59947",
"`. c #CB9C4D",
"'. c #D39E4D",
"]. c #CFA84B",
"[. c #D5A54C",
"{. c #DEAB53",
"}. c #E5B54E",
"|. c #E1AD53",
" X c #C29E71",
".X c #CCAD70",
"XX c #C6A67B",
"oX c #EFDD5B",
"OX c #2B4E9C",
"+X c #6A7497",
"@X c #61719E",
"#X c #4765A8",
"$X c #679AB3",
"%X c #1EA6D2",
"&X c #0ABBF8",
"*X c #63A1C8",
"=X c #47C8F0",
"-X c #928E91",
";X c #AB9D85",
":X c #92A6A3",
">X c #C9AA87",
",X c #CAB389",
"<X c #D6B58C",
"1X c #D7B68C",
"2X c #DAB98E",
"3X c #DCBB92",
"4X c #D5C198",
"5X c #E4C59B",
"6X c #E7CBA3",
"7X c #F2D7AD",
"8X c #EBD7B1",
"9X c #F7DDB3",
"0X c #FFE9A9",
"qX c #FBE1B7",
"wX c #FFE6BD",
"eX c #FFE8BF",
"rX c #A1C7D6",
"tX c #DCE8DF",
"yX c #FFEAC2",
"uX c #FDEDD3",
"iX c #F1EFED",
"pX c #F8F8F5",
"aX c #FEFEFE",
/* pixels */
"                                                                                                                                ",
"                                                                                                                                ",
"                                                                                                                                ",
"                                                                                                                                ",
"                                                                                                                                ",
"                                                                                                                                ",
"                                                                                                                                ",
"                                                                                                                                ",
"                                                                                                                                ",
"                                                                                                                                ",
"                      =.=.=.=.=.#.` ` T K Z j j V i.u.u.u.6.U U U                                                               ",
"                      =.=.=.=.=.#.` W T L J l j V 0.u.9.u.9.,.U U                                                               ",
"            =.=.!.{.{.Y.D.D.D.F.M.@.#.r.7.4.x 5 V i.9.u.u.9.5.7.5.u.u.2.U P l j                                                 ",
"            =.=.!.{.{.U.L.L.L.L.F.*.Q.y.u.6.x j V u.u.u.u.u.u.u.u.u.u.<.K P j 5 j                                               ",
"            v.v.B.R.R.G.F.F.F.F.S.Q.Q.y.0.6.x j V u.u.u.u.u.u.u.u.u.u.4.<.<.V m V                                               ",
"      =.%.x.P.L.I.L.L.M.%.=.%.%.!.{.{.a.0.5.x 5 V u.u.u.u.u.u.u.u.u.u.u.u.u.9.u.7.U U v j j j j j                               ",
"      =.z.x.K.L.L.L.L.M.=.=.*.*.!.}.}.a.u.6.k j V u.u.u.u.u.u.u.u.u.u.u.u.u.u.u.7.L U n j j j j j                               ",
"  ` g n.F.D.m.v.M.R.R.[.`.[.'.`.R.U.U.H.H.V.q.3.S m m 3.u.u.u.u.u.u.u.u.u.u.u.u.9.5.5.I H H H P N j j                           ",
"  ` g Z.L.I.z.*.~.|.|.|.|.|.{.{.R.L.L.L.L.I.p.i.:.j j :.u.u.u.u.u.u.u.u.u.u.u.u.u.u.i.2.,.L U U N j j                           ",
"  ` g j.Z.n.!.Q._.`.`.`.`.`.`.`.N.L.L.J.G.S.p.i.:.j j :.u.9.3.3.3.1.:.5.u.u.u.u.6.7.7.<.K L U U H v v 4                         ",
"      W W ' '.|.`.=.=.=.=.=.*.=.M.L.L.m.*.l.i.u.:.5 j :.u.6.x j j 5 j :.i.u.u.u.7.U U U U U U U U U U 2 . .                     ",
"      ` W o.[.|._.*.$.=.Q.=.*.-.m.L.L.m.*.$.p.i.>.j j :.9.6.x j j j j :.u.u.u.u.7.P U U U U U U U U U 2 . o                     ",
"                  ; ; &.XXXXXXXX Xv.c.z.=.x.H.H.V.1.3.A m m 3.5.5.5.3.2.<.<.<.<.U U U K U U U U U U U H G n o . .               ",
"                  . . &.3X2X2X2X X$.*.*.*.x.I.L.C.9.u.A j x u.i.i.i.i.2.K K U U U U U U U U U U U U U U U H o . .               ",
"                  . . &.3X<X5X5X<X~.~._.M.N.S.S.b.4.7.C v n S S 3.7.7.<.K U U U U U U U U U U U U U U U U H o . .               ",
"                  . . &.<X3XwXyX7X,X3XE.L.I.x.=.y.I U U U P j 5 v K L U U U U U U U U K U U L U U U U U U H o . .               ",
"                  . . &.>X<X6X8X6X<X2XE.L.K.x.%.[ I I P K P l j n K P P U P P U K P K J J J P U P U P U U P $ o o               ",
"                  . . s +.' 0 >  .qXqXE.L.P.x.Q.#._ _ M l l H P B l l l l l l l l l l 1 $ % j l j z l H U U G H z . .           ",
"                  . . q u f . o ) eXyXE.L.I.%.%.#.u g M 4 j J K Z j 5 j 5 j j j j j j $ . o 5 j j j j H U U L ,.b . .           ",
"                0 } } { { { ....;XeXwXoXS.N._._.%.u ` [ ] d.W.g.g.d.d.T j j j j 5 1 1 $ . . 1 1 1 1 1 z n N N G z % % $         ",
"            . . d <X2X@XOX#XpXaXpX0XwX X$.=.{.|._.W g /.2X3XyXyXeXeXqX| j j j j 3 . .       . . . . . 3 j 5 j j j j j % . .     ",
"            . . d <X<X@XOX#XiXaXiXwXwX X$.=.[.}.c.u u /.4X4XeXyXwX8X9X| 5 5 5 5 1 . .       . . . . . 3 5 5 4 5 5 5 5 $ . .     ",
"            . . d 2X<X+XOX#XiXaXiXwXwXQ.` O.J.I.n.g W >XeX0XwXeX5X~.!.0 o . . o o                     . o . o . o o .           ",
"            . . d 2X3X+XOX#XiXaXiXwXwX-.W X.K.L.n.g y <XeX0XeXeX3X=.Q.8 . . . . .                     . . . . . . . .           ",
"                0 } } ..-X-XtXuXuXwXwX-.y X.K.L.D.%.%.:X=XrX,X.XW.a r & . . .                                                   ",
"                  . . &.3X3X9XyXyXyXeX-.y X.K.L.U.|.|.*X&X&XW.=._ . . . . .                                                     ",
"                  . .  .(.).7X9X9X9XqX~.' +.A.J.G.}.B.$X%X%X .#._ ; ; ; 7 7                                                     ",
"                      @ + > >X<X3X<X<X,X,XXXO.Q h.L.P.E . = X X r ].'.D.K.K.                                                    ",
"                      . . - XX<X<X<X<X<X2X>X' g h.L.L.E . . . . r |.|.U.L.L.                                                    ",
"                            d ) ) | | | [ ] 8 ; ! R.T.E . . 1 3 7 / / E ^ ^                                                     ",
"                            . . $ 5 j j 5 4 . . r |.|./ . o 5 j 3 . . . . .                                                     ",
"                            % % 2 l l l l l % o 7 !.Q.r $ % l v 4 . . . . .                                                     ",
"                      . . o B K K U P U U P l j 6 X X b K U P U b . .                                                           ",
"                      . . o H U U U U U U P l j 3 . . b U U U U b . .                                                           ",
"                  . . 5 b n U U L L L z 2 2 N N N b b 4 2 2 J L b . .                                                           ",
"                  . . b L L L L L ,.L 2 X o B K K K L 2 . o H L b . .                                                           ",
"                  . . A w.u.R Y Y Y Y 3 . = f.f.f.f.f.9 o o Y Y F % % %                                                         ",
"                  . . k.L.J.Q ` ` ` ` ; . - tXpXpXaXaX{ . X f g ( L K 2 . .                                                     ",
"                  . . k.L.J.Q ` ` ` ` ; . - tXpXaXaXaX{ . X t ` ( L U 2 . .                                                     ",
"                  . . ~ s.e.t.r.r.r.r.6 . + }  . . . .7 . O ~ t.3.L U 2 . .                                                     ",
"                  . . A 0.9.i.i.i.9.i.6 . X w w w w i # . $ 5.i.7.U U 2 . .                                                     ",
"                  . . c S D 9.i.u.u.u.6 . X p s s s s * . O 6.i.8.b b 1 . .                                                     ",
"                  . . . . $ 5.i.9.i.u.6 . O f h g g ` ; . $ 5.i.A . .                                                           ",
"                  . . . . O 3.i.6.6.9.6 . + g h ' h ' ; . $ 3.u.A . .                                                           ",
"                      . . o % 1 1 1 1 X . - >X5X3X;X Xa . o % 1 %                                                               ",
"                      . . . X . . . . . . > 8XyX9X3X3Xd . . X . X                                                               ",
"                      . . X ; : ; # * O . + ;.^.^.&. .7 . . . .                                                                 ",
"                      . . X y W t p p * . . . . . . . . . .                                                                     ",
"                      . . X t W y p p ; . X . . . . . . . .                                                                     ",
"                      . . X t W ` g f e i < X . . . .                                                                           ",
"                      . . X y W W W ` s w w X . . . .                                                                           ",
"                        . O : 8 e 8 w , ; > X . . . .                                                                           ",
"                            . . . . . . . .                                                                                     ",
"                            . . . . . . . .                                                                                     "
};
