/* XPM */
static char *fd1a980d87154b53a425a825d46f1849QFaudnCsMmcmPCms[] = {
/* columns rows colors chars-per-pixel */
"64 64 188 2 ",
"   c None",
".  c #000101",
"X  c #0A0605",
"o  c #030D05",
"O  c #0A090A",
"+  c #1A0E0C",
"@  c #130908",
"#  c #041505",
"$  c #091907",
"%  c #071B07",
"&  c #1E110C",
"*  c #1B1B01",
"=  c #1E1D14",
"-  c #0C141E",
";  c #25150B",
":  c #28160C",
">  c #251E09",
",  c #291712",
"<  c #2D1914",
"1  c #311B16",
"2  c #05240C",
"3  c #052A0E",
"4  c #092C09",
"5  c #13270B",
"6  c #0A330B",
"7  c #0B3E0B",
"8  c #103A10",
"9  c #3A3704",
"0  c #2D2618",
"q  c #3D2312",
"w  c #372617",
"e  c #2F2B24",
"r  c #323228",
"t  c #44261D",
"y  c #4A2815",
"u  c #563119",
"i  c #4D3C1D",
"p  c #63391C",
"a  c #713F1E",
"s  c #4D2A21",
"d  c #512D21",
"f  c #5B3E2C",
"g  c #723F21",
"h  c #0D430D",
"j  c #17470F",
"k  c #0D4B13",
"l  c #1B4713",
"z  c #0E5516",
"x  c #0A511B",
"c  c #0E5B19",
"v  c #155111",
"b  c #185B16",
"n  c #274B1A",
"m  c #26521E",
"M  c #375012",
"N  c #0F651E",
"B  c #18661B",
"V  c #246C19",
"C  c #2A6C1B",
"Z  c #27651A",
"A  c #2E7D1F",
"S  c #2B701C",
"D  c #275420",
"F  c #244536",
"G  c #0E6E25",
"H  c #0D6221",
"J  c #0F7326",
"K  c #0E7B29",
"L  c #0C7C26",
"P  c #107426",
"I  c #107C29",
"U  c #167727",
"Y  c #156A24",
"T  c #336927",
"R  c #24622A",
"E  c #55441C",
"W  c #424719",
"Q  c #6C411F",
"!  c #74401E",
"~  c #626301",
"^  c #746412",
"/  c #56442C",
"(  c #57453B",
")  c #674A23",
"_  c #734220",
"`  c #7B4523",
"'  c #6C5122",
"]  c #664B37",
"[  c #5D6223",
"{  c #7C603A",
"}  c #656323",
"|  c #2C4A69",
" . c #2E4F70",
".. c #097566",
"X. c #434344",
"o. c #83561E",
"O. c #88592C",
"+. c #845531",
"@. c #866434",
"#. c #926535",
"$. c #986F3B",
"%. c #94753B",
"&. c #A2793F",
"*. c #956845",
"=. c #9E7A46",
"-. c #9F7551",
";. c #A47B41",
":. c #A87F43",
">. c #A37954",
",. c #87726C",
"<. c #2F821F",
"1. c #30831F",
"2. c #17822A",
"3. c #248C29",
"4. c #2B8826",
"5. c #318420",
"6. c #388922",
"7. c #2C9329",
"8. c #369023",
"9. c #3D9B26",
"0. c #399D29",
"q. c #369828",
"w. c #3B8632",
"e. c #3EA329",
"r. c #3CA127",
"t. c #408E1E",
"y. c #73BC1E",
"u. c #498D27",
"i. c #4B9127",
"p. c #469B28",
"a. c #5B992F",
"s. c #5A9830",
"d. c #41A429",
"f. c #43AA2B",
"g. c #55B025",
"h. c #6FA92F",
"j. c #5F835F",
"k. c #60825F",
"l. c #4F9F62",
"z. c #BD9E31",
"x. c #B49236",
"c. c #AC8836",
"v. c #BFA22B",
"b. c #D1BF0A",
"n. c #C0BA16",
"m. c #C2A72B",
"M. c #BEC421",
"N. c #B2D70F",
"B. c #DED117",
"V. c #E2D317",
"C. c #D4E010",
"Z. c #C2E40C",
"A. c #E7E501",
"S. c #FEFF00",
"D. c #F6F305",
"F. c #F2E11D",
"G. c #F1FF12",
"H. c #EEF204",
"J. c #8A875C",
"K. c #B08850",
"L. c #B78B47",
"P. c #908D60",
"I. c #A5957B",
"U. c #BEA67C",
"Y. c #DDAC52",
"T. c #D7AA51",
"R. c #C39F70",
"E. c #CBA877",
"W. c #147E84",
"Q. c #058392",
"!. c #249793",
"~. c #0291B0",
"^. c #778CA1",
"/. c #2EB5C3",
"(. c #0AAEEE",
"). c DeepSkyBlue",
"_. c #27C8DD",
"`. c #D0AF88",
"'. c #D9B68E",
"]. c #D4B48C",
"[. c #D6BB92",
"{. c #DEC69A",
"}. c #F1D6AD",
"|. c #F4DAB1",
" X c #E9D2A8",
".X c #FCE3BB",
"XX c #FFEAC1",
"oX c #FDFDFD",
/* pixels */
"                                                                                                                                ",
"                                                                                                                                ",
"                                                                                                                                ",
"                                                                                                                                ",
"                                                                                                                                ",
"                                                                                                                                ",
"                                                                                                                                ",
"                                                                                                                                ",
"                                                                                                                                ",
"                                                                                                                                ",
"                                                                                                                                ",
"                                                                                                                                ",
"                                                      _ _ #.;.;.;.;.;.;.;.+.a _                                                 ",
"                                                      g ! #.:.;.;.;.;.;.&.+.a a                                                 ",
"                                                    p O.O.c.z.z.z.z.x.;.&.O.+.O.                                                ",
"                                                . . E Y.T.F.S.S.S.S.B.;.&.&.&.c.D.S.V.;.;.                                      ",
"                                                . . i T.T.F.S.S.S.S.B.c.;.;.&.c.D.S.B.;.;.                                      ",
"                                            . # S A u.h.h.h.y.y.y.y.h.a.a.a.a.h.H.S.B.;.;.;.;.;.                                ",
"                                          X . o 9.d.d.d.e.e.e.e.r.e.f.e.e.e.e.g.H.S.V.;.;.;.;.;.                                ",
"                                          5 8 8 <.5.5.5.5.5.5.5.<.4.1.1.1.4.<.t.N.Z.M.L.L.z.v.z.                                ",
"                                      . . C f.9.v h h h h h h h h h h h h h h j 9.d.h.Y.Y.F.S.H.o._ _                           ",
"                                      . . C d.9.v h h h k j h h h h k h k h h v q.0.h.Y.T.V.S.A.o._ _                           ",
"                                . . 3 H H b v b 6.8.8.8.8.8.8.8.8.8.8.8.q.8.8.5.b b R u.w.M 9 9 #.$.$.                          ",
"                                . . 3 2.K z 7 j 9.d.d.d.d.d.d.d.d.d.d.f.d.d.d.9.j 6 x K L 3 . @ %.;.;.                          ",
"                                . . 2 H N B V V d.d.d.d.d.d.d.r.d.d.d.d.d.d.d.9.V V B B N 2 . X @.;.                            ",
"                                . . # h h <.d.d.d.d.d.d.d.d.d.d.d.d.d.d.d.d.d.d.d.f.1.h h # . .                                 ",
"                                o o % h h <.p.9.p.d.d.d.d.d.d.d.d.d.d.d.d.d.d.d.p.r.A h h % o .                                 ",
"                      ;.&.E.'.U.8 6 k P P c v b 9.d.d.d.e.p.d.d.d.d.d.d.d.d.r.9.b v c P J k 6 l U.'.E.;.;.                      ",
"                      ;.&.E.`.U.m h z I I z 7 v 9.r.d.d.d.d.d.d.d.d.d.d.d.d.d.9.v 7 z I I x 7 m E.].U.&.;.                      ",
"                    >.E.E.[. X{.m 7 z I I Y c N 9.d.d.d.d.d.d.d.d.d.d.d.d.d.d.9.N c N I I x h b [. X[.E.E.>.                    ",
"                _ a >.XXXX.XXX}.D h z I I I I 2.r.d.e.d.d.d.d.d.r.d.d.d.d.d.d.9.2.K I I I c h D }..X.XXXXX>.a _                 ",
"                _ a -.}.}.|.|.{.m 7 z I I P J U 0.r.r.d.d.d.d.r.d.d.d.d.d.r.r.q.U J I K K v h D {.|.|.}.}.>.a _                 ",
"                      +.` =.K.K.l h x I I c h z I I 3.d.d.d.d.d.d.d.d.d.d.3.I U z h c I K x h l ;.K.;.+.+.                      ",
"                      _ _ #.=.%.l h z K I z h h P K 3.d.d.d.d.d.d.d.d.d.d.3.I P h h z K I z 7 j %.&.#.g !                       ",
"                          +.O.@...Q...c c 6 % 4 P I U 7.3.0.d.d.d.d.9.3.3.2.I P 4 % 6 c N ..Q.W.@.O.O.                          ",
"                          _ ! ] (.).~.7 h % . o G I I I I q.d.d.d.d.7.I I I I G o . # 7 7 ~.).(.] a _                           ",
"                          p p / /._.!.n l $ . o G I I I I 7.9.0.0.0.7.I I I I G o . $ l l !._./.( p p                           ",
"                          X . > C.G.n.a Q : . o G I I I I I I I I I I K I I I G o . : Q a n.G.C.> X X                           ",
"                          . . * A.S.b.g a : . o G I I I I K I I I I I I P K I G o . : a a b.S.A.* . .                           ",
"                                ~ ~ ^ #.#.0 . o z x Y P I I I I I I I I I Y c k o . 0 #.#.^ ~ ~                                 ",
"                                . . w ;.K.w . o 7 h z I I I K I I I I I K c h 7 o . w K.;.w . .                                 ",
"                                . . w @.{ > . o 4 6 k I K I I I I I I I I k 6 4 . . 0 O.@.w . .                                 ",
"                                      X X . . . . . 3 I I I I P P I I I I 3 . . . . . o X                                       ",
"                                      . . . . . . o 3 I I I I I I I I I I 3 . . . . . . .                                       ",
"                                . . 3 x x 7 3 4 o . % x z G I I I I P v z % . . 4 4 7 x x 2 . .                                 ",
"                                . . 3 2.L z h 7 . . # h h N I I I I N h h # . o 7 h z L L 3 . .                                 ",
"                                @ @ r l.l.R 7 7 2 % 2 6 4 N I I I I H 4 6 2 2 2 7 h R l.l.F - -                                 ",
"                          . . . t t ,.oXoXj.h h P I x . . k I I I I x . . x K J h 7 j.oXoX^. .| O . .                           ",
"                          . . X s t ,.oXoX{ 7 j P I z . . x I I I K x . . x K J k h { oXoX^.| | O . .                           ",
"                      . . q u u p p f X.X.( i / U I x . . 6 x z k z 6 . . x 2.U W / X.X.X.( ] ] u u q . .                       ",
"                      . . y ! a a a y . o t g ) U K x . . 4 h h h h 4 . . x 2.U Q ` y . . y ! a g _ y . .                       ",
"                      . . ] >.>.*.$.] # % M } } T T n : : 5 6 4 4 4 5 : : n T T [ } M # # ) *.*.>.>.] . .                       ",
"                      . . I.XX.X[.'.P.h h 5.f.p._ _ _ _ _ ; . . . . : _ _ _ ! ' d.d.1.h h P.'.[.|.XXI.. .                       ",
"                      . . I..X}.`.`.J.7 7 A d.p.' _ _ _ _ > . X o . > _ ! ! _ ' p.f.1.7 7 J.`.`.|..XI.. .                       ",
"                          e r r 0 e , o o S d.d.p.i.i.i.p.6.6.A 6.A 6.i.i.i.i.i.d.f.C o o = 0 e r r e                           ",
"                          . . . . . . . . C f.d.d.d.d.d.d.d.d.d.d.f.d.f.d.d.d.f.d.f.C . . . . . . . .                           ",
"                            . . . . X & + n Z C 7.7.q.r.d.d.d.d.d.d.d.d.d.q.7.3.Z Z n + + X . . . .                             ",
"                                . . + s s + . o G L 3.f.d.d.d.d.d.d.d.r.d.3.I G o . + s s + . .                                 ",
"                                . . + t t + . o Y U 3.p.p.9.9.9.9.9.p.p.p.3.U Y o . + s t + . .                                 ",
"                                      X X < t t / Q Q ' ' 0 $ $ $ $ 0 ' Q ) ) ) s w < X X                                       ",
"                                      . . 1 s d ! ! ! ! ! : . . . . : _ _ _ _ _ d s 1 . .                                       ",
"                                      . . & , , q q q y q & . . . . ; q q q q q , , & . .                                       ",
"                                          . . . . . . . .             . . . . . . . .                                           ",
"                                          . . . . . . . .             . . . . . . . .                                           "
};
