/* XPM */
static char *_76c6dc2e2e744f5d821c3672ec8fd7a24G6TEO1bbUPsoi6[] = {
/* columns rows colors chars-per-pixel */
"48 48 117 2 ",
"   c None",
".  c #010000",
"X  c #0C0302",
"o  c #0C0905",
"O  c #0C0A09",
"+  c #140403",
"@  c #1A0604",
"#  c #100907",
"$  c #1A0E0D",
"%  c #14100F",
"&  c #1F1411",
"*  c #240906",
"=  c #2C0A07",
"-  c #240B08",
";  c #310B07",
":  c #281F16",
">  c #30231F",
",  c #2D2B24",
"<  c #332A21",
"1  c #302C2A",
"2  c #3A2E2A",
"3  c #373122",
"4  c #393323",
"5  c #33312B",
"6  c #440F09",
"7  c #46100A",
"8  c #49100A",
"9  c #56130C",
"0  c #5E150D",
"q  c #6B180F",
"w  c #6F1910",
"e  c #741A11",
"r  c #7B1C12",
"t  c #473938",
"y  c #493A38",
"u  c #535140",
"i  c #766D5B",
"p  c #871E13",
"a  c #891F14",
"s  c #882014",
"d  c #8F2418",
"f  c #9C2316",
"g  c #922418",
"h  c #AF2517",
"j  c #AD2719",
"k  c #AE281A",
"l  c #B02718",
"z  c #B12819",
"x  c #BB2B1B",
"c  c #C42617",
"v  c #C42917",
"b  c #C42718",
"n  c #C52C1C",
"m  c #CA2D1D",
"M  c #C6301F",
"N  c #C42E21",
"B  c #C73321",
"V  c #C83423",
"C  c #C43823",
"Z  c #C83927",
"A  c #C93D2B",
"S  c #C7442C",
"D  c #CA4631",
"F  c #CB4933",
"G  c #CD4D38",
"H  c #CE523E",
"J  c #867C6C",
"K  c #907F6E",
"L  c #887872",
"P  c #D05A43",
"I  c #D56D56",
"U  c #D8765E",
"Y  c #8D866B",
"T  c #888377",
"R  c #9B8474",
"E  c #DC8C6E",
"W  c #DE9275",
"Q  c #DF9779",
"!  c #E09679",
"~  c #E09A7D",
"^  c #B4AD87",
"/  c #B6B396",
"(  c #E29F80",
")  c #E3A585",
"_  c #E4AB86",
"`  c #E5AD8D",
"'  c #E7B191",
"]  c #E8B795",
"[  c #E8B897",
"{  c #EABE9C",
"}  c #DBBAAB",
"|  c #CAC59F",
" . c #DAD6A7",
".. c #DBD7AD",
"X. c #ECC7A4",
"o. c #E7C9B3",
"O. c #E3D8B0",
"+. c #F0D9B4",
"@. c #E3E1B3",
"#. c #EBE1B5",
"$. c #E9E0BA",
"%. c #ECE8BA",
"&. c #F2E3BD",
"*. c #F5ECBC",
"=. c #F5FBBD",
"-. c #F5EDC6",
";. c #F6F7C2",
":. c #F6FCC4",
">. c #F7F5CC",
",. c #F7F8CD",
"<. c #F9FCCD",
"1. c #FDEBDE",
"2. c #FAFED3",
"3. c #FDF4DD",
"4. c #FCFEDA",
"5. c #FFF2E4",
"6. c #FFFBE3",
/* pixels */
"                                                                                                ",
"                                                                                                ",
"                                                                                                ",
"                                                                                                ",
"                                                                                                ",
"                                                                                                ",
"                                                                                                ",
"                                                                                                ",
"                                                                                                ",
"                                                                                                ",
"                                                                                                ",
"                                                                                                ",
"                                                                                                ",
"                                                                                                ",
"                                                                                                ",
"                                                                                                ",
"                                                                                                ",
"                                                                                                ",
"                                                                                                ",
"                                                                                                ",
"                                                                                                ",
"                                                                                                ",
"                                      6 8 8 8 8 8 *                                             ",
"                                    9 n m m m m B r *                                           ",
"                                  0 x n b b b b n m s @                                         ",
"                                0 x m A ` ' [ U b n m s *                                       ",
"                              0 x n n D 2.2.4.) b n n m g -                                     ",
"                            q z m n n D >.2.4.~ c n n [ +./ #                                   ",
"                          9 x n n n n D &.-.>.! c n m +.4.&.d +                                 ",
"                        9 n n A F F F M Z Z Z V m n N { &.X.M p @                               ",
"                      ; n n c _ <.;.*.Z n n b m n n n N C C n M r                               ",
"                      = n B b _ <.<.-.S n m n n n n m n n n n m e .                             ",
"                      ; n M b ' 6.4.>.S n n n v v v v n n n n m e .                             ",
"                      ; n B b I Q Q W C n n n P W W W A n n n m e .                             ",
"                      = n n n n b v v M n n v E 4.2.2.P n n n m e .                             ",
"                        w n n n m N n n n n v E 2.,.,.H b n m f =                               ",
"                          w n n N N n n n n b E 2.,.>.H n j ; =                                 ",
"                            w n n n n n n n N A G G F B j =                                     ",
"                            X e z k k k z z j h l l z j =                                       ",
"                              X X X o - : 4 4 < > $ X X                                         ",
"                                    O R ^ =.=.#.} t                                             ",
"                                    % o.*.:.=.%.o.y                                             ",
"                                    % J | <.:...K 2                                             ",
"                                        u @. .Y o                                               ",
"                                        , $.O.i                                                 ",
"                                        5 3.4.J                                                 ",
"                                        5 3.6.T                                                 ",
"                                        1 1.5.L                                                 "
};
