/* XPM */
static char *_146b963f1f242a6951683f446aaf1821fklj5lFwOpHpi3a[] = {
/* columns rows colors chars-per-pixel */
"64 64 148 2 ",
"   c None",
".  c #074447",
"X  c #084347",
"o  c #074448",
"O  c #0A4548",
"+  c #0C4A49",
"@  c #11474A",
"#  c #1B464B",
"$  c #144A4B",
"%  c #1B4B4D",
"&  c #0B5847",
"*  c #0D5349",
"=  c #0E5C48",
"-  c #12514B",
";  c #115D49",
":  c #25444C",
">  c #224E4F",
",  c #23514F",
"<  c #3E594F",
"1  c #264F50",
"2  c #294F50",
"3  c #265150",
"4  c #2C5251",
"5  c #2E5C52",
"6  c #335553",
"7  c #3B5655",
"8  c #325C53",
"9  c #3A5955",
"0  c #0F6349",
"q  c #116549",
"w  c #1C674C",
"e  c #136D49",
"r  c #1C6B4C",
"t  c #137349",
"y  c #19734C",
"u  c #14784C",
"i  c #15784C",
"p  c #15794C",
"a  c #16784D",
"s  c #147A4D",
"d  c #157A4D",
"f  c #167B4E",
"g  c #167A4F",
"h  c #167B4F",
"j  c #177B4F",
"k  c #147C4E",
"l  c #157C4E",
"z  c #167C4F",
"x  c #157A4E",
"c  c #18794F",
"v  c #197B4F",
"b  c #166450",
"n  c #156C51",
"m  c #167553",
"M  c #167252",
"N  c #1A7253",
"B  c #177C50",
"V  c #177D50",
"C  c #167E50",
"Z  c #167F50",
"A  c #177F51",
"S  c #187C50",
"D  c #197D50",
"F  c #1A7D52",
"G  c #1A7D53",
"H  c #187F52",
"J  c #197F53",
"K  c #1F7F56",
"L  c #197D53",
"P  c #20674D",
"I  c #27654F",
"U  c #25664E",
"Y  c #24674E",
"T  c #25664F",
"R  c #25654E",
"E  c #28634F",
"W  c #2D614C",
"Q  c #28654F",
"!  c #28644F",
"~  c #20684D",
"^  c #21694D",
"/  c #22694D",
"(  c #24684E",
")  c #24694F",
"_  c #206C4D",
"`  c #216A4D",
"'  c #30614D",
"]  c #2A6150",
"[  c #296250",
"{  c #2B6250",
"}  c #2B6350",
"|  c #2C6150",
" . c #2C6151",
".. c #2E6051",
"X. c #2F6051",
"o. c #2C6251",
"O. c #2D6251",
"+. c #2E6251",
"@. c #2A6450",
"#. c #2B6551",
"$. c #2C6250",
"%. c #2E6A56",
"&. c #2A6E56",
"*. c #2D6D56",
"=. c #2C6C56",
"-. c #316052",
";. c #306153",
":. c #326053",
">. c #316355",
",. c #3D6355",
"<. c #277556",
"1. c #267656",
"2. c #257656",
"3. c #297356",
"4. c #227A56",
"5. c #227B56",
"6. c #207C55",
"7. c #237A56",
"8. c #4E4552",
"9. c #4F4E55",
"0. c #5E4154",
"q. c #514A54",
"w. c #524A54",
"e. c #524A54",
"r. c #445150",
"t. c #624154",
"y. c #178152",
"u. c #188052",
"i. c #198052",
"p. c #188053",
"a. c #198253",
"s. c #1A8054",
"d. c #1B8054",
"f. c #198254",
"g. c #1A8254",
"h. c #1F8056",
"j. c #1E8156",
"k. c #1A8455",
"l. c #1A8555",
"z. c #1A8456",
"x. c #1A8556",
"c. c #1B8556",
"v. c #1B8557",
"b. c #198756",
"n. c #1A8657",
"m. c #1B8657",
"M. c #1C8557",
"N. c #1B8456",
/* pixels */
"                                                                    8                                                           ",
"                                                                    i                                                           ",
"                                                                  t l.                                                          ",
"                                                                  t m.                                                          ",
"                                                                  t i t M.                                                      ",
"                                                                  t t a.                                                        ",
"                                                              t l.l.t t   g.                                                    ",
"                                                            + e h.g.t u a.u                                                     ",
"                                                            . O 4 t t y.t       t                                               ",
"                                                          O & * + e W t t     t t                                               ",
"                                                        . O R t 0 i ,.t     l.t                                                 ",
"                                                      O 1 4 > ] #.l.b.t m.m.i t                                                 ",
"                                                    O O $ % O % 7 a l.t i i t                                                   ",
"                                                        . O 4 e $ 5 y t t ;.g.      e                                           ",
"                                                        . + r t 6 $ 8 J l.h.t     8 +                                           ",
"                                                        + * 4 0 O 7 r u 5.l.k g.m e                                             ",
"                                            7     O 9 t t u + % ; W 9 / +.J 2.t O X                                             ",
"                                              7 O O 1 = Y &.3 9 J t ! *.B B I t                                                 ",
"                                                O O X 2 7 7 7 % - R t k u Z Z t i m.    t                                       ",
"                                                    O % % 9 / q O 7 ;.8 5 t i t t l.t t *                                       ",
"                                              O O 7 6 X + r t t + $ w.w 8 t g.g.:.8 * +                                         ",
"                                            O O 7 6 @ @ e e e + 6 e 6.- r t t g.y +                                             ",
"                                              O 4 O O 7 4 4 + $ O t J 9 8 t u u t t m.                                          ",
"                                          O O O O O O 4 O O O 3 + w / +.i t l.l.t _ a.y.                                        ",
"                                                O O O . O o O o O W 9 t k ) J j i 3 = R                                         ",
"                                            7 O O > ; > O 1 O 3 = t 9 +.t 7 +.W %.    > ] t #.                                  ",
"                                          7 7 O O / +./ 4 7 O 7 ;.5 9 2.t 9 / 9 9 y l.q   * %                                   ",
"                                  7     7 $ $   O 5 $ e % $ O $ $ % w.h.y 9 G 5.9 8 a a.l.                                      ",
"                                    O O @     O O O O 9 8 O 5 e t + 9 8 8 7 - y K 9 8 a h.g.y                                   ",
"                                            $ @ O O O 4 q O r l.g.$ r _ K 9 8 8 m.h.>._ 4 w 8 t 9                               ",
"                                          * 5 9 O O O O O * 7 <.N 7 7 4 / 9 t t 2.J g.4 + O                                     ",
"                                      % = t t , O O O O + t E > O ] %.O > 1 R ) *.S &.=                                         ",
"                              7   O 1 7 ] t = o o = O O O E t O 3 t Z 3 1 ; > 7 Z Z &.t <.M.m.                                  ",
"                                O O % % % * 4 q q W 4 O O % 5 @ 9 8 r.% w a.n 9 8 X.a * = B M.                                  ",
"                                    O O O 4 r t t $ e + O . $ O 6 9 # + 8 a M.7.w.w 8 6 2 + >.y t                               ",
"                                O @ 6 O 8 r 6 + + e t e + + 6 6 $ r G G 8 9 8 e $ + - 9 %     + 8                               ",
"                            O o O 4 6 O 4 e O O 8 t u t t t a + 6 u b.e K 9 - * O 6 2.j.X.-                                     ",
"                            O O O O O O O O O O 4 / l.5.q 2.2.O 4 w Z % / 9 g.u * %.%.n q Z l.                                  ",
"                                O O O X O o o O O 3 *.9 @ 2 7 O O 1 t E 1 3 3.Z C n v.0 + ~ J t                                 ",
"                              O o O O 1 = O O o O O # 1 O O 8 ; O > ] E O > 1 ] m o b =.3 >     #.t                             ",
"                                O O q r t q 0 4 O O X O O O % * + / <.Y O 7 4 % W 4 O % Y 4 7 O                                 ",
"                          O . O O 4 8 * + 8 5 r + 4 O O X O O 4 q * X.5 6 7 r N w.# 4 6 g.6.r 0 +                               ",
"                        O O O O O @ O O X @ O - O @ O + + O O r e O # O $ 7 y M.9 e y 8 a t f.t 5 O e                           ",
"                      O     O o O o     O X $ 6 4 + e u e 8 @ 4 8 % 8.O $ 8 ;._ 9 h.g.M.t t 6.K e   + t                         ",
"                                      O O # 4 4 O O i 2./ 4 + + t 8 7 > 5 t M.>.9 w w m t q 4 4 O q                             ",
"                                o O # O O > O O O O n 7 3 + % % J i 9 9 t W j M.=.O 1 O = O O % * O =                           ",
"                            o O 3 3 > O O O O > O O O % O O r.9 q %.7 1 +.9.9 j g.+ . o     4 9 t u                             ",
"                      O O O O O % % o o O O 4 % O O O . O 4 % % O 7 7 O # > : * t + 3 q 9 O % % 5 t 9 t                         ",
"                        O O O O O O 4 + o O $ O O 6 6 O O $ O O O $ $ + o o O 4 8 6 9 y r e 4 4 $ * 7 8                         ",
"                            O O 6 6 r o O O O O O 7 6 O O O 4 4 O O 6 9 e t 6 r y y 6 6 Z a.r 9 r   @ O                         ",
"                            O @ 8 t r @ 4 + 6 $ O 4 @ + O @ e $ O 8 r.9 y l.a 9 5.5.+ * * G + 6 6                               ",
"                      O O   O 6 e q 4 4 * / 9 8 * O * w % 9 y 7 % e 9 8 9 <.1.5 4 4 * A l.B * O O                               ",
"                          O % 4 O O O O I 7 ] u q * t 9 ' 9 q 2 9 I #.t ] 2 7 t * + Y 0 n n )                                   ",
"                      O O O > O   O O O E 8 y &.+ ! R R t 7 O O 7 9 #.I t = 7 ; I = R X X O > E >                               ",
"                                    + 0 B 9 8 7 O > 7 e * % . O 6 % > % t A w + % g.Z 0       #                                 ",
"                                    + e >.7 % $ O O 7 J q + O O w 4 o o * >.g.q O * :.e 9                                       ",
"                                O   O + 6 $ O O   O 6 N.8 O O o y K +   O @ 6 8 O O @ 6 9 9                                     ",
"                                  O O   O         + q e   O o # 5 m 6 t.  O + O       @ 6 6                                     ",
"                                                  O O +       0.: : : 0.      + t       O + e                                   ",
"                                                      O     t.t.t.t.t.t.t.                                                      ",
"                                                          t.t.t.t.t.t.t.                                                        ",
"                                                            t.t.t.t.t.                                                          ",
"                                                                                                                                ",
"                                                                                                                                "
};
