/* XPM */
static char *_e70aefbd7bb46eab849794d5bee64e5h9ioq15UiZAAitUo[] = {
/* columns rows colors chars-per-pixel */
"64 64 225 2 ",
"   c None",
".  c #000001",
"X  c #0B0605",
"o  c #020D05",
"O  c #0B0908",
"+  c #150C09",
"@  c #041707",
"#  c #191606",
"$  c #1C110A",
"%  c #141619",
"&  c #27170C",
"*  c #331D0E",
"=  c #281A13",
"-  c #311B15",
";  c #06260C",
":  c #052A0F",
">  c #0C360F",
",  c #15390F",
"<  c #2B2F15",
"1  c #3E2312",
"2  c #3A2719",
"3  c #061D28",
"4  c #183025",
"5  c #343029",
"6  c #4C2B15",
"7  c #46271A",
"8  c #4A3119",
"9  c #59361B",
"0  c #65381B",
"q  c #6D3C1C",
"w  c #713E1D",
"e  c #482820",
"r  c #4C2A20",
"t  c #4F3626",
"y  c #6B3D21",
"u  c #743D20",
"i  c #0C430D",
"p  c #0A4B19",
"a  c #0B521C",
"s  c #0B591C",
"d  c #294515",
"f  c #295418",
"g  c #14631E",
"h  c #28681A",
"j  c #2E711E",
"k  c #125420",
"l  c #2F5824",
"z  c #0E6C24",
"x  c #126C25",
"c  c #0E7627",
"v  c #0E7B29",
"b  c #107B29",
"n  c #187829",
"m  c #2B6B27",
"M  c #307128",
"N  c #4F421B",
"B  c #60401C",
"V  c #73401F",
"C  c #7C4B1C",
"Z  c #5B4A22",
"A  c #565423",
"S  c #534635",
"D  c #684825",
"F  c #744221",
"G  c #784623",
"H  c #7C4B25",
"J  c #7A4C2A",
"K  c #685328",
"L  c #735533",
"P  c #4C742C",
"I  c #726D31",
"U  c #2D555B",
"Y  c #304E6D",
"T  c #325374",
"R  c #505052",
"E  c #705A4A",
"W  c #756651",
"Q  c #4C4F6F",
"!  c #84561C",
"~  c #804E29",
"^  c #87582C",
"/  c #885A34",
"(  c #93662B",
")  c #8C6435",
"_  c #966936",
"`  c #9A7235",
"'  c #9E743D",
"]  c #A87A32",
"[  c #A4793D",
"{  c #896D4E",
"}  c #956946",
"|  c #9B7349",
" . c #A27743",
".. c #A47A42",
"X. c #A87E45",
"o. c #A47B56",
"O. c #89756B",
"+. c #A27F60",
"@. c #2F811F",
"#. c #18832A",
"$. c #1C8529",
"%. c #278526",
"&. c #208829",
"*. c #2E9529",
"=. c #3D9D27",
"-. c #319729",
";. c #369B29",
":. c #3FA329",
">. c #5C951D",
",. c #73BC1E",
"<. c #478924",
"1. c #50962E",
"2. c #5D9B2E",
"3. c #6A9132",
"4. c #41A429",
"5. c #43A82A",
"6. c #5EA624",
"7. c #6CB026",
"8. c #979F17",
"9. c #A68715",
"0. c #86873A",
"q. c #B6962A",
"w. c #A8823B",
"e. c #AB843C",
"r. c #AE893A",
"t. c #B58C3A",
"y. c #B89734",
"u. c #AFA42B",
"i. c #CDBD0B",
"p. c #CBB916",
"a. c #C2A52C",
"s. c #C4A92B",
"d. c #C8AD28",
"f. c #CEB42C",
"g. c #D9B23E",
"h. c #B2D00F",
"j. c #C9D50C",
"k. c #D7C717",
"l. c #DCCB1A",
"z. c #DED116",
"x. c #E2DC09",
"c. c #E1D315",
"v. c #E7DB15",
"b. c #CCE70B",
"n. c #E9E407",
"m. c #F2ED08",
"M. c #F5F107",
"N. c #FFFE00",
"B. c #F9F508",
"V. c #ECEE15",
"C. c #F5E619",
"Z. c #D8C826",
"A. c #E8D027",
"S. c #F1DA25",
"D. c #E9C835",
"F. c #938556",
"G. c #AB8245",
"H. c #AC844C",
"J. c #B88A46",
"K. c #B9934F",
"L. c #B48E5A",
"P. c #AA9C59",
"I. c #A7896B",
"U. c #AE8F6E",
"Y. c #BB956A",
"T. c #BD9973",
"R. c #ACA777",
"E. c #BAA779",
"W. c #C7994B",
"Q. c #D19F4E",
"!. c #D6A64D",
"~. c #D0AC48",
"^. c #D8A651",
"/. c #DEAB53",
"(. c #E3B748",
"). c #E0AD54",
"_. c #E5B156",
"`. c #C29E70",
"'. c #C6A667",
"]. c #C8A578",
"[. c #2B4D9A",
"{. c #325299",
"}. c #49639D",
"|. c #596D9E",
" X c #4764A5",
".X c #5C70A1",
"XX c #268DAF",
"oX c #768CB3",
"OX c #1AABD9",
"+X c #06B5F4",
"@X c #AD9B81",
"#X c #BCA897",
"$X c #8C99BC",
"%X c #B2ADAA",
"&X c #C7A783",
"*X c #CDAB83",
"=X c #D6B58C",
"-X c #D9B78D",
";X c #D6B592",
":X c #DBBB92",
">X c #E1BE92",
",X c #CFBDAF",
"<X c #AECDBA",
"1X c #DEC198",
"2X c #E3C49A",
"3X c #E6C89F",
"4X c #F1D192",
"5X c #D3C3B2",
"6X c #E8CCA5",
"7X c #F3D7AD",
"8X c #E9D6B9",
"9X c #F6DCB3",
"0X c #F8DEB5",
"qX c #F5E0BB",
"wX c #FEE6BD",
"eX c #FFE9BF",
"rX c #9BD1D0",
"tX c #D2D3D8",
"yX c #FFEAC2",
"uX c #FAE7CC",
"iX c #F7E9D1",
"pX c #FFF1D7",
"aX c #ECEDED",
"sX c #FAF8F4",
"dX c #FFFFFE",
/* pixels */
"                                                                                                                                ",
"                                                                                                                                ",
"                                                                                                                                ",
"                                                                                                                                ",
"                                                                                                                                ",
"                                                . . : b b b b b b b b b b : . .                                                 ",
"                                                . . : b b b b v b v b b b : . .                                                 ",
"                                            . o p p s b v b b b b b b v b s p p o .                                             ",
"                                          . . o c b b b b b b b b v b b b b #.z o . .                                           ",
"                                          @ @ ; z b b v b v b v b b b b v b v c ; @ @                                           ",
"                                      . . p v v b b b b b b v v c b b b v v b b v v a . .                                       ",
"                                      X . a b b b b b b b v v #.b b b v v b b b b b a . .                                       ",
"                                . . ; a a %.;.-.-.-.-.-.*.-.-.-.-.-.-.-.-.-.*.*.-.-.n k a ; . .                                 ",
"                                . . : b v -.:.5.:.:.:.5.:.:.:.:.4.4.4.4.:.:.:.:.4.4.-.n b : . .                                 ",
"                                . . : &.$.<.2.2.,.,.7.2.2.7.,.,.2.2.6.,.,.,.,.,.2.2.1.&.$.: . .                                 ",
"                                . . , 5.5.3.| r.m.N.z. . .z.N.m.r.| s.N.N.N.N.m.G...3.4.5., . .                                 ",
"                                . . , 5.5.0.X.r.m.N.c.....c.N.M.r. .s.N.N.N.N.m.r.[ 0.5.5., . .                                 ",
"                            . o s s M 0.0.p.n.v.d.y.d.n.v.B.N.M.r. .s.N.N.k.y.s.c.v.Z.W.P.P s a o .                             ",
"                          . . o c #.M | [ v.N.B.e.| a.N.N.N.N.M.r. .s.N.N.a.| r.N.N.C.).(.1.v c o . .                           ",
"                          2 & = l m I K.J.f.c.l.s.s.f.C.C.B.N.M.r. .a.N.N.a. .e.l.z.A.D.D.3.m l = & 7                           ",
"                ....L.=X=X} w u F w _ )./.J. .r.M.N.C././.S.N.M.r. .s.N.N.a. . .[ | s.N.N.9.u F V V } =X=XL.[ w.                ",
"                 .[ L.-X;X| G G G F ( _.(.J.G.t.M.N.C./.).C.N.M.r.w.s.N.N.a.X.X.....s.N.N.9.u F G G | -X=XL.[ |                 ",
"                H H o.9X9X6X2X:X .' q.B.C.V.n.v.(.(.A.C.B.d.y.q.v.n.l.y.y.'.].].G.| s.N.N.u.` | :X2X6X9X9Xo.H H                 ",
"                F q o.yXyXeXeX7XH. .s.N.N.N.N.N.(.).D.N.N.s. .r.B.N.z. . .'.-X*XX.[ s.N.N.d.| H.qXeXeXeXyXo.V V                 ",
"                F w | &X].<XrXrX| / t.C.S.c.l.l.)./.D.N.N.s. .r.M.N.c. .[ `.;X=X].`.).C.S.y.[ H.rXrX<X].&X| V F                 ",
"                      u w XX+X+XK y ( )./.J. .G.^./.D.N.N.s.| r.M.N.c. ...'.=X:XwXeX4X).).K.[ F.+X+XXXw w                       ",
"                      F V XX+XOXL ! _ ^.^.J. .X.^./.D.N.N.d.w.t.m.N.z...[ ].=X:X0XwX4X!.^.t.r.F.OX+XXXw F                       ",
"                          3 3 4 j.n.p.~ ~ ` [ G.^./.D.N.N.M.m.C.(.(.~. . .:X0X9X2X>XY.~ ~ p.M.z.4 3 3                           ",
"                          . . # x.B.k.q q (  .G.^.).D.N.N.N.N.B.(._.Q.[ [ 2XeXwX:X-XY.V q i.N.x.# . .                           ",
"                          . X # n.N.k./ ^ D Z D J.W.g.S.S.S.S.A.t.[ G.Y.Y.Y.T.Y.W W E ^ ^ k.N.n.# . .                           ",
"                          . . # n.N.z. .w.< . X _ | J.)./././.Q.~ q } =X;X} q 0 . . 2 [ w.z.N.n.# . .                           ",
"                          . . # x.M.k.' ' t % 5 { | H.~.Q.Q.!.W./ ~ } *X&X{ y D < % t ' | l.N.n.# . .                           ",
"                          . . + ` r.` C G %XaXtX|.{.Q J ~ H ~ / 2X7X&X~ ~ Q {.}.tXaX%XG H t.(.~.+ . .                           ",
"                          . . + ' X.) q y ,XsXaX X[.Q u w w w J 7XyX*Xq w Q [.}.aXdX5Xu w W.).W.$ . .                           ",
"                              + 8 N D ) ) ,XpXiX X[..X&X#XE.T.].0XyX8X#X#X.X[.}.tXpX#X* * 9 K K $                               ",
"                                . . 2 X.] 1XeX8X X[.oXdXdXpXeXeXwX0XpXdXdXoX[.}.8XyXR.. . . . .                                 ",
"                                + X 8 | | =X7X6X.X X$XsXsXuXeXwXyX0XuXsXsX$X X.X6X7XI.. . . . .                                 ",
"                          . . X 9 q S T T { H.P.8X0XqXyXyXeXeXeXyXyXyXyXyXqX8X7XL.G.L . .                                       ",
"                          . . X q w S T T W X.H.0XyXyXeXeXwXeXeXwXwX0XyXyXyXyX9XH.X.L . .                                       ",
"                          . . X q C R T Y E ^ / o.o.T.3X3X3X3X3X2X6X3X3X3X`.+.o./ ^ 9 . .                                       ",
"                          . . O 0 w R Y T S u u V q _ -X=X=X:X-X=X=X=X=X;X} 0 q q u 7 . .                                       ",
"                          . . X 6 0 t U U S F F D B I R.R.R.R.@XR.R.R.U.I.{ } { } } S . .                                       ",
"                                X X @ i i N G F n c n n n $.n n n #.k X X %XdXsXsXsX%X. .                                       ",
"                                . . @ , i N V D n b #.c b b b b b v p . . %XdXdXdXdX%X. .                                       ",
"                                    o @ @ f m l A A >.h.h.h.h.h.A A < X . R O.O.O.O.E 6 6 & . .                                 ",
"                                      X . p #.n D V ] N.N.N.N.M.^ G 6 . . & e - e - t F u & . .                                 ",
"                                    o o o g $.%.A K 8.j.h.b.j.h.I K N @ O t L L 9 r y u u & . .                                 ",
"                                . . @ i > %.4.:.4.:.&.b #.b b #.=.4.@.i i F.;X&XJ u u u F & . .                                 ",
"                                . . @ i i %.5.:.4.4.*.b b b b b =.5.@.i p F.;X*XL F F F F & . .                                 ",
"                                    o o o g $.&.:.4.:.;.;.*.;.;.4.4.-.x z d 5 t *X:X:X:X:XS . .                                 ",
"                                      . . a b $.:.:.4.5.5.5.5.5.4.4.;.b v : . % 8XyXyXyXyXR . .                                 ",
"                                      . . > a a h j j j j j j m m j g a s @ . % I.@X@X@XR.S . .                                 ",
"                                      . . . . . . . . . . . . . . . . . . . . . . . . . .                                       ",
"                                      . . . . X X . . . . . . . . . . . . . . . . . . . .                                       ",
"                                      . . = - e 2 - = . .                                                                       ",
"                                      . . - r r e r - X .                                                                       ",
"                                    + $ $ e 9 9 r r - . .                                                                       ",
"                                . . $ r e y V y r e - . .                                                                       ",
"                                . . $ 8 e y u y 9 r - . .                                                                       ",
"                                . . & q y y u F y y 7 . .                                                                       ",
"                                . . & V V V F F G V 6 . .                                                                       ",
"                                  . $ 7 1 7 1 1 7 1 * . .                                                                       ",
"                                      . . . . . . . .                                                                           ",
"                                      . . . . . . . .                                                                           "
};
