/* XPM */
static char *ae79e715206544b5bcbeac5ded3119610ylau597CQqhYX5u[] = {
/* columns rows colors chars-per-pixel */
"64 64 225 2 ",
"   c None",
".  c #000001",
"X  c #0B0604",
"o  c #020C05",
"O  c #0E0A05",
"+  c #140C09",
"@  c #041507",
"#  c #031A09",
"$  c #15110D",
"%  c #1E110B",
"&  c #00131D",
"*  c #191612",
"=  c #27160C",
"-  c #2B190D",
";  c #301B0E",
":  c #281812",
">  c #331C15",
",  c #06270C",
"<  c #062A0D",
"1  c #123311",
"2  c #3E2312",
"3  c #3C2419",
"4  c #2C3B1A",
"5  c #2C2F32",
"6  c #4A2A19",
"7  c #4E361D",
"8  c #5C351A",
"9  c #60361A",
"0  c #663A1D",
"q  c #6C3B1D",
"w  c #723E1E",
"e  c #4C2A21",
"r  c #4E3426",
"t  c #6A3C21",
"y  c #753E20",
"u  c #09410B",
"i  c #0D4316",
"p  c #0A4C1A",
"a  c #134F10",
"s  c #0B5616",
"d  c #0B511B",
"f  c #165B1A",
"g  c #2A4413",
"h  c #20561A",
"j  c #16671B",
"k  c #266419",
"l  c #29671A",
"z  c #305523",
"x  c #0D6120",
"c  c #0E6D25",
"v  c #186721",
"b  c #0C7A27",
"n  c #0F7628",
"m  c #0F7B29",
"M  c #1A7627",
"N  c #117C29",
"B  c #326826",
"V  c #227A2C",
"C  c #584C10",
"Z  c #72401F",
"A  c #586513",
"S  c #5B4E22",
"D  c #565323",
"F  c #415332",
"G  c #6B4623",
"H  c #744221",
"J  c #7A4825",
"K  c #7C4C2B",
"L  c #6D582D",
"P  c #526B28",
"I  c #636123",
"U  c #727B39",
"Y  c #1F364D",
"T  c #2B3847",
"R  c #314E69",
"E  c #514E4E",
"W  c #4F5365",
"Q  c #707272",
"!  c #85571B",
"~  c #83542C",
"^  c #86582A",
"/  c #865835",
"(  c #92672C",
")  c #896535",
"_  c #926534",
"`  c #976B39",
"'  c #9D733D",
"]  c #977A3D",
"[  c #A3772D",
"{  c #A37A3F",
"}  c #A8793D",
"|  c #946743",
" . c #9A734D",
".. c #916D53",
"X. c #8E7457",
"o. c #A27742",
"O. c #A47A41",
"+. c #A97E43",
"@. c #A5784A",
"#. c #A47B56",
"$. c #168129",
"%. c #1C8529",
"&. c #298826",
"*. c #208829",
"=. c #2E9328",
"-. c #359B29",
";. c #379A28",
":. c #3EA229",
">. c #78811B",
",. c #4A8726",
"<. c #508830",
"1. c #788D36",
"2. c #649732",
"3. c #42A429",
"4. c #4BA12B",
"5. c #43A82A",
"6. c #4D8A45",
"7. c #508E49",
"8. c #9B8A1D",
"9. c #AB8B13",
"0. c #A7AB05",
"q. c #8A863B",
"w. c #919036",
"e. c #AF8B2C",
"r. c #A98439",
"t. c #AB843C",
"y. c #AE893A",
"u. c #B18C3A",
"i. c #B79536",
"p. c #C2A72B",
"a. c #C4AA2A",
"s. c #CCB525",
"d. c #D5B537",
"f. c #B2D50D",
"g. c #B3C716",
"h. c #C1DD0B",
"j. c #D6C41E",
"k. c #DBCB1A",
"l. c #E1D216",
"z. c #E3D615",
"x. c #CEE80A",
"c. c #ECE40C",
"v. c #EFE80B",
"b. c #F3ED07",
"n. c #F6F206",
"m. c #FAF507",
"M. c #FFFE01",
"N. c #F0E218",
"B. c #E6CA2C",
"V. c #ECD428",
"C. c #F2D929",
"Z. c #E8C736",
"A. c #AC8242",
"S. c #AB844B",
"D. c #B58A45",
"F. c #BD9346",
"G. c #A9825C",
"H. c #B48D5B",
"J. c #B7915E",
"K. c #A5A25A",
"L. c #978971",
"P. c #B38C66",
"I. c #B1916F",
"U. c #BA956A",
"Y. c #C89A4C",
"T. c #CB9B50",
"R. c #D2A549",
"E. c #D6A551",
"W. c #DEAB53",
"Q. c #E4B946",
"!. c #E1AE54",
"~. c #E3B15B",
"^. c #C29E6A",
"/. c #C39E73",
"(. c #C5A16C",
"). c #C7A477",
"_. c #CAA77D",
"`. c #A7E554",
"'. c #2C4E9B",
"]. c #335298",
"[. c #486597",
"{. c #7696AF",
"}. c #57CD9F",
"|. c #00A5E5",
" X c #00BBFF",
".X c #788FC1",
"XX c #71B7C3",
"oX c #8C8F85",
"OX c #AD9C81",
"+X c #8BAC85",
"@X c #BBA891",
"#X c #B1AFB0",
"$X c #C3A882",
"%X c #CDAB83",
"&X c #D0AF85",
"*X c #D7B486",
"=X c #D6B58C",
"-X c #D9BA8E",
";X c #DCBC93",
":X c #D8BC99",
">X c #C6BAB8",
",X c #ADCCB3",
"<X c #DEC199",
"1X c #E3C595",
"2X c #E3C59D",
"3X c #E6CCA6",
"4X c #EACCA3",
"5X c #EDD6AD",
"6X c #F1D5AB",
"7X c #F5DAAF",
"8X c #F6DCB2",
"9X c #F8DEB5",
"0X c #FCE0B3",
"qX c #FEE6BD",
"wX c #FFE8BF",
"eX c #B1BAD2",
"rX c #BBC1CF",
"tX c #BBC7E1",
"yX c #E3D8CA",
"uX c #FFEBC2",
"iX c #FFE9C6",
"pX c #FBEED7",
"aX c #F0EFEC",
"sX c #F8F6F5",
"dX c #FFFEFD",
/* pixels */
"                                                                                                                                ",
"                                                                                                                                ",
"                                                                                                                                ",
"                                                                                                                                ",
"                                                                                                                                ",
"                                                                                                                                ",
"                                                                                                                                ",
"                                                  . o c N m N N m N N m N d . .                                                 ",
"                                                . . o c m m m m N N m m m d . .                                                 ",
"                                                @ # , M %.%.%.$.$.%.$.%.%.x # #                                                 ",
"                                            . . p m N -.:.:.:.:.:.3.:.3.3.=.n n < . .                                           ",
"                                            . . d N $.:.3.3.3.3.3.3.3.3.3.=.m N < . .                                           ",
"                                      . . , d d c N N *.%.*.*.*.*.%.*.*.*.%.N m x d p o .                                       ",
"                                      . . < N m m m N m n m m m m m m m m m m m m $.n o . .                                     ",
"                                      , # i %.%.%.%.%.%.%.%.%.%.%.%.%.%.%.%.%.%.%.*.M , , #                                     ",
"                                . . o c N %.3.3.:.3.3.3.3.:.3.3.3.3.3.:.3.3.:.3.3.3.-.N N d . .                                 ",
"                                . . o c N *.3.3.3.3.4.3.3.3.3.3.4.3.3.5.5.4.3.3.4.5.:.$.N d . .                                 ",
"                                . . @ &.-.<.q.q.g.x.x.x.x.g.q.q.q.q.w.h.x.g.q.q.q.q.q.-.-.k . .                                 ",
"                                . . o -.:.2.A.O.l.M.M.M.M.z.o.o.o.O.y.m.M.l.o.O.O.@.] 5.:.l . .                                 ",
"                                , < 1 <.2.1.O.O.l.M.m.z.z.j.p.p.y.O.y.n.M.z.p.p.y.O.] 2.2.P < < #                               ",
"                            . . d m V ] +.O.O.O.l.M.n.y.O.p.M.M.a.o.t.n.M.M.M.M.p.O.O.+.+.U m N < . .                           ",
"                            . . p N V ] +.+.A.+.l.M.b.y.{ a.M.M.a.+.u.v.M.M.m.M.p.O.t.O.+.U N N < . .                           ",
"                O.O.A.&X-XG.8 8 G S L Y.T.d.v.c.B.Q.Z.c.c.k.i.i.k.c.N.Z.Q.d.i.i.k.c.z.r.O.) S G 8 8 G ).=X).O.O.                ",
"                +.O.S.%X=XP.w w w w J R.W.Z.M.M.Z.W.!.m.M.z. .O.l.M.m.Q.!.Y.{  .l.M.m.t.O.` Z Z Z Z K $X=X/.+.O.                ",
"                _ ) ' <X2X*XG.G.` ~ ( Z.B.V.k.k.B.Z.B.k.l.s.{ { l.M.m.R.Y.F.P.J.d.k.k.s.s.e.^ ^  .#.P.<X4X).) _                 ",
"                H y ~ 6XwXwXuXuX/.{ y.b.M.l. .{ l.M.n.y.o.{  .O.l.M.n.y.O.H.=X=XH.o.y.n.M.z.O.@.1XiXuXqXuX&Xw y                 ",
"                H y K 4X8X8XqX0X^.' r.v.M.k.A.A.l.M.n.i.A.A.+.r.k.n.v.u.+.P.-X=XH.{ u.v.M.k.{ { ;XqX9X8X9X%Xy H                 ",
"                      / / #.;X;X .J ~ e.y.F.E.E.N.M.M.v.b.V.R.R.[ ! ( )._.;X9X0X(.] A.Q.Q.R.+.} ).;X*X| / /                     ",
"                      Z Z ` -X*X` q J | O.D.!.W.N.M.M.M.M.N.!.!._ w J %X*X2XqXqX(.} +.E.!.T.o.S.(.-X).K w y                     ",
"                        Z Q XXXXK.9.9.( ) } !.W.Z.C.V.j.j.a.} } @.#.#.<X4X6XqXqX&XJ.P.+.} i.s.s.+XXXXXL Z                       ",
"                             X X`.M.b.! w ( !.W.W.!.E.+.@._ t y P.-X;X9XuXuXqXwX2X=X%XK t 9.M.M.}. X X                          ",
"                            |.|.`.M.b.! H _ Y.Y.E.E.R.{ { _ K K U.;X;X9X9X9X5X5X*X$XI.K y 9.M.M.}.|.|.                          ",
"                            & & 0.M.n.} } L % $ L +.+.~ y | %X%X4X9X9X;X;XU./ ^ 2 % : ` ' p.M.M.A & &                           ",
"                            . . 0.M.n.y.O.G . . L +.} y w | *X=X6XuX9X;X-XP.w y ; . O ` @.a.M.M.C . .                           ",
"                            . . 8.C.Z.( ^ ..oXoXQ Q W H w @.4X4X9XiX7X#. ...W W [.oXoX) ^ e.V.V.C . .                           ",
"                            . . ` ~.R.~ w L.dXdX.X'.].t q #.iXqXqXqX6X~ q E '.'.tXsXaX/ q _ !.!.7 . .                           ",
"                            . . ) F.D.Z 8 X.dXsX.X'.]...K I.iX9XqXqX7X../ W ].].rXdXpXK 8 K F.F.7 . .                           ",
"                                O O O X . E uXqX.X'.[.aXsXpXiXqXqX9XiXsXsXeX'.'.>XiX5X* X @ + O                                 ",
"                                . . . . . E qXqX{.'.[.aXsXsX9XqXqXqXuXsXdXtX'.'.#XiX3X* . . . .                                 ",
"                                      . . 7 )./.@X#X#XaXpXiXiXuXqXqXiXpXpXyX#X#X$X).P.* . .                                     ",
"                                      . . 3 } { 1XuXuXwXqXqXuXwXqXwXwXqXqXwXuXwX(.] ` + . .                                     ",
"                                      # # 4 ' ` ).2X3X8X8X8X8X9X8X9X9X9X9X6X2X2XH.' _ , # #                                     ",
"                                . . o c n B H Z J J ~ %X=X=X=X=X=X=X=X=X=XU.H J H H G M N p . .                                 ",
"                                . . o c m B G Z H Z K _.=X=X=X*X*X*X*X=X=XP.Z Z H Z H M N p . .                                 ",
"                            . . 5 Y R ,X,X+Xg g z B B 6.7.7.7.7.7.7.7.7.7.<.B B z 4 z ,X,XoX> > + . .                           ",
"                            . . Y R [.sXdX#Xu u c $.m b b b b b b b b m b b b N s u h aXdX>Xe e $ . .                           ",
"                          + % = T R W #XrXL.g g v N m m N m m N N N N m m m m m f 4 z #X#XoX8 7 > = %                           ",
"                      . . = Z Z Z Z 0 O o * Z Z B m m N N m m b N N N m m m m b D H t O o - y y t y 0 X . .                     ",
"                      . . : H H H G G O . - Z Z B M N n N N M $.$.M $.N N N N N D Z G O . - y J y J t X . .                     ",
"                      . . r I.U.&X<X@Xg < h ,.,.P S S S S >.h.h.h.f.f.I S S S S P ,.,.1 < P <X;X$XU.G.$ . .                     ",
"                      . . F ;X:X9XiX8Xh u l 5.5.I w Z Z w 9.M.M.M.M.b.^ Z Z J w ,.5.:.a u 7.uXiX2X-X$X* . .                     ",
"                      . . r X.X.I.OXL.1 < a -.-.P I I D D U f.f.f.f.g.D D D I I ,.-.&.1 , F OXOXL.X.X.$ .                       ",
"                            . . . . . . . < m N =.5.:.N N N N N N N N b $.*.:.3.*.n c o . . . . . . .                           ",
"                            . . . . . . . < n n =.5.-.$.N N N N N N N $.$.*.:.:.%.n j o . . . . . . .                           ",
"                                      . . o # # f %.%.-.-.-.:.-.-.-.-.=.-.=.$.%.1 # @ . . .                                     ",
"                                      . . . . . d $.$.:.5.5.5.5.5.5.5.:.:.=.$.$.< . . . . .                                     ",
"                                      - ; = % % 1 p p k k k k k k l k l l f p p * * = : - =                                     ",
"                                . . O 0 H t e e $ . . . . . . . . . . o . . . . > e e y H 6 . .                                 ",
"                                . . X 0 H t e e % . . . . . . . . . . . . . X X > e 7 Z Z 6 . .                                 ",
"                                . . X 0 H y 0 y e 3 > X . .           . . + 3 > 9 y t Z Z 6 . .                                 ",
"                                . . O 0 H H H H 8 e 6 X . .           . . % e e t H H H J 6 . .                                 ",
"                                  . X 2 2 2 2 2 > : : X .               . + : : > 2 2 2 6 ; . .                                 ",
"                                      . . . . . . . .                       . . . . . . . .                                     ",
"                                      . . . . . . . .                       . . . . . . . .                                     "
};
