/* XPM */
static char *a6269c5684874a92d0014f9f821bb80bualtsiwRWqsniQQa[] = {
/* columns rows colors chars-per-pixel */
"64 64 225 2 ",
"   c None",
".  c #000001",
"X  c #0B0605",
"o  c #020D05",
"O  c #0B0908",
"+  c #150C09",
"@  c #041707",
"#  c #191606",
"$  c #1C110A",
"%  c #141619",
"&  c #27170C",
"*  c #331D0E",
"=  c #281A13",
"-  c #311B15",
";  c #06260C",
":  c #052A0F",
">  c #0C360F",
",  c #15390F",
"<  c #2B2F15",
"1  c #3E2312",
"2  c #3A2719",
"3  c #061D28",
"4  c #183025",
"5  c #343029",
"6  c #4C2B15",
"7  c #46271A",
"8  c #4A3119",
"9  c #59361B",
"0  c #65381B",
"q  c #6D3C1C",
"w  c #713E1D",
"e  c #482820",
"r  c #4C2A20",
"t  c #4F3626",
"y  c #6B3D21",
"u  c #743D20",
"i  c #0C430D",
"p  c #0A4B19",
"a  c #144F16",
"s  c #0B521C",
"d  c #0B591C",
"f  c #294515",
"g  c #14631E",
"h  c #28681A",
"j  c #2E711E",
"k  c #125420",
"l  c #2F5824",
"z  c #0E6C24",
"x  c #126C25",
"c  c #0E7627",
"v  c #0E7B29",
"b  c #107B29",
"n  c #187829",
"m  c #2B6B27",
"M  c #307128",
"N  c #4F421B",
"B  c #73401F",
"V  c #7C4B1C",
"C  c #5B4A22",
"Z  c #565423",
"A  c #534635",
"S  c #684825",
"D  c #744221",
"F  c #784623",
"G  c #7C4B25",
"H  c #7A4C2A",
"J  c #685328",
"K  c #735533",
"L  c #4C742C",
"P  c #726D31",
"I  c #20364B",
"U  c #2D555B",
"Y  c #304E6D",
"T  c #325374",
"R  c #505052",
"E  c #756651",
"W  c #4C4F6F",
"Q  c #5D6C69",
"!  c #84561C",
"~  c #804E29",
"^  c #87582C",
"/  c #885A34",
"(  c #93662B",
")  c #8C6435",
"_  c #966936",
"`  c #9A7235",
"'  c #9E743D",
"]  c #A87A32",
"[  c #A4793D",
"{  c #895E42",
"}  c #896D4E",
"|  c #956946",
" . c #9B7349",
".. c #94795A",
"X. c #A27743",
"o. c #A47A42",
"O. c #A87E45",
"+. c #A47B56",
"@. c #2F811F",
"#. c #18832A",
"$. c #1C8529",
"%. c #278526",
"&. c #208829",
"*. c #2E9027",
"=. c #2E9529",
"-. c #319729",
";. c #369B29",
":. c #3FA329",
">. c #73BC1E",
",. c #478924",
"<. c #50962E",
"1. c #5D9B2E",
"2. c #6A9132",
"3. c #41A429",
"4. c #43A82A",
"5. c #6CB026",
"6. c #4E9355",
"7. c #979F17",
"8. c #A68715",
"9. c #86873A",
"0. c #B6962A",
"q. c #A8823B",
"w. c #AB843C",
"e. c #AE893A",
"r. c #B58C3A",
"t. c #B89734",
"y. c #CDBD0B",
"u. c #CBB916",
"i. c #C2A52C",
"p. c #C4A92B",
"a. c #C8AD28",
"s. c #CEB42C",
"d. c #B2D00F",
"f. c #C9D50C",
"g. c #D7C717",
"h. c #DCCB1A",
"j. c #DED116",
"k. c #E2DC09",
"l. c #E1D315",
"z. c #E7DB15",
"x. c #CCE70B",
"c. c #E9E407",
"v. c #F2ED08",
"b. c #F5F107",
"n. c #FFFE00",
"m. c #F9F508",
"M. c #F5E619",
"N. c #D8C826",
"B. c #E8D027",
"V. c #F1DA25",
"C. c #E9C835",
"Z. c #F3E830",
"A. c #938556",
"S. c #AB8245",
"D. c #AC844C",
"F. c #B88A46",
"G. c #AA8459",
"H. c #B48E5A",
"J. c #A7896B",
"K. c #AE8F6E",
"L. c #BB956A",
"P. c #BD9973",
"I. c #ACA777",
"U. c #BAA779",
"Y. c #C7994B",
"T. c #D19F4E",
"R. c #D6A64D",
"E. c #D0AC48",
"W. c #D8A651",
"Q. c #DEAB53",
"!. c #E3B748",
"~. c #E0AD54",
"^. c #E5B156",
"/. c #C29E70",
"(. c #C6A667",
"). c #C8A578",
"_. c #E4CD5E",
"`. c #2B4D9A",
"'. c #325299",
"]. c #49639D",
"[. c #596D9E",
"{. c #4764A5",
"}. c #5C70A1",
"|. c #268DAF",
" X c #5F989F",
".X c #768CB3",
"XX c #1AABD9",
"oX c #06B5F4",
"OX c #7699C2",
"+X c #AD9B81",
"@X c #BCA897",
"#X c #8C99BC",
"$X c #B2ADAA",
"%X c #C7A783",
"&X c #CDAB83",
"*X c #D0AE85",
"=X c #D6B58C",
"-X c #D9B78D",
";X c #D6B592",
":X c #DBBB92",
">X c #CFBDAF",
",X c #AECDBA",
"<X c #DEC198",
"1X c #E3C49A",
"2X c #E6C89F",
"3X c #F1D192",
"4X c #D3C3B2",
"5X c #E8CCA5",
"6X c #ECD1AB",
"7X c #F3D7AD",
"8X c #E9D6B9",
"9X c #F6DCB3",
"0X c #F8DEB5",
"qX c #F5E0BB",
"wX c #FEE6BD",
"eX c #FFE9BF",
"rX c #9BD1D0",
"tX c #D2D3D8",
"yX c #FFEAC2",
"uX c #FAE7CC",
"iX c #F7E9D1",
"pX c #FFF1D7",
"aX c #ECEDED",
"sX c #FAF8F4",
"dX c #FFFFFE",
/* pixels */
"                                                                                                                                ",
"                                                                                                                                ",
"                                                                                                                                ",
"                                                                                                                                ",
"                                                                                                                                ",
"                                                . . : b b b b b b b b b b : . .                                                 ",
"                                                . . : b b v b b b b b v b : . .                                                 ",
"                                            . o p p d b b b v b v b b b b d p p o .                                             ",
"                                          . . o z #.v v b v b b b b v b b v b b o . .                                           ",
"                                          @ @ : z b b v b b b b b b b b b b b z ; @ @                                           ",
"                                      . . p v c b b b v b b v v v b b b b b b b c b p . .                                       ",
"                                      . . s #.v v b b b v v v v b b b b v b v v v b s . .                                       ",
"                                . . ; s s n :.=.-.-.-.-.-.-.=.=.-.-.-.-.=.=.=.-.-.-.$.s d ; . .                                 ",
"                                . . : b b ;.:.:.:.3.:.:.:.:.:.:.:.:.3.:.:.:.:.:.4.4.=.v b : . .                                 ",
"                                . . > $.$.,.1.1.5.>.5.1.1.5.>.>.>.>.>.>.>.>.>.>.1.1.<.#.&.: . .                                 ",
"                                . . , 3.4.9.o.e.b.n.j.o.S.j.n.n.n.n.m.n.n.n.n.v.e.X.9.3.3., . .                                 ",
"                                . . , 3.:.9.O.e.b.n.l.[ [ j.n.n.n.n.n.n.n.n.n.v.e.q.9.4.4.i . .                                 ",
"                            . o s s j A.A.u.c.l.i.0.s.z.z.m.n.m.p.t.u.n.n.N.t.t.l.z.N.I.I.L d s o .                             ",
"                          . . o x #.,.O.' j.n.b.w. .p.n.n.n.n.b.e.X.p.n.n.i.[ e.m.n.Z.;X:X6.b b o . .                           ",
"                          2 & = l m L F.F.z.n.m.a.p.s.M.M.m.n.b.e. .p.n.n.p.X.e.h.j.B._._.2.m l = & 2                           ",
"                o.o.H.=X=X| w D B B _ Q.Q.M.n.n.n.n.M.Q.Q.M.n.b.e.X.p.n.n.p.X.o.o.o.p.n.m.8.u D D D | =X=XH.X.o.                ",
"                [ [ H.=X=X .F F D D ( ~.~.M.n.n.n.n.M.Q.~.M.n.v.r.[ p.m.n.i.o.O.[ X.p.n.n.8.D F F F | =X:XH.[ o.                ",
"                H G +.0X0X5X1X:XX.' 0.m.M.n.n.m.C.!.C.v.M.s.t.t.z.v.h.t.t.(.).).S. .p.n.n.0._ X.:X1X5X9X9XG.G G                 ",
"                B q +.yXyXyXeX0XD.X.a.n.n.n.n.m.!.Q.C.n.n.p.X.e.b.n.j.X.X.(.;X*XS.' p.n.n.a.X.D.0XyXeXyXyX+.q D                 ",
"                D w  .%XP.,XrXrX .) r.V.M.h.h.h.!.Q.C.n.n.i.X.e.b.n.j.X.o./.:X*X).(.Q.V.V.i.X.D.rXrX,X%X). .D D                 ",
"                      w q |.oXoXK y ( Q.Q.F.X.O.W.Q.C.n.n.i.X.w.b.n.j.o.o.(.=X:XwXeX3XQ.~.F.X.A.oXoX|.w B                       ",
"                      D D |.oXXXK V ( R.W.F.X.O.W.Q.C.n.n.a.S.t.v.n.j.X.[ ).=X:X0XwX3XW.R.F.e.A.XXoX|.w F                       ",
"                          3 3 4 f.c.u.~ ~ ` [ S.W.Q.C.n.n.b.v.c.!.!.E.o.o.:X0X9X<X<XP.~ ~ y.b.f.4 3 3                           ",
"                          . . # c.n.y.u w _ O.S.W.Q.C.n.n.n.n.m.!.~.T.[ [ 1XuXeX:X-XK.D B y.n.c.# . .                           ",
"                          . . # c.n.g.^ / S C S F.Y.E.V.V.V.V.B.r.] S.L.L.L.P.K.E E K ) ^ g.n.c.# . .                           ",
"                          . o # c.n.j.o.O.2 . O _ o.F.~.Q.Q.~.T.F w | ;X-X| q y . X 2 q.S.j.n.c.# . .                           ",
"                          . . # k.m.h.'  .t % < }  .D.T.T.T.T.Y./ ~  .&X).} y y = % t  .' g.m.k.# . .                           ",
"                          . . $ Y.!.t.F F >XaXtX].'.W ~ ~ ~ G / 1X7X%XH ~ W '.].tXaX@XF F t.!.Y.# . .                           ",
"                          . . $ Y.^.F.B w >XsXaX{.`.W w w w u H 7XyX*Xq q W '.{.aXdX4XB F r.^.Y.$ . .                           ",
"                              $ J J S B y ;XaXiX{.`.}.%X%X+X/.).0XyX6X@X%X[.`.{.tXsX@X* * 9 S J +                               ",
"                                . . & B D &XyX8X{.`.OXdXdXpXyXyXwXwXpXdXdX.X`.{.8XeX+X. . . . .                                 ",
"                                . . & 0 9 P.9X5X}.].#XsXsXuXwXwXwXwXiXsXsX#X{.}.5X9XJ.o X + + +                                 ",
"                                      X X K D.G.8X0XqXyXyXeXwXwXwXwXyXyXyX0X0X8XH.S.) 7 e 9 0 0 O . .                           ",
"                                      . . J S.D.9XyXeXeXeXeXwXwXyXwXyX0XwXeXyX0XD.X.) e 7 y D 0 O . .                           ",
"                                      . . 9 ^ / +.G.P.2X2X2X2X2X1X1X5X5X5XP.G.+.) / S e r y D 0 X . .                           ",
"                                      . . 6 w u q q { ;X-X=X=X-X=X=X:X-X-X| u u B B 0 r r y w q X . .                           ",
"                                      . . t } | } | ..K.J.I.I.I.I.I.I.+XI.P C S B B 0 2 2 8 9 9 X . .                           ",
"                                      . . $XsXsXsXsX$X. o k #.#.n n n n n n v n S B N , i @ X .                                 ",
"                                      . . $XdXdXdXdX$X. . p b #.b b b b b b b n S B N i a @ . .                                 ",
"                                . . & 6 6 Q .X X.X.XW . . < Z Z d.d.d.d.d.2.N Z m M f @ @ o                                     ",
"                                . . & D u R Y T Y Y I . X 6 B ! v.n.n.n.n.8.w B n v p . .                                       ",
"                                . . & D u R W R Q Q U @ o N J P d.d.f.x.d.7.J Z %.$.g o o o                                     ",
"                                . . & D F u q H U.=XA., i @.:.:.#.#.b b c ;.4.4.3.3.@.i i @ . .                                 ",
"                                . . & S F D F H ).;XA.i i %.3.:.#.c b b v =.3.3.:.3.@.> i @ . .                                 ",
"                                . . A <X:X:X<X%Xt 5 k z x *.3.:.;.-.;.;.;.:.3.:.&.$.g o @ o                                     ",
"                                . . R eXyXyXuX8X% X : #.b ;.3.3.3.3.3.3.4.:.4.:.#.b s . .                                       ",
"                                . . A +X+X+X+XJ.% . @ s s h j j j j j j j j m h d d > . .                                       ",
"                                      . . . . . . . . . . . . . . . . . . . . . . . . . .                                       ",
"                                      . . . . . . . . . . . . . . . . . . . X X . . . . .                                       ",
"                                                                      . . = 2 - 2 7 = . .                                       ",
"                                                                      . . - r r e e - . .                                       ",
"                                                                      . . = r r 9 9 7 $ $ O                                     ",
"                                                                      . . 2 r r u u y e e $ . .                                 ",
"                                                                      . . - r r u D y r r $ . .                                 ",
"                                                                      . . 6 u q u D y y y = . .                                 ",
"                                                                      . . 6 F D B B D D F & X .                                 ",
"                                                                      . . * 1 1 1 1 7 1 1 $ .                                   ",
"                                                                          . . . . . . . .                                       ",
"                                                                          . . . . . . . .                                       "
};
