/* XPM */
static char *a844101ab8d14ac5eb810cb8429af6f72anVibhqkkgmMz8H[] = {
/* columns rows colors chars-per-pixel */
"64 64 80 1 ",
"  c None",
". c gray60",
"X c #9B9B9B",
"o c gray62",
"O c #A0A0A0",
"+ c #A2A2A2",
"@ c gray64",
"# c #A4A4A4",
"$ c #A5A5A5",
"% c gray65",
"& c gray66",
"* c #A9A9A9",
"= c #AAAAAA",
"- c gray67",
"; c #AEAEAE",
": c #AFAFAF",
"> c gray69",
", c gray70",
"< c #B4B4B4",
"1 c #B7B7B7",
"2 c #B9B9B9",
"3 c gray73",
"4 c #BBBBBB",
"5 c #BCBCBC",
"6 c gray74",
"7 c gray",
"8 c gray75",
"9 c #C0C0C0",
"0 c #C1C1C1",
"q c gray76",
"w c #C3C3C3",
"e c #C6C6C6",
"r c gray78",
"t c gray79",
"y c #CACACA",
"u c #CBCBCB",
"i c gray80",
"p c #CDCDCD",
"a c #CECECE",
"s c gray81",
"d c #D0D0D0",
"f c #D1D0D1",
"g c gray82",
"h c #D2D2D2",
"j c LightGray",
"k c gray83",
"l c #D7D7D7",
"z c #D8D8D8",
"x c gray85",
"c c #DADADA",
"v c gray86",
"b c gainsboro",
"n c #DEDDDE",
"m c #DFDFDF",
"M c #E0DFE0",
"N c gray88",
"B c #E1E1E1",
"V c #E2E2E2",
"C c gray89",
"Z c #E4E4E4",
"A c gray90",
"S c #E6E6E6",
"D c #E7E7E7",
"F c gray91",
"G c gray93",
"H c gray94",
"J c gray95",
"K c #F3F3F3",
"L c #F6F6F6",
"P c gray97",
"I c #F8F8F8",
"U c #F9F9F9",
"Y c gray98",
"T c #FBFBFB",
"R c #FCFBFC",
"E c gray99",
"W c #FDFDFD",
"Q c #FEFDFE",
"! c #FEFEFE",
"~ c white",
/* pixels */
"                                                                ",
"                    .777777777777777777777+                     ",
"                    w!!!!!!!!!!!!!!!!!!!!!p                     ",
"                    w!!!!!!!!!!!!!!!!!!!!!h                     ",
"                    w!!!!!!!!!!!!!!!!!!!!!p                     ",
"                    w!!!!!!!!!!!!!!!!!!!!!h                     ",
"                    w!!!!!!!!!!!!!!!!!!!!!p                     ",
"                    w!!!!!!!!!!!!!!!!!!!!!h                     ",
"                    7bBbBBBBBBBBBBBBBBDBbb1                     ",
"            #phhhhht#777777777777777777787=rhhhhhh+             ",
"            7P!!!!TDw                     7B!!!!!T7             ",
"            7P!!!!!B7                     7B!!!!!!3             ",
"            7P!!!!!D7                     7B!!!!!!3             ",
"            7P!!!!!D7                     7B!!!!!!3             ",
"            7P!!!!!B7                     7D!!!!!!3             ",
"            ,DGGGGGz1                     3B!!!!!!7             ",
"             1737777.                     7B!!!!!!7             ",
"                                          7B!!!!!!3             ",
"                                          7B!!!!!!3             ",
"                                          7D!!!!!!7             ",
"                                          7B!!!!!!3             ",
"                                          7D!!!!!!7             ",
"                                          7B!!!!!!3             ",
"                            =7777777773777-tzzzzzz#             ",
"                            whhhhhhhhhhhpt7                     ",
"                            b!!!TTT!!!!!PPp                     ",
"                            b!!!R!!!!!!!!!p                     ",
"                            b!!!!!!!!!!!!!h                     ",
"                            b!!!!!!!!!!!!Tp                     ",
"                            b!!!!!!!!!!!TTp                     ",
"                            b!!!!!!!!!!!!Tp                     ",
"                            =7777777777777+7777777.             ",
"                                          7zJJJJJJ7             ",
"                                          7D!!!!!!7             ",
"                                          7B!!!!!!7             ",
"                                          7B!!!!!!7             ",
"                                          7D!!!!!!7             ",
"                                          7B!!!!!!7             ",
"                                          7D!!!!!!7             ",
"                                          7B!!!!!!7             ",
"                                          7B!!!!!!7             ",
"                                          7D!!!!!!7             ",
"                                          7B!!!!!!7             ",
"                                          7B!!!!!!7             ",
"                                          7B!!!!!!7             ",
"                                          wB!!!!!!7             ",
"             3777777.                     7B!!!!!!7             ",
"            1DGGGGGz1                     7B!!!!!!7             ",
"            7P!!!!!F7                     7B!!!!!!7             ",
"            7T!!!!!F7                     7B!!!!!!7             ",
"            7P!!!!!F7                     7B!!!!!!7             ",
"            7T!!!!!F7                     7D!!!!!!7             ",
"            7PT!!!!F7                     7B!!!!!!7             ",
"            7P!!!!!D7                     7D!!!!!!7             ",
"            owrrrrrr+ppttttttttttttttttttt#wrrrrrro             ",
"                    -TR!!!!!!!!!!!!!!!!!!Pw                     ",
"                    ,IT!!!!!!!!!!!!!!!!!!T7                     ",
"                    -T!!!!!!!!!!!!!!!!!!!Tw                     ",
"                    ,!!R!!!!!!!!!!!!!!!!!!w                     ",
"                    -!T!!!!!!!!!!!!!!!!!!T7                     ",
"                    -TTT!!!!!!!!!!!!!!!!TP7                     ",
"                    >PPTTTTTTTTTTTTTTTTTTJ3                     ",
"                    .777773777777777777777+                     ",
"                                                                "
};
