/* XPM */
static char *_0ddaed10ee54191bff6dc5c0df47683ygBjten4Rd6rI8id[] = {
/* columns rows colors chars-per-pixel */
"64 64 77 1 ",
"  c None",
". c #9B9B9B",
"X c #9D9D9D",
"o c #9F9F9F",
"O c #A4A4A4",
"+ c #A9A9A9",
"@ c gray68",
"# c #AFAFAF",
"$ c #B2B2B2",
"% c gray70",
"& c #B4B4B4",
"* c #B7B7B7",
"= c gray72",
"- c #B9B9B9",
"; c #BBBBBB",
": c #BDBCBD",
"> c gray74",
", c gray",
"< c #C0C0C0",
"1 c #C1C1C1",
"2 c gray76",
"3 c #C5C5C5",
"4 c gray78",
"5 c gray79",
"6 c #CBCBCB",
"7 c #CCCBCC",
"8 c gray80",
"9 c #CDCCCD",
"0 c #CDCDCD",
"q c #CECECE",
"w c gray81",
"e c #D0D0D0",
"r c gray82",
"t c gray83",
"y c #D5D5D5",
"u c #D6D5D6",
"i c gray84",
"p c #D7D7D7",
"a c #D8D7D8",
"s c #D8D8D8",
"d c gray85",
"f c gray86",
"g c gray87",
"h c #DFDFDF",
"j c gray88",
"k c #E1E1E1",
"l c #E2E2E2",
"z c gray89",
"x c #E4E4E4",
"c c #E5E4E5",
"v c gray90",
"b c #E6E6E6",
"n c #E7E7E7",
"m c gray91",
"M c #E9E9E9",
"N c #EAEAEA",
"B c #EEEEEE",
"V c gray94",
"C c #F1F1F1",
"Z c gray95",
"A c #F3F3F3",
"S c #F4F4F4",
"D c gray96",
"F c #F6F5F6",
"G c #F6F6F6",
"H c gray97",
"J c #F8F8F8",
"K c #F9F9F9",
"L c #FAF9FA",
"P c gray98",
"I c #FBFAFB",
"U c #FBFBFB",
"Y c gray99",
"T c #FDFCFD",
"R c #FDFDFD",
"E c #FEFEFE",
"W c white",
/* pixels */
"                                                                ",
"            .1111111111111111111111111111>11111111o             ",
"            >PWWWWWWWWWWWWWWWWWWWWWWWWWWWWWWWWWWWW3             ",
"            >WWWWWWWWWWWWWWWWWWWWWWWWWWWWWWWWWWWWW3             ",
"            >WWWWWWWWWWWWWWWWWWWWWWWWWWWWWWWWWWWWW3             ",
"            >WWWWWWWWWWWWWWWWWWWWWWWWWWWWWWWWWWWWW3             ",
"            >PWWWWWWWWWWWWWWWWWWWWWWWWWWWWWWWWWWWW3             ",
"            >PWWWWWWWPWWWWWWWWWWWWWWWWWWWWWWWWWWWW3             ",
"            1PWWWWWWggzgzzzzgzzzzzzgzzzzgzzzzzzzzz>             ",
"            >WWWWWWS+>>>>>>>>>>>>>>>>>>>>>>>>>>>>>o             ",
"            >PWWWWWS>                                           ",
"            >WWWWWWS1                                           ",
"            >WWWWWWS>                                           ",
"            >WWWWWWS>                                           ",
"            >PWWWWWS>                                           ",
"            >PWWWWWS1                                           ",
"            >WWWWWWS>                                           ",
"            >PWWWWWS>                                           ",
"            >WWWWWWS1                                           ",
"            >WWWWWWA>                                           ",
"            >PWWWWWS>                                           ",
"            >WWWWWWS>                                           ",
"            >WWWWWWS1                                           ",
"            @gzxzzzg@                                           ",
"                    *5600000e0760000000000>                     ",
"                    5BVSSJJPSSAASSSSSPSSSSi                     ",
"                    6PPPWWWWWPWPWWWWWWWWWWs                     ",
"                    6PTWWWWWWWWWWWWWWWWWWWs                     ",
"                    6PPWWWWWWWWWWWWWWWWWWWi                     ",
"                    6PPWWWWWWWWWWPWWWWWPPPi                     ",
"                    6JPWWWWWPWWWWPWWWWPSPPi                     ",
"                    @00r0re00r0e0r0r0r0r00**1>>>>>o             ",
"                                          >iMMMMMM1             ",
"                                          >zPWWWWW3             ",
"                                          >xPWWWWW3             ",
"                                          >zWWWWWW3             ",
"                                          1zPWWWWW3             ",
"                                          >xPWWWWW3             ",
"                                          >xPWWWWW3             ",
"                                          >xWWWWWW3             ",
"                                          >MPWWWWW3             ",
"                                          >MWWWWWW3             ",
"                                          >MWWWWWW3             ",
"                                          1xPWWWWW3             ",
"                                          >MWWWWWW3             ",
"                                          >MWWWWWW3             ",
"                                          >MPWWWWW3             ",
"            Orr0r0r3O                     >MWWWWWW3             ",
"            >WPWPPWA>                     >MPWWWWW3             ",
"            >WWWWWWA>                     1xWWWWWW3             ",
"            >WPWPWWA>                     1MPWWWWW3             ",
"            >PPWWWWA>                     >xWWWWWW3             ",
"            >PWWWWWA>                     >MWWWWWW3             ",
"            >PPWWWWA>                     >MPWTWWW3             ",
"            *xMMMMMz*                     *ixxxxzx-             ",
"                   >-ggzzzzzzzzzzzzzzzzzzz1$                    ",
"                    0PPPWWWWWWWWWWWWWWWWWPi                     ",
"                    7PWPPWWWWWWWWWWWWWWWWPi                     ",
"                    0PWWWWWWWWWWWWWWWWWWWPi                     ",
"                    6WWWWWWWWWWWWWWWWWWWWPi                     ",
"                    6PPWPWWWWWWWWWWWWWPPPPi                     ",
"                    0WPWPWWPWWPWWPWWPTWPSSi                     ",
"                    $ssssiisssssiissssiaii-                     ",
"                                                                "
};
