/* XPM */
static char *b5161fad0329405df4792a433e970e6ctd0RWi3ohcShV2U7[] = {
/* columns rows colors chars-per-pixel */
"64 64 68 1 ",
"  c None",
". c gray60",
"X c #9B9B9B",
"o c #9F9F9F",
"O c #A0A0A0",
"+ c gray63",
"@ c #A5A5A5",
"# c #AFAFAF",
"$ c #B2B2B2",
"% c gray70",
"& c #B7B7B7",
"* c #BBBBBB",
"= c #BCBCBC",
"- c gray74",
"; c gray",
": c #C0C0C0",
"> c #C1C1C1",
", c #C3C3C3",
"< c #C5C5C5",
"1 c #C8C8C8",
"2 c gray79",
"3 c #CACACA",
"4 c #CBCBCB",
"5 c #CECECE",
"6 c #CFCECF",
"7 c gray81",
"8 c #D0D0D0",
"9 c #D2D2D2",
"0 c gray84",
"q c gainsboro",
"w c #DDDDDD",
"e c #DEDDDE",
"r c #DFDFDF",
"t c gray88",
"y c #E2E2E2",
"u c #E3E2E3",
"i c gray89",
"p c #E4E4E4",
"a c gray90",
"s c #E7E7E7",
"d c gray91",
"f c #E9E9E9",
"g c #EAE9EA",
"h c #EAEAEA",
"j c gray92",
"k c #ECECEC",
"l c gray93",
"z c #EEEDEE",
"x c #EEEEEE",
"c c #EFEFEF",
"v c gray94",
"b c #F1F0F1",
"n c #F1F1F1",
"m c gray95",
"M c #F3F3F3",
"N c #F6F6F6",
"B c gray97",
"V c #F8F8F8",
"C c #F9F9F9",
"Z c gray98",
"A c #FBFAFB",
"S c #FBFBFB",
"D c #FCFBFC",
"F c gray99",
"G c #FDFCFD",
"H c #FDFDFD",
"J c #FEFEFE",
"K c white",
/* pixels */
"                                                                ",
"                                                                ",
"                    $ahhhhhahahhhhhhhhhaha&                     ",
"                    >JJJJJJJJJJJJJJJJJJJJJ>                     ",
"                    >JJJJJJJJJJJJJJJJJJJJJ>                     ",
"                    >JJJJJJJJJJJJJJJJJJJJJ>                     ",
"                    >JJJJJJJJJJJJJJJJJJJJJ>                     ",
"                    >JJJJJJJJJJJJJJJJJJJJJ>                     ",
"                    >ccccccccccccccccccccc;                     ",
"            .&;;;*;;+><<><<<><<<<<<<<<><<<+;;;;;;&.             ",
"            ;cSSSSSi;                     ;wMJJJJc;             ",
"            ;cDSJJMa;                     ;iSJJJJc;             ",
"            ;vJJJJSa;                     ;iJJJJJc;             ",
"            ;cJJJJJh;                     ;iJJJJJm;             ",
"            ;mJJJJJh;                     ;iJJJJJm;             ",
"            ;mJJJJJc;                     ;iJJJJJm;             ",
"            ;mJJJJJc;                     ;iJJJJJm;             ",
"            ;mJJJJJc;                     ;iJJJJJm;             ",
"            ;cJJJJJh;                     ;iJJJJJm;             ",
"            ;mJJJJJc;                     ;aJJJJJm;             ",
"            ;mJJJJJh;                     ;iJJJJJM;             ",
"            ;mJJJJJc;                     ;iJJJJJM;             ",
"            ;mJJJJJh;                     ;iJJJJJm;             ",
"            $whhhchw$                     $0hhchhi$             ",
"                    #335353353353353353353#                     ",
"                    ;mMMmmMmmmcmhcMMmMMmMM>                     ",
"                    >JJJJJJJJJJJJJJJJJJJJJ>                     ",
"                    >JJJJJJJJJJJJJJJJJJJJJ>                     ",
"                    >JJJJJJJJJJJJJJJJJJJJJ>                     ",
"                    >SJJJJJJJJJJJJJJJJJJSJ>                     ",
"                    >JJJJJJJJJJJJJJJJJJDDD>                     ",
"             &;;;;;;@558888888888888888575@;;;;;;&              ",
"            *ihchchw;                     ;8hhhhht*             ",
"            ;mJJJJJc;                     ;iJSJSSv;             ",
"            ;mJJJJJh;                     ;iSJJJJm;             ",
"            ;mJJJJJc;                     ;iJJJJJm;             ",
"            ;mJJJJJc;                     ;iJJJJJm;             ",
"            ;mJJJJJh;                     ;iJJJJJm;             ",
"            ;mJJJJJc;                     ;iJJJJJM;             ",
"            ;mJJJJJh;                     ;iJJJJJM;             ",
"            ;mJJJJJh;                     ;aJJJJJm;             ",
"            ;mJJJJJh;                     ;iSJJJJc;             ",
"            ;mJJJJJh;                     ;iJJJJSh;             ",
"            ;mJJJJJc;                     ;iJJJJJm;             ",
"            ;mJJJJJh;                     ;iJJJJJm;             ",
"            ;mJJJJJh;                     ;iJJJJJm;             ",
"            ;mJJJJJc;                     ;iJJJJJm;             ",
"            ;mJJJJJh;                     ;iSJJJJm;             ",
"            ;mJJJJJh;                     ;iJJJJJM;             ",
"            ;mJJJJJc;                     ;iJJJJJM;             ",
"            ;mJJJJJh;                     ;iJJJJJm*             ",
"            ;mJJJJJh;                     ;iJJJJJm;             ",
"            ;mJJJJJh;                     ;iJJJJJM;             ",
"            ;cSJJJJh;                     ;wSJJJJm;             ",
"            o>33333<+;;;;;;;;;;;;;;;;;;;;;+<3<333>o             ",
"                    >SJJJJJJJJJJJJJJJJJJJJ>                     ",
"                    >JJJJJJJJJJJJJJJJJJJJJ>                     ",
"                    >JJJJJJJJJJJJJJJJJJJJJ>                     ",
"                    >JJJJJJJJJJJJJJJJJJJJJ>                     ",
"                    >JJJJJJJJJJJJJJJJJJJJJ>                     ",
"                    >JJJJJJJJJJJJJJJJJJJJJ>                     ",
"                    ;MMSSMMSMSSMMSMSSMSSMS;                     ",
"                    o;;;;;>;;;;;>;;;;;;;;;.                     ",
"                                                                "
};
