/* XPM */
static char *b3e32e78501b44eb9e189b6b93b04d5d3W7lejT0Z81eVDJ3[] = {
/* columns rows colors chars-per-pixel */
"64 64 61 1 ",
"  c None",
". c #989898",
"X c gray60",
"o c #9D9D9D",
"O c gray62",
"+ c #9F9F9F",
"@ c #A0A0A0",
"# c gray63",
"$ c #A4A4A4",
"% c #B2B2B2",
"& c #B4B4B4",
"* c #B9B9B9",
"= c gray73",
"- c #BCBCBC",
"; c gray74",
": c gray",
"> c #C0C0C0",
", c #C1C1C1",
"< c gray76",
"1 c gray77",
"2 c #C5C5C5",
"3 c #C6C6C6",
"4 c gray78",
"5 c #C8C8C8",
"6 c #DADADA",
"7 c gray86",
"8 c gainsboro",
"9 c #DDDDDD",
"0 c gray90",
"q c #E6E6E6",
"w c #E7E6E7",
"e c #E7E7E7",
"r c #E8E7E8",
"t c gray91",
"y c #E9E9E9",
"u c gray92",
"i c #ECECEC",
"p c gray93",
"a c #EEEEEE",
"s c #EFEEEF",
"d c #EFEFEF",
"f c gray94",
"g c #F1F1F1",
"h c gray95",
"j c #F3F3F3",
"k c #F4F4F4",
"l c gray96",
"z c #F6F6F6",
"x c #F7F6F7",
"c c gray97",
"v c #F8F8F8",
"b c #F9F8F9",
"n c #F9F9F9",
"m c #FAF9FA",
"M c #FBFBFB",
"N c #FCFBFC",
"B c gray99",
"V c #FDFCFD",
"C c #FDFDFD",
"Z c #FEFEFE",
"A c white",
/* pixels */
"                                                                ",
"                    X::>::::=::::::=::::::o                     ",
"                    =pffyyfccccccccccccccc>                     ",
"                    :vcfpvZNZZZZZZZZZZZZZZ5                     ",
"                    :ffcvNvZZZZZZZZZZZZZZZ5                     ",
"                    :ffvvZZZZZZZZZZZZZZZZZ5                     ",
"                    :cvZZNZZZZZZZZZZZZZZZZ5                     ",
"                    :vvZZZZZZZZZZZZZZZZZZZ5                     ",
"                    :eyeeeeyeyyyyyyeyeyeye>                     ",
"            o=222222o::::::::::>::::::::::$>22222>o             ",
"            :pZZZZZc>                     :6ZZZZZc:             ",
"            :pZZZZZc>                     :8ZZZZZc:             ",
"            :pZZZZZc>                     :8ZZZZZc:             ",
"            :pZZZZZv>                     :8ZZZZZv:             ",
"            :fZZZZZv>                     :8ZZZZZc:             ",
"            :pZZZZZv>                     :8ZZZZZc:             ",
"            :pZZZZZv>                     >8ZZZZZc:             ",
"            >pZZZZZc>                     :8ZZZZZv:             ",
"            :pZZZZZc>                     :8ZZZZZc:             ",
"            :pZZZZZv>                     >8ZZZZZc:             ",
"            :fZZZZZc>                     :8ZZZZZv:             ",
"            :pZZZZZv2                     >8ZZZZZc:             ",
"            :pZZZZZv>                     :8ZZZZZc:             ",
"            >pZZZZZv>                     >8ZZZZZv:             ",
"            :pZZZZZv>                     :8ZZZZZc:             ",
"            >pZZZZZc>                     :8ZZZZZc:             ",
"            :pZZZZZv2                     :0ZZZZZv:             ",
"            >pZZZZZc>                     :8ZZZZZc:             ",
"            :pZZZZZv>                     :8ZZZZZc:             ",
"            >pZZZZZc>                     :8ZZZZZv:             ",
"            :pZZZZZc>                     >8ZZZZZc:             ",
"            :pZZZZZv>                     :8ZZZZZc:             ",
"            :fZZZZZc>                     :8ZZZZZc:             ",
"            :pZZZZZv2                     :8ZZZZZv:             ",
"            :pZZZZZv>                     :0ZZZZZc:             ",
"            >pZZZZZv>                     :8ZZZZZc:             ",
"            :pZZZZZv>                     :8ZZZZZv:             ",
"            >pZZZZZc>                     :8ZZZZZc:             ",
"            :pZZZZZv>                     >8ZZZZZc:             ",
"            >pZZZZZc>                     :8ZZZZZv:             ",
"            :pZZZZZv>                     :8ZZZZZc:             ",
"            >pZZZZZc>                     >8ZZZZZc:             ",
"            :pZZZZZc>                     :8ZZZZZv:             ",
"            :pZZZZZv>                     >8ZZZZZc:             ",
"            :fZZZZZc>                     >8ZZZZZc:             ",
"            :pZZZZZv2                     >8ZZZZZv:             ",
"            :pZZZZZv>                     :8ZZZZZc:             ",
"            >pZZZZZv>                     :8ZZZZZc:             ",
"            :pZZZZZc>                     :8ZZZZZc:             ",
"            :pZZZZZv>                     :8ZZZZZv:             ",
"            :fZZZZZc>                     :8ZZZZZc:             ",
"            :pZZZZZc>                     :8ZZZZZc:             ",
"            :pZZZZZc>                     :6ZZZZZv:             ",
"            :pZZvZZc>                     :8ZZZZZc:             ",
"             &::::::$222555525552555525252$::::::=X             ",
"                    :cZZZZZZZZZZZZZZZZZZZv5                     ",
"                    :vNZZZZZZZZZZZZZZZZZZv5                     ",
"                    :ZZZZZZZZZZZZZZZZZZZZZ2                     ",
"                    :ZZZZZZZZZZZZZZZZZZZZv2                     ",
"                    :NvZZZZZZZZZZZZZZZZZZZ5                     ",
"                    :NvZZZZZZZZZZZZZZZZZvv5                     ",
"                    %ryyyyyeeyyeeyeyyyyeee=                     ",
"                                                                ",
"                                                                "
};
