/* XPM */
static char *_edb3ee644e54d06c92f794f35c6fc162nElvGZ8GsQ6wD0T[] = {
/* columns rows colors chars-per-pixel */
"64 64 58 1 ",
"  c None",
". c gray60",
"X c #A0A0A0",
"o c gray63",
"O c #A2A2A2",
"+ c gray68",
"@ c #AEAEAE",
"# c #AFAFAF",
"$ c gray69",
"% c #B1B1B1",
"& c gray71",
"* c #B7B7B7",
"= c #B9B9B9",
"- c gray73",
"; c #BBBBBB",
": c gray74",
"> c gray",
", c #C0C0C0",
"< c #C1C1C1",
"1 c #C3C3C3",
"2 c gray79",
"3 c #CACACA",
"4 c #CBCBCB",
"5 c gray80",
"6 c #CECECE",
"7 c gray83",
"8 c gray84",
"9 c gray87",
"0 c gray88",
"q c #E1E1E1",
"w c #E2E2E2",
"e c gray89",
"r c #E4E4E4",
"t c gray90",
"y c #E6E6E6",
"u c #E7E7E7",
"i c gray91",
"p c #E9E9E9",
"a c #EAEAEA",
"s c #ECECEC",
"d c gray93",
"f c #EEEEEE",
"g c #EFEFEF",
"h c gray94",
"j c #F1F1F1",
"k c #F6F6F6",
"l c #F7F6F7",
"z c #F8F8F8",
"x c #F9F8F9",
"c c #F9F9F9",
"v c gray98",
"b c #FBFBFB",
"n c gray99",
"m c #FDFCFD",
"M c #FDFDFD",
"N c #FEFDFE",
"B c #FEFEFE",
"V c white",
/* pixels */
"                                                                ",
"                                O>>>>>-.                        ",
"                                2VVVVVz>                        ",
"                                2VVVVVz>                        ",
"                                2VVVVVz>                        ",
"                                2VVVVVz>                        ",
"                                2VVVVVz>                        ",
"                                2VVVVVz>                        ",
"                                2VVVVVz>                        ",
"                        O6666666,VVVVVz>                        ",
"                        >zzVVzzVzVVVVVz>                        ",
"                        >VVzVVnVzVVVVVz>                        ",
"                        >VVVVVVVVVVVVVz>                        ",
"                        >VzVVVVznVVVVVz>                        ",
"                        >zzVVzkzVVVVVVk>                        ",
"                        *gjgjhsgsVVVVVk>                        ",
"                        .>>>>>>>-VVVVVz>                        ",
"                @8eeeee,        2VVVVVz>                        ",
"                >gVVVVV8        2VVVVVz>                        ",
"                >gVVVVV7        2VVVVVz>                        ",
"                >gVVVVV7        2VVVVVz>                        ",
"                >gVVVVV7        2VVVVVz>                        ",
"                >gVVVVV7        2VVVVVz>                        ",
"                +79e9e9>        2VVVVVz>                        ",
"                                2VVVVVk>                        ",
"                                2VVVVVz>                        ",
"                                2VVVVVz>                        ",
"                                2VVVVVz>                        ",
"                                2VVVVVz>                        ",
"                                2VVVVVz>                        ",
"                                2VVVVVz>                        ",
"                                2VVVVVz>                        ",
"                                2VVVVVz>                        ",
"                                2VVVVVz>                        ",
"                                2VVVVVz>                        ",
"                                2VVVVVz>                        ",
"                                2VVVVVz>                        ",
"                                2VVVVVz>                        ",
"                                2VVVVVz>                        ",
"                                2VVVVVz>                        ",
"                                2VVVVVz>                        ",
"                                2VVVVVz>                        ",
"                                2VVVVVz>                        ",
"                                2VVVVVz>                        ",
"                                2VVVVVz>                        ",
"                                2VVVVVz>                        ",
"                                2VVVVVz>                        ",
"                                2VVVVVz>                        ",
"                                2VVVVVz>                        ",
"                                2VVVVVz>                        ",
"                                2VVVVVz>                        ",
"                                2VVVVVz>                        ",
"                                2VVVVVz>                        ",
"                                2VVVVVz>                        ",
"                 *>>>>>>>>>>>>>>>VVVVVk@>>>>>>@                 ",
"                $9giggggggiggiyiyVVVVVzeyiiggi8                 ",
"                >gVVVVVVVVVVVVzzzVVVVVVzzVzVVze                 ",
"                >gVVVVVVVVVVVVVVVVVVVVVVVVVVVVy                 ",
"                >jVVVVVVVVVVVVVVVVVVVVVVVVVVVVe                 ",
"                -gVVVVVVVVVVVVVVVVVVVVVVVVVVVVy                 ",
"                >gzVVVVVVVVVVVVVVVVVVVVVVVVVVVy                 ",
"                >gVVVzVVzVVVVVzVzVVVVzVVVVzVVzy                 ",
"                O,2626626622626662622626626622-                 ",
"                                                                "
};
