/* XPM */
static char *_8c28fb5145a4cbcfe39be859d4e17e1MVOBFSuZvO5CGoAK[] = {
/* columns rows colors chars-per-pixel */
"64 64 93 2 ",
"   c None",
".  c gray61",
"X  c gray62",
"o  c gray63",
"O  c #A5A5A5",
"+  c gray65",
"@  c #A7A7A7",
"#  c gray66",
"$  c #AAAAAA",
"%  c #ACACAC",
"&  c gray68",
"*  c #AFAFAF",
"=  c gray69",
"-  c #B2B2B2",
";  c gray71",
":  c gray72",
">  c #B9B9B9",
",  c gray73",
"<  c #BBBBBB",
"1  c #BCBCBC",
"2  c gray74",
"3  c gray",
"4  c gray75",
"5  c #C0C0C0",
"6  c #C1C1C1",
"7  c gray76",
"8  c #C3C3C3",
"9  c #C4C3C4",
"0  c gray77",
"q  c #C5C5C5",
"w  c #C6C5C6",
"e  c #C6C6C6",
"r  c gray78",
"t  c gray79",
"y  c #CBCBCB",
"u  c gray80",
"i  c #CDCDCD",
"p  c #CECECE",
"a  c gray81",
"s  c #D0D0D0",
"d  c gray82",
"f  c #D2D2D2",
"g  c LightGray",
"h  c gray83",
"j  c #D5D5D5",
"k  c gray84",
"l  c #D7D7D7",
"z  c gray85",
"x  c gray86",
"c  c #DCDBDC",
"v  c gainsboro",
"b  c #DDDDDD",
"n  c gray87",
"m  c #DFDFDF",
"M  c gray88",
"N  c gray89",
"B  c #E4E3E4",
"V  c #E4E4E4",
"C  c gray90",
"Z  c #E6E6E6",
"A  c #E7E7E7",
"S  c #E8E7E8",
"D  c gray91",
"F  c #E9E9E9",
"G  c #EAE9EA",
"H  c #EAEAEA",
"J  c gray92",
"K  c #ECEBEC",
"L  c #ECECEC",
"P  c gray93",
"I  c #EEEEEE",
"U  c #EFEEEF",
"Y  c #EFEFEF",
"T  c gray95",
"R  c #F3F3F3",
"E  c #F4F4F4",
"W  c gray96",
"Q  c #F6F6F6",
"!  c gray97",
"~  c #F8F7F8",
"^  c #F8F8F8",
"/  c #F9F8F9",
"(  c #F9F9F9",
")  c gray98",
"_  c #FBFAFB",
"`  c #FBFBFB",
"'  c gray99",
"]  c #FDFCFD",
"[  c #FDFDFD",
"{  c #FEFDFE",
"}  c #FEFEFE",
"|  c #FFFEFF",
" . c white",
/* pixels */
"                                                                                                                                ",
"                                        - x C C C C C C C C C C C C C C C C C C C C n &                                         ",
"                                        3 L ` ' ' ' ` ` ' ' ' ' ` ' ` ' ' ' ` ` ' ` R ,                                         ",
"                                        3 R ' ' ' ' ' ' ' ' ' ' ' ' ' ' ' ' ' ' ' ' Q 3                                         ",
"                                        6 Q ' ' ' ' ' ' ' ' ' ' ' ' ' ' ' ' ' ' ' ' ` 3                                         ",
"                                        3 Q ' ' ' ' ' ' ' ' ' ' ' ' ' ' ' ' ' ' ' ' ` 3                                         ",
"                                        6 R ' ' ' ' ' ' ' ' ' ' ' ' ' ' ' ' ' ' ' ' ` 3                                         ",
"                                        3 J Q Q ` Q ` Q Q Q Q Q Q Q Q Q Q Q Q ` R Q L 3                                         ",
"                            3 3 6 3 3 3 & u x k k k x k k k k k k k k k k k k k k k s - 6 3 3 3 3 ,                             ",
"                        - x J L L L J J 6                                             e L L L L L J k -                         ",
"                        3 L ` ' ' ' ` ' t                                             s ' ' ' ' ' ` N 3                         ",
"                        3 L ' ' ' ' ' ' t                                             s ' ' ' ' ' ` J 3                         ",
"                        3 J ` ' ' ' ' ' u                                             s ' ' ' ' ' ' S 3                         ",
"                        3 J ' ' ' ' ' ' t                                             k ' ' ' ' ' ' C 3                         ",
"                        3 J ' ' ' ` ` ` u                                             s ' ' ' ' ' ` C 6                         ",
"                        3 k C C C B N C e                                             k ' ' ' ' ' ' C 3                         ",
"                        @ 3 e e t e e e &                                             k ' ' ' ' ' ' J 3                         ",
"                                                                                      s ' ' ' ' ' ' C 3                         ",
"                                                                                      k ' ' ' ' ' ` C 3                         ",
"                                                                                      k ' ' ' ' ' ' C 3                         ",
"                                                                                      s ' ' ' ' ' ' C 3                         ",
"                                                                                      k ' ' ' ' ' ' C 3                         ",
"                                                                                      s ' ' ' ' ' ` C 3                         ",
"                                                                      X 3 3 3 3 3 3 3 ; s k k k k k e @                         ",
"                                                                      , s s k k k s s 3                                         ",
"                                                                      e ' ' ' ' ' ' ` c                                         ",
"                                                                      e ' ' ' ' ' ' ` n                                         ",
"                                                                      e ' ' ' ' ' ' ` n                                         ",
"                                                                      e ' ' ' ' ' ' ' n                                         ",
"                                                                      e ' ' ' ' ' ' ' N                                         ",
"                                                                      e ` ' ' ' ' ' ` n                                         ",
"                                                        o 6 6 6 6 6 6 # t u u u u t e #                                         ",
"                                                        6 J K R Y L L 3                                                         ",
"                                                        e ` ' ' ' ' ' 3                                                         ",
"                                                        e ` ' ' ' ' ' 3                                                         ",
"                                                        e ` ' ' ' ' ' 6                                                         ",
"                                                        e ` ' ' ' ' ` 3                                                         ",
"                                                        e ` ' ' ' ' ` 3                                                         ",
"                                                        6 R Q Q Q Q R ,                                                         ",
"                                        @ e u u t u u t # 6 e e e e 6 X                                                         ",
"                                        u L Q Q ` Q Q ` 6                                                                       ",
"                                        s ` ' ' ' ' ' ' 6                                                                       ",
"                                        k Q ' ' ' ' ' ' e                                                                       ",
"                                        s ` ' ' ' ' ' ' 6                                                                       ",
"                                        s Q ' ' ' ' ' ' 6                                                                       ",
"                                        s Q ' ' ' ' ' ' e                                                                       ",
"                                        6 C L L L L L J ,                                                                       ",
"                        @ t s s s k k s & , 3 6 6 3 3 3 X                                                                       ",
"                        3 R ` ` ' ' ' ' u                                                                                       ",
"                        3 L ' ' ' ' ' ' u                                                                                       ",
"                        4 L ' ' ' ' ' ' u                                                                                       ",
"                        3 R ' ' ' ' ' ' u                                                                                       ",
"                        3 L ' ' ' ' ' ' u                                                                                       ",
"                        3 R ' ' ' ' ' ' t                                                                                       ",
"                        3 R ' ' ' ' ' ` e ;                                                                                     ",
"                        3 R ' ' ' ' ` ` k x N N N M N n N n N n N N n N n n N n N n n N n N n n x x u &                         ",
"                        3 R ' ' ' ' ' ' ' ' ' ' ' ' ' ' ' ' ' ' ' ' ' ' ' ' ' ' ' ' ' ' ' ' ' ' Q Q C 3                         ",
"                        3 L ' ' ' ' ' ' ' ' ' ' ' ' ' ' ' ' ' ' ' ' ' ' ' ' ' ' ' ' ' ' ' ' ' ' ` ` J 3                         ",
"                        6 L ' ' ' ' ' ' ' ' ' ' ' ' ' ' ' ' ' ' ' ' ' ' ' ' ' ' ' ' ' ' ' ' ' ' ' ` C 3                         ",
"                        3 R ' ' ' ' ' ' ' ' ' ' ' ' ' ' ' ' ' ' ' ' ' ' ' ' ' ' ' ' ' ' ' ' ' ' ' ` C 3                         ",
"                        3 J ` ' ' ' ' ' ' ' ' ' ' ' ' ' ' ' ' ' ' ' ' ' ' ' ' ' ' ` ` ` ' ' ' ' ' ' C 3                         ",
"                        3 J ` ` ` ' ' ' ' ' ' ' ' ' ' ' ` ' ' ' ' ' ' ` ' ' ' ' Q Q Q Q ' ' ' ` ' ` N 3                         ",
"                        & s n n n n n N N n n n N n N n n n N n N n N n n n N n x x n n N N N n n n u                           ",
"                                                                                                                                "
};
