/* XPM */
static char *ee6693b8f2fd4becb6513e9c5b95eadczTQ3Mf9rPEBYBrta[] = {
/* columns rows colors chars-per-pixel */
"64 64 58 1 ",
"  c None",
". c #909090",
"X c #9D9D9D",
"o c #A0A0A0",
"O c #A5A5A5",
"+ c #A9A9A9",
"@ c #AAAAAA",
"# c #AEAEAE",
"$ c gray69",
"% c gray70",
"& c #B7B7B7",
"* c gray72",
"= c #BBBBBB",
"- c gray74",
"; c gray",
": c #C1C1C1",
"> c #C6C6C6",
", c gray78",
"< c #C8C8C8",
"1 c gray79",
"2 c #CDCDCD",
"3 c #D0D0D0",
"4 c gray82",
"5 c gray83",
"6 c #D5D5D5",
"7 c gray86",
"8 c gainsboro",
"9 c gray88",
"0 c #E1E1E1",
"q c gray89",
"w c #E4E4E4",
"e c #E6E6E6",
"r c #E7E7E7",
"t c #E9E9E9",
"y c #EAEAEA",
"u c #EBEAEB",
"i c gray92",
"p c #ECECEC",
"a c gray93",
"s c #EFEFEF",
"d c gray94",
"f c #F1F1F1",
"g c gray95",
"h c #F3F3F3",
"j c #F4F4F4",
"k c #F6F6F6",
"l c #F7F6F7",
"z c gray97",
"x c #F8F8F8",
"c c #F9F9F9",
"v c gray98",
"b c #FBFAFB",
"n c #FBFBFB",
"m c gray99",
"M c #FDFDFD",
"N c #FEFEFE",
"B c #FFFEFF",
"V c white",
/* pixels */
"            X------&                       %--=---O             ",
"            =qeqetsq%                     %8ssssst>             ",
"            >ddscNNl-                     -tNNNNNN6             ",
"            >sdlcnNj-                     :sNNNNNN6             ",
"            >sccNNNd-                     -tNNNNNN6             ",
"            1lNNNNNl:                     -sNNNNNN6             ",
"            1cNNNNNd-                     -tNNNNNN6             ",
"            1cNNNNNl-                     :sNNNNNN6             ",
"            1cNNNNNd-                     -sNNNNNN6             ",
"            1NNNNNNl:                     -sNNNNNN6             ",
"            1NNNNNNd-                     -tNNNNNN6             ",
"            1cNNNNNj-                     -sNNNNNN6             ",
"            1cNNNNNd-                     -sNNNNNN6             ",
"            1cNNNNNl-                     -sNNNNNN6             ",
"            1cNNNNNd:                     -tNNNNNN6             ",
"            1NNNNNNl-                     -sNNNNNN6             ",
"            1cNNNNNl-                     -sNNNNNN6             ",
"            1NNNNNNj-                     -tNNNNNN6             ",
"            1NNNNNNd-                     -sNNNNNN6             ",
"            1cNNNNNl-                     -sNNNNNN6             ",
"            1cNNNNNl-                     -sNNNNNN6             ",
"            1NNNNNNd:                     -tNNNNNN6             ",
"            1cNNNNNj-                     -sNNNNNN6             ",
"            1NNNNNNl-                     -sNNNNNN6             ",
"            1NNNNNNl-                     -sNNNNNN6             ",
"            1cNNNNNd:                     -sNNNNNN6             ",
"            1cNNNNNl-                     -sNNNNNN6             ",
"            1NNNNNNd-                     -tNNNNNN6             ",
"            1cNNNNNl-                     -sNNNNNN6             ",
"            1NNNNNNd-                     -tNNNNNN6             ",
"            1NNNNNNd-                     -eNNNNNN6             ",
"            X----:-&@:::::::::::::::::::::%qNNNNNN6             ",
"                    5dldldldldlddddlddlddldNNNNNNN6             ",
"                    5NNNNNNNNNNNNNNNNNNNNNNNNNNNNN6             ",
"                    5NNNNNNNNNNNNNNNNNNNNNNNNNNNNN6             ",
"                    6nNNNNNNNNNNNNNNNNNNNNNNNNNNNN6             ",
"                    6NNNNNNNNNNNNNNNNNNNNNNNNNNNNN6             ",
"                    6NNNNNNNNNNNNNNNNNNNNNNNNNNNNN6             ",
"                    5cccccccccccccccccccccccNNNNNN6             ",
"                    .-----------:-:---:---#eNNNNNN6             ",
"                                          -tNNNNNN6             ",
"                                          -tNNNNNN6             ",
"                                          :sNNNNNN6             ",
"                                          -tNNNNNN6             ",
"                                          -sNNNNNN6             ",
"                                          -tNNNNNN6             ",
"                                          -sNNNNNN6             ",
"                                          -sNNNNNN6             ",
"                                          -sNNNNNN6             ",
"                                          -tNNNNNN6             ",
"                                          -sNNNNNN6             ",
"                                          -sNNNNNN6             ",
"                                          -sNNNNNN6             ",
"                                          -tNNNNNN6             ",
"                                          -sNNNNNN6             ",
"                                          -sNNNNNN6             ",
"                                          -pNNNNNN6             ",
"                                          ;sNNNNNN5             ",
"                                          -pNNNNNN6             ",
"                                          -pNNNNNN6             ",
"                                          -pcNNNNN6             ",
"                                          -pNNNNNN6             ",
"                                          @2888887=             ",
"                                                                "
};
