/* XPM */
static char *_e2229c136664354f9f923b06e4a2d52J3eLWcyyPmMCxczT[] = {
/* columns rows colors chars-per-pixel */
"64 64 82 1 ",
"  c None",
". c gray60",
"X c #9A9A9A",
"o c #9B9B9B",
"O c gray63",
"+ c #A2A2A2",
"@ c gray64",
"# c #A4A4A4",
"$ c #A9A9A9",
"% c #AAAAAA",
"& c gray67",
"* c #AEAEAE",
"= c gray69",
"- c #B4B4B4",
"; c #B6B6B6",
": c #B7B7B7",
"> c gray72",
", c #B9B9B9",
"< c gray73",
"1 c #BBBBBB",
"2 c #BCBCBC",
"3 c gray74",
"4 c gray",
"5 c gray75",
"6 c #C0C0C0",
"7 c #C1C1C1",
"8 c #C3C3C3",
"9 c gray77",
"0 c #C5C5C5",
"q c #C6C6C6",
"w c gray78",
"e c gray79",
"r c #CACACA",
"t c #CBCBCB",
"y c #CCCBCC",
"u c gray80",
"i c #CDCCCD",
"p c #CDCDCD",
"a c #CECECE",
"s c gray81",
"d c #D0D0D0",
"f c gray82",
"g c #D2D2D2",
"h c gray83",
"j c #D5D5D5",
"k c gray85",
"l c #DADADA",
"z c gainsboro",
"x c gray87",
"c c #E7E7E7",
"v c gray91",
"b c #E9E9E9",
"n c #EAEAEA",
"m c #EBEAEB",
"M c gray92",
"N c #ECEBEC",
"B c #ECECEC",
"V c gray93",
"C c #EEEEEE",
"Z c #EFEEEF",
"A c #EFEFEF",
"S c gray94",
"D c #F1F1F1",
"F c gray95",
"G c #F3F3F3",
"H c #F4F4F4",
"J c #F5F4F5",
"K c gray96",
"L c #F6F6F6",
"P c gray97",
"I c #F8F8F8",
"U c #F9F8F9",
"Y c #F9F9F9",
"T c gray98",
"R c #FBFAFB",
"E c #FBFBFB",
"W c #FCFBFC",
"Q c gray99",
"! c #FDFCFD",
"~ c #FDFDFD",
"^ c #FEFEFE",
"/ c white",
/* pixels */
"                                                                ",
"                            %4444444444444O                     ",
"                            hGHHHHHHHHHHHG9                     ",
"                            x^^^^^^^^^^^^^a                     ",
"                            x^^^^^^^^^^^^^a                     ",
"                            x^^^^^^^^^^^^^a                     ",
"                            x^^^^^^^^^^^^^a                     ",
"                            x^^^^^^^^^^^^^t                     ",
"                            gMMMBMMMMMMMMc9                     ",
"                    o444474;%4444444444444O4444774X             ",
"                    7^^E^^Ea4             4cE^^^EE4             ",
"                    7^^^^^Wh4             4ME^^^WE4             ",
"                    7^^^^^^h4             4M^^^^^^4             ",
"                    7^^^^^^h4             4ME^^^^E4             ",
"                    4^^^^^Ea4             4MEE^EEE4             ",
"                    7EEE^^Ha4             4cHEEEHH4             ",
"                    ;999997*>             ;;799977;             ",
"            %glllllh%444444;               4444444X             ",
"            >H^^^^^G4                                           ",
"            ;H^^^^^G4                                           ",
"            >H^^^^^H4                                           ",
"            >H^^^^^G4                                           ",
"            >H^^^^^G4                                           ",
"            >H^^^^EG=                                           ",
"            >H^^^EEEtaaaaaaaaaaatttttaaaaa;                     ",
"            >H^^^EEEHGHHHHHGHHHHGBGGGHHHHHt                     ",
"            >H^^^W^^^^^^^^^^^^^^^^E^^^^^^^a                     ",
"            >H^^^^^^^^^^^^^^^^^^^^^^^^^^^Et                     ",
"            >H^^^^^^^^^^^^^^^^^^^^^^^^^^^^a                     ",
"            >H^^^^^^^^^^^EE^^^^^^^^^^^^^^Et                     ",
"            >H^^^^^E^^^^EHE^^^^^^^^^^^^^^Ea                     ",
"            >H^^^^^E=aatttaataataataaaaaaa%4444444X             ",
"            >H^^^^^H4                     4lNBBBBM4             ",
"            >H^^^^^G4                     4M^^^^^^4             ",
"            >H^^^^^G4                     4N^^^^^E4             ",
"            >H^^^^^H4                     4NE^^^^^4             ",
"            >H^^^^^G4                     4MEEE^^^4             ",
"            >H^^^^^G4                     4MW^^^^^4             ",
"            >H^^^^^G4                     4MW^^^^^4             ",
"            >H^^^^^G4                     4M^^^^^E4             ",
"            >H^^^^^G4                     4B^^^^^E4             ",
"            >H^^^^^H4                     4BE^^^^^4             ",
"            >H^^^^^H4                     4B^^^^^E4             ",
"            4H^^^^WG4                     4B^^^^^^4             ",
"            4G^^^^^H4                     4B^^^^^E4             ",
"            4B^^^^^H4                     4B^^^^^E4             ",
"            4B^^^E^H4                     4B^^^^^E4             ",
"            4BE^^^^H4                     4BE^^^^^4             ",
"            4GE^^^^H4                     4BE^^^^^4             ",
"            4BE^^^^H4                     4M^^^^^E4             ",
"            >BW^^^^H4                     4M^^^^^E4             ",
"            >BE^^^^H4                     4ME^^^^^4             ",
"            4GE^^^^H4                     4M^^^^EE4             ",
"            >BEEEEEG4                     4MEE^^EE4             ",
"            #9aaaaaa#tttaayaaaattaaaatataa%tagagaaO             ",
"                    >EEEEEEEEEEEEEEEEEEEEHt                     ",
"                    7^E^^^^^^^^^^^^^^^^^^Ea                     ",
"                    4^^^^^^^^^^^^^^^^^^^^^t                     ",
"                    7^E^^^^^^^^^^^^^^^^^^^a                     ",
"                    7^^EEE^^^^^^^^^^^^^^^^t                     ",
"                    4^^EHHE^W^^^^^^^^^^^^^t                     ",
"                    7EEHHHE^^^W^^WW^^^WWW^y                     ",
"                    X444444444444444444444O                     ",
"                                                                "
};
