/* XPM */
static char *ea174bdd2b744d98c6152510e0ec45a5qzFlvOTPEcOar7zH[] = {
/* columns rows colors chars-per-pixel */
"64 64 65 1 ",
"  c None",
". c gray60",
"X c gray62",
"o c #9F9F9F",
"O c gray65",
"+ c #A7A7A7",
"@ c gray67",
"# c #AFAFAF",
"$ c gray69",
"% c #B1B1B1",
"& c #B4B4B4",
"* c #B9B9B9",
"= c gray74",
"- c gray",
"; c gray75",
": c #C1C1C1",
"> c gray76",
", c #C3C3C3",
"< c gray77",
"1 c #C5C5C5",
"2 c #C6C6C6",
"3 c gray79",
"4 c #CACACA",
"5 c #CBCBCB",
"6 c gray80",
"7 c #CDCDCD",
"8 c gray83",
"9 c gray84",
"0 c #D7D7D7",
"q c gainsboro",
"w c gray87",
"e c #DFDFDF",
"r c gray88",
"t c #E2E2E2",
"y c #E4E3E4",
"u c #E4E4E4",
"i c gray90",
"p c #E6E5E6",
"a c #E6E6E6",
"s c #E7E7E7",
"d c gray91",
"f c #E9E9E9",
"g c #EAEAEA",
"h c gray92",
"j c #ECECEC",
"k c gray93",
"l c #EEEEEE",
"z c #EFEFEF",
"x c gray95",
"c c #F4F3F4",
"v c #F4F4F4",
"b c gray96",
"n c #F6F6F6",
"m c gray97",
"M c #F8F8F8",
"N c #F9F9F9",
"B c gray98",
"V c #FBFBFB",
"C c #FCFBFC",
"Z c gray99",
"A c #FDFCFD",
"S c #FDFDFD",
"D c #FEFDFE",
"F c #FEFEFE",
"G c white",
/* pixels */
"                                                                ",
"                                                                ",
"                    %ffffffffffffffffffffffffffff0%             ",
"                    -ZZZZZZZZZZZZZZZZZZZZZZZZZZZZf:             ",
"                    :ZZZZZZZZZZZZZZZZZZZZZZZZZZZZj-             ",
"                    -ZZZZZZZZZZZZZZZZZZZZZZZZZZZZj-             ",
"                    -ZZZZZZZZZZZZZZZZZZZZZZZZZZZZj:             ",
"                    :ZZZZZZZZZZZZZZZZZZZZZZZZZZZZj-             ",
"                    -jjjjfjjjjjjxjjjjjjjjjxNZZZZZf-             ",
"             &---:--o1:1111:111::1111:111:ONZZZZZf-             ",
"            -fNZZZNN-                     -NZZZZZj-             ",
"            -jZZZZZZ-                     :NZZZZZj-             ",
"            -jZZZZZZ-                     :ZZZZZZf:             ",
"            -jZZZZZZ:                     :ZZZZZZj-             ",
"            -jNZZZNm-                     -ZZZZZZf-             ",
"            -jNZZZNN-                     :ZZZZZZf-             ",
"            *::111::*                     :ZZZZZZj-             ",
"             &------.                     :ZZZZZZj-             ",
"                                          :ZZZZZZf-             ",
"                                          :ZZZZZZf-             ",
"                                          :ZZZZZZj-             ",
"                                          :ZZZZZZj-             ",
"                                          :ZZZZZZf-             ",
"                                          %tiiiii8%             ",
"                                   %446666%                     ",
"                                   -xmmmmN-                     ",
"                                   -ZZNZZZ-                     ",
"                                   -NZZZZZ-                     ",
"                                   -NZZZZZ:                     ",
"                                   -NZZZZZ-                     ",
"                                   -NZZZZZ-                     ",
"                            @:-----O111411o                     ",
"                            8xxxxjf4                            ",
"                            tZZZZZN6                            ",
"                            wZZZZZN6                            ",
"                            tZZZZZN6                            ",
"                            wZZZZZN6                            ",
"                            tZZZZZm6                            ",
"                            wZZZZZm6                            ",
"                            tZZZZZN6                            ",
"                            tZZZZZN6                            ",
"                            tZZZZZN6                            ",
"                            wZZZZZN6                            ",
"                            tZZZZZN6                            ",
"                            tZZZZZN6                            ",
"                            tZZZZZN6                            ",
"                            wZZZZZN6                            ",
"                            tZZZZZN6                            ",
"                            tZZZZZN6                            ",
"                            tZZZZZN6                            ",
"                            tZZZZZm6                            ",
"                            tZZZZZN6                            ",
"                            wZZZZZN6                            ",
"                            tZZZZZN6                            ",
"                            tZZZZZN6                            ",
"                            wZZZZZN6                            ",
"                            tZZZZZm6                            ",
"                            tZZZZZN6                            ",
"                            wZZZZZN6                            ",
"                            tZZZZZm6                            ",
"                            wNZZZNc6                            ",
"                            6ifdiit-                            ",
"                                                                ",
"                                                                "
};
