/* XPM */
static char *c260f974e7a445f8a078b60284b439b8Lb6M6pNzsr6UfxuC[] = {
/* columns rows colors chars-per-pixel */
"64 64 77 1 ",
"  c None",
". c #939393",
"X c #979797",
"o c #989898",
"O c #9A9A9A",
"+ c #9D9D9D",
"@ c gray62",
"# c #9F9F9F",
"$ c #A0A0A0",
"% c gray65",
"& c gray66",
"* c gray67",
"= c #AEAEAE",
"- c #AFAFAF",
"; c gray69",
": c #B1B1B1",
"> c #B2B2B2",
", c gray70",
"< c #B4B4B4",
"1 c gray71",
"2 c #B6B6B6",
"3 c #B7B7B7",
"4 c gray72",
"5 c #B9B9B9",
"6 c gray73",
"7 c #BBBBBB",
"8 c #BCBCBC",
"9 c gray74",
"0 c gray",
"q c gray75",
"w c #C0BFC0",
"e c #C0C0C0",
"r c #C1C1C1",
"t c gray76",
"y c gray78",
"u c #C8C8C8",
"i c #D5D5D5",
"p c #DADADA",
"a c gray86",
"s c #DDDDDD",
"d c gray87",
"f c #DFDFDF",
"g c #E1E1E1",
"h c #E2E2E2",
"j c gray89",
"k c #E4E4E4",
"l c gray90",
"z c #E6E6E6",
"x c #E7E7E7",
"c c gray91",
"v c #E9E9E9",
"b c #EAEAEA",
"n c gray92",
"m c gray93",
"M c #EEEEEE",
"N c #EFEEEF",
"B c #EFEFEF",
"V c #F1F1F1",
"C c gray95",
"Z c #F3F3F3",
"A c #F4F4F4",
"S c gray96",
"D c #F6F6F6",
"F c gray97",
"G c #F8F8F8",
"H c #F9F9F9",
"J c #FAF9FA",
"K c gray98",
"L c #FBFAFB",
"P c #FBFBFB",
"I c #FCFBFC",
"U c gray99",
"Y c #FDFCFD",
"T c #FDFDFD",
"R c #FEFDFE",
"E c #FEFEFE",
"W c white",
/* pixels */
"                                                                ",
"                                                                ",
"                    ;ljlllllllllllllllllll;                     ",
"                    tUUUUUUUUUUUUUUUUUUUUUt                     ",
"                    tUUUUUUUUUUUUUUUUUUUUUy                     ",
"                    tUUUUUUUUUUUUUUUUUUUUUt                     ",
"                    tUUUUUUUUUUUUUUUUUUUUUy                     ",
"                    tUUUUUUUUUUUUUUUUUUUUUt                     ",
"                    tMMMMMMMMMVVVVVMMVMMcct                     ",
"             ;888888+8t88t8t8t88t8t8t88t8t$888888;              ",
"            5lJUUUUU5                     5UUUUUUc8             ",
"            5lIUUUUU5                     5UUUUUUc8             ",
"            5lUUUUUU5                     5UUUUUUc5             ",
"            5lUUUUUU1                     5UUUUUUM8             ",
"            5lUUUUUU5                     5UUUUUUM8             ",
"            8cUUUUUU5                     5UUUUUUc8             ",
"            8lUUUUUU5                     5UUUUUUc8             ",
"            5lUUUUUU5                     5UUUUUUM8             ",
"            5lUUUUUU5                     5UUUUUUc8             ",
"            8lUUUUUU5                     5UUUUUUM8             ",
"            5lUUUUUU5                     5UUUUUUM8             ",
"            8cUUUUUU5                     8UUUUUUc8             ",
"            5lUUUUUU5                     5UUUUUUc8             ",
"            5lUUUUUU1                     5UUUUUUM8             ",
"            5lUUUUUU1                     5UUUUUUc8             ",
"            7lUUUUUU5                     5UUUUUUM8             ",
"            5lUUUUUU5                     5UUUUUUM8             ",
"            7xUUUUUU5                     5UUUUUUc8             ",
"            5lUUUUUU5                     5UUUUUUc8             ",
"            8lUUUUUU5                     5UUUUUUM8             ",
"            5lJUUUUJ5                     5UUUUUUc8             ",
"            O1ttyttt+551555155555515555555$UUUUUUM8             ",
"                    tVVVVVVVVVVVMVVVMVMMVMVUUUUUUc8             ",
"                    wUUUUUUUUUUUUUUUUUUUUUUUUUUUUM8             ",
"                    wUUUUUUUUUUUUUUUUUUUUUUUUUUUUc8             ",
"                    tUUUUUUUUUUUUUUUUUUUUUUUUUUUUM8             ",
"                    tUUUUUUUUUUUUUUUUUUUUUUUUUUUUM8             ",
"                    tUUUUUUUUUUUUUUUUUUUUUUUUUUUUc8             ",
"                    5MMMVVAVVVVAAAVVVVAVVAVUUUUUUc8             ",
"                    X155555555585585555555*UUUUUUM8             ",
"                                          8UUUUUUc8             ",
"                                          tUUUUUUM8             ",
"                                          tUUUUUUM8             ",
"                                          tUUUUUUc8             ",
"                                          tUUUUUUM8             ",
"                                          tUUUUUUc8             ",
"             <8e888tO              1888t88*iaiiiiu%             ",
"            1sAAJAAV1             ;aAAAAAA5                     ",
"            5lUUUUUU5             ;lUUUUUUt                     ",
"            5lUUUUUU5             1lUUUUUUt                     ",
"             jIUUUUU5             1lUUUUUU8                     ",
"             lIUUUUU5             5lUUUUUUt                     ",
"            5lJUUUUU5             1lUUUUUUt                     ",
"            5lJUAJUA5             ;jAUUUUUt                     ",
"             -111551$uuuuuuuuuuuuu;;115111.                     ",
"                    8JUUUUUUUUUUUUa                             ",
"                    tFUUUUUUUUUUUUs                             ",
"                    eJUUUUUUUUUUUUs                             ",
"                    8JUUUUUUUUUUUUj                             ",
"                    tUUUUUUUUUUUUUs                             ",
"                    8UJJUJUUUUUUUJs                             ",
"                    ;kjjjjklllllllu                             ",
"                                                                ",
"                                                                "
};
