/* XPM */
static char *ad931d8629a746ab8fec828fd6217aa9v1KSNO26aU9Lf9GA[] = {
/* columns rows colors chars-per-pixel */
"48 48 147 2 ",
"   c None",
".  c #130003",
"X  c #1D090F",
"o  c #17040E",
"O  c #1A0710",
"+  c #1E0C13",
"@  c #200D14",
"#  c #231017",
"$  c #2C1210",
"%  c #25141B",
"&  c #29161B",
"*  c #2C1A1F",
"=  c #2C1B23",
"-  c #301F26",
";  c #342123",
":  c #32232A",
">  c #3D2622",
",  c #362830",
"<  c #3A2B33",
"1  c #3E2F38",
"2  c #3E313A",
"3  c #48230E",
"4  c #402218",
"5  c #562C16",
"6  c #673510",
"7  c #683414",
"8  c #703717",
"9  c #70371A",
"0  c #412A26",
"q  c #4E352D",
"w  c #51372C",
"e  c #41343D",
"r  c #4C3632",
"t  c #543C34",
"y  c #5B443A",
"u  c #71492D",
"i  c #7A4229",
"p  c #614637",
"a  c #664B3A",
"s  c #6D533B",
"d  c #725536",
"f  c #443740",
"g  c #463A43",
"h  c #493D46",
"j  c #4A3F48",
"k  c #4C424C",
"l  c #4D4651",
"z  c #4E4A55",
"x  c #524C55",
"c  c #544F58",
"v  c #5A525C",
"b  c #54515C",
"n  c #755E4F",
"m  c #7D5E46",
"M  c #625451",
"N  c #5D5761",
"B  c #5D5862",
"V  c #5F5E68",
"C  c #625B65",
"Z  c #655E69",
"A  c #66616B",
"S  c #69636E",
"D  c #6C6671",
"F  c #6D6A75",
"G  c #716C76",
"H  c #726D79",
"J  c #6E717D",
"K  c #73737D",
"L  c #863D27",
"P  c #883F27",
"I  c #863E29",
"U  c #8B3F2A",
"Y  c #954032",
"T  c #A4453F",
"R  c #A34A3E",
"E  c #AB4643",
"W  c #B34A4A",
"Q  c #B5454C",
"!  c #A85E42",
"~  c #BB524F",
"^  c #866A46",
"/  c #84664D",
"(  c #86684F",
")  c #8C6B4E",
"_  c #856850",
"`  c #8B6D52",
"'  c #987757",
"]  c #B07A48",
"[  c #C45655",
"{  c #CB7454",
"}  c #DB7D5D",
"|  c #9F814B",
" . c #A98857",
".. c #A3825A",
"X. c #B79150",
"o. c #BB9A59",
"O. c #A98560",
"+. c #AC8963",
"@. c #B28E67",
"#. c #B69266",
"$. c #B79369",
"%. c #BA956A",
"&. c #BF996D",
"*. c #BE9B64",
"=. c #E0A15D",
"-. c #C19B6E",
";. c #C49E70",
":. c #C8A466",
">. c #D6B261",
",. c #DFBA66",
"<. c #C7A172",
"1. c #EBBF63",
"2. c #F7B266",
"3. c #FBCD69",
"4. c #767682",
"5. c #777883",
"6. c #7A7985",
"7. c #7D7D89",
"8. c #807F8B",
"9. c #7D828E",
"0. c #7F8792",
"q. c #81808C",
"w. c #848592",
"e. c #838A95",
"r. c #898996",
"t. c #848D99",
"y. c #8C8D99",
"u. c #86909C",
"i. c #8E919D",
"p. c #90909D",
"a. c #8E97A5",
"s. c #8F9AA7",
"d. c #9094A1",
"f. c #949AA7",
"g. c #959BA8",
"h. c #95A0AD",
"j. c #99A2AF",
"k. c #99A5B2",
"l. c #9CAAB7",
"z. c #9EADBA",
"x. c #9FB0BD",
"c. c #A2AFBD",
"v. c #A3B4C2",
"b. c #A8BAC8",
"n. c #ACC0CE",
"m. c #AEC2D0",
"M. c #B5CBD9",
/* pixels */
"                                                                                                ",
"                                                                                                ",
"                                                                                                ",
"                                                                                                ",
"                                                                                                ",
"                                                                                                ",
"                                      6                                                         ",
"                                    8 8 8                                                       ",
"                                    I I L                                                       ",
"                                    T T T                                                       ",
"                                    W W W                                                       ",
"                                    T T E E                                                     ",
"                                    P U Y E Q                                                   ",
"                                    7 9 I R ~ [                                                 ",
"                                    3 5 i ! { }                                                 ",
"                                    $ 4 u ] =.2.                                                ",
"                                    & > d X.1.3.                                                ",
"                                    r y ^ o.1.>.|                                               ",
"                                    ( ` ..*.:. .s ;                                             ",
"                                    @.#.%.-.@.` t * @                                           ",
"                                    -.-.;.&.@._ t = +                                           ",
"                                    ;.&.&.&.@._ t = +                                           ",
"                                    $.%.&.;.@._ t = +                                           ",
"                                  m O.%.;.;.$.` t * + +                                         ",
"                          @ o o & p ' %.<.<.$.` t - @ + @ + @ @                                 ",
"                        = = = = : y ` +.%.$.+./ t * # % = = = = =                               ",
"                      < e h k k x M n / ) ) / a 0 & = < f h h g g <                             ",
"                    = e v F 5.9.q.G M t w w q 0 * & < x S G H D v e =                           ",
"                  @ = f A q.f.z.l.w.v < = : : - = - h D w.y.y.8.A g = +                         ",
"                    = e v F r.j.c.f.J c z z z k j k C 8.p.y.8.F v e =                           ",
"                      , 2 k A q.j.j.s.t.e.t.e.0.4.H 6.y.p.8.C j e ,                             ",
"                        % ; k D r.h.k.l.x.x.l.g.i.r.r.r.w.D j - %                               ",
"                          % 2 c S K q.t.u.u.e.9.5.G F G S c e &                                 ",
"                            : e g k x x b x z z k k h h g e :                                   ",
"                              = = = = = - : : ; = = * = = =                                     ",
"                                @ + @ # = , 1 , = # + + @                                       ",
"                                  + + # < x C x 1 % @ X                                         ",
"                                    @ * h D 8.D g = @                                           ",
"                                    @ = k 6.d.6.k = @ X                                         ",
"                                    X = l 0.h.w.x = @ X @                                       ",
"                                    @ = c e.z.t.c = # # = =                                     ",
"                                  k : - x t.x.t.c ; = 1 g e <                                   ",
"                          # g H w.Z 1 : x e.z.t.x : < c S v e %                                 ",
"                        = : k G 7.S e : x t.x.t.c : e A 6.D k : =                               ",
"                      2 k z B A S v 2 , V s.v.f.V , 2 v S A B z k 2                             ",
"                    - k F 7.J B k 1 -   0.x.b.z.9.  - 2 k B J 9.F k =                           ",
"                  + = x 0.k.0.b : +       m.n.m.      @ : b 0.k.0.x - +                         ",
"                  + = c u.v.u.x * .       M.m.M.      . * c u.v.u.b = +                         "
};
