/* XPM */
static char *c194658f98da422da768f09f4e6a634dGCxuNnq29nMoMPbO[] = {
/* columns rows colors chars-per-pixel */
"64 64 151 2 ",
"   c #1F1F1F",
".  c #210E15",
"X  c #231017",
"o  c #25131A",
"O  c #28161D",
"+  c #211B1D",
"@  c #2A191F",
"#  c #2C1A21",
"$  c #321E24",
"%  c #301B29",
"&  c #2C2027",
"*  c #2E2028",
"=  c #352127",
"-  c #3A2223",
";  c #35252C",
":  c #3E292F",
">  c #372931",
",  c #3B2D36",
"<  c #3D2F38",
"1  c #3E3139",
"2  c #412726",
"3  c #412C32",
"4  c #4F3433",
"5  c #42353E",
"6  c #4D363B",
"7  c #4F383D",
"8  c #533634",
"9  c #583934",
"0  c #503A3F",
"q  c #5F3F39",
"w  c #633F35",
"e  c #654135",
"r  c #6C473D",
"t  c #714A3F",
"y  c #413740",
"u  c #463B44",
"i  c #493E47",
"p  c #523B40",
"a  c #4B414A",
"s  c #5E4241",
"d  c #50454F",
"f  c #5B494F",
"g  c #4F4851",
"h  c #514650",
"j  c #554B55",
"k  c #5C4A50",
"l  c #564F58",
"z  c #584F59",
"x  c #57545D",
"c  c #5B555F",
"v  c #634441",
"b  c #684742",
"n  c #6C4A42",
"m  c #734E43",
"M  c #775044",
"N  c #795144",
"B  c #64555D",
"V  c #745752",
"C  c #785952",
"Z  c #5D5660",
"A  c #5F5863",
"S  c #635A64",
"D  c #6A5D66",
"F  c #655E69",
"G  c #66626C",
"H  c #69646E",
"J  c #796768",
"K  c #7D6D6F",
"L  c #686771",
"P  c #6C6B75",
"I  c #6D6F7A",
"U  c #716C77",
"Y  c #726D79",
"T  c #77747F",
"R  c #845743",
"E  c #865844",
"W  c #8A5A45",
"Q  c #8D6554",
"!  c #886C62",
"~  c #887068",
"^  c #967D74",
"/  c #98857E",
"(  c #787580",
")  c #777B86",
"_  c #777C88",
"`  c #787D88",
"'  c #7D838E",
"]  c #7E8591",
"[  c #83838F",
"{  c #818793",
"}  c #848995",
"|  c #8A8A96",
" . c #868F9B",
".. c #8D8D9A",
"X. c #86909C",
"o. c #8E909D",
"O. c #90919E",
"+. c #9293A0",
"@. c #939AA6",
"#. c #949CA9",
"$. c #989EAB",
"%. c #94A1AE",
"&. c #9AA2AF",
"*. c #9CA5B2",
"=. c #9BA9B6",
"-. c #9EADBB",
";. c #A0AAB7",
":. c #A2AFBD",
">. c #A0ACB9",
",. c #A3B0BD",
"<. c #A3B2BF",
"1. c #A3B0BE",
"2. c #A3B2C0",
"3. c #A3B3C0",
"4. c #A5B3C1",
"5. c #A7B4C0",
"6. c #A5B4C2",
"7. c #A6B5C3",
"8. c #A6B5C2",
"9. c #A5B6C4",
"0. c #A7B6C4",
"q. c #A6B4C2",
"w. c #A9B6C0",
"e. c #A7BAC7",
"r. c #A8BBC9",
"t. c #A9BBC9",
"y. c #AABCCA",
"u. c #AABDCB",
"i. c #ABBFCD",
"p. c #ADBFCD",
"a. c #ACBFCD",
"s. c #AABDCB",
"d. c #ADC1CF",
"f. c #ADC1CF",
"g. c #ADC1D0",
"h. c #ADC2D0",
"j. c #AEC2D0",
"k. c #AEC2D1",
"l. c #AEC3D1",
"z. c #AFC3D1",
"x. c #AEC3D2",
"c. c #AFC3D2",
"v. c #AFC4D2",
"b. c #AEC3D1",
"n. c #B0C4D2",
"m. c #B0C4D3",
"M. c #B0C5D3",
"N. c #B0C5D4",
"B. c #B1C6D4",
"V. c #B0C5D3",
"C. c #B2C8D6",
/* pixels */
"& & # & # % % % % % % % % % % % $ % % % % % $ $ % % % % % % % % % % % % % % % % $ % % % % % % % % % % % $ % % % % % % % % & # & ",
"          o o o o o o o o o o o o o o o o o o o X o o o O X X o o o o o o o O o o o X O O X o o o o X O o o O X O X X O         ",
"          o o o o o o o o o o o o o o o o o o o o o o o X O O O O o o o o o X o o o o o X X O o O o o o o o o o X X O o         ",
"        # o o o o X X o X X X o X X X o o o o X X X X X X X . X X X X X X X X X X . o o X X X X o X X X . o . . X O X o         ",
"    #     X o o ; a a a a a a a a a a a a d a a a a i a a d i i i d a a a a a a a a d a a a a a a a a a a a d d > o o o   #     ",
"o o o o o X o X h +.O.O.+.+.o.+.O.O.O.O.O.O.O.O.+.+.O.+.+.O.O.O.O.O.O.O.+.+.+.+.O.O.O.O.O.+.O.O.O.O.O.O.O.O.+.+.z X O o X o X X ",
"o o o o o o o X h +.O.O.O.O.o.+.O.O.O.O.O.O.O.O.O.O.O.O.O.O.O.O.O.O.O.O.O.O.O.O.O.O.O.O.O.O.O.O.O.O.O.O.O.O.O.O.z X o o o o o o ",
"o o o o o o o o h +.O.O.O.o.o.o.O.O.O.O.O.O.O.O.O.O.O...O.O...O.O.O...O...O.O.O.O.O.O.O.O.O.O.O.O.O.o.o.O.O.O.+.z X o o o o o o ",
"o o o o ; U Y Y } 7.7.7.L 1 y 5 B O.o.O.&.7.<.0...5 5 5 5 5 5 u 5 5 5 5 5 5 5 5 } 0.w.7.*.O.O.O.S y y y @.0.6.4...Y Y Y > X O X ",
"o o o X < ..+.O.*.c.v.v.x . X . i O.O.O.>.d.d.m. .o o o o o o X o o o o . o X o ' m.d.c.,.O.O.O.h . X o #.c.c.g.=.+.+.O.y X X O ",
"o o o X , ..O.o.*.c.c.v.Z X o X i O.O...>.d.d.m. .X o o o o X X . . o o . o o o ' m.d.c.:.O.O.+.h X X # #.x.c.c.=.O.O...y X o o ",
"o o X X , ..o.O.@.%.#.%.g X o X i O.O.O.>.m.d.m.o.# @ @ $ - $ - $ - - - $ $ @ @ { m.d.d.:.O.O.+.h X   # ' %.%.#.@.O.O.O.5 X X O ",
"o O o X , ..o.+.H # # # o o o o i O.O.O.>.d.d.n.#.0 7 7 r R R R R R R R t 7 0 7 o.v.d.v.<.o.O.+.h X o o # # % # S O.O.O.5 X X o ",
"o o o X , ..o.+.F o o o o o o o i O.O.O.>.d.d.m.#.0 p 0 n W W W W W W W m 0 0 0 o.v.d.d.<.o.O.O.h X o o o o o X Z O.O.O.5 X o o ",
"o o o o , ..O.+.F X o o o o o X a O.O.O.>.d.d.m.#.p 0 0 n W W W W W E W m 0 0 0 o.v.f.d.>.O.O.+.h X o o o o o o Z +.O.O.y X o o ",
"o o o X < +.+.@.H X o o O @ @ o a O.O.O.>.n.d.d.%.k f f V Q Q Q Q Q Q Q C f f f @.v.f.d.<.O.o.O.h O O # o o o . S @.+.O.y X o O ",
"o o o X y 0.u.p.( o o o : p 6 6 B O.O...;.p.p.p.y.3.3.<.4.<.w.w.w.<.w.w.,.<.3.3.t.d.d.d.:.o.O.o.D 6 6 6 # X o X U p.t.t.i X X o ",
"o o o X y u.c.N._ X o o 3 p p p S O.O.O.;.p.p.m.d.c.c.d.d.m.d.d.c.f.c.c.c.c.c.c.d.d.d.c.:.O.O.+.D p p 7 $ o o . Y n.c.p.a X o o ",
"o o o X y e.p.v.) X o o : p p p B O.O.O.>.c.m.p.c.m.N.N.m.m.m.m.m.m.v.N.v.v.v.v.c.d.c.d.:.o...o.D 0 p p $ X o . I m.p.u.a X o o ",
"O o o X y e.c.N.) X o o 6 b b v J *.&.*.4.c.p.m.-.` ` ` ` ` _ _ _ _ _ _ _ _ _ _ =.d.p.c.0.*.*.*.~ b v v $ o o X I m.c.p.a X o o ",
"o o o X y s.c.c.) o o o w W W E ^ c.g.c.p.p.c.c.X.X X X X o X X X X X X X X o X ' v.c.d.d.c.f.c./ E W W - . o X I N.c.i.a . X X ",
"o o o X y e.c.v.) X o o w W W W ^ g.f.c.p.c.c.c.X.O o o o o o o o o o o o o o o ] v.d.d.d.c.f.c.^ E W R - . o X I c.p.i.a   o o ",
"o o o X y e.f.v.) X o o w W W W ^ v.v.v.v.v.c.N.X.o o X o o X o o X o o o o X X ] C.v.v.N.c.m.C.| W W W - o o X I c.p.i.i X o o ",
"o o X X y e.c.v.) X o # w W W W ! X.X.X.X.X.X.X.I $ = # - : 2 2 : 2 2 2 - $ $ $ P X.X.X.X.X. .X.! W W W - X o X I N.c.p.a X o o ",
"o o o X y r.c.v._ X o o w W W W e o o o o o o o = p p p n W W W W R R W m p p p = o o # o o o o w W W E = o O X I m.i.i.a X o o ",
"o O o X y t.g.v.) X o o e W W W e o o o o o o o % p p p n W W W W W W W m 7 p p = o o o o o o o q W W E - X o X I m.c.i.a X o o ",
"o o o X y e.c.N._ X o o w W W W r o o o o o o o $ p p p n W W W W W W W m p p p = o o o o o o X w E W W - X o X I m.c.i.a X o o ",
"O o o X y e.d.v._ X o o e W W W t 3 3 3 8 e e e q p p p n W W W W W W W n p p p w e e e 9 , 3 3 r W W W - X o X I m.p.i.a X o o ",
"o o o X y s.p.v.) X o o w W W W M p p p m W W W N p p p n W W W W W W W M p p p M W W W m p p p m W W E - X o X ( N.c.i.a X   X ",
"o o X X y t.c.N._ X o o w W W W M 0 p p m W W W N p p p n W W W W W W W n p p p N W W W M p p 0 m W W E = o o X I N.a.i.a X o o ",
"o o o X y t.p.N.) X o o w W W W M p p p m W W W N p p p n W W W W W W W M p p p m W W W m p p p m W W E - o o o I i.a.i.i X o o ",
"o o O X y t.c.c.) X o o w W W W M 0 p p m W W W N p p p n W W W W W W W n p p p M W W W M p p p m W W E = . o . I N.c.i.i . o o ",
"o o o X y s.p.N.( o o o w W W W N p p p m W W W N p p p n W W W W W W W n 0 0 0 M W W W M 7 p p M W W R - O X X I N.d.u.a X X o ",
"o o o X y i.p.N._ o o o w W W W m p p p n W W W N p p p n W W W W W W W m i s p M W W W M 7 p p M W W R - X O . I m.c.p.a X o o ",
"o o o X y s.p.C.( o O o w W W W N p p p m W W W N p p p n W W W W E W W m p 7 p M W W W M a 0 0 M W W R - X o X I m.c.u.a X o o ",
"o o o . y s.p.N._ X O O w W W W m p p p m W W W N p p p n W W W W W W W n p p p M W W W M 7 0 0 M W W R = X O X I m.p.p.a X o o ",
"o o o o y t.p.C._ X o o w W W W m p p p m W E W N p p p n W W W W W W W M 0 0 0 M W W W M p 0 0 m W W R - X X X I m.p.u.a . X X ",
"o o o X y t.p.p._ X o o w W W W N p p p m W W W N p p p n W W W W W W W m i p p M W W W M p 0 i m W W W - X X . I m.c.p.a   o o ",
"o o o o y -.2.7.( X o o w W W W m p p p m W W W N p p p n W W W W W W W M p p p M W W W M 0 p p m W W R - o o . L 0.4.2.i X o o ",
"o o o X , ..O.O.F X o o v W W W m p p p n W W W N p p p n W W W W W W W m p p p M W W W M 0 p p m W W R - o o   A +.O...y X o o ",
"o o o o , ..O.+.F X o o w W W W m p p p n W W W N p p p n W W W E W W W m p p p m W W W M 7 p p m W W E = o o X Z +.O.O.5 X X o ",
"o o o X , | O.+.F X o o w W W W N p p p m W W W N p p p n W W W W W W W m p p p M W W W M p p p m W W E - o o X Z +.O...5 X o o ",
"o o o o < @.#.$.H X o o w W W W m p p p m W W W N p p p n W W W W E W W m p p p M W W W M 0 p p m W W W - X o X S $.#.@.y X o o ",
"o o O X y t.a.p._ X o o w W W W N p p p m W W W N p p p n W W W W W W W m p p p M W W W M p p p m W W W - X o X I c.p.s.i X o o ",
"o o o X y t.p.p._ X X o w W W W m p p p m W W W N p p p n W W W W W W W m p p p m W W W m 0 p p m W W E - X o X I v.p.p.a X o o ",
"o o o X y r.p.N._ X o o w W W W N p p p n W W W N p p p n W W W W W W W t i p p M W W W M p p p m W W E - o O X I c.c.p.a o o o ",
"o o o X 1 &.-.2.Y X o X 8 m b n v p p p s r n n v p p p v n n b b r n n r 0 0 p r n n n v p p p v b b b $ o o X G -.*.*.u X o o ",
"o o o X < ....O.F o o o 3 p p p p p p p p p p p p p p p p p p p i 0 p p i 0 0 p i 0 0 0 0 p p p p p p p # X o X Z +.O...y o o o ",
"o o o o , ..O.+.F o   X : p p p 0 0 p 0 0 0 0 0 0 0 0 p p p p p p p p p 0 p p p 0 0 p 0 p 0 p p p p p p # X o X Z +.O...5 X X o ",
"o o o X , ..O.+.H % % % 3 p p p 0 0 0 0 0 0 7 7 0 0 0 0 p 6 6 6 7 7 7 7 7 7 7 7 0 7 0 0 0 7 7 0 7 7 7 7 ; & & & F +.O.O.5 . O o ",
"o o o o , | O.O.@.=.=.-.j # # # # # # # @ @ @ @ # # # # # # # # # # # # $ @ # @ $ @ # # @ # # # # # O $ ] -.=.=.#.O.O.O.y X o o ",
"o o o X , ..O.o.*.p.i.N.x . o X o o X o O o O o X o o o o o X o . O X O X X O X O X o o o X o o X o X O #.v.g.c.=.O.O...5 X o o ",
"o o o o < ..O.O.*.c.p.p.x . o o o o o o o o o o o o . o o o o o O X O X O X X O X X O X o o o o o o X # #.c.c.c.;...O.O.5 X X o ",
"o o o o < | ....&.m.a.a.Z o o # O O O O O O O O O O # # o # o # O O O O O O O O O O O O @ o o @ O # O # #.c.p.p.*.......5 . X O ",
"o o o o O 3 1 < F $.#.$.[ ( ( ( T T T T ( T ( T T ~ _ ( ( ( ( ( T T T T T T T T T T ( T T T T ( ( T T T X.$.$.$.H , 5 < # X o o ",
"o o o o o X o . d O.o.o.O.+.O.O.O.+.+.+.+.+.+.+.O.O.+.+.O.O.O.+.+.+.+.O.+.+.+.O.+.+.+.+.+.+.+.+.+.+.+.+.+...O.O.l . X X o o O o ",
"o o .   o o o X h +.+.+.O.O.+.+.+.+.+.+.+.+.+.+.+.+.+.+.+.+.+.+.+.+.+.O.+.+.+.+.+.+.+.+.+.+.+.+.+.+.+.+.+.+.+.@.z X o o o o o o ",
"o o o # o o o o y ( Y ( ( ( ( ( ( ( ( ( T T ( ( T T ( ( T ( ( ( T T T T T T T T ( ( ( T T T ( ( T T T T T T T ( i X O o o o # o ",
"#         o o o # o # # O O O O # o o # o o # o o O O O o O O O @ O O O O O @ O O O O # o o # o O O O O O O O O O o o o         ",
"        + o o o o o X o o o o o o o o o o o o o o o o o o o o o O . O X o o o o o o o o o o o o X X O X X O o o o o o o         ",
"        + o o o o o o o o o o o X X o o o o o o o o o o o o o o o o X . O O X o o o o o X O o X O X o O O o o o o o o o +       ",
"        +   o o o o o o o o # o X   o o o o + o + o o o o o # o o o o   X X o o o o o o o o o O X O o X o o o o o o o o +       ",
"                                        &                                   &           # X o o o o o o o o o O o o o o +       ",
"                                                                                          o o o o o o O o o o o o o o o +       "
};
