/* XPM */
static char *_635d60935304289eeec9ba9cf3c6c53xbg4Fg0zq71fCxck[] = {
/* columns rows colors chars-per-pixel */
"48 48 181 2 ",
"   c None",
".  c #1C0B13",
"X  c #1E1017",
"o  c #210E15",
"O  c #200F18",
"+  c #261116",
"@  c #24121A",
"#  c #2D161D",
"$  c #2B181D",
"%  c #301617",
"&  c #391E1D",
"*  c #3B201E",
"=  c #271720",
"-  c #2B1A22",
";  c #271820",
":  c #351B21",
">  c #3C1B22",
",  c #2F222B",
"<  c #342025",
"1  c #3A2124",
"2  c #362328",
"3  c #352932",
"4  c #3C343E",
"5  c #451E26",
"6  c #481E24",
"7  c #412726",
"8  c #482027",
"9  c #442926",
"0  c #4D2228",
"q  c #462B29",
"w  c #492E2C",
"e  c #54252B",
"r  c #59272D",
"t  c #592627",
"y  c #48302F",
"u  c #53322B",
"i  c #5D382E",
"p  c #40343E",
"a  c #483436",
"s  c #563832",
"d  c #5D2B34",
"f  c #6D2E34",
"g  c #602930",
"h  c #722D34",
"j  c #613D34",
"k  c #733036",
"l  c #763138",
"z  c #783238",
"x  c #6E3A26",
"c  c #664035",
"v  c #694236",
"b  c #6A453B",
"n  c #6B483D",
"m  c #794D3B",
"M  c #3E3641",
"N  c #443841",
"B  c #4B3F47",
"V  c #4D4048",
"C  c #4C4146",
"Z  c #50474F",
"A  c #514A52",
"S  c #59525D",
"D  c #624F4E",
"F  c #724E42",
"G  c #69564E",
"H  c #7A5446",
"J  c #625357",
"K  c #6D5458",
"L  c #655E69",
"P  c #5F616C",
"I  c #696064",
"U  c #7D6B68",
"Y  c #6F6B75",
"T  c #787277",
"R  c #84373D",
"E  c #89383E",
"W  c #88373D",
"Q  c #9C413C",
"!  c #80513D",
"~  c #B04D3B",
"^  c #A15326",
"/  c #986027",
"(  c #C35F3F",
")  c #C6643C",
"_  c #C56635",
"`  c #CB7431",
"'  c #CD753A",
"]  c #C8722C",
"[  c #8D3B41",
"{  c #9B3E45",
"}  c #943941",
"|  c #9D4146",
" . c #845641",
".. c #815948",
"X. c #895D49",
"o. c #985B43",
"O. c #AD464B",
"+. c #A44349",
"@. c #B5494E",
"#. c #BB4D4E",
"$. c #BF5645",
"%. c #BD514B",
"&. c #BB4B51",
"*. c #BF5152",
"=. c #B75656",
"-. c #8E614D",
";. c #9A6955",
":. c #917359",
">. c #AB6041",
",. c #AA674C",
"<. c #BF7854",
"1. c #886B60",
"2. c #90606C",
"3. c #87746F",
"4. c #9A7768",
"5. c #847B7D",
"6. c #937A71",
"7. c #A97A67",
"8. c #B57578",
"9. c #C05745",
"0. c #C35B44",
"q. c #C3554E",
"w. c #C34D55",
"e. c #C75055",
"r. c #C56141",
"t. c #C96747",
"y. c #D16F4F",
"u. c #C17148",
"i. c #CD7152",
"p. c #D47B5A",
"a. c #D2842B",
"s. c #D78A3A",
"d. c #D38E33",
"f. c #E1963F",
"g. c #E2A23B",
"h. c #988179",
"j. c #BA8B74",
"k. c #D69257",
"l. c #CE9153",
"z. c #E3994F",
"x. c #E19A52",
"c. c #D7A85C",
"v. c #EDB74B",
"b. c #E3AF5E",
"n. c #F2BC53",
"m. c #F0B45F",
"M. c #E6A843",
"N. c #CE9E6D",
"B. c #CD9275",
"V. c #DFA36C",
"C. c #E9A761",
"Z. c #EFB961",
"A. c #EAB462",
"S. c #FBCF5B",
"D. c #F7C562",
"F. c #F9CB64",
"G. c #FDD266",
"H. c #FFD667",
"J. c #7B7D87",
"K. c #857E8B",
"L. c #7F8089",
"P. c #7D8592",
"I. c #82808B",
"U. c #878585",
"Y. c #9C8F9E",
"T. c #95969D",
"R. c #A7928B",
"E. c #A19E98",
"W. c #B5A699",
"Q. c #9399A4",
"!. c #9E9DA1",
"~. c #A09DA1",
"^. c #B19BA3",
"/. c #9EA6AF",
"(. c #A9ABAF",
"). c #A1ABB6",
"_. c #ABAEB7",
"`. c #ACB1B5",
"'. c #C19D92",
"]. c #C6AA85",
"[. c #ADBDC8",
/* pixels */
"                                                                                                ",
"                                                                                                ",
"                                                                                                ",
"                                                                                                ",
"                                                                                                ",
"                                                                                                ",
"                                                  X O X X                                       ",
"                                                # # # # # #                                     ",
"                                              > 0 e r r e e 5                                   ",
"                                            $ 8 f W [ [ E k 0 #                                 ",
"                                          $ : r E O.@.@.+.R e # X                               ",
"                                        : 5 r l | #.@.+.E h 0 #                                 ",
"                                      @ 8 f R +.@.@.| z r 0 >                                   ",
"                                    @ : e [ O.&.w.@.[ g > #                                     ",
"                                  : 0 r l { &.e.w.@.{ f e 5 >                                   ",
"                                @ 8 f E { O.&.w.*.&.O.| R f 8 $                                 ",
"                              @ : r E O.e.q.q.&.&.&.#.#.O.W e : $                               ",
"                            > 8 r z +.#.q.0.( $.%.&.w.w.#.{ z e 8 >                             ",
"                          # 8 f [ { O.#.0._ _ _ 9.&.&.w.w.O.{ E f 0 #                           ",
"                        @ # e W O.&.&.#.) ` ` ` ( q.&.&.&.&.&.O.R e # X                         ",
"                        O # e [ &.w.w.&.t.l.f.s.' ( ~ w.#.w.e.&.E e # .                         ",
"                        O # r [ &.w.&.w.y.z.v.M.s.` _ 9.#.w.e.&.[ e # @                         ",
"                        O # 0 [ O.#.&.q.p.C.S.v.g.a.` 0.&.&.&.O.W e # X                         ",
"                          - 6 h W Q ~ ( l.m.S.S.v.g.s.r.#.O.{ W h 0 #                           ",
"                            : 6 t x / ] z.n.H.H.S.n.z.y.&.} h e 6 >                             ",
"                              - * x / a.f.n.F.H.G.S.C.p.&.[ g > -                               ",
"                            3 M C G h.l.c.b.A.A.m.A.C.B.K.2.K B 4 3                             ",
"                          - 4 S Y h.E.W.N.N.k.k.k.k.B.W.'.Y.K.Y S p -                           ",
"                        X ; C I L.Q.).`.W.j.<.u.u.u.j.^._.).Q.K.L N - O                         ",
"                          $ 4 S Y L.T.!.R.7.,.>.,.,.7.R.^.Y.K.Y S p -                           ",
"                            3 N C G U h.4.;.o.o.o.o.;.4.3.U J B p 3                             ",
"                              ; < 3 b H -.-.-.-.-.-.-.X...F a : =                               ",
"                                + * u v H 1.6.h.h.6.1.H c u & +                                 ",
"                                  % & w D 5.!.).(.T.5.D w & %                                   ",
"                                    @ - Z J.).[.[.).L.A : @                                     ",
"                                    . $ M I P.Q./.T.T C - .                                     ",
"                                    O @ , M A I 3.3.K s $ X                                     ",
"                                    @ $ $ - 2 s F ..n q $ X                                     ",
"                                    $ + $ : 9 i m ! b q $ @                                     ",
"                                    @ $ 1 y v m ! ! b q $ X                                     ",
"                                    @ $ 7 j m  . .H c 9 $ @                                     ",
"                                      $ 7 s v b b c u 7 @                                       ",
"                                        1 9 9 9 q 9 7 1                                         ",
"                                          # $ $ # # #                                           ",
"                                            . @ @ @                                             ",
"                                                                                                ",
"                                                                                                ",
"                                                                                                "
};
