/* XPM */
static char *f026e3adbbf14a1d9a81b7ae5df00fb7KyBncTghhZ5r581u[] = {
/* columns rows colors chars-per-pixel */
"64 64 5 1 ",
"  c #25131A",
". c #3D253B",
"X c #4C2F49",
"o c #6E4A48",
"O c #78514F",
/* pixels */
"XXXXXXXXXXXXXXXXXXXXXXXXXXXXXXXXXXXXXXXXXXXXXXXXXXXXXXXXXXXXXXXX",
"XXXXXXXXXXXXXXXXXXXXXXXXXXXXXXXXXXXXXXXXXXXXXXXXXXXXXXXXXXXXXXXX",
"XXXXXXXXXXXXXXXXXXXXXXXXXXXXXXXXXXXXXXXXXXXXXXXXXXXXXXXXXXXXXXXX",
"XXXXXXXXXXXXXXXXXXXXXXXXXXXXXXXXXXXXXXXXXXXXXXXXXXXXXXXXXXXXXXXX",
"XXXXXXXXOOOOOOOOOOOOOOOOOOOOOOOOOOOOOOOOOOOOOOOOOOOOOOOOXXXXXXXX",
"XXXXXXXXOOOOOOOOOOOOOOOOOOOOOOOOOOOOOOOOOOOOOOOOOOOOOOOOXXXXXXXX",
"XXXXXXXXOOOOOOOOOOOOOOOOOOOOOOOOOOOOOOOOOOOOOOOOOOOOOOOOXXXXXXXX",
"XXXXXXXXOOOOOOOOOOOOOOOOOOOOOOOOOOOOOOOOOOOOOOOOOOOOOOOOXXXXXXXX",
"XXXXOOOOOOOOooooooooooooooooooooooooooooooooooooooooooooOOOOXXXX",
"XXXXOOOOOOOOooooooooooooooooooooooooooooooooooooooooooooOOOOXXXX",
"XXXXOOOOOOOOooooooooooooooooooooooooooooooooooooooooooooOOOOXXXX",
"XXXXOOOOOOOOooooooooooooooooooooooooooooooooooooooooooooOOOOXXXX",
"XXXXOOOOooooooooooooooooooooooooooooooooooooooooooooooooooooXXXX",
"XXXXOOOOooooooooooooooooooooooooooooooooooooooooooooooooooooXXXX",
"XXXXOOOOooooooooooooooooooooooooooooooooooooooooooooooooooooXXXX",
"XXXXOOOOooooooooooooooooooooooooooooooooooooooooooooooooooooXXXX",
"XXXXooooooooooooooooooooooooooooooooooooooooooooooooooooooooXXXX",
"XXXXooooooooooooooooooooooooooooooooooooooooooooooooooooooooXXXX",
"XXXXooooooooooooooooooooooooooooooooooooooooooooooooooooooooXXXX",
"XXXXooooooooooooooooooooooooooooooooooooooooooooooooooooooooXXXX",
"XXXXOOOOooooooooooooooooooooooooooooooooooooooooooooooooooooXXXX",
"XXXXOOOOooooooooooooooooooooooooooooooooooooooooooooooooooooXXXX",
"XXXXOOOOooooooooooooooooooooooooooooooooooooooooooooooooooooXXXX",
"XXXXOOOOooooooooooooooooooooooooooooooooooooooooooooooooooooXXXX",
"XXXXXXXXXXXXXXXXXXXXXXXXXXXXXXXXXXXXXXXXXXXXXXXXXXXXXXXXXXXXXXXX",
"XXXXXXXXXXXXXXXXXXXXXXXXXXXXXXXXXXXXXXXXXXXXXXXXXXXXXXXXXXXXXXXX",
"XXXXXXXXXXXXXXXXXXXXXXXXXXXXXXXXXXXXXXXXXXXXXXXXXXXXXXXXXXXXXXXX",
"XXXXXXXXXXXXXXXXXXXXXXXXXXXXXXXXXXXXXXXXXXXXXXXXXXXXXXXXXXXXXXXX",
"................................................................",
"................................................................",
"................................................................",
"................................................................",
"........                                                    ....",
"........                                                    ....",
"........                                                    ....",
"........                                                    ....",
"....                                ....                    ....",
"....                                ....                    ....",
"....                                ....                    ....",
"....                                ....                    ....",
"....                                ....                        ",
"....                                ....                        ",
"....                                ....                        ",
"....                                ....                        ",
"        ....................    ....    ................    ....",
"        ....................    ....    ................    ....",
"        ....................    ....    ................    ....",
"        ....................    ....    ................    ....",
"....                                                            ",
"....                                                            ",
"....                                                            ",
"....                                                            ",
"                                                                ",
"                                                                ",
"                                                                ",
"                                                                ",
"                                                                ",
"                                                                ",
"                                                                ",
"                                                                ",
"                                                                ",
"                                                                ",
"                                                                ",
"                                                                "
};
