/* XPM */
static char *b05e142840e54f78951023046909a7a80zVcANoHkYAE9ozg[] = {
/* columns rows colors chars-per-pixel */
"64 64 3 1 ",
"  c #4C2F49",
". c #6E4A48",
"X c #78514F",
/* pixels */
"                                                                ",
"                                                                ",
"                                                                ",
"                                                                ",
"    XXXXXXXXXXXXXXXXXXXXXXXXXXXXXXXXXXXXXXXXXXXXXXXXXXXXXXXX    ",
"    XXXXXXXXXXXXXXXXXXXXXXXXXXXXXXXXXXXXXXXXXXXXXXXXXXXXXXXX    ",
"    XXXXXXXXXXXXXXXXXXXXXXXXXXXXXXXXXXXXXXXXXXXXXXXXXXXXXXXX    ",
"    XXXXXXXXXXXXXXXXXXXXXXXXXXXXXXXXXXXXXXXXXXXXXXXXXXXXXXXX    ",
"    XXXX................................................XXXX    ",
"    XXXX................................................XXXX    ",
"    XXXX................................................XXXX    ",
"    XXXX................................................XXXX    ",
"    XXXX................................................XXXX    ",
"    XXXX................................................XXXX    ",
"    XXXX................................................XXXX    ",
"    XXXX................................................XXXX    ",
"    XXXX................................................XXXX    ",
"    XXXX................................................XXXX    ",
"    XXXX................................................XXXX    ",
"    XXXX................................................XXXX    ",
"    XXXX................................................XXXX    ",
"    XXXX................................................XXXX    ",
"    XXXX................................................XXXX    ",
"    XXXX................................................XXXX    ",
"    XXXX................................................XXXX    ",
"    XXXX................................................XXXX    ",
"    XXXX................................................XXXX    ",
"    XXXX................................................XXXX    ",
"    XXXX................................................XXXX    ",
"    XXXX................................................XXXX    ",
"    XXXX................................................XXXX    ",
"    XXXX................................................XXXX    ",
"    XXXX................................................XXXX    ",
"    XXXX................................................XXXX    ",
"    XXXX................................................XXXX    ",
"    XXXX................................................XXXX    ",
"    XXXX................................................XXXX    ",
"    XXXX................................................XXXX    ",
"    XXXX................................................XXXX    ",
"    XXXX................................................XXXX    ",
"    XXXX................................................XXXX    ",
"    XXXX................................................XXXX    ",
"    XXXX................................................XXXX    ",
"    XXXX................................................XXXX    ",
"    XXXX................................................XXXX    ",
"    XXXX................................................XXXX    ",
"    XXXX................................................XXXX    ",
"    XXXX................................................XXXX    ",
"    XXXX................................................XXXX    ",
"    XXXX................................................XXXX    ",
"    XXXX................................................XXXX    ",
"    XXXX................................................XXXX    ",
"    XXXX................................................XXXX    ",
"    XXXX................................................XXXX    ",
"    XXXX................................................XXXX    ",
"    XXXX................................................XXXX    ",
"    XXXXXXXXXXXXXXXXXXXXXXXXXXXXXXXXXXXXXXXXXXXXXXXXXXXXXXXX    ",
"    XXXXXXXXXXXXXXXXXXXXXXXXXXXXXXXXXXXXXXXXXXXXXXXXXXXXXXXX    ",
"    XXXXXXXXXXXXXXXXXXXXXXXXXXXXXXXXXXXXXXXXXXXXXXXXXXXXXXXX    ",
"    XXXXXXXXXXXXXXXXXXXXXXXXXXXXXXXXXXXXXXXXXXXXXXXXXXXXXXXX    ",
"                                                                ",
"                                                                ",
"                                                                ",
"                                                                "
};
