/* XPM */
static char *_bde49f36b93492b9084fcfa0477bb021strujAoUvCNLYK0[] = {
/* columns rows colors chars-per-pixel */
"64 64 133 2 ",
"   c #B79E67",
".  c #B99E64",
"X  c #B59E6B",
"o  c #B89E68",
"O  c #AE9F76",
"+  c #B49F72",
"@  c #BAA36A",
"#  c #BFA96E",
"$  c #A8A07E",
"%  c #C0AA6F",
"&  c #C1AC70",
"*  c #C5B374",
"=  c #C9B877",
"-  c #CEBF7C",
";  c #CFC07D",
":  c #D2C37E",
">  c #3F64AF",
",  c #3F6DB5",
"<  c #4057A6",
"1  c #4158A7",
"2  c #425CAA",
"3  c #4562AD",
"4  c #4865AF",
"5  c #4266B0",
"6  c #4865B0",
"7  c #426DB5",
"8  c #4A6CB3",
"9  c #4470B7",
"0  c #4D72B6",
"q  c #4375BA",
"w  c #4F76B8",
"e  c #467ABE",
"r  c #4A7BBD",
"t  c #5076BA",
"y  c #537BBC",
"u  c #447FC1",
"i  c #557EC0",
"p  c #5581BF",
"a  c #7FA5BE",
"s  c #4580C2",
"d  c #4D83C3",
"f  c #4E88C7",
"g  c #4F8CC9",
"h  c #5683C1",
"j  c #5885C3",
"k  c #5189C6",
"l  c #5B8AC5",
"z  c #528DCA",
"x  c #5D8CC9",
"c  c #5591CC",
"v  c #5B94CD",
"b  c #5D97D0",
"n  c #5C99D2",
"m  c #6295CE",
"M  c #659ED4",
"N  c #7BA6C4",
"B  c #76A7CC",
"V  c #79A7CB",
"C  c #66A1D6",
"Z  c #68A1D6",
"A  c #6FA8D6",
"S  c #67A3D8",
"D  c #6AA5D9",
"F  c #6BA8DC",
"G  c #6AA8DD",
"H  c #6BA8DD",
"J  c #69A8DF",
"K  c #6AA8DE",
"L  c #6AA8DF",
"P  c #6CA8DC",
"I  c #6DA9DC",
"U  c #6DAADC",
"Y  c #6DAADD",
"T  c #6EABDD",
"R  c #6EACDE",
"E  c #6FADDE",
"W  c #6CA8DB",
"Q  c #72A7D2",
"!  c #70A7D5",
"~  c #74A7D3",
"^  c #70A8D5",
"/  c #69A8E0",
"(  c #69A8E0",
")  c #9FA18C",
"_  c #9FA18C",
"`  c #9BA293",
"'  c #9EA190",
"]  c #9CA291",
"[  c #9CA292",
"{  c #9CA292",
"}  c #95A39D",
"|  c #95A29B",
" . c #98A29A",
".. c #9AA29D",
"X. c #A7A081",
"o. c #A4A184",
"O. c #A5A183",
"+. c #A0A18B",
"@. c #A1A18E",
"#. c #A2A18C",
"$. c #8EA3A7",
"%. c #94A3A5",
"&. c #87A4B2",
"*. c #84A5B6",
"=. c #85A5B6",
"-. c #88A4B0",
";. c #89A4B0",
":. c #89A5B8",
">. c #D4C580",
",. c #D6C681",
"<. c #D8C982",
"1. c #D9C983",
"2. c #DACA83",
"3. c #DBCC84",
"4. c #DCCC84",
"5. c #DECE86",
"6. c #DFCE86",
"7. c #E0D087",
"8. c #E1D087",
"9. c #E2D288",
"0. c #E4D489",
"q. c #E8D78B",
"w. c #E8D78C",
"e. c #E8D88C",
"r. c #E9D88C",
"t. c #E9D98C",
"y. c #EADA8D",
"u. c #EBDA8E",
"i. c #ECDB8E",
"p. c #EDDB8E",
"a. c #EDDC8E",
"s. c #EDDC8F",
"d. c #EEDD8F",
/* pixels */
"- - ,.i.a.u.a.u.a.u.u.a.u.a.a.w.: ; ; - - - ; ; = ; ; ; ; ; ; ; ; ; ; = @ .                       . ] F D U U C 3 < 2 2 2 2 2 1 ",
"- - <.i.u.u.u.a.u.a.a.u.a.u.a.w.; ; ; ; - ; ; ; ; ; ; ; ; ; ; = ; ; ; = @ .                       @ O } Q U U C 5 < 2 2 2 2 2 2 ",
"<.<.8.a.s.a.a.a.a.a.u.a.u.a.a.w.; ; - - - - ; ; ; ; = ; = ; ; ; ; ; ; ;                             . O B U A M 5 1 2 2 2 2 2 2 ",
"w.q.w.w.w.w.w.w.u.u.a.u.a.u.a.w.; - - ; - - = ; ; ; ; ; ; ; ; ; ; = ; = @                         . . O B U U C 4 2 2 2 1 2 2 1 ",
": ,.; : : : ; ,.u.a.u.a.u.a.a.w.; ; ; ; ; - - - = ; ; = ; ; ; = ; ; ; = @                           . $ N G U M 4 1 1 2 2 2 1 2 ",
"- - - - - - - ; w.a.a.u.a.u.a.w.; ; ; ; - - - ; ; ; ; ; ; ; ; ; ; ; ; = @                           . O B G U n 4 1 2 2 2 2 2 2 ",
"- - - - - - - >.w.u.u.a.u.a.a.w.; ; - - - - - - ; ; = ; ; = ; ; ; ; ; ;                             . $ B G U C 4 2 2 2 2 3 2 2 ",
": : : : : : - ,.u.a.a.u.a.u.a.w.; - - ; - - - - ; ; ; ; ; ; ; ; ; ; ; = @                             $ B G U C 4 2 2 1 4 3 4 4 ",
"w.w.w.w.0.u.0.u.u.u.a.u.a.u.a.q.; ; ; - - - - ; - - - ; ; - - - ; ; ; # @                         . +.B A W U Z 4 2 2 2 0 8 0 0 ",
"a.a.a.a.a.a.a.a.u.u.u.a.u.a.a.u.; - ; ; ; - - - ; - - - - - - ; ; = ; ; @                         . ` G U W U M 4 < 2 4 t p p y ",
"i.i.i.i.a.i.u.a.a.u.a.u.u.a.q.5.; ; - - - - - - - - - - - - - - ; ; ; ; @                         . ] U G D U M 4 1 2 8 y p y w ",
"i.i.i.i.i.i.a.u.u.a.u.a.a.u.5.- - ; - - - - ; - - - - ; - - - - ; ; ; ; @                       . . ` D U W U M 4 2 2 4 w y w 8 ",
"i.i.i.i.u.a.u.a.i.u.u.u.u.5.; - - - - - - - - - - - - - - - - ; ; ; ; # #                         . _ W W W W M 4 1 1 3 4 0 0 3 ",
"i.i.i.i.a.u.a.u.a.8.<.<.<.: - - ; - - ; - - ; - ; - - ; ; - - - ; ; ; #                           . ` U W W U M 4 1 2 2 1 2 1 1 ",
"i.i.i.i.i.a.a.i.8.: - - - - - - - - - - - ; ; - - - - - - - - - = # #                             . O.*.A W ^ M 4 1 2 1 2 2 2 2 ",
"i.i.i.i.i.q.u.0.: ; - - - - - - - - ; - - - - - - ; - - - - - - ; @ @ @                               O B U U Z 4 1 2 2 2 2 2 2 ",
"i.i.u.i.i.3.: : - - - - - - - ; - - - - ; - - ; - ; - - - ; - - * @                                 . O B G U M 6 1 2 2 1 2 2 1 ",
"i.i.i.q.3.: - - - ; - ; ; - - - - - - - - - - - - - - - - - ; - # @       . X                         O B G U M 6 1 2 2 2 2 2 2 ",
"a.a.s.u.; - - - - - ; - - - - - ; - - - - - - - ; - - - - ; - * @                                   . O B U U M 6 < 1 1 2 2 2 2 ",
"w.w.u.0.; - - - - - - - - - ; - - - - ; - - ; - - - - ; - - = # @                                     O B U U M 8 6 6 1 2 2 2 1 ",
": : : : ; - - ; - - - - - - ; - - - - - - - - - ; - - - - - # @                                     X O B J W D M M j 2 2 2 2 2 ",
"- - - - - - - - - - ; - ; - - - - ; - - ; - ; - - - - - - * @                                     . O =.D U W W E E x 2 2 2 2 2 ",
"- - - - - - - - - ; - ; - - - - - ; ; - - - - - - - ; ; = #                                 . . . O &.G W D W W I E x 2 2 2 2 2 ",
"- - - ; - - ; - - - - - - - - ; - - - - - ; - - ; - - - & @               . X             X X O O =.( G W W W W P D j 1 2 2 1 2 ",
"- - - - - - ; - - - - - ; - - - - ; - - - - - - - - = * @                                 . _ B B ! P P P P I I P i 2 2 2 2 2 2 ",
"- - - - - - - - - ; ; - - - - - - - - - - - - - - - * @                                 . . ] G U P P P P E m t t 4 2 2 2 2 4 2 ",
"; - - ; ; - - - - ; - - - - - - ; - - ; - - - - - * # .                                   X.-.P D U P P P I x 1 < 1 2 2 8 0 t t ",
"- - - - - - - ; - - - - ; - - - - - - - - - - - * @                                       -.U G U D P P P ^ x 2 1 2 2 2 8 y p x ",
"- - - ; - - - - - - ; - - - - ; - - ; - - - - * @ @                                   X X &.U D P P P P ^ E x 2 2 2 1 3 0 i j j ",
"- - - - - - - - ; - - - - - - - - - ; ; ; & # @ @                                   . X $.B D U P P U U ~ x 8 2 2 2 1 4 0 y y j ",
"; - - - - - - ; - - ; - ; - - - ; - - - * @ .                                     . O | ! ( D U P U M x x 8 1 1 1 2 2 4 8 t t 8 ",
"- - - ; ; - - - - - - - - - ; - - - = & @ @                                       . _ P P U P P P D j 2 1 2 2 2 2 2 1 4 2 8 4 2 ",
"- - - - - - ; - - - ; - - ; ; - - % @ @                                 X   .   o . ` P P P P D U y 2 2 2 2 1 2 2 2 2 4 2 4 2 2 ",
"- - ; - - - - - ; - - ; ; - * # # X   .                                       X +  .N P P P U D U w 2 2 2 2 2 2 2 2 2 2 2 2 2 2 ",
"- ; ; - ; - - - ; ; = * * * #                                             X . + ..V P D P P P U P t 1 2 2 1 1 2 2 2 2 2 2 2 2 2 ",
"- - - - - - ; ; - = *                                                   .   X @.B P P P P P D D m 8 1 2 2 2 2 2 2 2 2 2 2 2 2 2 ",
"- ; ; - - - ; = @ @ @                                           X . X o   o ] B ! P P P P P I m 8 2 2 2 1 2 2 2 2 2 2 2 2 2 2 2 ",
"# # # # # @ # # @                                               . X . . X ` N U P I P P P I m t 2 1 2 2 2 2 2 2 2 2 2 6 4 2 3 2 ",
"              .                                                 X . o + ] N ( P D I P P P E x 1 2 2 2 1 2 2 2 2 2 2 2 2 2 2 2 2 ",
"                                                                X . X @.~ G P P I D P I I M i 2 2 2 2 2 1 2 2 2 2 2 2 2 3 2 2 3 ",
"                                                                  . _ B D U D U P P P D M i 2 2 2 1 2 2 2 2 2 2 2 2 2 3 2 3 2 3 ",
"                                                        X     . . ` N G P P ^ U P P U Z y 6 1 2 2 2 2 1 1 2 2 2 2 2 2 2 2 2 2 2 ",
"                                                X . . o . . O _ ` N ( P D U P P U ^ M h 2 2 2 2 2 1 2 2 2 2 2 2 2 2 3 3 2 2 2 > ",
"                                                . X o X O + | P P P P P P U D P U Z j 2 2 2 1 2 2 2 2 2 2 2 2 2 2 2 2 2 2 2 3 2 ",
"                                                o o . O N B B P P P D U P D P P D i 2 2 2 2 2 2 2 2 2 2 2 2 2 2 2 2 2 2 3 2 2 > ",
"                                        . . . . o o.%.*.! G D P P P U U P U U Z i 3 1 2 2 2 3 2 2 2 2 2 2 2 2 3 2 2 > 2 2 2 2 3 ",
"                                    . X ) ` _ ` ` :.~ G P P P P P D P D U ^ M h 2 1 2 2 2 2 2 2 2 2 2 2 2 2 2 2 2 2 2 2 2 2 2 3 ",
"                                    X O.B W W W P P P P P P P P P P P D M M j 2 1 2 2 2 2 2 2 2 2 3 2 2 2 2 2 8 6 5 6 3 2 5 6 6 ",
"                    .             . _ B P D P P P D U U P P P P P P P M 8 5 3 2 2 2 2 2 3 2 2 2 2 2 2 3 2 6 6 t t t y y y 0 w w ",
"  . . . . . . . . . . @       . . ] N G P P P P P P U D P P P E U P m 0 2 < 2 2 2 2 2 2 3 4 3 3 3 2 2 2 2 2 0 i h l x j l l l l ",
". $ ` _ _ ` ` _ _ _ ` ) . . .   _ N P P P P P U U ^ U U ^ U M x x l y 1 2 2 2 2 0 5 0 8 8 8 5 3 5 2 2 2 2 6 0 i l l x l x l p l ",
"$ *.J W W W W W W W J B $ O O ) B P P P P P Z M M M M M M M i 2 2 1 1 2 2 2 2 2 l v x l j y y 8 3 2 2 2 2 2 6 i h h h h p p p j ",
"B A W W W W W D D W W W B B B B I P P P P E v 6 6 6 6 6 6 6 3 2 2 2 2 2 2 2 2 2 p m x j l j l 4 3 2 2 2 2 3 6 0 y w 8 4 8 w 0 8 ",
"J A W U W W W W U W W W J J J U E I P P P E x 1 1 1 1 1 1 1 1 2 2 2 2 2 2 2 2 4 y 0 w 0 w w 0 8 2 2 2 < 2 < 2 6 0 4 4 3 2 8 4 3 ",
"W U U U W W W W W W U U W R C x x M E E U m i 1 2 2 1 2 2 2 2 2 2 2 2 2 2 2 2 2 3 2 2 2 2 2 3 2 2 2 2 2 2 2 2 2 4 2 2 2 2 2 2 2 ",
"M M M M M D W W W S C S Z S j 1 2 j M M M t 1 2 2 2 2 2 2 2 2 2 2 1 2 2 2 2 2 2 2 2 3 2 2 2 2 2 2 5 2 2 2 < 2 2 2 2 2 2 2 2 2 2 ",
"6 6 6 6 6 x P G W z s s s 9 3 2 2 3 4 6 6 3 1 2 2 2 2 2 2 2 2 3 2 4 5 3 3 8 3 5 2 > 2 2 2 2 2 3 6 6 2 2 2 1 2 2 2 2 2 2 2 2 2 2 ",
"< 2 < < 1 r z g g q > 5 > 2 1 2 2 2 1 1 1 1 2 1 1 > , 9 q 9 q q e q p q q r q q d e 9 , , , 7 q e 8 3 2 2 2 2 2 2 1 2 2 3 2 3 2 ",
"2 2 2 2 2 5 , , , 3 1 1 2 1 1 2 2 1 2 2 1 2 1 2 3 d z f f k k z d k c k g c f z c c n z g d d z v k 7 2 2 2 2 2 2 2 2 2 3 2 2 3 ",
"2 2 2 2 3 2 > 5 2 2 1 2 2 2 2 3 2 > 2 2 2 2 2 3 e n C n A Z C C Z M M S S C Z Z C S C C C b M S D v e 2 2 1 2 2 2 2 2 2 2 2 2 2 ",
"2 < 2 3 9 , u , 3 1 2 2 2 , q , , , , 3 1 2 1 9 p n S n C C M C S M n C S W W Z D C n Z S M S S W c , 1 2 2 2 2 3 2 2 2 2 3 2 2 ",
"2 2 > q v n n c 9 > 1 2 7 g n n b n c , 2 1 3 3 , d c g c z g c c c c c c c c c c c c c c c c g g q 3 2 2 2 2 2 2 2 3 2 2 2 2 2 ",
"2 1 > u S U U S s > 1 3 q n ( E U R n q 3 1 3 2 3 5 , , , , , , , , , , , , , , , , , , , , 9 , , > 1 2 2 2 2 2 2 2 3 2 2 2 2 2 ",
"2 2 5 u S U U S u , 2 5 , n R R W R n , > 2 1 2 2 2 2 2 2 2 2 2 2 2 < 2 2 2 2 2 2 2 2 2 2 2 1 2 1 2 1 2 2 2 2 5 2 2 2 2 2 2 2 2 "
};
