/* XPM */
static char *e1d206a8802c406fd454d847f7ac32a5lliPC66xSWskBILk[] = {
/* columns rows colors chars-per-pixel */
"64 64 83 1 ",
"  c #B79E67",
". c #B99E64",
"X c #B59E6B",
"o c #B89E68",
"O c #AE9F76",
"+ c #B49F72",
"@ c #BAA36A",
"# c #BFA96E",
"$ c #A8A07E",
"% c #C0AA6F",
"& c #C1AC70",
"* c #C5B374",
"= c #C9B877",
"- c #CEBF7C",
"; c #CFC07D",
": c #D2C37E",
"> c #3F6BB4",
", c #3E77BC",
"< c #3E79BE",
"1 c #4057A6",
"2 c #4158A7",
"3 c #425CAA",
"4 c #4563AE",
"5 c #4865AF",
"6 c #4766B0",
"7 c #4865B0",
"8 c #446BB3",
"9 c #4A6BB2",
"0 c #4771B7",
"q c #4D72B6",
"w c #4474B9",
"e c #4E75B8",
"r c #4579BD",
"t c #4A7CBD",
"y c #5073B7",
"u c #5177BA",
"i c #537BBC",
"p c #437EC1",
"a c #557EC0",
"s c #5581BF",
"d c #7FA5BE",
"f c #4580C2",
"g c #4D81C2",
"h c #4E88C6",
"j c #4F8BC9",
"k c #5683C1",
"l c #5985C3",
"z c #5289C7",
"x c #5B8AC6",
"c c #548DCA",
"v c #5D8CC9",
"b c #5692CC",
"n c #5C92CC",
"m c #6295CE",
"M c #669ED4",
"N c #7BA6C4",
"B c #76A7CC",
"V c #79A7CB",
"C c #66A1D6",
"Z c #68A1D6",
"A c #6FA8D6",
"S c #6BA5D9",
"D c #6CA8DC",
"F c #72A7D3",
"G c #70A8D5",
"H c #69A8E0",
"J c #9FA18C",
"K c #9CA292",
"L c #95A39C",
"P c #99A29C",
"I c #A5A083",
"U c #A2A18C",
"Y c #8EA3A7",
"T c #94A3A5",
"R c #85A5B5",
"E c #88A4B0",
"W c #89A5B8",
"Q c #D5C681",
"! c #DACB84",
"~ c #E1D087",
"^ c #E3D389",
"/ c #E8D78C",
"( c #ECDB8E",
/* pixels */
"33332327MHHV$.oo          #-;=;;;;;;;;;;;--;^((((((((((/:;;;/!;;",
"33333327MDDAEI.o.X    .X  #;;;;;;=;;;=;;---;/(((((((((((;;;:/!-;",
"33333336MDDDDK.o          #;;;;;;;;;;;;=--;;(((((((((((/:;;;(^::",
"33333326MDDDDJ..          #-;;=;;;;=;;;;;;;;^/(((((((((/:;;;^(((",
"33333333CDDSDK..          #;;;;;;;;;;;;;-;-;;;!((((((((/;;;:((((",
"33343333CDDDDK.           #;=;;;;=;;=;;;----;;;!(((((((/;;;:^(((",
"33333333DDDDDJ..          #;;;;=;;;;;;;=---;;;-;/((((((/;;;;((((",
"33333336DDDDDK.X.X    .X  @=;;;;;;=;;;;;-;-;;;;;^(((((((:;:Q((((",
"63333333DDDDDK@.  .     .XX@=;--=;;;;=;;;;;;;---:^(((((((/((((((",
"q9633333CDDDDJ..  X     X..@-;--;;=;;;;;;=;;----;Q^(((((((((((((",
"la946333CDDDDK..        .X.@*=-;=;;;;;;;;;=;----;;Q(((((((((((((",
"li96333fCDDDBJ.  X. .   ..X.X*;-;;;;=;;;=;;;-;--;;!(((((((((((((",
"ie63333fCDDBIX  .X   X  X   .*;-;;;;;==;;;----;-;;Q/((((((((((((",
"34333330CDHBO.       .    . X&-;;;;;;;;;;;---;--=;:!((((((((((((",
"33333334xCHBO.    X.      X  #*-=;;=;;=;;;;;--;-;;;;~^((((((((((",
"333333333vDBIX.       X.    @.#-;;;;;;;;=;;;----;;;;;~(//(////(^",
"333333333vDAVUoooo.       X   #=---;-;--;=----;;;;;=-;;;;;;;;;::",
"33333336xZDDHNKo..X.      .   @#=-------;;---;;;;;;;--;;;;;;;;;;",
"33433326ZDDDDHNUX..X           @=;-----;;;;-;-;=;;;;----;;;=;;;;",
"33333326MDDDDDDBIXX.           X*---;----;------;;=;--;-;;;;;;;;",
"33333337MDDDDDDDBJ..X   .    X  @*;;----------;-;;--;------;=;;;",
"33333333yMDDDDDDSK.X.    X   .   @*;-;;--;------;=----;-;---;;--",
"333333332ivvSDDDSK..       .      #=;;--;-;-;-;;;;---;---------;",
"333333333335MDDDSK.X.          X  #*=;--------;;;;-;--------;---",
"077333333314MDDDDKXX           .   @*;;;=;;;;==;---------;;---;-",
"uqq733333337ZDDDDWU. .              @*=-;;;;;;;;--;---;---------",
"akaq94333327MDDDDFTo.X .  X..X       #*;;;;;;=;;-;;;-;---;------",
"xka994333327MDDDDDROX  X              @*=;;;;;;;--;;;=;--------;",
"uii743333235MDADDDDRO.X.      X        @#;;;---;-;=;-;------;---",
"797733333337MDDDDDSBOo.X. X.  .         @##;;--;--;;-----;-----;",
"333333333323aMDDDDDFLO..X   .             ###;;;-;;;------;-----",
"3333333332333vDDDDDDDJo.    X              @#=-=----;---;----;--",
"3333333333333vDDDDDSDKoo                    @@##;;;;---;------;-",
"3333333333133vDDDDDDDNKo                       @#=;;;;----------",
"3333333333333ymDSDDDSHNU+                        #=;;;;;;;;;;;;;",
"33343333313332eMSDDDDDDVU+                        #==-===-=--=-=",
"3433343333333339MDDDDDDDFKoo                      @@@@ @@ @ @@@@",
"0686553333333314MDDDDDSDDNKo.                .                  ",
"u9qyuey733333324kMDDSDDDSHNK+.oo     @       @                  ",
"sslkliluy33333333kMDDDDDDDSFU+.o                                ",
"sskslsxu0333333333iADDDDDDDDVP+o                                ",
"eueeeey533333333335iSDDDDDDDDVPo.                               ",
"39555994433333433323lMDDDDDDDHdKKO.      .                      ",
"333343433333333333333lMDDDDDDDDDALX                             ",
"3333334333323333333333iZDDDDDDDDDAY..@..                        ",
"33333333345475733333333iMADDDDDDDHBdd$..                        ",
"3334333359y7y5u333333333kvmDDDDDDDDCAdJJX                       ",
"33333346qvvvvll93333333332ymZDDDDDDDAHABO                       ",
"333333399vxvnvlq543333323239mZADDDDDDDDBO..X..o.    .           ",
"332>33333eu86953333333333333quuaSDDDDDDGR$..X.o.  ......       .",
"33333333353333433332233332332214kMDDDDDDDRI......$KKKKKJ .. ..OK",
"554454433333333333333323333332233vDDDDDDDSROOO$$OdHDDSDB$OOOOOLA",
"909q95534333333433333333333332333vDDDDDDDDSBVVBBBADDDDDDBBBBBBBD",
"vssllvxq43333332233332333233332339vDDDDDDDDDHDDDHADSDDDDDDDSHHHD",
"sslsxxs5333333233332333333333223319vvxnDDDDDDDDDADADHDADHDDDDDAD",
"yuqqesq3333333333344343433333433333333iDDDDSZMMMCCCCCMCMCCMMCCCC",
"66668963333333332385046445984833333332uDADDZ977755555555>4555455",
"33473333333233331,w0strw>pt>r8331323225aGBDD52223232322222224122",
"33333333333>33338szcbbbhbbchzt8333333323xxvx52333333332422222242",
"3333333333333333rbnnCCCSDDDMvt>3333333333332333333233322>1242422",
"3333333333333334wxbMCSDDDDDnbg>3333333323323235599q9yyq544444333",
"33333333333333344szccjjhjjnbkt433333333333333359sxssvxssuq942223",
"33333333333333334wf<<<<,,rsri9333333233332333349slxxxssvss533333",
"3333333>333333334,<<<<<<,>>393333133333233233355qiiiiiuqq5333333"
};
