/* XPM */
static char *ef15dcaafa394e0ddc4cae1f30b8497bSTj2DtAZ3JSkjUDb[] = {
/* columns rows colors chars-per-pixel */
"64 64 148 2 ",
"   c #B79E67",
".  c #B99E64",
"X  c #B59E6B",
"o  c #B89E68",
"O  c #AE9F76",
"+  c #B49F72",
"@  c #BAA36A",
"#  c #BFA96E",
"$  c #A8A07E",
"%  c #C0AA6F",
"&  c #C1AC70",
"*  c #C5B374",
"=  c #C9B877",
"-  c #CEBF7C",
";  c #CFC07D",
":  c #D2C37E",
">  c #3F74BA",
",  c #4057A6",
"<  c #4158A7",
"1  c #425BA9",
"2  c #4563AD",
"3  c #4866AF",
"4  c #4768AF",
"5  c #4868AF",
"6  c #4666B0",
"7  c #4865B0",
"8  c #436BB3",
"9  c #4A6CB3",
"0  c #4170B7",
"q  c #4D72B6",
"w  c #4474BA",
"e  c #4E75B8",
"r  c #4479BD",
"t  c #4B7ABC",
"y  c #5076BA",
"u  c #537CBC",
"i  c #467EC0",
"p  c #4C7EC0",
"a  c #557EC0",
"s  c #5581BF",
"d  c #7FA5BE",
"f  c #4D83C3",
"g  c #4F88C6",
"h  c #4F8BC8",
"j  c #5683C1",
"k  c #5985C3",
"l  c #5289C6",
"z  c #5A89C5",
"x  c #548DC9",
"c  c #5D8DCA",
"v  c #5D8CC9",
"b  c #5C8BC8",
"n  c #5691CD",
"m  c #5792CD",
"M  c #5893CD",
"N  c #5B93CD",
"B  c #5892CE",
"V  c #5894CD",
"C  c #5A94CD",
"Z  c #5994CE",
"A  c #5B95CF",
"S  c #5996CF",
"D  c #5F90CB",
"F  c #5C97D1",
"G  c #5F99D1",
"H  c #5F9AD2",
"J  c #6296CF",
"K  c #6195CE",
"L  c #6099D1",
"P  c #619BD2",
"I  c #629BD3",
"U  c #629DD3",
"Y  c #649ED3",
"T  c #619DD4",
"R  c #639ED4",
"E  c #629ED5",
"W  c #669DD4",
"Q  c #649ED5",
"!  c #649FD5",
"~  c #669ED4",
"^  c #679FD5",
"/  c #649FD6",
"(  c #659FD6",
")  c #669DD4",
"_  c #7BA6C4",
"`  c #76A7CB",
"'  c #75A7CD",
"]  c #75A7CE",
"[  c #75A7CD",
"{  c #79A7CB",
"}  c #64A0D5",
"|  c #65A1D6",
" . c #67A0D6",
".. c #66A1D6",
"X. c #66A2D7",
"o. c #66A2D7",
"O. c #68A1D6",
"+. c #6FA8D6",
"@. c #6FA8D6",
"#. c #68A4D8",
"$. c #6AA4D8",
"%. c #6BA7DA",
"&. c #6CA7DB",
"*. c #6AA5D9",
"=. c #6DA8D9",
"-. c #6CA8DA",
";. c #6DA8DA",
":. c #6CA8DB",
">. c #6BA8DC",
",. c #6BA8DD",
"<. c #6AA8DE",
"1. c #6CA8DC",
"2. c #6DA9DC",
"3. c #6DAADC",
"4. c #6DAADD",
"5. c #6EABDD",
"6. c #6EACDE",
"7. c #6FADDE",
"8. c #6CA8DB",
"9. c #72A7D2",
"0. c #72A7D4",
"q. c #70A8D5",
"w. c #69A8E0",
"e. c #9FA18C",
"r. c #9BA293",
"t. c #9CA291",
"y. c #9CA292",
"u. c #94A39D",
"i. c #95A39C",
"p. c #99A29C",
"a. c #A6A081",
"s. c #A4A184",
"d. c #A5A083",
"f. c #A0A18B",
"g. c #A2A18C",
"h. c #8EA3A7",
"j. c #94A3A5",
"k. c #84A5B6",
"l. c #85A5B5",
"z. c #88A4B0",
"x. c #89A4B0",
"c. c #89A5B8",
"v. c #D5C681",
"b. c #DACB84",
"n. c #E1D087",
"m. c #E3D389",
"M. c #E8D78C",
"N. c #ECDB8E",
/* pixels */
"1 1 1 1 1 1 1 1 1 1 1 1 2 2 2 2 1 1 1 1 1 1 1 1 1 1 < 1 1 1 1 1 1 1 1 1 1 1 1 1 1 1 6 > < 1 1 1 1 1 1 1 1 1 1 1 1 1 1 1 1 1 1 1 ",
"1 1 1 1 2 7 9 9 q 9 9 3 9 9 e 5 1 1 1 1 1 1 1 1 1 1 1 1 1 1 1 1 2 8 t w t r > r > r i i f r w 2 2 1 1 1 1 1 1 1 1 1 1 1 1 1 1 1 ",
"1 1 1 1 2 q j j b z u k u z z q 1 1 1 1 < 1 1 1 1 1 1 1 1 1 1 6 7 8 l M n F n x x h x n A A x t q 8 2 2 1 1 1 1 1 1 1 1 1 1 1 1 ",
"1 1 1 1 2 7 a k z z j z s s z q 1 1 1 1 1 1 1 1 1 1 1 1 1 1 6 9 t l M U | W T H } } } } } } P z t q 2 2 1 1 1 1 1 1 1 1 1 1 1 1 ",
"1 1 1 1 1 1 9 9 9 9 7 9 5 2 2 1 1 1 1 < 1 1 1 1 1 1 1 1 1 1 7 7 q f x M T ( I I U } #.} G P A f t 9 2 1 1 1 1 1 1 1 1 1 1 1 1 1 ",
"1 1 1 1 1 1 1 1 1 1 1 1 1 1 1 1 1 < < 7 z b b z 1 < 1 1 1 1 1 1 1 7 p g x x l x A A n m x g f t 8 2 2 1 1 1 1 1 1 1 1 1 1 1 1 1 ",
"1 1 , < < < < < 1 < 1 , < < < 1 < < < 7 W 3.6.$.a 7 1 1 1 < 1 1 1 1 2 8 r w w > w w 0 0 w 0 8 1 1 1 1 1 1 1 1 1 1 1 1 1 1 , 1 1 ",
"7 7 7 7 7 7 7 7 7 7 7 3 3 3 3 3 7 7 7 q ^ 3.:.:.,.y < 1 1 1 1 1 1 1 1 1 1 1 1 < 1 1 1 1 1 1 < 1 1 1 1 1 1 1 1 1 1 1 1 1 1 1 1 1 ",
"} W W } W W W W W W W W W W W } W W W } ;.3.:.:.,.y 1 1 1 1 1 1 1 1 1 1 1 1 1 1 1 1 1 1 1 1 1 1 1 1 1 1 1 1 1 1 1 1 1 1 1 1 1 1 ",
"3.3.3.>.6.3.6.>.3.3.3.3.3.3.3.3.3.>.6.>.:.:.:.:.&.K b b b 9 < 1 1 1 1 1 1 1 1 < 1 1 1 1 1 1 1 1 1 1 1 1 1 1 1 1 1 1 1 1 1 1 1 1 ",
"3.>.>.>.>.>.>.>.;.;.;.&.3.;.>.>.>.>.>.>.>.>.:.:.&.5.5.5.,.b 9 1 1 1 1 1 1 1 1 1 1 1 1 1 < 1 1 1 1 1 1 1 1 1 1 1 < 1 1 1 1 1 2 1 ",
"3.9.` ` [ ' ` ] ;.>.>.3.>.>.+.[ ` ` ] ] ] +.>.:.;.&.&.,.,.3.b 1 1 1 1 1 1 1 1 1 1 1 1 1 3 3 1 1 2 1 2 1 1 1 1 1 1 7 9 q q 7 9 9 ",
"&.u.O O O O O s.] >.;.;.;.>.k.O O O O O O k.&.3.;.&.;.3.&.3.b 1 1 1 1 1 1 1 1 1 1 1 2 9 q u u 9 9 9 y 3 1 1 1 2 9 z z j j j j s ",
"t.O . . . . .   e.t.t.t.t.t.d.  . .   . . a.z.>.3.&.3.$.&.3.W z 1 , < 1 1 1 1 1 1 1 2 9 u s s s a u u y 1 1 1 7 7 z z z j u u q ",
". . .           . . . . . . .             . $ k.;.>.3.&.3.&.3.$.a y y 9 1 1 1 1 1 1 2 7 u e s s u u j y 7 1 1 1 2 9 u u e 9 7 2 ",
"                                            . O ] >.>.&.3.$.3.>.3.,.$.K 9 1 1 1 1 1 1 2 5 9 e e y 9 2 1 1 1 1 1 1 1 9 9 9 2 2 1 ",
"                                            . $ ` >.;.3.&.>.&.;.&.3.3.$.W 9 1 1 1 1 1 1 1 9 7 9 3 3 2 1 1 1 1 1 1 1 1 1 1 1 1 1 ",
"                                            . X f.t.z.>.w.>.&.3.>.3.$.>.&.K b j 1 1 1 1 1 1 1 2 1 1 1 1 1 1 1 1 1 1 1 1 1 1 1 1 ",
"                                                . . d.z.z.9.w.;.;.>.>.;.&.;.3.O.u 2 1 1 1 1 1 1 1 1 1 1 1 1 1 1 1 1 1 1 1 1 1 1 ",
"                                                          h.q.&.>.;.;.&.3.;.;.&.O.u 2 1 1 1 1 1 1 1 1 1 1 1 1 1 1 1 1 1 1 1 1 1 ",
"                                                          X u.3.3.&.&.>.;.>.;.>.&.O.k 1 1 1 1 1 1 1 1 1 1 1 1 1 1 1 1 1 1 1 1 1 ",
"                                                          . O t.t._ w.;.>.&.>.;.;.3.^ j 1 < 1 1 1 1 1 1 1 1 1 1 2 3 5 1 1 2 3 2 ",
"                                      o                     . . . p.{ >.3.&.&.&.;.&.3.$.a 2 < 1 1 1 1 1 1 1 2 2 9 9 q 9 5 y u u ",
"                                                                o + p.9.;.>.;.3.;.&.&.,.&.a 1 1 1 1 1 1 1 1 2 9 s k s s s k z b ",
"                                                                o   + g.9.&.3.&.3.$.3.&.>.} j 1 1 1 < 1 1 2 2 2 s s z s s s s b ",
"    o                                                               . + t._ w.&.;.;.3.&.3.;.W k 2 1 1 1 < 1 1 2 9 e u u u y y y ",
"                                                                      . o r._ >.,.&.&.&.&.$.3.^ 3 , 1 1 1 < 1 2 2 3 9 5 9 5 q 5 ",
"@ @ @ @ @ @ @ @   @ @   @                                               o o t.9.&.3.;.3.;.3.3.} 9 1 1 1 1 1 < 1 1 1 1 2 2 2 4 1 ",
"= = = - = - = - = = = - = #                                             o o + g.9.3.&.;.;.;.3.$.) q < 1 1 1 1 1 1 1 1 1 1 < 1 1 ",
"; ; ; ; ; - ; ; ; ; ; ; ; = #                                               . + t._ w.;.>.&.,.&.;.K y 1 1 1 1 1 1 1 1 1 1 1 1 1 ",
"; - - - - - ; - ; ; - - ; ; = # @ @                                             . r._ $.;.>.;.3.;.3.b 1 1 1 < 1 1 1 1 < 1 1 1 1 ",
"- - ; - - - - - ; - - - - - ; - * # @ @                                           . r.3.>.;.&.3.;.3.b 1 1 1 1 1 1 1 1 1 1 1 1 1 ",
"- - - - - - - ; - - - ; ; ; ; ; = ; * # @     @                     o             . t.;.;.;.&.>.;.3.b 1 1 1 1 1 1 1 1 1 1 1 1 1 ",
"- ; - - - - - - ; - - - ; ; = ; ; ; ; * # @ . @                                     O i.9.>.&.3.>.3.W j 1 1 1 1 1 1 1 1 7 3 7 1 ",
"- - ; - ; - - - - - - - ; - ; ; ; ; ; ; = * @ @                                     . O ] >.>.3.3.3.3.W 2 1 1 1 1 1 2 9 u u e q ",
"- ; - - - - - - - - - - - ; ; = ; ; ; ; ; ; ; # @                                 . . O d ;.3.$.&.$.3.W 7 , 1 1 1 2 e j s s s s ",
"- - ; - - - - ; - - - - = ; ; ; ; = ; ; - - - = * @ @ @                                 O k.>.;.&.>.3.W 7 1 1 1 1 2 y u u k u u ",
"- - - - ; - - - ; - ; - ; ; ; ; ; ; ; ; ; - - ; = * @                                 . o j.0.>.>.;.3.W 2 1 1 1 1 1 5 q e 9 5 3 ",
"- - - - - - - - - ; - - ; ; ; ; ; ; ; ; - - - - ; - * @                 o           o o   g.c.>.;.>.3.W 7 1 1 1 1 1 1 1 1 1 1 1 ",
"- - - ; - - ; - - - - - ; ; = ; ; ; ; = - - ; - - ; ; * @                             o . o r.:.>.;.3.W 7 1 1 1 1 1 1 1 1 1 1 1 ",
"; - - - - ; - - = ; ; ; = ; ; ; ; ; ; ; ; ; ; ; - ; - = * @                             . . t.:.3.;.3.^ 7 < 1 1 1 1 1 < 1 1 1 1 ",
"- - ; - - - - - ; ; ; ; ; ; = ; ; = ; ; ; = ; ; - - - - - #   @                           . t.:.,.&.&.$.D D y < 1 1 1 1 1 1 1 1 ",
"- - - - - - - ; ; ; ; ; ; ; ; ; ; ; ; ; ; ; ; = ; - - - ; & @ .   o                       . r.>.,.&.5.&.5.7.J y 1 1 1 1 < 1 1 1 ",
"- ; - - ; - - - ; ; = ; ; = ; ; ; ; ; = ; ; ; ; - - - ; ; ; = @                           . e.] &.,.&.&.&.,.5.W 5 1 1 1 1 1 1 1 ",
"; - ; ; - - - ; ; ; ; ; ; ; ; ; ; ; ; ; ; ; ; ; ; - - - - ; - * @                           X s.{ >.;.:.5.&.5.^ 7 < 1 1 1 1 1 1 ",
"= - ; ; - - - - ; ; ; ; ; ; = ; ; = ; ; = ; ; ; - - - - - - ; = o                           . X e._ w.:.&.&.5.^ 7 < 1 1 1 1 1 1 ",
"; ; ; ; ; ; - - ; ; ; ; ; ; ; ; ; ; ; ; ; ; ; = - - - - - - ; = & o                           .   t._ >.&.&.^ b 1 1 1 1 1 1 1 1 ",
"; ; : : ; ; ; ; : : ; ; # ; ; = ; ; ; = ; ; ; ; ; - - - ; - ; - - #                               . e.] @.5.b 1 1 1 1 1 1 1 3 1 ",
"M.M.M.M.M.M.M.N.M.M.n.; ; ; ; ; - ; - - - ; - - - - - - - ; - - - #                     o         .   s.] w.b 1 1 1 2 q e e u u ",
"N.N.N.N.N.N.N.N.N.N.M.n.; ; ; ; - - - - - - - ; - ; - - - - - - - = @                               . O { w.O.z 1 1 9 y u u u u ",
"N.N.N.N.N.N.N.N.N.N.N.N.: : ; = - - - - - ; - - - ; ; - - - - - - - *                 @             . O ` >.3.X.1 1 2 9 u u u u ",
"N.N.N.N.N.N.N.N.N.N.N.N.N.: ; ; ; - - ; - - - - - - - - ; - - - - ; *                                 d.9.>.3.X.1 1 1 3 2 q 9 2 ",
"N.N.N.N.N.N.N.N.N.N.N.N.N.m.; ; ; - - - - ; - - - - ; - - - - ; - ; *                             . e.] ;.:.3.X.1 1 1 1 1 1 1 1 ",
"N.N.N.N.N.N.N.N.N.N.N.N.N.: ; ; - - - - - - - - ; - - - - - - - - - = *                           . t.>.:.:.3.X.1 1 1 1 1 1 1 1 ",
"N.N.N.N.N.N.N.N.N.N.N.N.N.n.: ; - - - - - - - ; - - - - ; - - - - - : = @                         . t.:.:.:.;.#.1 1 1 1 1 1 1 1 ",
"N.N.N.N.N.M.M.N.N.N.N.N.N.N.m.: - ; - - ; - - - - - ; - - - - ; - - - - #                         . t.;.>.:.:.:.1 1 1 1 1 1 1 1 ",
"N.N.N.M.: ; : : M.N.N.N.N.N.N.m.: ; ; - - ; ; - - - - - - - ; - - - ; - = #                       . t.:.>.:.:.3.5 1 1 < 1 1 1 1 ",
"N.N.N.M.: ; ; : M.N.N.N.N.N.N.N.; ; ; - - - - - - - ; - ; - - - ; - - - ; &                       . t.;.3.:.:.3.5 1 1 1 1 9 e q ",
"N.N.N.N.: ; ; ; M.N.N.N.N.N.N.N.b.: ; ; - - ; - ; - - - - - - - - - - - - #                   o   . t.3.&.&.;.$.2 1 1 1 2 9 u k ",
"N.N.N.M.: ; ; : M.N.N.N.N.N.N.N.N.b.; : ; - - - - - ; - - - - ; - - ; - - #                     . . t.$.3.>.3.W 3 1 1 1 2 q s s ",
"N.N.N.N.: ; ; ; M.N.N.N.N.N.N.N.N.M.M.m.; - - - - - - - ; - - - - - - - - #                       . t.;.3.&.3.W 2 1 1 1 1 3 q e ",
"b.: n.N.; ; ; ; M.N.N.N.N.N.N.N.N.N.N.N.: - - - - ; - - - - - - - - - - - #                       . t.>.;.&.3.W 5 , 1 1 2 2 3 q ",
"; ; b.M.; ; ; : M.N.N.N.N.N.N.N.N.N.N.M.: - - ; ; - ; - - - - - - - - - - #                       . d.k.q.,.2.) 3 < 1 1 1 1 1 1 ",
"; ; b.m.; ; ; : N.N.N.N.N.N.N.N.N.N.N.M.: - - - - - - - ; - - - ; - - - - #                         . O { ,.2.W 3 < 1 1 1 1 1 1 "
};
