/* XPM */
static char *d739839b60514b51d063354470f18e37FsVr47QvVnqq9MJG[] = {
/* columns rows colors chars-per-pixel */
"64 64 156 2 ",
"   c #B79E67",
".  c #B99E64",
"X  c #B59E6B",
"o  c #B89E68",
"O  c #AE9F76",
"+  c #B49F72",
"@  c #BAA36A",
"#  c #BFA96E",
"$  c #A8A07E",
"%  c #C0AA6F",
"&  c #C1AC70",
"*  c #C5B374",
"=  c #C9B877",
"-  c #CEBF7C",
";  c #CFC07D",
":  c #D2C37E",
">  c #3F64AF",
",  c #3F6DB5",
"<  c #4057A6",
"1  c #4158A7",
"2  c #425BA9",
"3  c #4563AE",
"4  c #4867AF",
"5  c #4366B0",
"6  c #4865B0",
"7  c #436CB4",
"8  c #4B6CB3",
"9  c #4370B7",
"0  c #4D71B6",
"q  c #4575B9",
"w  c #4C74B9",
"e  c #4679BD",
"r  c #4A7BBD",
"t  c #5075B7",
"y  c #5176BA",
"u  c #527ABC",
"i  c #457FC1",
"p  c #4B7EC0",
"a  c #557EC0",
"s  c #5581BF",
"d  c #7FA5BE",
"f  c #4580C2",
"g  c #4E84C3",
"h  c #4F89C6",
"j  c #4F8BC9",
"k  c #5583C1",
"l  c #5985C4",
"z  c #508AC7",
"x  c #5389C6",
"c  c #558AC7",
"v  c #5A88C3",
"b  c #5A89C5",
"n  c #5B8BC6",
"m  c #5C8DC7",
"M  c #5A8AC5",
"N  c #508AC8",
"B  c #538BC9",
"V  c #578BC9",
"C  c #508CC8",
"Z  c #528CC9",
"A  c #508ECB",
"S  c #538FCB",
"D  c #538FCA",
"F  c #548DC9",
"G  c #548DCA",
"H  c #568DCA",
"J  c #548FCB",
"K  c #568FCB",
"L  c #588ECA",
"P  c #5D8EC8",
"I  c #5F8FCB",
"U  c #5D8CC9",
"Y  c #5590CB",
"T  c #5790CB",
"R  c #5690CB",
"E  c #5591CC",
"W  c #5791CC",
"Q  c #5793CD",
"!  c #5891CB",
"~  c #5892CB",
"^  c #5993CD",
"/  c #5993CE",
"(  c #5B94CD",
")  c #5994CF",
"_  c #5A94CE",
"`  c #5E94CE",
"'  c #5C96CE",
"]  c #5F90CB",
"[  c #5B97D0",
"{  c #5F98D0",
"}  c #6194CE",
"|  c #619BD2",
" . c #619CD3",
".. c #629CD2",
"X. c #629DD3",
"o. c #619BD4",
"O. c #609CD4",
"+. c #639DD4",
"@. c #639ED4",
"#. c #639FD5",
"$. c #639ED5",
"%. c #649FD5",
"&. c #649ED4",
"*. c #659FD6",
"=. c #669ED4",
"-. c #7BA6C4",
";. c #76A7CC",
":. c #79A7CB",
">. c #65A1D5",
",. c #64A0D6",
"<. c #65A0D6",
"1. c #65A1D6",
"2. c #64A0D7",
"3. c #65A0D7",
"4. c #65A1D7",
"5. c #66A0D6",
"6. c #66A1D6",
"7. c #67A2D6",
"8. c #66A2D7",
"9. c #67A1D7",
"0. c #68A1D6",
"q. c #6FA8D6",
"w. c #67A3D8",
"e. c #68A3D8",
"r. c #69A3D9",
"t. c #68A4D8",
"y. c #69A4D8",
"u. c #69A4D9",
"i. c #69A5D9",
"p. c #6AA5D9",
"a. c #6AA5DA",
"s. c #6BA7DA",
"d. c #6BA5D9",
"f. c #6CA8DB",
"g. c #6DAADC",
"h. c #6CA8DC",
"j. c #72A7D3",
"k. c #70A8D5",
"l. c #69A8E0",
"z. c #9FA18C",
"x. c #9CA292",
"c. c #95A39C",
"v. c #99A29C",
"b. c #A5A083",
"n. c #A2A18C",
"m. c #8EA3A7",
"M. c #94A3A5",
"N. c #85A5B5",
"B. c #88A4B0",
"V. c #89A5B8",
"C. c #D5C681",
"Z. c #DACB84",
"A. c #E1D087",
"S. c #E3D389",
"D. c #E8D78C",
"F. c #ECDB8E",
/* pixels */
"2 2 2 2 2 2 2 3 2 2 2 2 2 2 2 2 2 2 2 2 2 2 2 2 2 2 2 2 2 2 2 2 2 2 1 2 3 2 2 2 2 2 2 7 z %.e.<.| ( x 7 5 0 r V e.e.e.%.p 5 2 2 ",
"2 2 2 2 2 2 2 2 2 2 2 2 2 2 3 , , 9 , , 9 , , 9 , 9 e r q , , q q , 7 9 q e > 2 2 2 5 l ' <.e.0.%.L r 7 5 7 q p %.%.} r q 7 3 2 ",
"2 2 2 2 2 2 2 2 2 2 2 2 2 5 e j D _ Q J Q E j j D j D Q D E j j Q Q Z Q Q x s , 2 3 7 0 r c L L G B g w 7 5 9 w a V x g p 9 5 2 ",
"2 2 2 2 2 3 2 2 2 2 2 2 2 q Q { $.<.<.<.w.X.{ w.$.<.<.| X.8.t.8.,.,.<.<.| Q D 9 3 2 2 3 8 r e q q 9 e 5 5 5 2 5 q p e e 7 6 3 2 ",
"2 5 6 2 2 2 2 2 2 2 2 2 2 p Q <.w.<.t.s.o.$.w.w.e.%.| @.%.t.s.,.@.p.%.%.' ' J e 6 2 2 2 2 2 5 6 5 2 5 2 2 2 2 2 3 5 6 2 2 2 2 2 ",
"5 0 0 8 8 u 4 2 2 2 2 2 2 7 x _ _ [ Q j ! G j E h J Q J J z Q [ ! L J z Z h r 9 5 2 2 2 2 2 < 1 2 2 < 2 2 2 5 , , , > 2 2 2 2 2 ",
"l u l v l b l 8 2 2 2 2 2 2 3 9 e r p e r r e 9 9 q x e q 9 7 r r r e q e e 5 2 2 2 2 < < 2 2 2 2 2 2 5 5 > 9 j j j r 2 2 < < 2 ",
"m U m P l s u 8 3 2 2 2 2 2 2 2 2 2 2 2 2 2 2 2 2 2 3 3 3 2 2 2 2 2 2 2 2 2 2 2 2 2 2 6 6 6 4 2 2 2 q i i i S a.g.g.U 6 6 6 6 6 ",
"y u w 8 0 8 4 3 2 2 2 2 2 1 2 2 2 2 2 2 5 2 2 3 2 2 2 2 2 1 2 2 2 2 2 2 2 2 2 1 2 2 t =.=.=.b 2 2 l w.w.<.w.w.s.a.g.t.=.=.=.=.=.",
"3 1 3 1 2 2 2 1 2 2 2 2 2 1 1 2 2 2 2 2 2 2 2 2 2 2 2 2 2 2 2 2 2 2 2 2 2 2 2 2 2 y } h.g.g.=.U U %.g.g.g.g.g.g.a.g.g.l.g.g.g.g.",
"1 1 2 2 2 2 2 2 2 4 8 8 4 8 w t 6 u 6 2 2 5 2 2 2 2 2 2 2 2 2 1 2 2 2 < < 2 2 < 2 I g.g.f.f.g.g.l.l.a.l.g.t.s.s.g.g.a.a.f.f.g.l.",
"1 3 2 2 2 2 2 0 v b v ] P m m m b l 8 3 2 2 2 2 2 6 2 2 2 2 2 2 2 2 4 4 6 6 4 6 6 I g.h.f.f.f.f.;.:.;.;.g.g.g.g.g.a.g.g.f.g.k.;.",
"2 3 2 1 2 2 4 w v l v m m m M M l a 6 3 2 2 2 2 2 2 2 2 1 2 2 1 2 k =.=.=.=.=.=.=.a.f.f.f.f.a.j.b.+ $ b.;.g.t.s.s.g.s.s.f.a.N.$ ",
"2 1 2 2 2 2 2 2 0 w 8 8 8 4 8 s 8 8 6 3 2 2 2 2 2 2 2 2 < y U U U =.f.g.g.g.g.g.g.f.f.f.f.l.-.z.X . . o z.z.x.x.z.x.x.z.x.x.$ . ",
"2 2 2 1 2 2 2 2 1 2 2 2 3 2 1 3 2 2 2 2 2 2 2 2 2 2 2 2 0 } h.h.g.g.f.f.f.f.f.f.f.f.f.f.l.-.x.. o   o o . . . . @ . . . . . . o ",
"2 2 2 2 2 2 2 2 2 2 2 2 1 2 2 2 6 2 2 2 2 2 2 2 2 3 6 8 =.h.h.h.f.f.f.f.f.f.f.f.f.f.f.h.:.n.. o       .           .   . o   o o ",
"2 2 2 2 2 2 2 2 2 2 3 2 2 2 2 2 2 2 2 2 2 2 2 2 2 a =.=.h.g.h.h.f.g.g.g.g.g.s.p.s.s.s.;.b.X                   o           .     ",
"2 2 2 2 2 3 2 2 2 2 2 2 3 2 3 2 2 2 2 2 2 2 2 3 l =.g.g.h.h.h.h.f.g.t.a.a.j.V.v.x.z.x.z.X .                               @     ",
"2 3 2 2 2 2 2 2 2 2 2 2 2 2 2 2 2 2 2 2 2 2 6 a =.q.h.h.h.h.h.h.f.a.g.f.N.M.b.@ @ . . .                                         ",
"2 2 2 2 2 3 2 2 2 2 2 2 2 2 2 2 2 2 2 2 2 2 a *.r.h.h.r.h.h.h.h.g.j.;.N.$         .                                             ",
"2 2 2 2 2 2 2 2 2 2 2 2 2 2 2 2 2 2 2 2 2 l a.h.h.h.h.h.h.h.h.=.f.c.+ O X                               o                       ",
"2 2 2 2 2 2 > 2 2 2 2 2 2 2 1 2 2 2 1 2 a *.g.h.h.h.h.h.h.l.-.x.x.O . .                                                         ",
"3 2 2 2 3 5 2 2 2 2 1 2 2 2 2 2 2 1 2 a =.h.h.h.h.h.h.h.h.-.x.  .                                                               ",
"4 w y 8 y u u 2 2 2 2 1 1 2 2 2 2 2 a =.h.h.h.h.h.h.h.h.;.n..                                                                   ",
"b v l l l l s 4 4 2 2 2 2 2 2 2 2 a 0.q.f.f.f.f.f.f.h.:.n.+                                                                     ",
"] m l v k l k y 4 2 2 2 2 2 2 2 2 I g.h.f.f.f.f.f.l.:.x.+                                                                       ",
"t w w w 0 6 5 3 2 2 2 2 2 2 2 2 0 } g.q.f.f.f.f.l.-.v.o                                                         @ # # # # # @ # ",
"2 2 1 3 5 2 2 2 2 2 2 2 2 2 2 8 =.h.h.g.f.f.f.f.:.n.o .                                                   @ @ @ - ; ; - ; ; ; ; ",
"2 2 2 2 3 2 2 2 2 2 2 2 2 < 8 } *.g.h.h.h.h.h.j.n.+   o                                           @     @ # - - - ; - - - - - - ",
"3 2 2 2 2 2 2 2 1 2 2 2 2 < y q.h.h.h.h.h.a.:.v.+ o   o                                       @   @ * * * = ; ; - - - - - ; - - ",
"2 2 2 2 2 2 2 2 2 2 2 2 2 < y g.h.h.h.h.h.-.v.+ o o                                         @ # # * = ; ; - - - - - - ; - ; ; - ",
"2 2 2 2 2 2 2 2 2 2 2 1 2 2 u g.h.h.h.h.h.x.. o o o                       o               @ & = ; ; ; ; - ; - - - ; - - - - - - ",
"2 2 2 2 2 2 2 2 2 2 2 2 2 l s.s.g.s.s.g.s.z..                                   @     @ & = = ; ; = ; ; ; ; ; ; ; = ; ; = ; ; ; ",
"2 1 2 2 2 2 2 2 2 < 6 m L <.g.s.s.g.l.q.c.O                                         @ * = ; ; ; ; ; ; ; = ; ; ; ; ; ; ; ; ; ; ; ",
"2 2 2 2 2 2 2 2 2 8 m g.g.g.s.g.g.s.d m.X .                           o       @ @ # # ; ; ; ; ; ; ; ; ; ; ; ; = ; ; = ; ; ; = ; ",
"2 2 2 2 1 2 2 2 2 U g.f.g.g.s.g.g.l.d X         @                             @ * ; ; ; ; ; ; ; ; ; = ; ; ; ; ; ; ; ; ; = ; ; ; ",
"2 1 2 2 2 2 2 2 2 U g.f.i.g.g.s.t.q.d .                                     @ = = ; ; ; ; ; = ; ; ; ; ; ; ; ; ; ; ; ; = ; ; ; ; ",
"2 2 2 2 2 2 2 < < U g.f.g.i.i.g.g.d $ .                                   @ * - ; ; ; ; ; ; ; ; ; = ; ; ; = ; ; = ; ; ; ; ; = ; ",
"2 1 2 1 2 2 6 y u } g.f.g.g.i.g.s.x.. .                                 @ * - - ; ; ; ; ; = ; ; ; ; ; ; ; ; ; ; ; ; ; ; = ; ; ; ",
"2 2 2 1 2 2 a f.f.f.f.f.i.g.q.-.;.z.. .                             . @ * - - - = ; ; ; ; ; ; ; ; ; ; = ; ; = ; ; ; ; ; ; ; ; ; ",
"2 2 2 2 2 l 0.q.s.g.s.s.g.i.d O O X                                 @ & = ; ; - - - - - ; ; ; ; ; = ; ; ; ; ; = ; ; ; ; = ; ; ; ",
"2 2 2 2 2 I g.h.g.s.g.g.g.N.$ . .                                   # = - - ; ; ; - - ; ; ; ; = ; ; ; ; ; ; ; ; ; = ; ; ; ; ; = ",
"1 2 2 1 2 I g.g.s.g.s.q.d $ . .                                   @ * ; - - - - - - - - = ; ; ; ; ; = ; = ; ; ; ; ; = ; ; ; ; ; ",
"2 2 2 2 2 b =.r.s.s.g.;.$ . . .                                 @ * = ; ; - - ; - ; - - ; ; ; ; = ; ; ; ; ; ; ; ; ; ; ; ; ; ; ; ",
"1 1 2 2 2 6 6 8 >.g.s.;.O .                           @         # = ; - - - - - - - - - - - ; = ; ; ; ; ; ; ; = ; ; ; : S.F.D.D.",
"8 0 0 2 1 1 < 6 ..g.g.;.$ .                                   @ * - - - - - - - - ; ; - ; - - - ; ; ; = ; = ; ; ; ; ; : S.F.F.F.",
"a v a 4 2 2 1 6 >.g.s.;.O .                                 @ # - ; - - ; - - - - ; - - - - - - - - ; ; ; ; ; ; ; ; : A.F.F.F.F.",
"U s u 0 6 2 1 6 >.g.g.;.O .                                 @ # - - - - - - - ; - - - - - - ; - ; - ; ; ; ; ; ; ; ; : F.F.F.F.F.",
"t u 8 4 2 2 1 6 =.j.l.:.O o o o                             # ; - - - - - - ; - - - ; ; - - - ; - - - ; ; ; ; ; S.F.F.F.F.F.F.F.",
"2 2 2 2 2 2 1 6 =.g.h.j.V.b..                             # = ; - ; - - - - - - ; ; ; ; - - - - - - ; = ; ; : S.F.F.F.F.F.F.F.F.",
"2 2 2 2 2 2 1 6 =.g.h.h.a.x.. o                       @ # = ; = - - ; - ; - - - - - ; = ; - ; ; ; ; ; : Z.: A.F.F.F.F.F.F.F.F.F.",
"2 2 2 2 2 2 1 6 =.g.h.h.g.z..                         @ = ; ; ; ; - - - - - - ; - - - - - - ; ; ; ; A.F.F.F.F.F.F.F.F.F.F.F.F.F.",
"2 2 2 2 2 1 1 6 %.g.g.a.t.x.. o                       @ = ; ; ; - - - ; ; - - - - - - - - ; = ; ; : F.F.F.F.F.F.F.F.F.F.F.F.F.F.",
"2 2 2 2 2 2 1 6 %.g.g.g.g.x..                         @ ; ; ; ; - - - - - - - - ; - - - - ; ; ; A.F.F.F.F.F.F.F.F.F.F.F.F.F.F.F.",
"2 2 2 2 2 2 1 6 %.f.g.a.g.z.. o                         = ; ; = - - - - - - - - ; - ; - ; ; ; : F.F.F.F.F.F.F.F.F.F.F.F.F.F.F.F.",
"2 2 2 1 2 2 1 6 %.g.g.t.;.n..                         X ; ; ; ; - - ; - - ; - - - - - - ; ; ; ; D.F.F.F.F.F.F.F.F.F.S.F.S.F.S.F.",
"2 1 2 2 2 2 2 6 =.g.g.j.b.                            @ = ; - - - ; - - - ; - - ; = ; ; ; ; ; ; F.F.F.F.F.F.F.F.: : ; ; : ; : : ",
"2 2 2 2 2 2 < 6 =.g.l.:.O .                           @ = ; ; - - - ; - - - - - ; ; ; ; ; = ; : D.F.F.F.F.F.F.D.: ; - ; ; ; ; ; ",
"2 2 1 2 2 2 < 6 =.g.f.;.O .                           @ - ; - - - ; - - - - - ; ; ; ; ; ; ; = : D.F.F.F.F.F.F.D.: ; ; ; ; ; ; - ",
"1 2 2 2 2 2 2 6 =.g.a.;.O o                         X @ = ; ; - - - - - ; - - - = ; ; ; ; ; ; ; D.F.F.F.F.F.F.D.C.: : : ; : : ; ",
"2 2 2 1 2 2 < 6 $.g.a.;.O . o                         X = ; ; ; - - - - - - - - ; ; ; ; ; ; ; : D.F.F.F.F.F.F.F.F.D.D.D.S.D.S.F.",
"2 2 1 2 2 2 < 6 %.g.g.;.O .                           @ - ; ; ; - ; - - - - - ; ; = ; = ; ; ; : D.F.F.F.F.F.F.F.F.F.F.F.F.A.Z.Z.",
"1 2 2 2 2 2 < 6 %.g.g.j.c.O .                         @ = ; - - - - ; - - - - - ; ; ; = ; ; ; : F.F.F.F.F.F.F.F.F.F.F.F.F.C.; ; ",
"2 2 2 2 2 2 2 6 %.g.g.s.s.z..                         @ = ; - - - ; - - - ; - - ; ; ; ; ; ; ; : D.F.F.F.F.F.F.F.F.F.F.F.F.: ; ; "
};
