/* XPM */
static char *_41cb169611e4cf882ccb5b3e36b1bb4rMxCQsrIfncYyVIk[] = {
/* columns rows colors chars-per-pixel */
"64 66 83 1 ",
"  c None",
". c black",
"X c #010001",
"o c #0D0508",
"O c #1D1016",
"+ c #221114",
"@ c #2F191C",
"# c #361B1A",
"$ c #391D1B",
"% c #341E24",
"& c #3C262F",
"* c #3D2631",
"= c #3F2831",
"- c #432525",
"; c #4C2826",
": c #58302E",
"> c #402732",
", c #432932",
"< c #4F2E34",
"1 c #502F34",
"2 c #563133",
"3 c #593335",
"4 c #693B27",
"5 c #693C2D",
"6 c #633634",
"7 c #673837",
"8 c #6A3A37",
"9 c #663938",
"0 c #6B3B38",
"q c #723E3A",
"w c #784229",
"e c #69493F",
"r c #794731",
"t c #75433B",
"y c #7B453A",
"u c #7D483E",
"i c #6D4A40",
"p c #814A33",
"a c #82463A",
"s c #84493A",
"d c #8E4D3B",
"f c #96513C",
"g c #98533D",
"h c #9E5838",
"j c #A75C37",
"k c #A65C3A",
"l c #AB5F3D",
"z c #B5633F",
"x c #BA663F",
"c c #BE693D",
"v c #C46C3F",
"b c #C96E3F",
"n c #865545",
"m c #8C5746",
"M c #8E5947",
"N c #905B48",
"B c #B76740",
"V c #BB6740",
"C c #C26C40",
"Z c #C26C43",
"A c #C86D41",
"S c #CB6F41",
"D c #D47342",
"F c #D57543",
"G c #D77643",
"H c #D17E4D",
"J c #D88250",
"K c #D69B6C",
"L c #D69C6E",
"P c #DA9F6D",
"I c #D89D6E",
"U c #DB9E6E",
"Y c #DCA070",
"T c #DEA170",
"R c #E0A270",
"E c #E1A371",
"W c #E2A470",
"Q c #E3A470",
"! c #E3A672",
"~ c #E4A571",
"^ c #E4A573",
"/ c #E4A773",
"( c #E3A574",
/* pixels */
"                                                                ",
"                                                                ",
"                                                                ",
"                                                                ",
"                                                                ",
"                                                                ",
"                                                                ",
"                                                                ",
"                                                                ",
"                                                                ",
"                                                                ",
"                                                                ",
"                                                                ",
"           5ppppppppppppppppprpppppppppppppppppppppp            ",
"           djllllllllllllllllllllllllllllllllllllllh            ",
"           jSSSSSSSSSSSSSSSSSSSSSSSSSSSSSSSSSSSSSSvc            ",
"         .#jSAASAAASSSAASASASSSSAAASASSASAAASSSSSSvxp4          ",
"         $;hlzzzzzzzzzzzzzzzzzzzzzzzzzzzzzzzzzzzzzzkpw          ",
"         hjffdffffffdfddfffffffffdfffffdfdddddffffgfzh          ",
"         VSftqqqqqqqtyyyqqqqqqqqqqqqqqtyyyyqqqqqqqtsSV          ",
"         Bcd08888880unnn088888808888880nnnn08888888sFx          ",
"         fhy66666660lBBM066666666666667MBBBt6666663ySV          ",
"       vvy82<,,,,,<eKKKK9<<<<,,<,<,,<,7KKKKi<<,1,,<8SV          ",
"       vS7*&*&*****eU^(Ke************&3K((Yn,*****>8SV          ",
"       vS0,,,>,>**=eP((Ke,,,,,,,,,***&3L((Pn,,,,,,,0SV          ",
"       vDy33333<**=eU^^Ke333333333<=**3K((En3333333tSV          ",
"       vDsq00003>*>eL((Kn8000000806,**3K/(RNq00000qsDV          ",
"       vDdqqqqq3>*>eK~~Knqqtqqqqqq6***3K/^PNqqqqqqqsDV          ",
"       vDs008803>>=eU(~Km8788887887>**3K!^PN0900080sDV          ",
"       vDy33223<**>eL(~Ku333232222<,**3K^^Pn3223323tSV          ",
"       vSq,,,,,***=eU(~Ke,,,,,,,,,*>&,3KQ^Un,,,,,,,5SV          ",
"       vb8>*>**&**=eL(!Ke&>>,===,**=**3KEEYi,*****,7SV          ",
"       zzaq2<<<,***eU^EKi<11<<<1<<,***3K~EPn11<<<<<qSV          ",
"       dgkly663<*,*eK/EKi766666666<=**3K^EYN9666666aSV          ",
"       taxvd0083***eK(^Um8087000003*&*3K(RYNq800080sDV          ",
"       8ycSgtqt6,,,eUYEUmqqqqqqqqq9,,,9KYEUNtqqqtqtdSV          ",
"       :0lxhffgdryymUKKUkfffdfffffdyyysJKKKlffffgffhxj          ",
"       #2sflzzczkkkzHHHJVzVBzBVBBzzkkklHJJJCBzzzBzzzfs          ",
"       O,qszASSSvvvSGGGGSSSSSSSSSSSvvvCFGGFFSSSSSSScss          ",
"       @,7tzSSSDSSSDDDDDSSSSSSSSSSSSSSvDDDFSSSSSSSScy0          ",
"       -<39gzzBzzzzzzzzzBzzzzzVBzzzzzzlzzzzzzzzzzBBj9;          ",
"       33<2yffmfffffffffffffffmffffffffffffffffffffs3%          ",
"       2<<,0yyuyyyaaaaaauyaaayyyaayayyyaaaaaaaaayyyq>+          ",
"       <<<,60000000000000000700000000000000000000709,%          ",
"        <<,6666666666666666666666666666666666666666666          ",
"        <2<<<<<<<<<<<<<<<<<<<<<<<<<<<<<<<<<<<<<<<<<<<<          ",
"         ,,,,,,,,,,,,,,,,,,,,,,,,,,,,,,,,,,,,,,,,,>,,,          ",
"         ,,,,,,,,,,,,,,,,,,,,,,,,,,,,,,,,,,,,,,,,,,,,           ",
"          <<<<<1<<<<<<<<<<<<<<<<<1<<<<<<<<<<<1111111            ",
"           .qqqqqqqqqqqqqqqqqqqqqqqqqqqqqqqqqqqqqqqo            ",
"            oqqqqqqqqqqqqqqqqqqqqqqqqqqqqqqqqqqqqq.             ",
"             oqqqqqqqqqqqqqqqqqqqqqqqqqqqqqqqqqqq.              ",
"              ..XXXXXXXXXXXXXXXXXXXXXXXXXXXX.XXXo               ",
"                                                                ",
"                                                                ",
"                                                                ",
"                                                                ",
"                                                                ",
"                                                                ",
"                                                                ",
"                                                                ",
"                                                                ",
"                                                                ",
"                                                                ",
"                                                                ",
"                                                                "
};
