/* XPM */
static char *_6d2fefcdc2a432184200a4af4bf35b9F4mwxNIYHvczjUob[] = {
/* columns rows colors chars-per-pixel */
"64 64 184 2 ",
"   c #DCCC84",
".  c #DBCB84",
"X  c #CFC07D",
"o  c #CFC07D",
"O  c #CEBF7C",
"+  c #CEBF7C",
"@  c #D1C27E",
"#  c #D1C27E",
"$  c #E3D289",
"%  c #E2D188",
"&  c #E2D288",
"*  c #CEBF7C",
"=  c #CDBE7B",
"-  c #D9C983",
";  c #ECDB8E",
":  c #EDDC8F",
">  c #E1D187",
",  c #CFC07D",
"<  c #CBBB79",
"1  c #BAA26A",
"2  c #B69D66",
"3  c #B79E67",
"4  c #B99E64",
"5  c #AD9F77",
"6  c #76A7CB",
"7  c #6AA8DE",
"8  c #6DAADC",
"9  c #669ED4",
"0  c #4865B0",
"q  c #4159A8",
"w  c #425BA9",
"e  c #E1D087",
"r  c #E0D087",
"t  c #E5D48A",
"y  c #E8D88C",
"u  c #DECE86",
"i  c #D0C17D",
"p  c #EDDC8E",
"a  c #E9D88C",
"s  c #D2C37F",
"d  c #CDBE7C",
"f  c #E8D78C",
"g  c #D2C37E",
"h  c #AD9F76",
"j  c #EBDA8D",
"k  c #E2D288",
"l  c #E2D188",
"z  c #D1C17E",
"x  c #CDBF7C",
"c  c #A6A081",
"v  c #84A5B6",
"b  c #6FA8D6",
"n  c #6BA8DC",
"m  c #EEDD8F",
"M  c #BA9E63",
"N  c #9BA293",
"B  c #6CA8DB",
"V  c #9CA291",
"C  c #6CA8DA",
"Z  c #6CA8DC",
"A  c #BAA36A",
"S  c #B79D67",
"D  c #CDBD7B",
"F  c #C7B575",
"G  c #C5B374",
"H  c #C6B375",
"J  c #C4B073",
"K  c #B9A169",
"L  c #CFC17D",
"P  c #CCBC7A",
"I  c #425AA9",
"U  c #425AA8",
"Y  c #415EAB",
"T  c #415FAC",
"R  c #425DAB",
"E  c #425FAC",
"W  c #4072B9",
"Q  c #3F78BC",
"!  c #416CB4",
"~  c #4158A7",
"^  c #4161AD",
"/  c #4474BA",
"(  c #5892CD",
")  c #5D9BD3",
"_  c #5188C7",
"`  c #406FB6",
"'  c #6BA8DD",
"]  c #4066B0",
"[  c #4581C3",
"{  c #67A3D8",
"}  c #70ACDE",
"|  c #5C98D1",
" . c #3F7BBF",
".. c #B99E63",
"X. c #A0A18B",
"o. c #75A7CD",
"O. c #6DA8D9",
"+. c #4065B0",
"@. c #4580C2",
"#. c #66A2D7",
"$. c #6FABDD",
"%. c #5B96D0",
"&. c #3F7ABE",
"*. c #B79E66",
"=. c #B59E6A",
"-. c #A4A184",
";. c #75A7CE",
":. c #4866B0",
">. c #EAD98D",
",. c #DBCB84",
"<. c #AF9F74",
"1. c #66A0D6",
"2. c #4676BB",
"3. c #4060AC",
"4. c #4064AF",
"5. c #D5C680",
"6. c #6DA9DC",
"7. c #4581C2",
"8. c #5B97D1",
"9. c #CFC07C",
"0. c #4063AE",
"q. c #457CBF",
"w. c #619CD3",
"e. c #68A5D9",
"r. c #5791CC",
"t. c #4076BB",
"y. c #EDDB8E",
"u. c #D6C781",
"i. c #D1C27E",
"p. c #E8D78B",
"a. c #4264AF",
"s. c #4582C3",
"d. c #4473B9",
"f. c #DBCC84",
"g. c #DDCD85",
"h. c #E3D288",
"j. c #E4D489",
"k. c #E9D98C",
"l. c #DCCC84",
"z. c #D8C982",
"x. c #D9CA83",
"c. c #D8C882",
"v. c #4259A8",
"b. c #425CA9",
"n. c #CCBD7B",
"m. c #CEC07C",
"M. c #CBBA79",
"N. c #E3D389",
"B. c #C1AD70",
"V. c #BFAA6E",
"C. c #C0AA6F",
"Z. c #BEA86E",
"A. c #B8A068",
"S. c #669FD5",
"D. c #476FB6",
"F. c #405DAB",
"G. c #ECDA8E",
"H. c #B69C66",
"J. c #669DD4",
"K. c #4864AF",
"L. c #4159A7",
"P. c #3E6EB6",
"I. c #3F6DB5",
"U. c #425CAA",
"Y. c #4165B0",
"T. c #4A7EC1",
"R. c #508DCA",
"E. c #4F8CC9",
"W. c #D5C580",
"Q. c #5B98D1",
"!. c #6EAADC",
"~. c #4077BC",
"^. c #5C99D2",
"/. c #4167B1",
"(. c #425DAA",
"). c #3E79BD",
"_. c #3F7BBE",
"`. c #3F76BB",
"'. c #3E7ABE",
"]. c #3F7CBF",
"[. c #3F77BC",
"{. c #406FB7",
"}. c #406CB5",
"|. c #425EAB",
/* pixels */
"w w w w w w I :.J.B B Z b N 3 3 3 3 3 3 3 3 3 3 3 3 2 A M.X O O O O O O O O O O O O O O O O O W.p.p ; ; ; ; ; ; ; ; ; ; ; ; ; ; ",
"w w w w w w I :.J.B B Z b N 3 3 3 3 3 3 3 3 3 3 3 3 2 A M.X O O O O O O O O O O O O O O O O O W.p.p ; ; ; ; ; ; ; ; ; ; ; ; ; ; ",
"w w w w w w I :.J.B B n b N 3 3 3 3 3 3 3 3 3 3 3 3 2 A M.X O O O O O O O O O O O O O O O O O W.p.p ; ; ; ; ; ; ; ; ; ; ; ; ; ; ",
"w w w w w w I :.J.B B b 6 X.3 3 3 3 3 3 3 3 3 3 3 3 2 A M.X O O O O O O O O O O O O O O O O O W.p.p ; ; ; ; ; ; ; ; ; ; ; ; ; ; ",
"w w w w U.(.U.D.J.Z n 6 V =.3 3 3 3 3 3 3 3 3 3 3 3 2 A M.X O O O O O O O O O O O O O O O O O W.p.p ; ; ; ; ; ; ; ; ; ; ; ; ; ; ",
"w w I E ! ` ` 2.9 Z n 6 c *.3 3 3 3 3 3 3 3 3 3 3 3 2 A M.X O O O O O O O O O O O O O O O O x s p.; ; ; ; ; ; ; ; ; ; ; ; ; ; ; ",
"w w w ^ `.&.&.s.1.Z n 6 c *.3 3 3 3 3 3 3 3 3 3 3 3 2 A M.X O O O O O O O O O O O O O O O O x @ g.e e & >.; ; ; ; ; ; ; ; ; ; ; ",
"w w w ^ `._.&.s.1.Z n 6 c *.3 3 3 3 3 3 3 3 3 3 3 3 2 A M.X O O O O O O O O O O O O O O O O O O X X X 5.p.; ; ; ; ; ; ; ; ; ; ; ",
"U.b.w ^ W ).Q s.1.Z n 6 -.=.3 3 3 3 3 3 3 3 3 3 3 3 2 A M.X O O O O O O O O O O O O O O O O O O O O = s p.p ; ; ; ; ; ; ; ; ; ; ",
":.:.^ Y./././.2.J.B Z b v -.3 3 3 3 3 3 3 3 3 3 3 3 3 A M.X O O O O O O O O O O O O O O O O O O O O O W.p.y.; ; ; ; ; ; ; ; ; ; ",
"d.q.d.2.Y.b.I :.J.B B B b N 3 3 3 3 3 3 3 3 3 K Z.C.C.B.< m.O O O O O O O O O O O O O O O O O i c.x.x.g.y y.; ; ; ; ; ; ; ; ; ; ",
"( | r._ /.b.I :.J.B B Z b N 3 3 3 3 3 3 3 3 2 A F = D = O O O O O O O O O O O O O O O O O O O s t j j j ; ; ; ; ; ; ; ; ; ; ; ; ",
"r.%.r.q./.U.I :.J.B B Z b N 3 3 3 3 3 3 3 3 2 A M.X O O O O O O O O O O O O O O O O O O O O O W.p.: ; ; ; ; ; ; ; ; ; ; ; ; ; ; ",
"D.2.2.` E w I :.J.B B Z b N 3 3 3 3 3 3 3 3 2 A M.X O O O O O O O O O O O O O O O O O O O O O W.p.p ; ; ; ; ; ; ; ; ; ; ; ; ; ; ",
"E |.a.E b.w I :.J.B B Z b N 3 3 3 3 3 3 3 3 2 A M.X O O O O O O O O O O O O O O O O O O O O O W.p.p ; ; ; ; ; ; ; ; ; ; ; ; ; ; ",
"w w b.w w w I :.J.B B Z b N 3 3 3 3 3 3 3 3 2 A M.X O O O O O O O O O O O O O O O O O O O O O W.p.p ; ; ; ; ; ; ; ; ; ; ; ; ; ; ",
"w w b.w w I I :.J.B B Z b N 3 3 3 3 3 3 3 3 2 A M.X O O O O O O O O O O O O O O O O O O O O O W.p.p ; ; ; ; ; ; ; ; ; ; ; ; ; ; ",
"w U.U.w w U I :.J.B B Z b N 3 3 3 3 3 3 3 3 2 A M.X O O O O O O O O O O O O O O O O O O O O x s p.; ; ; ; ; ; ; ; ; ; ; ; ; ; ; ",
"U.U.U.w w U I :.J.B B n b N 3 3 3 3 3 3 3 3 2 A M.X O O O O O O O O O O O O O O O O O O O O x @ g.e e & >.; ; ; ; ; ; j j.& & $ ",
"U.U.U.w w U I :.J.B B b 6 X.3 3 3 3 3 3 3 3 2 A M.X O O O O O O O O O O O O O O O O O O O O O O X X X 5.p.; ; ; ; ; p p.z.s s s ",
"U.U.U.w w U I :.J.B n 6 V =.3 3 3 3 3 3 3 3 2 A M.X O O O O O O O O O O O O O O O O O O O O O O O O O W.p.p ; ; ; ; p p.u.9.O O ",
"U.U.U.w w U I :.J.Z n 6 c *.3 3 3 3 3 3 3 3 2 A M.X O O O O O O O O O O O O O O O O O O O O O O O O O W.p.p ; ; ; ; p p.u.9.O O ",
"U.U.U.w w U I :.J.Z n 6 c *.3 3 3 3 3 3 3 3 2 A M.X O O O O O O O O O O O O O O O O O O O O O O O O O W.p.p ; ; ; ; p p.u.9.O O ",
"U.U.U.w w w I :.J.Z n 6 c *.3 3 3 3 3 3 3 3 2 A M.X O O O O O O O O O O O O O O O O O O O O O O O O O W.p.p ; ; ; ; p p.u.9.O O ",
"U.U.U.w w U I :.J.Z n 6 c *.3 3 3 3 3 3 3 3 2 A M.X O O O O O O O O O O O O O O O O O O O O O O O O O W.p.p ; ; ; ; p p.u.9.O O ",
"b.w w w U.w I :.J.Z n 6 c *.3 3 3 3 3 3 3 3 2 A M.O O O O O O O O O O O O O O O O O O O O O O O O O O W.p.p ; ; ; ; ; p.u.i i i ",
"(.w U.U w w I :.J.Z n 6 c *.3 3 3 3 3 3 3 3 S 1 J G G F D O O O O O O O O O O O O O O O O O O O O O O W.p.p ; ; ; ; ; a r       ",
"w w w w w w I :.J.B n 6 V =.3 3 3 3 3 3 3 3 3 3 A.A.A.Z.M.X O O O O O O O O O O O O O O O O O O O O O W.p.p ; ; ; ; ; ; j j j j ",
"w w w w w w I :.J.B B b 6 X.3 3 3 3 3 3 3 3 3 3 3 3 2 A M.X O O O O O O O O O O O O O O O O O O O O O W.p.p ; ; ; ; ; ; ; ; ; ; ",
"w w w w w w I :.J.B B n b N 3 3 3 3 3 3 3 3 3 3 3 3 2 A M.X O O O O O O O O O O O O O O O O O O O O O W.p.p ; ; ; ; ; ; ; ; ; ; ",
"w w w w w w I :.J.B B Z b N 3 3 3 3 3 3 3 3 3 3 3 3 2 A M.X O O O O O O O O O O O O O O O O O O O O O W.p.p ; ; ; ; ; ; ; ; ; ; ",
"w w w w w w I :.J.B B Z b N 3 3 3 3 3 3 3 3 3 3 3 3 2 A M.X O O O O O O O O O O O O O O O O O O O O O W.p.p ; ; ; ; ; ; ; ; ; ; ",
"U.E U.w w w I :.J.B B Z b N 3 3 3 3 3 3 3 3 3 3 3 3 2 A M.X O O O O O O O O O O O O O O O O O O O O d s p.p ; ; ; ; ; ; ; ; ; ; ",
"^ a.^ E w w I :.J.B B Z b N 3 3 3 3 3 3 3 3 3 3 3 3 2 A M.X O O O O O O O O O O O O O O O O O O O O O W.p.y.; ; ; ; ; ; ; ; ; ; ",
"W 2./ /.U.w I :.J.B B Z b N 3 3 3 3 3 3 3 3 3 3 3 3 2 A M.X O O O O O O O O O O O O O O O O O i c.x.x.g.y y.; ; ; ; ; ; ; ; ; ; ",
"E.R._ ! U.w I :.J.B B Z b N 3 3 3 3 3 3 3 3 3 3 3 3 2 A M.X O O O O O O O O O O O O O O O O O s t j j j ; ; ; ; ; ; ; ; ; ; ; ; ",
"( _ T.:.U.w I :.J.B B Z b N 3 3 3 3 3 3 3 3 3 3 3 3 2 A M.X O O O O O O O O O O O O O O O O O W.p.: ; ; ; ; ; ; ; ; ; ; ; ; ; ; ",
"q.2.D.a.U.w w :.J.B B B b N 3 3 3 3 3 3 3 3 3 3 3 3 3 A M.X O O O O O O O O O O O O O O O O O W.p.p ; ; ; ; ; ; ; ; ; ; j j j ; ",
"|.E E (.w w T D.J.B Z b v -.3 3 3 3 3 3 3 3 3 K Z.C.C.B.< m.O O O O O O O O O O O O O O O O O W.p.p ; ; ; ; ; ; ; ; ; >.N.> % $ ",
"w w w w w w /.@.1.Z n 6 -.=.3 3 3 3 3 3 3 3 2 A F = D = O O O O O O O O O O O O O O O O O O O W.p.p ; ; ; ; ; ; ; ; p p.z.s s s ",
"w w w w w w /.7.1.Z n 6 c *.3 3 3 3 3 3 3 3 2 A M.X O O O O O O O O O O O O O O O O O O O O d s p.p ; ; ; ; ; ; ; ; p p.u.i O O ",
"w w w w w w /.7.1.Z n 6 c *.3 3 3 3 3 3 3 3 2 A M.X O O O O O O O O O O O O O O O O O O O O O W.p.y.; ; ; ; ; ; ; ; p p.u.z i i ",
"U w w w w I /.7.1.Z n 6 c *.3 3 3 3 3 3 3 3 2 A M.X O O O O O O O O O O O O O O O O O i c.x.x.g.y y.; ; ; ; ; j j.& & % u       ",
"w w w w w U./.7.1.Z n 6 c *.3 3 3 3 3 3 3 3 2 A M.X O O O O O O O O O O O O O O O O O s t j j j ; ; ; ; ; ; p p.z.s s z.p.j j j ",
"w w w w w U.] 7.1.Z n 6 c *.3 3 3 3 3 3 3 3 2 A M.X O O O O O O O O O O O O O O O O O W.p.: ; ; ; ; ; ; ; ; p p.u.i i u.p.p ; ; ",
"w w w w w U.] 7.1.Z n 6 c *.3 3 3 3 3 3 3 3 2 A M.X O O O O O O O O O O O O O O O O O W.p.p ; ; ; ; ; ; ; ; ; p.u.z z u.p.; ; ; ",
"w w w w w U.^ 2.9 Z n 6 c *.3 3 3 3 3 3 3 3 2 A M.X O O O O O O O O O O O O O O O O O W.p.p ; ; ; ; ; ; ; ; ; a r     r a ; ; ; ",
"w w w w w U.U D.J.Z n 6 V =.3 3 3 3 3 3 3 3 2 A M.X O O O O O O O O O O O O O O O O O W.p.p ; ; ; ; ; ; ; ; ; ; j j j j ; ; ; ; ",
"w U.w U.w U.U :.J.B B b 6 X.3 3 3 3 3 3 3 3 2 A M.X O O O O O O O O O O O O O O O O O W.p.p ; ; ; ; ; ; ; ; ; ; ; ; ; ; ; ; ; ; ",
"w U.w U.w U.U :.J.B B n b N 3 3 3 3 3 3 3 3 2 A M.X O O O O O O O O O O O O O O O O O W.p.p ; ; ; ; ; ; ; ; ; ; ; ; ; ; ; ; ; ; ",
"w w U.b.w w U :.J.B B Z b N 3 3 3 3 3 3 3 3 2 A M.X O O O O O O O O O O O O O O O O O W.p.p ; ; ; ; ; ; ; ; ; ; ; ; ; ; ; ; ; ; ",
"w w w w w I I :.J.B B Z b N 3 3 3 3 3 3 3 3 2 A M.X O O O O O O O O O O O O O O O O O W.p.p ; ; ; ; ; ; ; ; ; ; ; ; ; ; ; ; ; ; ",
"w (.U.w w w I :.J.B B Z b N 3 3 3 3 3 3 3 3 2 A M.X O O O O O O O O O O O O O O O O O W.p.p ; ; ; ; ; ; ; ; ; ; ; ; ; ; ; ; ; ; ",
"a.Y.^ |.w w I :.J.B B Z b N 3 3 3 3 3 3 3 3 2 A M.O O O O O O O O O O O O O O O O O O W.p.p ; ; ; ; ; ; ; ; ; ; ; ; ; ; ; ; ; ; ",
"_ q.D.a.b.w I :.J.B B Z b N 3 3 3 3 3 3 3 3 S 1 J G G F D O O O O O O O O O O O O O O W.p.p ; ; ; ; ; ; ; ; ; ; ; ; ; ; ; ; ; ; ",
"r._ d.^ w w I :.J.B B Z b N 3 3 3 3 3 3 3 3 3 3 A.A.A.Z.M.X O O O O O O O O O O O O O W.p.p ; ; ; ; ; ; ; ; ; ; ; ; ; ; ; ; ; ; ",
"r._ d.] U.w I :.J.B B Z b N 3 3 3 3 3 3 3 3 3 3 3 3 2 A M.X O O O O O O O O O O O O O W.p.p ; ; ; ; ; ; ; ; ; ; ; ; ; ; ; ; ; ; ",
"/ d.! E w w I :.J.B B B b N 3 3 3 3 3 3 3 3 3 3 3 3 2 A M.X O O O O O O O O O O O O x s p.; ; ; ; ; ; ; ; ; ; ; ; ; ; ; ; ; ; ; ",
"(.(.(.w w w I :.J.B Z b v -.3 3 3 3 3 3 3 3 3 3 3 3 2 A M.X O O O O O O O O O O O O x @ g.e e & >.; ; ; ; ; ; ; ; ; ; ; ; ; ; ; ",
"w w w w w w I :.J.Z n 6 -.=.3 3 3 3 3 3 3 3 3 3 3 3 2 A M.X O O O O O O O O O O O O O O X X X 5.p.; ; ; ; ; ; ; ; ; ; ; ; ; ; ; ",
"w w w w w w I :.J.Z n 6 c *.3 3 3 3 3 3 3 3 3 3 3 3 2 A M.X O O O O O O O O O O O O O O O O O W.p.p ; ; ; ; ; ; ; ; ; ; ; ; ; ; ",
"w w w w w w I :.J.Z n 6 c *.3 3 3 3 3 3 3 3 3 3 3 3 2 A M.X O O O O O O O O O O O O O O O O O s p.; ; ; ; ; ; ; ; ; ; ; ; ; ; ; ",
"w w w w w w I :.J.Z n 6 c *.3 3 3 3 3 3 3 3 3 3 3 3 2 A M.X O O O O O O O O O O O O O O O O O @ u f ; ; ; ; ; ; ; ; ; ; j t r r ",
"w w w w w w I :.J.Z n 6 c *.3 3 3 3 3 3 3 3 3 3 3 3 2 A M.X O O O O O O O O O O O O O O O O O O @ > ; ; ; ; ; ; ; ; ; ; j . i i "
};
