/* XPM */
static char *f5a13b3a6d23449defcb37e1d370a778ITSmMEH7xHE1RJMT[] = {
/* columns rows colors chars-per-pixel */
"64 64 111 2 ",
"   c #B69C66",
".  c #B79E67",
"X  c #B99E63",
"o  c #BA9E63",
"O  c #B99E64",
"+  c #B59E6A",
"@  c #AF9F74",
"#  c #AD9F76",
"$  c #AD9F77",
"%  c #B8A068",
"&  c #B9A169",
"*  c #BAA26A",
"=  c #BAA36A",
"-  c #BEA86E",
";  c #C1AD70",
":  c #C4B073",
">  c #C6B375",
",  c #C7B575",
"<  c #CBBA79",
"1  c #CBBB79",
"2  c #CCBC7A",
"3  c #CDBE7B",
"4  c #CDBE7C",
"5  c #CEBF7C",
"6  c #CEC07C",
"7  c #D0C17D",
"8  c #D1C27E",
"9  c #D2C37F",
"0  c #3F6DB5",
"q  c #3E6EB6",
"w  c #3F76BB",
"e  c #3F78BC",
"r  c #3F7BBF",
"t  c #3F7CBF",
"y  c #4158A7",
"u  c #4159A7",
"i  c #4159A8",
"p  c #4259A8",
"a  c #425AA8",
"s  c #425CA9",
"d  c #405DAB",
"f  c #425CAA",
"g  c #4060AC",
"h  c #4161AD",
"j  c #4064AF",
"k  c #4864AF",
"l  c #4165B0",
"z  c #4865B0",
"x  c #406CB5",
"c  c #406FB7",
"v  c #476FB6",
"b  c #4072B9",
"n  c #4076BB",
"m  c #4474BA",
"M  c #4676BB",
"N  c #4077BC",
"B  c #457CBF",
"V  c #4A7EC1",
"C  c #4581C2",
"Z  c #4581C3",
"A  c #4582C3",
"S  c #4F8CC9",
"D  c #508DCA",
"F  c #5791CC",
"G  c #5892CD",
"H  c #5B96D0",
"J  c #5B97D1",
"K  c #5B98D1",
"L  c #5C98D1",
"P  c #5D9BD3",
"I  c #619CD3",
"U  c #669ED4",
"Y  c #669FD5",
"T  c #76A7CB",
"R  c #75A7CD",
"E  c #66A0D6",
"W  c #66A2D7",
"Q  c #6FA8D6",
"!  c #67A3D8",
"~  c #68A5D9",
"^  c #6DA8D9",
"/  c #6CA8DB",
"(  c #6BA8DC",
")  c #6AA8DE",
"_  c #6CA8DC",
"`  c #6DA9DC",
"'  c #6EAADC",
"]  c #70ACDE",
"[  c #9BA293",
"{  c #9CA291",
"}  c #A6A081",
"|  c #A4A184",
" . c #A0A18B",
".. c #84A5B6",
"X. c #D5C580",
"o. c #D6C781",
"O. c #D8C882",
"+. c #DBCB84",
"@. c #DCCC84",
"#. c #E1D087",
"$. c #E1D187",
"%. c #E3D288",
"&. c #E5D48A",
"*. c #E8D78B",
"=. c #E8D78C",
"-. c #E9D88C",
";. c #E9D98C",
":. c #ECDB8E",
">. c #EDDC8E",
",. c #EDDC8F",
"<. c #EEDD8F",
/* pixels */
":.:.:.:.:.:.:.:.:.:.:.:.:.:.:.:.<.,.%.4 4 4 6 4 6 8 @.:.:.:.:.:.:.:.:.:.:.:.&.8 4 8 @.:.:.:.:.:.:.:.:.:.:.:.:.:.:.:.:.:.:.<.%.4 ",
":.:.:.:.:.:.:.:.:.:.:.:.:.:.:.:.;.<.%.X.6 4 4 4 4 6 @.:.:.:.:.:.:.:.:.:.:.:.%.8 4 8 +.:.:.:.:.:.:.:.:.:.:.:.:.:.:.:.:.:.:.>.%.4 ",
":.:.:.:.:.:.:.:.:.:.:.:.:.:.:.:.:.<.%.8 8 4 4 4 4 8 @.:.:.:.:.:.:.:.:.:.;.<.%.8 4 6 @.:.:.>.:.:.:.:.:.:.:.:.:.:.:.:.:.:.,.<.%.X.",
":.:.:.:.:.:.:.:.:.:.:.:.:.:.:.:.>.>.&.X.o.X.o.X.X.X.@.:.:.:.:.:.:.:.:.:.<.;.%.X.o.X.@.;.;.=.;.:.:.:.:.:.:.:.:.:.:.:.:.:.:.;.,.<.",
":.:.:.:.:.:.:.:.:.:.:.:.:.:.:.:.:.:.;.;.=.;.=.;.;.=.:.:.:.:.:.:.:.:.:.:.:.:.:.=.;.;.%.X.o.X.@.:.:.:.:.:.:.:.:.:.:.:.:.:.:.:.:.:.",
":.:.:.:.:.:.:.:.:.:.:.:.:.:.:.:.:.:.<.:.>.>.>.>.:.:.:.:.:.:.:.:.:.:.:.:.:.:.:.:.>.>.&.8 4 8 @.:.:.:.:.:.:.:.:.:.:.:.:.:.:.:.:.:.",
":.:.:.:.:.:.:.:.:.:.:.:.:.:.:.:.:.:.:.:.:.:.:.:.:.:.:.:.:.:.:.:.:.:.:.:.:.:.:.:.<.>.%.8 6 6 @.:.:.:.:.:.:.:.:.:.:.:.:.:.:.:.:.:.",
":.:.:.:.:.:.:.:.:.:.:.:.:.:.:.:.:.:.:.:.:.:.:.:.:.:.:.:.:.:.:.:.:.:.:.:.:.:.:.:.;.>.&.o.o.X.@.:.:.:.:.:.:.:.:.:.:.:.:.:.:.:.:.:.",
":.:.:.:.:.:.:.:.:.:.:.:.:.:.:.:.:.:.:.:.:.:.:.:.:.:.:.:.:.:.>.>.:.:.:.:.:.:.:.:.:.:.:.=.;.=.:.:.:.:.:.:.:.:.:.:.:.:.:.:.:.:.:.:.",
":.:.:.:.:.:.:.:.:.:.:.:.:.:.:.:.:.:.:.:.:.:.:.:.:.:.:.:.:.:.:.;.:.:.:.:.:.:.:.:.:.:.:.>.>.>.:.:.:.:.:.:.:.:.:.:.:.:.:.:.:.:.:.:.",
":.:.:.:.:.:.;.<.>.>.:.:.:.:.:.:.:.:.;.:.:.:.>.>.>.>.>.>.>.>.:.>.:.:.:.:.:.:.:.:.:.:.:.:.:.:.:.:.:.:.:.:.:.:.:.:.:.:.:.:.:.:.:.:.",
":.:.:.:.:.:.;.=.=.*.;.:.:.:.:.:.:.:.:.=.=.=.=.=.=.=.=.=.=.=.=.;.=.=.;.:.:.:.:.:.:.:.:.:.:.:.:.:.:.:.:.:.:.:.:.:.:.:.:.:.:.:.:.:.",
":.:.:.:.:.<.%.X.8 8 @.>.:.:.:.:.:.<.%.X.8 8 8 8 8 X.X.6 8 8 X.8 X.8 @.>.:.:.:.:.:.:.:.:.:.:.:.:.:.:.:.:.:.:.:.:.:.:.:.:.:.:.:.:.",
":.:.:.:.>.<.#.4 3 4 O.>.:.:.:.:.>.<.#.4 4 4 3 3 4 4 4 4 4 4 3 3 3 4 O.:.:.:.:.:.:.:.:.:.:.:.:.:.:.:.:.:.:.:.:.:.:.:.:.:.:.:.:.<.",
">.>.:.:.:.>.%.4 6 3 O.>.>.>.>.>.:.>.$.3 8 3 4 8 4 3 6 4 3 3 3 8 4 3 O.:.>.>.>.>.>.>.:.:.:.:.:.:.:.:.:.:.:.:.:.:.:.:.<.:.:.<.=.%.",
"=.=.=.=.;.;.@.6 4 3 O.=.=.=.=.=.;.;.@.3 8 3 3 3 8 3 8 4 8 4 3 4 4 3 O.;.=.=.=.=.=.*.;.:.:.:.:.:.:.:.:.:.:.:.:.:.:.:.;.=.=.;.@.4 ",
"8 X.8 X.8 X.6 4 3 4 8 8 8 X.9 9 9 9 8 4 4 3 4 8 3 3 4 3 4 8 3 3 3 8 8 9 9 8 8 8 8 8 @.>.:.:.:.:.:.:.:.:.:.:.:.:.:.>.%.X.8 8 6 4 ",
"4 4 4 4 2 4 4 6 3 8 3 4 3 3 4 4 3 3 3 3 8 3 3 3 8 4 8 3 3 3 8 4 3 3 3 4 3 4 3 3 4 4 O.>.:.:.:.:.:.:.:.:.:.:.:.:.>.>.%.4 4 4 8 4 ",
"8 4 8 4 3 3 8 4 3 4 3 3 6 4 8 4 8 8 3 8 3 8 4 8 3 3 3 8 4 3 4 3 4 8 3 4 8 3 4 8 6 3 O.>.>.>.>.>.>.>.>.>.>.>.>.>.:.<.%.6 4 3 4 4 ",
"4 4 3 3 4 8 4 3 3 8 4 8 4 4 3 3 3 3 3 3 3 4 3 3 8 4 3 4 8 3 8 3 3 3 3 8 4 3 3 3 4 3 O.*.=.=.*.;.=.=.=.=.=.*.*.;.=.;.@.4 8 4 8 4 ",
"3 3 3 3 8 4 8 3 3 4 8 4 3 3 3 3 3 8 3 8 4 3 4 8 3 3 4 3 3 8 3 8 4 3 4 8 4 8 3 8 6 3 4 8 9 9 9 9 8 X.8 8 8 X.9 9 8 8 8 3 3 8 3 3 ",
"4 8 4 8 3 3 4 3 3 8 3 3 4 8 4 8 3 4 3 4 8 3 3 3 8 4 8 3 3 4 3 4 8 3 3 3 3 3 3 4 4 8 8 4 4 4 3 3 4 4 4 3 3 3 4 4 4 4 4 3 3 4 8 4 ",
"8 3 3 4 3 3 8 3 3 4 3 3 8 3 3 4 4 8 3 3 3 8 4 8 3 3 3 8 4 8 3 3 3 8 4 8 4 8 4 3 4 3 3 3 3 4 3 3 4 4 4 3 6 4 8 4 8 4 4 8 4 3 3 3 ",
"4 3 3 8 4 8 4 3 3 8 4 8 4 3 3 8 3 3 8 4 3 4 3 3 8 4 3 4 3 3 8 4 3 4 3 3 3 3 8 3 8 3 8 4 3 8 4 8 4 8 4 8 4 4 3 3 4 3 3 3 8 3 8 4 ",
"8 4 8 3 3 4 8 4 8 4 8 3 3 4 8 4 4 3 4 8 3 3 4 3 4 3 4 8 3 3 4 3 4 8 3 3 4 3 4 8 3 4 8 4 8 3 3 4 3 3 3 3 3 3 3 3 8 3 3 4 8 4 8 3 ",
"3 3 4 3 3 8 3 3 3 3 4 3 3 8 3 3 8 3 3 3 8 4 8 3 8 3 3 3 8 4 8 3 3 3 8 4 8 3 3 3 3 8 3 3 4 3 3 8 4 8 4 8 4 8 4 8 4 3 3 8 3 3 4 3 ",
"3 3 8 3 3 4 3 3 3 3 8 3 3 4 3 3 3 8 4 8 3 3 3 8 3 8 4 8 3 3 3 8 4 3 4 3 3 8 4 8 3 4 3 3 8 4 8 4 8 3 3 4 8 3 3 4 8 4 8 4 3 3 8 3 ",
"4 8 4 3 3 8 4 8 4 8 4 3 3 8 4 8 3 4 3 3 8 4 3 4 3 4 3 3 8 4 3 4 8 3 8 3 3 4 3 3 3 8 4 8 3 3 3 3 4 3 3 8 4 3 3 8 3 3 3 3 4 8 4 3 ",
"8 3 3 4 8 3 3 4 8 3 3 4 8 3 3 4 4 8 3 3 4 8 3 3 4 8 3 3 4 8 3 3 3 8 3 8 4 3 4 8 3 4 8 4 3 3 3 3 8 4 8 3 3 4 8 4 3 3 3 3 8 4 8 3 ",
"4 3 3 8 4 3 3 8 4 3 3 8 4 3 3 8 3 3 8 4 3 3 8 4 3 3 8 4 3 3 8 4 3 4 3 4 8 3 3 3 3 8 3 3 4 8 4 8 3 3 4 3 3 8 3 3 4 8 4 8 3 3 4 3 ",
"8 4 8 4 8 4 8 4 8 4 8 4 8 4 8 4 4 3 4 3 4 3 4 3 4 3 4 3 4 3 4 3 4 8 3 3 3 8 4 8 3 4 3 3 8 3 3 4 3 3 8 3 3 4 3 3 8 3 3 4 3 3 8 3 ",
"3 3 3 3 3 3 3 3 3 3 3 3 3 3 3 3 8 3 8 3 8 3 8 3 8 3 8 3 8 3 8 3 3 3 8 4 3 4 3 3 3 8 4 8 4 3 3 8 4 8 4 3 3 8 4 8 4 3 3 8 4 8 4 3 ",
"6 2 6 6 6 2 6 3 X.1 6 1 X.6 X.2 8 4 8 4 8 4 8 4 4 6 4 3 6 3 6 3 4 8 4 8 3 3 3 8 3 3 4 3 4 8 3 3 4 3 4 8 4 6 4 3 4 8 4 6 4 8 3 3 ",
"X.2 X.2 6 6 3 6 1 X.1 X.1 2 2 6 3 3 3 3 3 3 3 3 6 4 6 3 3 6 3 6 3 3 5 4 8 3 3 3 8 4 8 3 3 3 8 4 8 3 3 3 6 4 8 3 3 3 3 3 6 4 8 4 ",
"1 X.2 6 6 X.6 6 X.1 6 1 2 6 X.2 3 4 8 3 3 4 8 3 4 8 3 8 8 4 3 6 8 5 8 5 6 4 4 4 3 3 3 8 4 3 4 3 3 8 4 8 4 6 3 3 8 4 8 8 8 3 8 3 ",
"< < 3 < < < 1 6 1 1 6 1 1 X.2 6 3 8 4 3 3 8 4 3 3 3 3 < < 3 3 3 1 1 1 1 1 1 1 8 8 4 3 4 8 3 8 3 3 4 3 3 6 4 4 3 1 1 < < 1 1 1 1 ",
"% % % = = % = = @ % - 6 6 3 6 2 3 3 3 4 8 3 3 3 4 3 , * = = = = = = * * * * ; 4 4 6 4 3 6 3 6 3 4 8 4 6 4 8 , * % * * * * * * * ",
"+     +         %   - 6 3 6 2 9 4 8 3 8 4 3 4 8 8 8 >                   o   ; 4 6 4 8 3 6 6 3 6 3 3 6 4 4 4 , % X +         + X ",
"+ X   % %   %       - 6 6 6 6 3 8 4 4 8 4 8 8 4 4 8 > X %   %   *   . .     ; 4 4 6 8 6 6 8 6 6 8 6 8 6 8 8 >   +   o + o + X + ",
"X + X +   %   % %   - 6 < < 3 3 1 1 1 1 1 1 1 1 1 3 : +   %   %     . .     - < 3 < < < < < < 3 < < < < 3 < ;   + o +   + o + o ",
"+   %   %   %   %   * * = % = * * * * * * = = * * * %   %   %   * %   %   % * = = = = * * = = = % * * = * = * % + o   %   %   % ",
"  %   %   %   %   % %                             X   %   %   %     %   %                       %   %   X       o + %   %   %   ",
"%   %   %   %   %   %   % %   % .   * + %   *     %   % %   %     %   %   %   % %   %   %   %     % %   +     % +     %   %   % ",
"  %   %   %   %   %   % %   %   o +   o   %     %   %     %   % %   %   %   %     %   *   %   % %     %   % %     * %   %   %   ",
"%   %   %   %   %   %   %   %   %   %   %   %     %   %   %   %   %   %   %   % %   %   %   %     %   %   %   %   %   %   %   % ",
"  %   %   %   %   %   %   %   %   %   %   %   % %   %   %   %   %   %   %   %     %   %   %   % %   %   %   %   %   %   %   %   ",
"%   %   %   %   %   %   %   %   %   %   %   %     %   %   %   %   %   %   %   % %   %   %   %     %   %   %   %   %   %   %   % ",
"  %   %   %   %   %   %   %   %   %   %   %   % %   %   %   %   %   %   %   %     %   %   %   % %   %   %   %   %   %   %   %   ",
"% o +     %   %   %   *   o X o X   o + .   %   %   %         X + o %   %   % + %   + +   +   o   X + X o *   X o + o + .   o + ",
"X X X % + + %     X X X   % o o X X o o   *   +   %   % X * * X X o X X X X X o   %   + %   * . % X X X o o + X o X + +   *   + ",
"{ [ {  .+ o o % % } [ [ { [ [ [ [ { [  .o o o + o % %    .{ { { { { { { { [ } % % X o o X o *    .{ { { { { { { { { $ .   o % X ",
"/ / ( R } @ @ @ @ ..( ( / / Q / ` ( ( T | $ $ @ $ @ @ } T / / / ^ ` / / ( ( ..@ @ @ $ $ @ @ $ | R / / / / / / / / ` ..$ @ @ @ @ ",
"/ / / / T T R R T Q / / / / / / ` ` ( / R R R R R T R R / / / / _ ` ` ^ / ( Q R R R R T R R R R ` ( / / ` ` / / / ( Q R R R R T ",
"/ / / / ( / ( ( ( ` / / / / / / / ` ( ( ( ) ( ( ( ( ( ` / / / / ~ ` ` ~ / ` ( ( ( ) ( ( ) ~ ` ) / / / / / / / / / ( ( ( ( ) ( ( ",
"/ / / / ` ` ` / ( ` / / ` / / ` ` ` ` ( ` ` ( ` ( ( ` ( ` / / / ` ` ` ` / ` ` / ` ` ( ( ~ ` ` ~ / / ` / ` / / / ` ' / ` ` ( ) ' ",
"E U E E E E ! ! ! E U E E U U E U U U U U E U E E U E U E E E E E U U E U U E ! ! E ! ! ! ! ! U E U E U E U W U E E U U E U U ! ",
"z z z z z n A A A v k z z z z z z z z z z z z z z z z z z k k k z k z z z z v V V A V e V V q z z z z z z z z z k k z z z z z z ",
"y y a a a 0 r e w 0 u u a a a a a a a a a y a a a a a a f a a u u u a a a a a x l l 0 0 d 0 d y y a a a a a a a u u u a a a a a ",
"a a a a a N n B e j s s s a a a a a u u a a a a a a a s a a a a s a s a a a a a a a y a 0 0 d 0 x d l a a a a s s u s s a s a a ",
"d a a a a x n n w j u s a s a a h s h h d d d h d s a a f a f f s s a s a a d y a a a x e V B V V V M d a a s a s s u s d a a a ",
"f f p f f f f f d d a a a a s d b N n n N N N N N l a d f f p a f p f p a a d a s a l V I ! Y ! ! ! F e h a a s f f p f a a a d ",
"f f f a p f f f a a d a d a h M G L L K H L H H H V l a a f a f p f p f d a d a a a l A ~ ] ] ` ( ` P e f a a a p p f p a d d s ",
"a f a f f p f f d d a d a a l A ! ] ` ` ` ` ` ` ^ D 0 s p a f f f p f p a d a a d a h m F J H H H H S 0 a f a p f f p f p f s d ",
"f a f a p f f f f f a a a a 0 V ! ` ` _ ^ ` _ _ _ D b a f f p p f f f d d s s d a a a d N r r r N r c a f a f f f p f p f f f f "
};
