/* XPM */
static char *b843d314db3a46a0e09edfea96d44bd46G3X7DkP3252tyUd[] = {
/* columns rows colors chars-per-pixel */
"64 64 184 2 ",
"   c #DCCC84",
".  c #DBCB84",
"X  c #CFC07D",
"o  c #CFC07D",
"O  c #CEBF7C",
"+  c #CEBF7C",
"@  c #D1C27E",
"#  c #D1C27E",
"$  c #E3D289",
"%  c #E2D188",
"&  c #E2D288",
"*  c #CEBF7C",
"=  c #CDBE7B",
"-  c #D9C983",
";  c #ECDB8E",
":  c #EDDC8F",
">  c #E1D187",
",  c #CFC07D",
"<  c #CBBB79",
"1  c #BAA26A",
"2  c #B69D66",
"3  c #B79E67",
"4  c #B99E64",
"5  c #AD9F77",
"6  c #76A7CB",
"7  c #6AA8DE",
"8  c #6DAADC",
"9  c #669ED4",
"0  c #4865B0",
"q  c #4159A8",
"w  c #425BA9",
"e  c #E1D087",
"r  c #E0D087",
"t  c #E5D48A",
"y  c #E8D88C",
"u  c #DECE86",
"i  c #D0C17D",
"p  c #EDDC8E",
"a  c #E9D88C",
"s  c #D2C37F",
"d  c #CDBE7C",
"f  c #E8D78C",
"g  c #D2C37E",
"h  c #AD9F76",
"j  c #EBDA8D",
"k  c #E2D288",
"l  c #E2D188",
"z  c #D1C17E",
"x  c #CDBF7C",
"c  c #A6A081",
"v  c #84A5B6",
"b  c #6FA8D6",
"n  c #6BA8DC",
"m  c #EEDD8F",
"M  c #BA9E63",
"N  c #9BA293",
"B  c #6CA8DB",
"V  c #9CA291",
"C  c #6CA8DA",
"Z  c #6CA8DC",
"A  c #BAA36A",
"S  c #B79D67",
"D  c #CDBD7B",
"F  c #C7B575",
"G  c #C5B374",
"H  c #C6B375",
"J  c #C4B073",
"K  c #B9A169",
"L  c #CFC17D",
"P  c #CCBC7A",
"I  c #425AA9",
"U  c #425AA8",
"Y  c #415EAB",
"T  c #415FAC",
"R  c #425DAB",
"E  c #425FAC",
"W  c #4072B9",
"Q  c #3F78BC",
"!  c #416CB4",
"~  c #4158A7",
"^  c #4161AD",
"/  c #4474BA",
"(  c #5892CD",
")  c #5D9BD3",
"_  c #5188C7",
"`  c #406FB6",
"'  c #6BA8DD",
"]  c #4066B0",
"[  c #4581C3",
"{  c #67A3D8",
"}  c #70ACDE",
"|  c #5C98D1",
" . c #3F7BBF",
".. c #B99E63",
"X. c #A0A18B",
"o. c #75A7CD",
"O. c #6DA8D9",
"+. c #4065B0",
"@. c #4580C2",
"#. c #66A2D7",
"$. c #6FABDD",
"%. c #5B96D0",
"&. c #3F7ABE",
"*. c #B79E66",
"=. c #B59E6A",
"-. c #A4A184",
";. c #75A7CE",
":. c #4866B0",
">. c #EAD98D",
",. c #DBCB84",
"<. c #AF9F74",
"1. c #66A0D6",
"2. c #4676BB",
"3. c #4060AC",
"4. c #4064AF",
"5. c #D5C680",
"6. c #6DA9DC",
"7. c #4581C2",
"8. c #5B97D1",
"9. c #CFC07C",
"0. c #4063AE",
"q. c #457CBF",
"w. c #619CD3",
"e. c #68A5D9",
"r. c #5791CC",
"t. c #4076BB",
"y. c #EDDB8E",
"u. c #D6C781",
"i. c #D1C27E",
"p. c #E8D78B",
"a. c #4264AF",
"s. c #4582C3",
"d. c #4473B9",
"f. c #DBCC84",
"g. c #DDCD85",
"h. c #E3D288",
"j. c #E4D489",
"k. c #E9D98C",
"l. c #DCCC84",
"z. c #D8C982",
"x. c #D9CA83",
"c. c #D8C882",
"v. c #4259A8",
"b. c #425CA9",
"n. c #CCBD7B",
"m. c #CEC07C",
"M. c #CBBA79",
"N. c #E3D389",
"B. c #C1AD70",
"V. c #BFAA6E",
"C. c #C0AA6F",
"Z. c #BEA86E",
"A. c #B8A068",
"S. c #669FD5",
"D. c #476FB6",
"F. c #405DAB",
"G. c #ECDA8E",
"H. c #B69C66",
"J. c #669DD4",
"K. c #4864AF",
"L. c #4159A7",
"P. c #3E6EB6",
"I. c #3F6DB5",
"U. c #425CAA",
"Y. c #4165B0",
"T. c #4A7EC1",
"R. c #508DCA",
"E. c #4F8CC9",
"W. c #D5C580",
"Q. c #5B98D1",
"!. c #6EAADC",
"~. c #4077BC",
"^. c #5C99D2",
"/. c #4167B1",
"(. c #425DAA",
"). c #3E79BD",
"_. c #3F7BBE",
"`. c #3F76BB",
"'. c #3E7ABE",
"]. c #3F7CBF",
"[. c #3F77BC",
"{. c #406FB7",
"}. c #406CB5",
"|. c #425EAB",
/* pixels */
"* = - ; ; ; ; ; ; ; ; ; ; : > * * * * * * * * * * * * * * * * * * * , < 1 2 3 3 3 3 3 3 3 3 3 3 3 3 4 5 6 7 8 9 0 q w w w w w w ",
"e r t ; ; ; ; ; ; ; ; ; ; ; y u i * * * * * * * * * * * * * * * * * , < 1 2 3 3 3 3 3 3 3 3 3 3 3 3 4 5 6 7 8 9 0 q w w w w w w ",
": : p ; ; ; ; ; ; ; ; ; ; ; : a s d * * * * * * * * * * * * * * * * , < 1 2 3 3 3 3 3 3 3 3 3 3 3 3 4 5 6 7 8 9 0 q w w w w w w ",
"; ; ; ; ; ; ; ; ; ; ; ; ; ; p f g = * * * * * * * * * * * * * * * * , < 1 2 3 3 3 3 3 3 3 3 3 3 3 3 4 h 6 7 8 9 0 q w w w w w w ",
"; ; ; ; ; ; ; ; ; ; ; ; ; ; p f s d * * * * * * * * * * * * * * * * , < 1 2 3 3 3 3 3 3 3 3 3 3 3 3 4 5 6 7 8 9 0 q w w w w w w ",
"; ; ; ; ; ; ; ; ; ; ; ; ; ; ; j k e l u z x * * * * * * * * * * * * , < 1 2 3 3 3 3 3 3 3 3 3 3 3 4 c v b n 8 9 0 q w w w w w w ",
"; ; ; ; ; ; ; ; ; ; ; ; ; ; ; ; : : m a s d * * * * * * * * * * * * , < 1 2 3 3 3 3 3 3 3 3 3 3 3 M N 7 n B 8 9 0 q w w E ! d.d.",
"; ; ; ; ; ; ; ; ; ; ; ; ; ; ; ; ; ; p f g d * * * * * * * * * * * * , < 1 2 3 3 3 3 3 3 3 3 3 3 3 M V C Z B 8 9 0 q w w /.d._ r.",
"; ; ; ; ; ; ; ; ; ; ; ; ; ; ; ; ; ; p f g d * * * * * * * * * * * * , < A S 3 3 3 3 3 3 3 3 3 3 3 M V C Z B 8 9 0 q w w E d._ r.",
"; ; ; ; ; ; ; ; ; ; ; ; ; ; ; ; ; ; p f g d * * * * * * * * * * * * * D F G H J K S 3 3 3 3 3 3 3 M V C Z B 8 9 0 q w w a.D.q._ ",
"; ; ; ; ; ; ; ; ; ; ; ; ; ; ; ; ; ; p f g d * * * * * * * * * * * * * * , , L P A 2 3 3 3 3 3 3 3 M V C Z B 8 9 0 q w w |.^ Y.E ",
"; ; ; ; ; ; ; ; ; ; ; ; ; ; ; ; ; ; p f g d * * * * * * * * * * * * * * * * , < 1 2 3 3 3 3 3 3 3 M V C Z B 8 9 0 q w w w U.b.w ",
"; ; ; ; ; ; ; ; ; ; ; ; ; ; ; ; ; ; p f g d * * * * * * * * * * * * * * * * , < 1 2 3 3 3 3 3 3 3 M V C Z B 8 9 0 q I w w w w w ",
"; ; ; ; ; ; ; ; ; ; ; ; ; ; ; ; ; ; p f g d * * * * * * * * * * * * * * * * , < 1 2 3 3 3 3 3 3 3 M V C Z B 8 9 0 ~ b.w b.U.w w ",
"; ; ; ; ; ; ; ; ; ; ; ; ; ; ; ; ; ; p f g d * * * * * * * * * * * * * * * * , < 1 2 3 3 3 3 3 3 3 M N ' n B 8 9 0 ~ U.w U.w U.w ",
"; ; ; ; ; ; ; ; ; ; ; ; ; ; ; ; ; ; p f g d * * * * * * * * * * * * * * * * , < 1 2 3 3 3 3 3 3 3 ..X.o.O.B 8 9 0 ~ U.w U.w U.w ",
"; ; ; ; ; ; ; ; ; ; ; ; ; ; ; ; ; ; p f g d * * * * * * * * * * * * * * * * , < 1 2 3 3 3 3 3 3 3 *.=.-.;.7 8 9 :.~ U.w w w w w ",
"; ; ; >.u ,.,.u >.; ; ; ; ; ; ; ; ; p f g d * * * * * * * * * * * * * * * * , < 1 2 3 3 3 3 3 3 3 3 M <.6 7 8 1.2.3.U.w w w w w ",
"; ; p y 5., , 5.y p ; ; ; ; ; ; ; ; p f g d * * * * * * * * * * * * * * * * , < 1 2 3 3 3 3 3 3 3 3 4 5 6 7 6.#.7.4.w w w w w w ",
"; ; p y 5.9.9.5.y p ; ; ; ; ; ; ; ; : f g d * * * * * * * * * * * * * * * * , < 1 2 3 3 3 3 3 3 3 3 4 5 6 7 6.#.@.4.U.w w w w w ",
"; ; y.a u.i.i.u.a p ; ; ; ; ; ; ; ; p p.g d * * * * * * * * * * * * * * * * , < 1 2 3 3 3 3 3 3 3 3 4 5 6 7 6.#.@.+.w w w w w w ",
"  . f.g.k h.k j.j ; ; ; ; ; y.k.l.z.x.c., * * * * * * * * * * * * * * * * * , < 1 2 3 3 3 3 3 3 3 3 4 5 6 7 6.#.@.+.v.w w w w U ",
"X o , 5.a m : p ; ; ; ; ; ; p p.i.n.= = * * * * * * * * * * * * * * * * * * , < 1 2 3 3 3 3 3 3 3 3 4 5 6 7 6.#.@.+.U w w w w w ",
"O + 9.5.y p ; ; ; ; ; ; ; ; p f g d * * * * * * * * * * * * * * * * * * * * , < 1 2 3 3 3 3 3 3 3 3 4 h 6 7 6.#.@.+.U w w w w w ",
"@ # i.u.a p ; ; ; ; ; ; ; ; p f g d * * * * * * * * * * * * * * * * * * * * m.M.1 2 3 3 3 3 3 3 3 3 4 5 6 7 6.#.@.+.U w w w w w ",
"$ % > N.j ; ; ; ; ; ; ; ; ; p f g d * * * * * * * * * * * * * * * * m.P B.V.C.Z.A.3 3 3 3 3 3 3 3 4 c v b n 8 S.D.F.w w b.E (.w ",
": ; G.; ; ; ; ; ; ; ; ; ; ; p f g d * * * * * * * * * * * * * * * * , M.K H.2 2 3 3 3 3 3 3 3 3 3 M N 7 n B 8 J.K.L.w w Y.D.2.q.",
"; ; ; ; ; ; ; ; ; ; ; ; ; ; : f g d * * * * * * * * * * * * * * * * , < 1 2 3 3 3 3 3 3 3 3 3 3 3 M V C Z B 8 9 0 q w w :.T._ %.",
"; ; ; ; ; ; ; ; ; ; ; ; ; ; p p.g d * * * * * * * * * * * * * * * * , < 1 2 3 3 3 3 3 3 3 3 3 3 3 M V C Z B 8 9 0 q w w ! _ r.R.",
"; ; ; ; ; ; ; ; ; ; y.k.l.z.x.c., * * * * * * * * * * * * * * * * * , < 1 2 3 3 3 3 3 3 3 3 3 3 3 M V C Z B 8 9 0 q w w /./ 2.{.",
"; ; ; ; ; ; ; ; ; ; p p.i.n.= = * * * * * * * * * * * * * * * * * * , < 1 2 3 3 3 3 3 3 3 3 3 3 3 M V C Z B 8 9 0 q w w E ^ a.E ",
"; ; ; ; ; ; ; ; ; ; p f g d * * * * * * * * * * * * * * * * * * * * , < 1 2 3 3 3 3 3 3 3 3 3 3 3 M V C Z B 8 9 0 q w w w U.E w ",
"; ; ; ; ; ; ; ; ; ; p f g d * * * * * * * * * * * * * * * * * * * * , < 1 2 3 3 3 3 3 3 3 3 3 3 3 M V C Z B 8 9 0 q w w w w w w ",
"; ; ; ; ; ; ; ; ; ; p f g d * * * * * * * * * * * * * * * * * * * * , < 1 2 3 3 3 3 3 3 3 3 3 3 3 M V C Z B 8 9 0 q w w w w w w ",
"; ; ; ; ; ; ; ; ; ; p f g d * * * * * * * * * * * * * * * * * * * * , < 1 2 3 3 3 3 3 3 3 3 3 3 3 M N ' n B 8 9 0 q w w w w w w ",
"; ; ; ; ; ; ; ; ; ; p f g d * * * * * * * * * * * * * * * * * * * * , < 1 2 3 3 3 3 3 3 3 3 3 3 3 ..X.o.O.B 8 9 0 q w w w w w w ",
"; ; ; ; ; ; ; ; ; ; p f g d * * * * * * * * * * * * * * * * * * * * , < A S 3 3 3 3 3 3 3 3 3 3 3 *.=.-.;.7 8 9 0 q w w w w w w ",
"  . ,.u >.; ; ; ; ; p f g d * * * * * * * * * * * * * * * * * * * * * D F G H J K S 3 3 3 3 3 3 3 3 M <.6 7 8 9 0 q w w U U.w (.",
"X o , 5.y p ; ; ; ; p f g d * * * * * * * * * * * * * * * * * * * * * * , , L P A 2 3 3 3 3 3 3 3 3 4 5 6 7 8 9 0 q w U.w w w b.",
"O + * W.y p ; ; ; ; p f g d * * * * * * * * * * * * * * * * * * * * * * * * , < 1 2 3 3 3 3 3 3 3 3 4 5 6 7 8 9 0 q U w w U.U.U.",
"O + * W.y p ; ; ; ; p f g d * * * * * * * * * * * * * * * * * * * * * * * * , < 1 2 3 3 3 3 3 3 3 3 4 5 6 7 8 9 0 q w w w U.U.U.",
"O + * W.y p ; ; ; ; p f g d * * * * * * * * * * * * * * * * * * * * * * * * , < 1 2 3 3 3 3 3 3 3 3 4 5 6 7 8 9 0 q U w w U.U.U.",
"O + * W.y p ; ; ; ; p f g d * * * * * * * * * * * * * * * * * * * * * * * * , < 1 2 3 3 3 3 3 3 3 3 M <.6 7 8 9 0 q U w w U.U.U.",
"O + 9.W.y p ; ; ; ; p f g = * * * * * * * * * * * * * * * * * * * * * * * * , < 1 2 3 3 3 3 3 3 3 *.=.-.;.7 8 9 0 q U w w U.U.U.",
"@ # i.u.a p ; ; ; ; p f s d * * * * * * * * * * * * * * * * * * * * * * * * , < 1 2 3 3 3 3 3 3 3 ..X.o.O.B 8 9 0 q U w w U.U.U.",
"$ & k j.j ; ; ; ; ; ; j k e l u z x * * * * * * * * * * * * * * * * * * * * , < 1 2 3 3 3 3 3 3 3 M N ' n B 8 9 0 q U w w U.U.U.",
": : : p ; ; ; ; ; ; ; ; : : m a s d * * * * * * * * * * * * * * * * * * * * , < 1 2 3 3 3 3 3 3 3 M V C Z B 8 9 0 q U w w U.U.w ",
"; ; ; ; ; ; ; ; ; ; ; ; ; ; p f g d * * * * * * * * * * * * * * * * * * * * , < 1 2 3 3 3 3 3 3 3 M V C Z B 8 9 0 q I w w b.w w ",
"; ; ; ; ; ; ; ; ; ; ; ; ; ; p f g d * * * * * * * * * * * * * * * * * * * * , < 1 2 3 3 3 3 3 3 3 M V C Z B 8 9 0 q w w w w w w ",
"; ; ; ; ; ; ; ; ; ; ; ; ; ; p f g d * * * * * * * * * * * * * * * * * * * * , < 1 2 3 3 3 3 3 3 3 M V C Z B 8 9 0 q w w |.a.w R ",
"; ; ; ; ; ; ; ; ; ; ; ; ; ; p f g d * * * * * * * * * * * * * * * * * * * * , < 1 2 3 3 3 3 3 3 3 M V C Z B 8 9 0 q w E ` 2.2.D.",
"; ; ; ; ; ; ; ; ; ; ; ; ; ; : f g d * * * * * * * * * * * * * * * * * * * * , < 1 2 3 3 3 3 3 3 3 M V C Z B 8 9 0 q w /.q.r.) ( ",
"; ; ; ; ; ; ; ; ; ; ; ; ; ; p p.g d * * * * * * * * * * * * * * * * * * * * m.M.1 2 3 3 3 3 3 3 3 M V C Z B 8 9 0 q w a.r.r.w.%.",
"; ; ; ; ; ; ; ; ; ; y.k.l.z.x.c., * * * * * * * * * * * * * * * * * m.P B.V.C.Z.A.3 3 3 3 3 3 3 3 M N 7 n B 8 J.K.~ U a.2.! q.! ",
"; ; ; ; ; ; ; ; ; ; p p.i.n.= = * * * * * * * * * * * * * * * * * * , M.K H.2 2 3 3 3 3 3 3 3 3 3 4 c v b n 8 S.D.+./.Y.a.E :.:.",
"; ; ; ; ; ; ; ; ; ; p f g = * * * * * * * * * * * * * * * * * * * * , < 1 2 3 3 3 3 3 3 3 3 3 3 3 3 4 5 6 7 6.#.@.)._.`.E U w w ",
"; ; ; ; ; ; ; ; ; ; p f s d * * * * * * * * * * * * * * * * * * * * , < 1 2 3 3 3 3 3 3 3 3 3 3 3 3 4 h 6 7 6.#.@.). .`.E U w w ",
"; ; ; ; ; ; ; ; ; ; ; j k e l u z x * * * * * * * * * * * * * * * * , < 1 2 3 3 3 3 3 3 3 3 3 3 3 3 4 5 6 7 6.#.[ '.].[.E U w w ",
"; ; ; ; ; ; ; ; ; ; ; ; : : m a s d * * * * * * * * * * * * * * * * , < 1 2 3 3 3 3 3 3 3 3 3 3 3 3 M <.6 7 8 1.2.I.{.}.|.I w w ",
"; ; ; ; ; ; ; ; ; ; ; ; ; ; p f g d * * * * * * * * * * * * * * * * , < 1 2 3 3 3 3 3 3 3 3 3 3 3 *.=.-.;.7 8 9 :.q w w w w w w ",
"; ; ; ; ; ; ; ; ; ; ; ; ; ; p f g d * * * * * * * * * * * * * * * * , < 1 2 3 3 3 3 3 3 3 3 3 3 3 ..X.o.O.B 8 9 0 q w w w w w w ",
"; ; ; ; ; ; ; ; ; ; ; ; ; ; p f g d * * * * * * * * * * * * * * * * , < 1 2 3 3 3 3 3 3 3 3 3 3 3 M N ' n B 8 9 0 q w w w w w w ",
"; ; ; ; ; ; ; ; ; ; ; ; ; ; p f g d * * * * * * * * * * * * * * * * , < 1 2 3 3 3 3 3 3 3 3 3 3 3 M V C Z B 8 9 0 q w w w w w w ",
"; ; ; ; ; ; ; ; ; ; ; ; ; ; p f g d * * * * * * * * * * * * * * * * , < 1 2 3 3 3 3 3 3 3 3 3 3 3 M V C Z B 8 9 0 q w w w w w w "
};
