/* XPM */
static char *bda2f7e4c6d44804ad7eb93be2599b268XoBitUmoGpWxuvz[] = {
/* columns rows colors chars-per-pixel */
"64 64 122 2 ",
"   c #B69C66",
".  c #B69D66",
"X  c #B79D67",
"o  c #B79E67",
"O  c #B99E63",
"+  c #BA9E63",
"@  c #B99E64",
"#  c #B59E6A",
"$  c #AF9F74",
"%  c #AD9F76",
"&  c #AD9F77",
"*  c #B8A068",
"=  c #BAA26A",
"-  c #BAA36A",
";  c #BEA86E",
":  c #C0AA6F",
">  c #C1AD70",
",  c #C6B375",
"<  c #C7B575",
"1  c #CBBA79",
"2  c #CCBC7A",
"3  c #CCBD7B",
"4  c #CDBF7C",
"5  c #CEBF7C",
"6  c #CEC07C",
"7  c #CFC07D",
"8  c #D1C17E",
"9  c #D2C37E",
"0  c #D2C37F",
"q  c #3F6DB5",
"w  c #3E6EB6",
"e  c #3F76BB",
"r  c #3F77BC",
"t  c #3F78BC",
"y  c #3E79BD",
"u  c #3F7BBE",
"i  c #3F7BBF",
"p  c #4158A7",
"a  c #4159A7",
"s  c #4159A8",
"d  c #4259A8",
"f  c #425AA8",
"g  c #425BA9",
"h  c #405DAB",
"j  c #425CAA",
"k  c #425FAC",
"l  c #4060AC",
"z  c #4161AD",
"x  c #4264AF",
"c  c #4864AF",
"v  c #4165B0",
"b  c #4865B0",
"n  c #416CB4",
"m  c #406FB7",
"M  c #476FB6",
"N  c #4072B9",
"B  c #4473B9",
"V  c #4076BB",
"C  c #4474BA",
"Z  c #4676BB",
"A  c #4077BC",
"S  c #457CBF",
"D  c #4A7EC1",
"F  c #4581C3",
"G  c #4582C3",
"H  c #4F8CC9",
"J  c #5188C7",
"K  c #508DCA",
"L  c #5791CC",
"P  c #5892CD",
"I  c #5B96D0",
"U  c #5B97D1",
"Y  c #5B98D1",
"T  c #5C98D1",
"R  c #5D9BD3",
"E  c #619CD3",
"W  c #669DD4",
"Q  c #669ED4",
"!  c #669FD5",
"~  c #76A7CB",
"^  c #75A7CD",
"/  c #75A7CE",
"(  c #66A0D6",
")  c #66A2D7",
"_  c #6FA8D6",
"`  c #67A3D8",
"'  c #68A5D9",
"]  c #6DA8D9",
"[  c #6CA8DB",
"{  c #6BA8DD",
"}  c #6AA8DE",
"|  c #6CA8DC",
" . c #6DAADC",
".. c #6EAADC",
"X. c #6FABDD",
"o. c #70ACDE",
"O. c #9BA293",
"+. c #9CA291",
"@. c #A6A081",
"#. c #A4A184",
"$. c #A0A18B",
"%. c #84A5B6",
"&. c #D5C580",
"*. c #D6C781",
"=. c #D8C882",
"-. c #D8C982",
";. c #DBCB84",
":. c #DBCC84",
">. c #DCCC84",
",. c #E1D087",
"<. c #E3D288",
"1. c #E3D289",
"2. c #E5D48A",
"3. c #E8D78B",
"4. c #E8D78C",
"5. c #E8D88C",
"6. c #E9D88C",
"7. c #E9D98C",
"8. c #ECDB8E",
"9. c #EDDC8E",
"0. c #EDDC8F",
"q. c #EEDD8F",
/* pixels */
"g g g g g g g g g g g g g w A i S y u y q p j g g g g g g g g g g g g g g w H ` [ [ [ [ [ [ [ ( G x j j g g g g g g j j f f g j ",
"g g g g g g g g g g g h n J T I T P Y L B p g p g g g g g g g g g g g g g w K X.[ X.X.[ [ X.o.( G x p j g g g g g g f j g j g g ",
"g g g g g g g g g g g h r R o.X.X.X.o.( G x j j g g g g g g g g g g g g j x F T T Y Y T T T Y P B z g g g g j p p p p j g g g g ",
"g g g g g g g g g g g h N L ` ` ` ( ` E S z p j g g g g g g g g g g g g g g x V V V V V C V y V h g g g g g g p j z z f g g g g ",
"g g g g g g g g g g g g h C G G Z S G S z p p p g g g g g g g g g g g g g g j j h h q p j z z g j j g g g a w y A V B j g g g g ",
"g g g g g g g g g g g g g z v v n w w j j p p p p g g g g g g g g g g j g g j j a g p p g p g g g g g g g g n V i e w p g g g g ",
"g g p g p p g g p p p g g p g p p j n n x v q q x j p j p g p g p p g p p g p p g a p g g g g p p g g g a a q V y A B p p j p p ",
"c b b b b b c b b b b b c b b b c C C F G G D G G M c c b b c b b b b b c b b b b b b b c c c c b b c c c c M S G G C b c b b c ",
"W W W W ( W W W W W W W W W ( W W ( ` ( ` ` ( ` ( ( W W W W W W ( W W ( W W W W W ( W W W ( ( W ( ( W W W W W ( ' ( W W ( W W ( ",
" .X.[ [ [ X.[ X.[ X.[ X.X.[ X.[ X.[ [ X.[ [ [ } o.[ o.' [ o.[ [ [ X.[ X.X.[ [ X. . . . .[ X.[ X.[ [ X.[ [ X.[ X.X.[ X.[ [ X.[ X.",
"} } X.} [ } } [ X.` X.[ [ [ X.` } } X.[ } } } } [ X.' X.[ [ [ [ [ [ X.` } } } X.}  . .} [ [ [ [ [ [ ' X.X.} } [ } } [ } X.`  .' ",
"~ ^ ~ ~ ~ _ } X.} } ' X.X.[ [ [ ^ ^ ^ ~ ~ ^ ~ ~ ~ [ X.[ o.[ [ [ [ [ [ [ ^ ~ ^ ^ ^ ^ ^ ^ [ ` X.[ X.[ [ } X.' _ ^ ^ ~ ^ ^ ' }  . .",
"% $ % % & %.X.' [ [ [ [ ' [ X.^ @.& & & & & & & % %.} ' [ [ [ [ [ [ [ ~ #.% % % % % % & / } [ [ [ ' [ [ [ X.%.% % % $ #.^ X.' X.",
"* * + . @ @.O.O.+.+.+.+.+.+.+.$.# . O O @ @ @ O O & O.O.+.+.+.+.+.+.+.$.o * O O . o . * +.O.+.+.+.+.+.+.+.+.@.. O O O # $.+.+.+.",
"o . . o @ @ O O O O O O * . * O o o # @ # @ # O # O o o @ O @ @ * O O O . o O # . . o . * O O O O O * + @ O @ o o o O o O O * * ",
". . * o # @ O # O O o O + o . . @ # @ # @ # O # O . - . # @ # @ * o O . * . # O * o . o * . O o @ O . O o o o o o o # O # O . O ",
"* . # @ # @ # @ o o o o o o o o o o o o o o o o @ # @ # @ # @ # o o o o o o o o # @ # @ # @ # @ o o o o o o o o o o o o o o o o ",
". o @ # @ # @ # o o o o o o o o o o o o o o o o # @ # @ # @ # @ o o o o o o o o @ # @ # @ # @ # o o o o o o o o o o o o o o o o ",
"* O # @ # @ # @ o o o o o o o o o o o o o o o o @ # @ # @ # @ # o o o o o o o o # @ # @ # @ # @ o o o o o o o o o o o o o o o o ",
". o O # @ # @ # o o o o o o o o o o o o o o o o # @ # @ # @ # @ o o o o o o o o @ # @ # @ # @ # o o o o o o o o o o o o o o o o ",
"# @ # @ # @ # @ o o o o # @ # @ # @ # @ o o o o @ # @ # @ # @ # o o o o o o o o # @ # @ # @ # @ o o o o o o o o o o o o o o o o ",
"@ # @ # @ # @ # o o o o @ # @ # @ # @ # o o o o # @ # @ # @ # @ o o o o o o o o @ # @ # @ o @ # o o o o o o o o o o o o o o o o ",
"# @ # @ # @ # @ o o     o   O @ #   @ @     # o @ # @ # @ # @ # o o o o o o         o       o @ o o o o   o o o o o o o o o o o ",
"@ # @ # @ # @ # o o - - - - = = = = # - - - - - = @ # @ # @ # @ o o o o o o - - - - - - - - - = - - - - - o o o o o o o o o o o ",
"# @ # @ # O # @ # > 3 1 4 1 1 1 1 4 1 1 1 1 1 1 4 :   # @ # @ # o o @ # @ > 3 4 1 4 1 1 1 4 1 1 4 1 1 4 1 ; o o o o o o o o o o ",
"@ # @ # O o @ # @ , 8 6 5 5 8 4 4 5 5 4 0 5 8 4 4 :   O # O # @ o o # O # , 4 4 8 5 4 5 5 5 8 5 5 5 5 5 3 >   o o o o o o o o o ",
"  o o o     @   o < 3 6 5 5 4 4 5 5 5 5 5 5 5 5 3 >     @       #       o , 4 4 5 5 5 5 5 5 5 5 5 5 5 5 3 > @ o                 ",
"- - - - - - - = = < 3 6 5 5 4 8 5 5 5 5 5 5 5 5 6 > @ - = = = = - - - - = < 5 5 5 5 5 5 5 5 5 5 5 5 5 3 3 > @ = - - - - - - - - ",
"1 1 4 1 1 1 1 4 3 3 6 3 8 3 8 3 5 5 5 5 5 5 5 5 3 4 4 1 1 4 1 4 4 1 4 1 1 3 8 4 5 5 5 5 5 5 5 5 5 5 5 5 5 2 2 2 2 2 2 2 4 1 1 4 ",
"6 6 4 8 8 5 5 8 3 6 6 3 3 8 3 6 5 5 5 5 5 5 5 5 6 3 4 8 4 4 5 5 5 5 5 5 8 5 5 5 5 5 5 5 5 5 5 5 5 5 5 5 5 5 5 5 5 5 5 5 4 4 4 4 ",
"4 4 4 4 4 4 4 5 8 6 3 8 6 8 3 6 5 5 5 5 5 5 5 5 3 6 6 3 5 5 5 5 5 5 5 5 5 5 5 5 5 5 5 5 5 5 5 5 5 5 5 5 5 5 5 5 5 5 5 5 5 5 4 4 ",
"4 4 4 4 4 4 5 5 3 6 8 3 6 3 8 3 5 5 5 5 5 5 5 5 8 3 3 8 5 5 5 5 5 5 5 5 5 5 5 5 5 5 5 5 5 5 5 5 5 5 5 5 5 5 5 5 5 5 5 5 5 4 4 4 ",
"5 5 5 5 5 5 5 5 5 5 5 5 5 5 5 5 5 5 5 5 5 5 5 5 5 5 5 5 5 5 5 5 5 5 5 5 5 5 5 5 5 5 5 5 5 5 5 5 5 5 5 5 5 5 5 5 5 5 5 5 5 5 5 5 ",
"5 5 5 5 5 5 5 5 5 5 5 5 5 5 5 5 5 5 5 5 5 5 5 5 5 5 5 5 5 5 5 5 5 5 5 5 5 5 5 5 5 5 5 5 5 5 5 5 5 5 5 5 5 5 5 5 5 5 5 5 5 5 5 5 ",
"5 5 5 5 5 5 5 5 5 5 5 5 5 5 5 5 5 5 5 5 5 5 5 5 5 5 5 5 5 5 5 5 5 5 5 5 5 5 5 5 5 5 5 5 5 5 5 5 5 5 5 5 5 5 5 5 5 5 5 5 5 5 5 5 ",
"5 5 5 5 5 5 5 5 5 5 5 5 5 5 5 5 5 5 5 5 5 5 5 5 5 5 5 5 5 5 5 5 5 5 5 5 5 5 5 5 5 5 5 5 5 5 5 5 5 5 5 5 5 5 5 5 5 5 5 5 5 5 5 5 ",
"5 5 5 5 5 5 5 5 5 5 5 5 5 5 5 5 5 5 5 5 5 5 5 5 5 5 5 5 5 5 5 5 5 5 5 5 5 5 5 5 5 5 5 5 5 5 5 5 5 5 5 5 5 5 5 5 5 5 5 5 5 5 5 5 ",
"5 5 5 5 5 5 5 5 5 5 5 5 5 5 5 5 5 5 5 5 5 5 5 5 5 5 5 5 5 5 5 5 5 5 5 5 5 5 5 5 5 5 5 5 5 5 5 5 5 5 5 5 5 5 5 5 5 5 5 5 5 5 5 5 ",
"5 5 5 5 5 5 5 5 5 5 5 5 5 5 5 5 5 5 5 5 5 5 5 5 5 5 5 5 5 5 5 5 5 5 5 5 5 5 5 5 5 5 5 5 5 5 5 5 5 5 5 5 5 5 5 5 5 5 5 5 5 5 5 5 ",
"5 5 5 5 5 5 5 5 5 5 5 5 5 5 5 5 5 5 5 5 5 5 5 5 5 5 5 5 5 5 5 5 5 5 5 5 5 5 5 5 5 5 5 5 5 5 5 5 5 5 5 5 5 5 5 5 5 5 5 5 5 5 5 5 ",
"5 5 5 5 5 5 5 5 4 4 5 5 5 5 5 5 5 5 4 4 5 5 5 5 5 5 5 5 5 5 5 5 5 5 5 5 5 5 5 5 5 5 5 5 5 5 5 5 5 5 5 5 5 5 5 5 5 5 5 5 5 5 5 5 ",
"5 5 5 5 5 5 5 5 4 4 5 5 5 5 5 5 5 5 4 8 5 5 5 5 5 5 5 5 5 5 5 5 5 5 5 5 5 5 5 5 5 5 5 5 5 5 5 5 5 5 5 5 5 5 5 5 5 5 5 5 5 5 5 5 ",
"5 5 5 5 8 8 3 6 6 4 4 4 4 4 4 5 5 5 5 5 5 5 5 5 5 5 5 5 5 5 5 5 5 5 5 5 5 5 5 5 5 5 5 5 5 5 5 5 5 5 5 5 5 5 5 5 5 5 5 5 5 5 5 5 ",
"5 5 5 5 4 8 8 8 0 8 8 8 8 9 8 9 8 8 8 9 8 5 5 5 5 5 5 5 5 5 5 5 5 5 5 5 5 5 5 5 5 5 5 5 5 5 5 5 5 5 5 5 5 5 5 5 5 5 5 5 5 5 5 5 ",
"5 5 4 4 4 ,.3.3.3.3.3.3.6.6.2.5.6.6.6.6.3.>.8 8 5 5 5 5 5 5 5 5 5 5 5 5 5 5 5 5 5 5 5 5 5 5 5 5 5 5 5 5 5 5 5 5 5 5 5 5 5 5 5 5 ",
"5 4 4 4 4 ,.0.0.0.0.0.0.9.9.9.9.9.9.9.9.9.0 4 4 5 5 5 5 5 5 5 5 5 5 5 5 5 5 5 5 5 5 5 5 5 5 5 4 5 5 5 5 5 5 5 5 5 5 5 5 5 5 5 5 ",
"5 5 4 4 4 <.0.0.9.0.9.7.9.6.8.8.6.9.q.9.q.0 1 8 5 5 5 5 5 5 5 5 5 5 5 5 5 5 5 5 5 5 5 5 5 5 5 5 5 3 5 5 5 8 5 5 5 5 5 5 5 5 4 4 ",
"5 8 0 8 8 <.0.0.7.0.9.9.9.9.8.8.9.9.q.q.q.0 8 8 9 9 8 8 8 5 5 5 5 5 5 5 5 5 5 5 5 5 5 5 5 5 9 9 5 &.8 8 8 5 5 5 5 8 5 &.&.5 9 5 ",
"5 >.6.6.3.0.0.0.0.6.9.0.0.0.0.6.8.8.8.8.8.7.5.4.4.4.4.4.3.=.5 5 5 5 5 5 5 5 5 4 3 8 6 3 8 :.6.5.8.3.4.4.3.=.5 5 5 >.6.9.6.6.3.3.",
",.3.9.9.9.9.0.6.0.9.6.0.6.9.0.9.8.8.8.8.8.8.8.8.9.9.9.0.0.=.5 5 5 5 5 5 5 5 5 4 6 3 6 6 6 <.9.9.0.0.0.0.0.>.5 5 5 ,.9.9.9.9.9.9.",
"0.0.0.0.0.6.0.0.0.0.0.0.9.6.0.6.8.8.8.8.8.8.8.8.0.0.7.0.0.=.5 5 5 5 5 5 4 4 4 4 6 3 6 6 6 ,.9.8.6.0.0.0.0.0 5 5 5 ,.0.6.0.0.0.0.",
"6.0.6.0.0.9.6.9.6.9.6.9.0.0.0.9.8.8.8.8.8.8.8.8.0.7.0.9.0.>.8 9 8 8 9 9 8 8 9 8 8 8 0 8 8 ,.8.8.0.0.6.0.0.>.9 9 8 <.0.6.6.0.7.0.",
"9.0.0.6.9.0.0.6.9.6.9.6.0.0.0.6.8.8.8.8.8.8.8.8.7.0.0.0.7.3.3.3.3.0.3.3.3.3.3.3.7.7.4.4.5.8.8.8.0.6.0.6.9.6.6.6.6.6.9.6.0.0.0.6.",
"6.0.0.9.6.0.0.9.0.0.0.0.6.9.0.9.8.8.8.8.8.8.8.8.0.0.0.7.0.0.6.0.9.9.0.0.0.0.0.0.9.9.9.9.9.8.8.8.0.0.0.9.0.0.9.6.0.0.0.0.0.6.0.9.",
"9.6.9.6.9.6.9.6.0.6.9.0.9.6.0.6.8.8.8.0.9.8.8.8.7.0.7.0.0.0.0.0.6.0.6.0.0.6.0.6.0.7.0.0.8.8.8.8.6.6.9.6.6.0.6.0.0.6.9.0.9.6.0.6.",
"0.0.0.0.0.0.0.0.0.9.6.0.0.0.0.9.0.7.7.7.7.7.9.0.0.0.0.0.0.6.6.0.9.0.6.0.0.6.0.0.0.0.0.0.8.8.8.8.0.0.0.0.9.0.9.0.0.9.6.0.0.0.0.9.",
"9.6.9.6.9.6.9.6.0.6.9.0.0.0.0.6.8.,.-.&.-.<.9.7.6.0.6.0.6.0.6.0.0.0.6.9.0.9.0.0.8.8.8.8.8.8.8.8.9.6.9.6.9.6.9.6.0.6.9.0.0.0.0.6.",
"0.0.0.0.0.0.0.0.0.9.6.0.6.9.0.9.8.:.4 4 8 ,.9.9.9.0.9.0.9.0.9.0.9.6.0.0.0.6.9.6.8.8.8.8.8.8.8.8.0.0.0.0.0.0.0.0.0.9.6.0.6.9.0.9.",
"0.6.9.0.0.6.9.0.0.0.0.0.9.6.0.6.9.:.6 6 8 <.9.9.9.0.6.9.0.0.6.9.0.9.0.9.0.9.9.9.9.9.9.9.9.8.8.8.0.6.9.0.0.6.9.0.0.0.0.0.9.6.0.6.",
"0.9.6.0.0.9.6.0.6.9.6.9.0.0.0.9.9.>.-.0 -.,.7.7.3.0.0.0.9.6.0.0.0.6.0.6.0.6.6.6.6.6.6.6.6.6.8.8.0.9.6.0.0.9.6.0.6.9.6.9.0.0.0.9.",
"0.9.9.9.9.0.0.0.9.6.9.6.0.0.0.6.8.6.6.6.6.>.=.8 =.<.0.0.6.9.0.9.6.0.6.0.6.>.0 =.9 =.0 8 0 <.0.0.0.0.0.6.9.0.0.0.9.6.9.6.0.0.0.6.",
"0 2.0.0.6.0.6.9.0.0.0.0.6.9.0.9.8.8.8.9.9.>.8 4 8 ,.6.0.0.0.0.6.9.0.9.0.9.>.8 6 5 5 8 8 0 <.0.9.6.9.0.9.6.0.6.9.0.0.0.0.6.9.0.9.",
"4 <.0.6.9.0.9.6.0.6.9.0.9.6.0.6.8.8.8.9.9.=.8 4 8 <.0.0.6.9.6.0.0.0.6.9.0.>.8 4 5 5 5 8 9 <.0.6.9.6.0.6.9.0.9.6.0.6.9.0.9.6.0.6.",
"4 <.9.9.6.0.0.0.0.9.6.0.0.0.0.9.8.8.8.9.9.>.4 8 8 <.9.6.0.0.9.0.9.6.0.0.6.>.4 4 5 5 5 5 9 <.0.0.0.0.0.9.6.0.0.0.0.9.6.0.0.0.0.9."
};
