/* XPM */
static char *b765f21e169c4dd4aa06290d7f272880qKfveO2K1s5ma2kR[] = {
/* columns rows colors chars-per-pixel */
"64 64 19 1 ",
"  c #ECDB8E",
". c #EDDC8E",
"X c #E8D78C",
"o c #D2C37E",
"O c #CDBE7C",
"+ c #CEBF7C",
"@ c #CCBE7B",
"# c #D1C27E",
"$ c #CFC07C",
"% c #D6C681",
"& c #E9D88C",
"* c #E4D489",
"= c #EBDA8E",
"- c #EEDC8F",
"; c #EEDD8F",
": c #CCBD7B",
"> c #E5D48A",
", c #D5C680",
"< c white",
/* pixels */
"                                  .XoO++++OoX.                  ",
"                                  .XoO++++OoX.                  ",
"                                  .XoO++OO@#X.                  ",
"                                  .XoO+$#o#%&.                  ",
"                                  .XoOO#*&X&=                   ",
"                                  .XoOOo&-..                    ",
"                        ....      .X#@@#X.      ....            ",
"                       =&XX&=     .&%##%&.     =&XX&=           ",
"                      .&%##%&.     =&XX&=     .&%##%&.          ",
"                      .X#@@#X.      ....      .X#@@#X.          ",
"                    ..-&oOOo&-..              .X#@@#X.          ",
"                   =&X&*#OO#*&X&=             .&%##%&.          ",
"                  .&%#o#$++$#o#%&.             =&XX&=           ",
"                  .X#@OO++++OO@#X.              ....            ",
"            ......-&oO++++++OO@#X.                              ",
"           =&XXXXX&*#O+++++$#o#%&.                              ",
"          .&%#ooooo#$+++++O#*&X&=                               ",
"          .X#@OOOOOO++++++Oo&-..                                ",
"          .X#@OOOOOO++++OO@#X.  ....                ....        ",
"          .&%#ooooo#$++$#o#%&. =&XX&=              =&XX&=       ",
"           =&XXXXX&*#OO#*&X&= .&%##%&.            .&%##%&.      ",
"            ......-&oOOo&-..  .X#@@#X.            .X#@@#X.      ",
"                  .X#@@#X.  ..;&#:@#X.            .X#@:#&;..    ",
"                  .&%##%&. =&X&>,##%&.            .&%##,>&X&=   ",
"                   =&XX&= .&%##,>&X&=              =&X&>,##%&.  ",
"                    ....  .X#@:#&;..                ..;&#:@#X.  ",
"                          .X#@:#&;..                  .X#@@#X.  ",
"                          .&%##,>&X&=                 .&%##%&.  ",
"                           =&X&>,##%&.                 =&XX&=   ",
"                            ..;&#:@#X.                  ....    ",
"                              .XoOOo&-..                    ....",
"                              .XoOO#*&X&=                  =&XXX",
"                              .XoO+$#o#%&.                .&%#oo",
"                              .XoO++OO@#X.                .X#@OO",
"                              .XoO++OO@#X.                .XoO++",
"                              .XoO+$#o#%&.                .XoO++",
"                              .XoOO#*&X&=                 .XoO++",
"                              .XoOOo&-..                  .XoO++",
"                            ..;&#::#&;..                  .X#@OO",
"                           =&X&>,##,>&X&=                 .&%#oo",
"                          .&%##,>&&>,##%&.                 =&XXX",
"                          .X#@:#&;;&#:@#X.                  ....",
"            ....          .X#@:#&;-&oOOo&-..            ....    ",
"           =&XX&=         .&%##,>&&*#OO#*&X&=          =&XX&=   ",
"          .&%##%&.         =&X&>,#o#$++$#o#%&.        .&%##%&.  ",
"          .X#@@#X.          ..;&#:OO++++OO@#X.        .X#@@#X.  ",
"        ..;&#:@#X.            .X#@OOOOOOOO@#X.      ..;&#:@#X.  ",
"       =&X&>,##%&.            .&%#oooooooo#%&.     =&X&>,##%&.  ",
"      .&%##,>&X&=              =&XXXXXXXXXX&=     .&%##,>&X&=   ",
"      .X#@:#&;..                ............      .X#@:#&;..    ",
"      .X#@:#&;..                                  .X#@@#X.      ",
"      .&%##,>&X&=                                 .&%##%&.      ",
"       =&X&>,##%&.                                 =&XX&=       ",
"        ..;&#:@#X.                                  ....        ",
"          .X#@@#X.                                              ",
"          .&%##%&.                                              ",
"           =&XX&=                                               ",
"            ....                                                ",
"                    ....            ........                    ",
"                   =&XX&=          =&XXXXXX&=                   ",
"                  .&%##%&.        .&%#oooo#%&.                  ",
"                  .X#@@#X.        .X#@OOOO@#X.                  ",
"                  .XoOOoX.        .XoO++++OoX.                  ",
"                  .XoOOoX.        .XoO++++OoX.                  "
};
