/* XPM */
static char *_03649b4a0024706845c55b833ca893fcVbSLr7uIL6uX5dl[] = {
/* columns rows colors chars-per-pixel */
"48 48 5 1 ",
"  c None",
". c #7D5643",
"X c #DD6239",
"o c #985046",
"O c #FF8628",
/* pixels */
"                                                ",
"                                                ",
"                                                ",
"                                                ",
"                                                ",
"                                                ",
"                                                ",
"                                                ",
"                                                ",
"                              ooo...            ",
"                              ooo...            ",
"                              ooo...            ",
"                        oooXXXOOO...            ",
"                        oooXXXOOO...            ",
"                        oooXXXOOO...            ",
"            oooooooooXXXOOOOOOOOOXXX...         ",
"            oooooooooXXXOOOOOOOOOXXX...         ",
"            oooooooooXXXOOOOOOOOOXXX...         ",
"            oooXXXOOOOOOOOOOOOOOOOOOooo         ",
"            oooXXXOOOOOOOOOOOOOOOOOOooo         ",
"            oooXXXOOOOOOOOOOOOOOOOOOooo         ",
"               ...XXXOOOOOOOOOOOOXXXXXXooo      ",
"               ...XXXOOOOOOOOOOOOXXXXXXooo      ",
"               ...XXXOOOOOOOOOOOOXXXXXXooo      ",
"                  XXXOOOOOOOOOOOOXXXXXXXXXooo   ",
"                  XXXOOOOOOOOOOOOXXXXXXXXXooo   ",
"                  XXXOOOOOOOOOOOOXXXXXXXXXooo   ",
"               oooXXXXXXXXXOOOXXXooo......ooo   ",
"               oooXXXXXXXXXOOOXXXooo......ooo   ",
"               oooXXXXXXXXXOOOXXXooo......ooo   ",
"            oooXXXoooooo...XXXXXXooo            ",
"            oooXXXoooooo...XXXXXXooo            ",
"            oooXXXoooooo...XXXXXXooo            ",
"            .........      ...XXX...            ",
"            .........      ...XXX...            ",
"            .........      ...XXX...            ",
"                              ......            ",
"                              ......            ",
"                              ......            ",
"                                                ",
"                                                ",
"                                                ",
"                                                ",
"                                                ",
"                                                ",
"                                                ",
"                                                ",
"                                                "
};
