/* XPM */
static char *_456c41804fe4d4cee03ebaf6ec7686a8Syu7gaoBRj0uDQb[] = {
/* columns rows colors chars-per-pixel */
"64 64 63 1 ",
"  c #425BA9",
". c #425AA8",
"X c #425FAC",
"o c #3F76BB",
"O c #3F7BBF",
"+ c #3F7ABE",
"@ c #4259A8",
"# c #425FAB",
"$ c #3F76BC",
"% c #3F7CBF",
"& c #3F77BC",
"* c #4159A8",
"= c #4158A7",
"- c #415DAB",
"; c #3F7BBE",
": c #425AA9",
"> c #4162AE",
", c #4073B9",
"< c #4072B9",
"1 c #415FAC",
"2 c #4260AC",
"3 c #4765AF",
"4 c #4866B0",
"5 c #4865B0",
"6 c #4865AF",
"7 c #4668B2",
"8 c #4077BC",
"9 c #3F79BE",
"0 c #425CA9",
"q c #3E75BB",
"w c #457BBF",
"e c #6198D1",
"r c #679FD5",
"t c #669ED4",
"y c #6199D1",
"u c #447FC1",
"i c #3E79BD",
"p c #4163AE",
"a c #425EAB",
"s c #3E7ABE",
"d c #4581C3",
"f c #67A4D8",
"g c #6EABDD",
"h c #6DAADC",
"j c #4580C2",
"k c #67A3D8",
"l c #6EAADD",
"z c #6DA9DC",
"x c #619CD4",
"c c #66A2D7",
"v c #66A1D7",
"b c #669ED5",
"n c #407BBF",
"m c #4581C2",
"M c #457DBF",
"N c #4769B2",
"B c #3E74BA",
"V c #405DAB",
"C c #3D78BC",
"Z c #629DD4",
"A c #4985C5",
"S c #6CA8DB",
"D c white",
/* pixels */
"  .XoOOoX.    .XoO++++OoX.        .XoO++++OoX.                  ",
"  .XoOOoX.    .XoO++++OoX.        .XoO++++OoX.                  ",
"..@#$%%&X.    .X&%OOOO%$#@..******=-oO++;O%&X.              :...",
"XX#>,$&<#:    :#<&oooo$,>#12345555678;+9$o&<#:             0#XXX",
"oo$,>#X#0      0#XXXXX#>,$qwerttttryui;$paX#0             :#<&oo",
"OO%$#@.:        :.....@#$%sdfghhhhgfjiOoa@.:              .X&%OO",
"OO%&X.                .X&%sdfghhhhgfjiOoa@.....:        :.@#$%OO",
"oo&<#:                :#<&qwerttttryui;$paXXXXX#0      0#X#>,$oo",
"XXX#0                  0#X12345555678;+9$ooooo&<#:    :#<&$,>#XX",
"...:                    :...******=-oO++;OOOOO%&X.    .X&%%$#@..",
"....********...:            :.....@#$%OOOOOOOO%$#@....@aoOOoa@..",
"XX123455554321X#0          0#XXXXX#>,$oooooooo$,>#XXXXap$;;$paXX",
"ooqwerttttrewq&<#:        :#<&oooo$,>#XXXXXXXX#>,$ooooo$9++9$ooo",
"OOsdfghhhhgfds%&X.        .X&%OOOO%$#@........@#$%OOOOO;++++;OOO",
"OOsdfghhhhgfds%$#@........@#$%OOOO%&X.        .X&%OOOOO;++++++++",
"ooqwerttttrewq$,>#XXXXXXXX#>,$oooo&<#:        :#<&ooooo$9+++++++",
"XX123455554321#>,$oooooooo$,>#XXXXX#0          0#XXXXXap$;++++++",
"....********..@#$%OOOOOOOO%$#@.....:            :.....@aoO++++++",
"              .X&%OOOOOOOO%&X.              :...******=-oO++;OOO",
"              :#<&oooooooo&<#:             0#X12345555678;+9$ooo",
"               0#XXXXXXXXXX#0             :#<&qwerttttryui;$paXX",
"                :..........:              .X&%sdfghhhhgfjiOoa@..",
"********...:                            :.@aoOijfghhhhgfjiOoa@..",
"5555554321X#0                          0#Xap$;iuyrttttryui;$paXX",
"ttttttrewq&<#:                        :#<&o$9+;8765555678;+9$ooo",
"hhhhhhgfds%&X.                        .X&%O;++Oo-=****=-oO++;OOO",
"hhhhhhgfds%$#@..****************......@#$%OOOO%&X.    .X&%OOOOOO",
"ttttttrewq$,>#12345555555555554321XXXX#>,$oooo&<#:    :#<&oooooo",
"5555554321#>,$qwerttttttttttttrewqoooo$,>#XXXXX#0      0#XXXXXXX",
"********..@#$%sdfghhhhhhhhhhhhgfdsOOOO%$#@.....:        :.......",
"          .XoOijklzzhhhhhhhhhhgfdsOOOO%$#@.....:                ",
"          .XoOiuxkcvbtttttttttrewqoooo$,>#XXXXX#0               ",
"          .XoO+nujmMN6555555554321XXXX#>,$oooo&<#:              ",
"          .XoO++iisBV=**********......@#$%OOOO%&X.              ",
"    :.....@#$%OOOO%&X.                .X&%O;++Oo-=******...:    ",
"   0#XXXXX#>,$oooo&<#:                :#<&o$9+;87655554321X#0   ",
"  :#<&oooo$,>#XXXXX#0                  0#Xap$;iuyrttttrewq&<#:  ",
"  .X&%OOOO%$#@.....:                    :.@aoOijfghhhhgfds%&X.  ",
"**=-oO++;O%&X.                            .XoOijklzzzzlkjiOo-=**",
"55678;+9$o&<#:                            .XoOiuxkcccckxui;87655",
"ttryui;$paX#0                             .XoO+nujjjjjjun+iuyrtt",
"hhgfjiOoa@.:                              .XoO++iiiiiiii++ijfghh",
"hhgfds%$#@......********************......@aoO++;OOOOOOOOOsdfghh",
"ttrewq$,>#XXXX123455555555555555554321XXXXap$;+9$oooooooooqwertt",
"554321#>,$ooooqwerttttttttttttttttrewqooooo$9+;$paXXXXXXXX123455",
"****..@#$%OOOOsdfghhhhhhhhhhhhhhhhgfdsOOOOO;++Ooa@..........****",
"      .X&%OOOOsdfghhhhhhhhhhhhhhzzlkuCii++++;O%&X.              ",
"      :#<&ooooqwertttttttttttttbvckZAujun++9$o&<#:              ",
"       0#XXXXX12345555555555556NMmuAZkkxui;$paX#0               ",
"        :.......**************=VBsCukllkjiOoa@.:                ",
"                            :.@#$%sdfggfjiOoa@.........:        ",
"                           0#X#>,$qwerryui;$paXXXXXXXXX#0       ",
"                          :#<&$,>#1234678;+9$ooooooooo&<#:      ",
"                          .X&%%$#@..**=-oO++;OOOOOOOOO%&X.      ",
"...:                :.....@#$%%&X.    .X&%OOOOOOOOO;++Oo-=******",
"XXX#0              0#XXXXX#>,$&<#:    :#<&ooooooooo$9+;876555555",
"oo&<#:            :#<&oooo$,>#X#0      0#XXXXXXXXXap$;iuyrtttttt",
"OO%&X.            .X&%OOOO%$#@.:        :.........@aoOijfghhhhhh",
"++Oo-=**********..@#$%OOOO%&X.              :.....@#$%sdfghhhhhh",
"++;876555555554321#>,$oooo&<#:             0#XXXXX#>,$qwertttttt",
"++iuyrttttttttrewq$,>#XXXXX#0             :#<&oooo$,>#1234555555",
"++ijfghhhhhhhhgfds%$#@.....:              .X&%OOOO%$#@..********",
"++ijczSSSSSSSSzcjiOoX.                    .XoO++++OoX.          ",
"++ijczSSSSSSSSzcjiOoX.                    .XoO++++OoX.          "
};
