/* XPM */
static char *a75e4cdd1f594d65906eb6e80b2a85eaPM8zr0qErVYtGwlD[] = {
/* columns rows colors chars-per-pixel */
"64 64 60 1 ",
"  c None",
". c #473535",
"X c #493737",
"o c #4A3837",
"O c #4C3939",
"+ c #523E3E",
"@ c #54403F",
"# c #553F40",
"$ c #564141",
"% c #5B4544",
"& c #5E4846",
"* c #5F4848",
"= c #644C4B",
"- c #694F4E",
"; c #66524D",
": c #69514F",
"> c #6C5251",
", c #6D5B52",
"< c #725655",
"1 c #725855",
"2 c #755758",
"3 c #775959",
"4 c #7A5C5B",
"5 c #736156",
"6 c #7E615E",
"7 c #7C685D",
"8 c #80625F",
"9 c #806A5F",
"0 c #836562",
"q c #866964",
"w c #896B66",
"e c #8D6D69",
"r c #857163",
"t c #8A7067",
"y c #897866",
"u c #8E726A",
"i c #8C7868",
"p c #93736E",
"a c #92796D",
"s c #967570",
"d c #987771",
"f c #977B71",
"g c #9A7B73",
"h c #978471",
"j c #9D8275",
"k c #9E8B76",
"l c #A08477",
"z c #A08E77",
"x c #A18578",
"c c #A48B7A",
"v c #A88F7D",
"b c #A6917C",
"n c #AA937E",
"m c #AD9680",
"M c #AF9982",
"N c #B19D84",
"B c #B6A487",
"V c #B7A588",
"C c #B8A688",
"Z c #C5B698",
/* pixels */
"                                                                ",
"                                                                ",
"                                                                ",
"                           $%%                                  ",
"                         O+,pp=@OX                              ",
"                       .$tknNNbkw XX                            ",
"                      o1imVVBBBBMby7=...                        ",
"                     *,jVBBBBBBBVVVMq,,=                        ",
"                   O+qMVBBVBNVBVBBBBBBNp&                       ",
"                   &0cBVBBBBVBBVBBBBBBlp8+                      ",
"                   :pgjxNCBBVVVVBBMjjg1&%O                      ",
"                  #4sepscvmBBBVVBna1<,+XXX                      ",
"                  $0sqpsspjmmNCNbq,X.XXXXXX                     ",
"                  %0spsssssssmVVw+XXXXXXXXX                     ",
"                  %0sssssssssgNZ;XXXXXXXXXX                     ",
"                  =00psssssssdxN%.XXXXXXXXXX                    ",
"                 +<02esssssssssl=.XXXXXXooXX                    ",
"                 +0e4esssssssssp<#XXXXXXoooX                    ",
"                 $0pppsssssssssp<XXXXXXXoooX                    ",
"                 $8psssssssssssp2XXXXXXXo.XXX                   ",
"               .X+4esssssssse0pp3%ooXXXXoo.oX                   ",
"              &&&-80epssssssw8we4>XoXXXX.oooX                   ",
"            O$qgpgse4pggsdssss0e4>XXXXXXXX.oX                   ",
"         XX&0kNNNNNNNNNNNmssssp84>XXXXXXXX.oX                   ",
"       .+4qhbNCBBBBBBBBBBBcpssp43>XXXXXXXXX.=&..                ",
"       ;7xnBCBVBBBBBBBBBCBNcjpp83<#XXXXXO=:-rr5:                ",
"     +$pBBBBBBBBBBBBBCBBBBBBcgp433-..#%#;gggmVNg;&@             ",
"    O-4bBVBBBBVBBBBBBBBBBBBBBBw333-.X4ssgNBBVVVBNn6@O           ",
"    &0pgxBVBBBBBBBBBBBCBBBBBBBq333-o:kNMNBBBBBBBVBbzp=          ",
"   $4pssdxnBBVBBBBBBBBBBBBBCBBq2-3>-qmVVBBBBBBBBVBVMj=          ",
"   &0epsspjmNBBVBBBBCBBBBBBBBBq<*230smVVBBBBBBBBBBnh6&          ",
"   &43essssscBBBBBBCBBBBBBBBBNq2<<30smNNBBBBBBBBBnu1XXX         ",
"   =42esssssdmVVBBBVBBBBBBVVVs4<##20sddgMVVBBBNNgw$#XXXX        ",
"  #4eepssssssgNVBBBBBBBBBVVmp-><O%wpssdggmVBBVmg:%..XXXX        ",
"  =0sssssssssscNBVBBBBBBNnmj3+-2=>sssssspdmMVm7<OX.XXXXX        ",
"  #0sspssssssssmBBBBVNNNvw0q=o-438epsssssspjMp$XXXXXXXXXO       ",
"  &0pp0esssssssdNBNNNxssq+OOOX>34w4wsssssssdd:XXXXXXXXXXO       ",
" #4q8epsssssssssxvqqpq462OXX.o>38e30sssssssss4#XXXXXXXXX.O      ",
" #0e8wsssssssssppz328q422%OXoo%2wpwesssssssss6#XXXXXXXXXO.      ",
" #0seessssssssspqa4240444-oX.oo<pssssssssssdd6#XXXXXXXXX.O      ",
" $8pspssssssssse423333424-.O.OO2psssssssssssd6#X.OXX.OXXXXX     ",
" $3qs0esssssssp8323333334-O.O.O0ssssssssdssdd6$XXXXXXXXOOOOOO   ",
" $20sppsssssssp8442333334<=O.OO4psssssssmNmmge4#.O.XXX.O6hhh7.  ",
" $4esssssspessp42233333324=.XXO2psssddgmNNVCmmd<O.OXXXO>cVCCC7% ",
" #8ssssssseqsse43433333334=..oo<psssppmCCVVVNCms>%XX.o#enBBBVc= ",
" #8sssssssssss833333433324-OooO,psss0emMCNCCVCVNM7OXoo>sjBBBBM; ",
" $8ssssp0psssp833333333333<*o.X%esss0edgNNCNVVVNMqO.oo7pupBBbf= ",
" #8ssspqepssss8333333333324=ooOO8psew0psmNCCNCVmf=.Ooo=e06up5=@X",
" $0ssse4psssse4433333322442=XX.O3sdqqeesdmVCVMv0,O.oXXO<3332%..o",
" $0sse22wssss02433333342<22=O$$%3ep66esdsjMNMf0$oo.oXOOO>333=OX.",
" #8ss-OO&ppsp8244333334>#24=<ppe4q6O#-edsdddd:#.X.ooO=#X#2333$oX",
" O=qq%.XO$<ss022333333<*>4ewjMMmmj>..#0sssse>OXXXoo$4w2OO%33=OX ",
"  %4w=XXXX$4w4433>-3332#3000cVBBVm2.OO3ssssq%XXXXX.-udq-.#%*#.  ",
"  >0w>XXXXX#<3334>=333>#<e6qcVBVBk1X.O=esssq%XXXXX.>dsd6$XXo.   ",
"  >pp0#.XXXX=433333333#.%0pmNVVBM6XXO.O0de00%XXXXXX>esse2O      ",
" &ewep4+XXX.=333333332#O>8e0tmBju$XX.oO2sdw-OXXXXXo*-6dp<O      ",
"+>00pse-OXXX+>33<%#-43-#<8w2wgj,&XXXXXX%0se=o.XX.oOO#*==$       ",
"#226pep4OXXXX-42-=%%>3-=26e0ede$.XXXXXXO=6w=ooXXoooo  ..        ",
"+>24w0e4OXXX.=>--w6=*>#-<6ssddp$.XOXXXXXo%6%oXXXo.o             ",
" #<0ppt3+XXXXo++qpq=XOXO#4ssssu$.XXXXXXX  OO.X                  ",
"  #$%%%+OXXX    %%$Oo    -ssqes$oXooXXXX                        ",
"                         %>-=-:#XX.oXXO                         ",
"                          ..o..XXXO..OX                         ",
"                                                                "
};
