/* XPM */
static char *_19715345e2046978d5cc61f386b9796DVbcvsmWQr9d6t4l[] = {
/* columns rows colors chars-per-pixel */
"48 48 182 2 ",
"   c None",
".  c #A24F02",
"X  c #A65302",
"o  c #AA5505",
"O  c #AB5A03",
"+  c #AD5409",
"@  c #AF5C08",
"#  c #B15D04",
"$  c #B05709",
"%  c #B55B0A",
"&  c #B95E0C",
"*  c #B56400",
"=  c #B76800",
"-  c #BB6C01",
";  c #B3630A",
":  c #BD610E",
">  c #B96B09",
",  c #BF6410",
"<  c #BF7217",
"1  c #C1630F",
"2  c #C37403",
"3  c #C77904",
"4  c #CB7C02",
"5  c #C3750B",
"6  c #C7790F",
"7  c #CB7E0A",
"8  c #C46511",
"9  c #CB6711",
"0  c #C56B12",
"q  c #CC6B14",
"w  c #CF6D18",
"e  c #CB7415",
"r  c #C57915",
"t  c #C97C13",
"y  c #CA7F1C",
"u  c #D17417",
"i  c #D17B17",
"p  c #D17219",
"a  c #D57B19",
"s  c #C17222",
"d  c #C67B21",
"f  c #CF8104",
"g  c #CF820D",
"h  c #D18405",
"j  c #D38609",
"k  c #D5890B",
"l  c #DA8D0F",
"z  c #CF8313",
"x  c #CF8318",
"c  c #D18613",
"v  c #D78B11",
"b  c #DB8F12",
"n  c #D28419",
"m  c #DA841B",
"M  c #D48A1C",
"N  c #DD8B1D",
"B  c #DD9215",
"V  c #DC921D",
"C  c #E09517",
"Z  c #E1941D",
"A  c #E59A1D",
"S  c #CC8325",
"D  c #CA812A",
"F  c #D58C22",
"G  c #DF8D20",
"H  c #D58E2E",
"J  c #DB9325",
"K  c #D9912D",
"L  c #D28C3C",
"P  c #D99233",
"I  c #DF9832",
"U  c #DB963C",
"Y  c #DE983E",
"T  c #E39720",
"R  c #E69C21",
"E  c #E89E22",
"W  c #E59D2C",
"Q  c #E89F29",
"!  c #E19A35",
"~  c #E29C39",
"^  c #E8A02F",
"/  c #E9A233",
"(  c #EBA53C",
")  c #DC9545",
"_  c #DE9A45",
"`  c #DE9B4B",
"'  c #DC8F57",
"]  c #D08C5B",
"[  c #DF9D58",
"{  c #E09E4E",
"}  c #E19F52",
"|  c #E4A045",
" . c #EBA643",
".. c #E4A048",
"X. c #EAA74F",
"o. c #ECA94C",
"O. c #E4A255",
"+. c #EEAB51",
"@. c #E2A15A",
"#. c #EEAD5A",
"$. c #F0AF5E",
"%. c #E29765",
"&. c #E59B66",
"*. c #E3956E",
"=. c #E49868",
"-. c #E4A564",
";. c #E7A867",
":. c #EDAD61",
">. c #E5A66A",
",. c #ECA76A",
"<. c #E7A86A",
"1. c #EAAB6B",
"2. c #EFB16F",
"3. c #F1B164",
"4. c #F2B36C",
"5. c #EBAE74",
"6. c #EBAE79",
"7. c #EEB175",
"8. c #EDB17D",
"9. c #F3B674",
"0. c #F2B67A",
"q. c #F5B97E",
"w. c #E5968A",
"e. c #E6998D",
"r. c #E99E92",
"t. c #EEB382",
"y. c #EFB689",
"u. c #F0B683",
"i. c #F5BA81",
"p. c #F1B78B",
"a. c #F4BA8A",
"s. c #EAA196",
"d. c #EEA992",
"f. c #ECA59A",
"g. c #EDA89D",
"h. c #F3BA94",
"j. c #F8BF94",
"k. c #F4BE9C",
"l. c #F0AFA5",
"z. c #F1B1A6",
"x. c #F6BFA0",
"c. c #F3B5AB",
"v. c #F5B9AF",
"b. c #F6BBB2",
"n. c #F8C096",
"m. c #F9C29B",
"M. c #F6C0A2",
"N. c #F9C2A2",
"B. c #F7C2A8",
"V. c #F9C5AC",
"C. c #FBC6B4",
"Z. c #FCC9B4",
"A. c #F9C1B8",
"S. c #FAC4BB",
"D. c #FBC5BD",
"F. c #FCC7BF",
"G. c #FBC4BB",
"H. c #FBC9B9",
"J. c #FDCABA",
"K. c #FCCABC",
"L. c #FCCABE",
"P. c #FCCABB",
"I. c #FDCBC3",
"U. c #FCC8C0",
"Y. c #FDCDC3",
"T. c #FECDC1",
"R. c #FECCC4",
"E. c #FECEC5",
"W. c #FFCEC6",
"Q. c #FFCEC7",
"!. c #FFCFC7",
"~. c #FECEC6",
"^. c #FECDC5",
"/. c #FFCFC8",
"(. c #FFCFC9",
"). c #FFCFCA",
"_. c #FFCFC8",
"`. c #FFD0C8",
"'. c #FFD0CA",
"]. c #FFD0CB",
"[. c #FFD1CD",
"{. c #FFD0CB",
/* pixels */
"                                                                                                ",
"                                                                                                ",
"                                    r.r.r.r.r.r.r.r.r.r.s.r.                                    ",
"                            w.w.w.r.c.b.b.b.b.b.b.b.b.b.b.z.) 4 4 4                             ",
"                          s.g.g.g.l.S.W.W.'././.`.W.Y.N.n.0.I j h j h                           ",
"                      e.e.z.S.F.S.F.W.W.'.W././.W.W.V.$./ / R A W R V v z z                     ",
"                    g.c.v.A.W.'.W.W.W.'.'.[.[.[.'.N.3./ A A A  .0.i.8.1.<...z                   ",
"                  s.c.I.W.W.W.W.W.'./.C.h.h.h.h.h.:.T C A E ( q.Z.`.Y.Y.~.y.U                   ",
"                s.v.I.W.W.`.W.W.`.Y.L.t.U H K P P F j j l ^ 0.V./.)./././.K.y.U                 ",
"              f.c.F.W.W.W./.[.'.M.7.1.-.O.O.O.@.@.@.` M h V O.h./.[.)./././.K.6._               ",
"            w.l.U.W.W.W.W.P.V.B.-.y t [ B.V.m.N.m.N.p.K 3 3 z ` x.V.C.W./.~.~.U.5.c             ",
"            w.z.W.W.W.W.Y.p.` Y y O O ] V.q.#.#.#.3.X.M - O O < P _ 5.P./././.).6.c             ",
"            g.b.I.W.W.K.h._ 7 - # o + ] N.+.A E E A A j - . X O - 4 P t.C.'.W.N.6.{ F           ",
"          s.b.I.W././.B._ g 2 O # 8 0 %.m.+.A A A E C j = X & & O - g K h.`.V.3.:.u.Y 4         ",
"          s.A.`.W.W.[.B.H - * % 0 m G ,.N.+.A A R ^ A g = o e e % # = c p.V.4./ ( #.J 4         ",
"          s.A.W.W.W.C.t.S * @ 0 m A R 5.N.o.A E A A A j * O x N e % # r >.4.W A R A j 4         ",
"          s.A.W.'.U.t.H ; $ 0 m T E E 4.N.+.E A E E C j = O x R N q % @ y J R R R A k f         ",
"        f.c.K.W.'.~.<.5 X $ e G E A R 4.N.+.A E ^ A A j = O x R R a & X - k A R A ^ ..`         ",
"      e.z.U.W.W.W.V.} 5 o % u Z R A R 9.N.+.A A A E A j * O x ^ T a : o = j Z R A ^ 0.<.c       ",
"      e.z.W.'.'.V.@.y # & e N R R R R 4.m.+.A A A E A h * O c A R Z i : # - k V A ^  .~ j       ",
"      e.z.~.'.'.B.H * X 1 m R R R R R 4.N.+.A ^ R R A j * o x ^ R R N 9 o O f B ^ A A B h       ",
"      e.z.U.W.'.k.H ; X 8 m T R R A R 4.N.+.A A R R A j = O x A R R N 9 o O 7 B E A A b h       ",
"      e.z.~.'.'.M.H * o e Z R R R A E 4.N.+.A R R R A f * O x ^ E R A n @ O 4 B E A ^ B f       ",
"      e.z.U.'.'.M.H * O n R R R R A R 9.N.+.A E A ^ A j = O z A A R R V ; O f B E A A B f       ",
"      e.z.I./.'.x.H * o M R R R A A ^ 4.N.+.A A A E A j = O x ^ E R E N ; O 7 B R R R b f       ",
"      w.z.I./.'.B.H * o t V R E E E A 4.N.+.A R ^ A A j = o x A R E Z m @ O 4 C R R R B f       ",
"      e.z.I./.'.x.H * X 8 m Z T A A A 4.N.+.A R A E C j * O x A T Z N 0 o O 4 C R R R B h       ",
"      e.z.I./.'.x.H * X , w u a N A ^ 4.N.+.A R A E A j = O x V a a u 8 o O 4 B R R R B f       ",
"      e.c.I.W./.V.@.d @ & 8 q q a m N :.m.+.R A R R A j = o r m w 9 9 : # - j Z R R R B f       ",
"      e.l.I.W.W.Y.V.@.5 o % 9 q w u p &.N.+.A R R R Z j = X , q q q : o = g A R R R R b f       ",
"        f.c.F.W.'.W.<.5 X $ 9 q q 9 q =.N.+.A R R R A j * o & q q q % X - l A R R A B j         ",
"          s.A.W.W.I.t.H ; # 1 q q 9 q =.N.+.A A R E A j = X : q 9 8 % O 3 l R R A A k 4         ",
"          s.A.W.W.W.C.8.S * % 8 q 9 q =.N.+.A R R R A j = X : q 9 $ # 2 v A R R R T k 4         ",
"          s.A.`.W.W.[.B.H - # % , 9 w =.N.+.R R R R A j = X : 8 % # = f B R R R  .#.J 4         ",
"          s.b.I.W.W.'.B._ g - # % 1 8 ' p. .A A A A B j = X % & # - g M T R R R +.t.U 4         ",
"            g.b.W.W.W.K.h...f - # o + s P N k j j k k f = . X O - 3 P 1. .A R R W ) H           ",
"            e.l.I.W.W./.~.y.` Y d O O * - - - = - - = - * O O < P { 6.B.#.A A R B f             ",
"            e.l.U.W.W./.~.H.V.B.-.x 6 > X X X X X X O X * 6 t ` k.V.P.Z.#.E W R v f             ",
"              f.c.U./.W.W.W.[.].M.7.<.L > * * * = = * * D -.5.h.W.[.[.Z.o. .4.! k               ",
"                s.v.K.W.`.`.'.~.Y.`.L.t.P H F j f h g F <.H.~.Y.W.W.L.n.3.3.0.U                 ",
"                  s.v.I.W.W.W.W.W.'./.C.x.h.#.R B B W 7.C.W././.W.Y.j.#.q.5.U                   ",
"                    g.c.c.A.W././.W.'.[.W.n.+.^ A ( 9.Z./././.[.Y.n.o.J ..} c                   ",
"                      e.r.z.A.U.F.J.Z.Z.m.o./ / ( 9.C.'./.W.C.B.h.o.V h g z                     ",
"                          s.g.g.g.d.,.+.o./ o.a.n.V.W././.C.;.Y U N h                           ",
"                            w.w.e.*.K C B B ..8.u.t.t.t.t.6.P 7 4 4                             ",
"                                    j 4 h f c M F M M F M M                                     ",
"                                                                                                ",
"                                                                                                "
};
