/* XPM */
static char *_e8a8c3d730745afd010059add16dd90nl88Sf5E5e3K5jMx[] = {
/* columns rows colors chars-per-pixel */
"192 32 235 2 ",
"   c None",
".  c #050403",
"X  c #0C0500",
"o  c #0E0901",
"O  c #181512",
"+  c #301706",
"@  c #3D2A1D",
"#  c #2B231D",
"$  c #3C2E24",
"%  c #35312E",
"&  c #3C352E",
"*  c #343332",
"=  c #3A3532",
"-  c #3D3835",
";  c #4B260C",
":  c #542303",
">  c #5B2803",
",  c #462915",
"<  c #442C1C",
"1  c #492C17",
"2  c #562F15",
"3  c #5D3C1E",
"4  c #573318",
"5  c #48301E",
"6  c #632C03",
"7  c #6A2E02",
"8  c #6B3409",
"9  c #753808",
"0  c #6B3D15",
"q  c #643D1C",
"w  c #6A3F1A",
"e  c #643713",
"r  c #733E12",
"t  c #612F10",
"y  c #4B392C",
"u  c #483527",
"i  c #553A23",
"p  c #593C22",
"a  c #543D2D",
"s  c #5A3C27",
"d  c #433933",
"f  c #4C3C32",
"g  c #433A35",
"h  c #513E32",
"j  c #623A21",
"k  c #461E03",
"l  c #764801",
"z  c #6C411A",
"x  c #724115",
"c  c #7B461A",
"v  c #7C5008",
"b  c #554033",
"n  c #5C4332",
"m  c #5B463B",
"M  c #6B4528",
"N  c #784928",
"B  c #634633",
"V  c #6A4A37",
"C  c #87430B",
"Z  c #9C4A00",
"A  c #9C4D0A",
"S  c #834513",
"D  c #81491C",
"F  c #8C4C15",
"G  c #8D5313",
"H  c #A14D03",
"J  c #A04F0A",
"K  c #A45201",
"L  c #AC5506",
"P  c #AD5A03",
"I  c #A3510D",
"U  c #AD5609",
"Y  c #AF580C",
"T  c #B35D05",
"R  c #B45B0B",
"E  c #B95D0C",
"W  c #B15708",
"Q  c #A65514",
"!  c #AB5A1C",
"~  c #A85715",
"^  c #B65E14",
"/  c #B36202",
"(  c #BB6A02",
")  c #BB620C",
"_  c #B76607",
"`  c #BA6615",
"'  c #BE7117",
"]  c #985728",
"[  c #965B32",
"{  c #885331",
"}  c #AE5D23",
"|  c #B05F24",
" . c #95613B",
".. c #B66627",
"X. c #A46437",
"o. c #BA6A37",
"O. c #B46D34",
"+. c #C2630F",
"@. c #C66C0B",
"#. c #C37402",
"$. c #CB7606",
"%. c #CC7D02",
"&. c #CC760A",
"*. c #CD7B0B",
"=. c #C67806",
"-. c #C46512",
";. c #CC6A13",
":. c #CD6D1C",
">. c #C56B13",
",. c #C97715",
"<. c #D27818",
"1. c #C86D24",
"2. c #C87228",
"3. c #D1732B",
"4. c #D17328",
"5. c #CA7638",
"6. c #D27532",
"7. c #D3793E",
"8. c #D47934",
"9. c #9A6649",
"0. c #8D6754",
"q. c #A66C43",
"w. c #BB6D42",
"e. c #BD7644",
"r. c #B57449",
"t. c #B57A5D",
"y. c #A97254",
"u. c #AC7A65",
"i. c #B17F69",
"p. c #8E5B41",
"a. c #C37244",
"s. c #C77847",
"d. c #D57B44",
"f. c #D57D4B",
"g. c #D87E4A",
"h. c #CC7B55",
"j. c #CB7B59",
"k. c #C57952",
"l. c #D37E54",
"z. c #CE8103",
"x. c #D3860A",
"c. c #D6890C",
"v. c #CE8318",
"b. c #D58911",
"n. c #D4891B",
"m. c #D58718",
"M. c #DE931A",
"N. c #E1951B",
"B. c #E59A1E",
"V. c #E08F1E",
"C. c #D58827",
"Z. c #DA9128",
"A. c #D68837",
"S. c #DB9538",
"D. c #CD8428",
"F. c #E69C22",
"G. c #E49926",
"H. c #E59B39",
"J. c #EAA43C",
"K. c #E8A134",
"L. c #E8A02E",
"P. c #A8877E",
"I. c #BA8A78",
"U. c #B1806C",
"Y. c #BF825F",
"T. c #D48344",
"R. c #D98949",
"E. c #DA9647",
"W. c #C28156",
"Q. c #C48359",
"!. c #C9875D",
"~. c #D5835A",
"^. c #DA8857",
"/. c #DF9354",
"(. c #E39C46",
"). c #E19F53",
"_. c #ECA849",
"`. c #EBA747",
"'. c #E7A658",
"]. c #D5896E",
"[. c #D68669",
"{. c #D5936A",
"}. c #DC8C73",
"|. c #D68871",
" X c #D89977",
".X c #DD967B",
"XX c #CA8B6C",
"oX c #E39765",
"OX c #E08D73",
"+X c #E18F78",
"@X c #E3927A",
"#X c #E49B75",
"$X c #E9AA6C",
"%X c #E8A968",
"&X c #F1B36C",
"*X c #E8A879",
"=X c #F3B677",
"-X c #EDB17A",
";X c #DFA278",
":X c #B08D83",
">X c #D59782",
",X c #E69A8E",
"<X c #E59986",
"1X c #E99E92",
"2X c #E79B90",
"3X c #DCA388",
"4X c #DBAB9C",
"5X c #E9A988",
"6X c #EEB389",
"7X c #F6BC8A",
"8X c #F2B686",
"9X c #EBA296",
"0X c #ECA599",
"qX c #EAAA96",
"wX c #EAB29D",
"eX c #EFB194",
"rX c #F3B996",
"tX c #EFABA1",
"yX c #F0AEA4",
"uX c #F1B1A5",
"iX c #F3B5AC",
"pX c #F5B9AF",
"aX c #F5BBA4",
"sX c #F7BCB2",
"dX c #F8BFB6",
"fX c #EEB8AE",
"gX c #DEAEA0",
"hX c #F8C3A9",
"jX c #FAC4B5",
"kX c #FAC4BB",
"lX c #FBCABD",
"zX c #F7C5B6",
"xX c #FECDC5",
"cX c #FFCFC8",
"vX c #FFD0C9",
/* pixels */
"                                                                                                                                                                                                                                                                                                                                                                                                ",
"                        1X1X9X1X1X9X9X1X                                                  2X1X9X9X1X5XA.%.                                                    1X1X1Xy.M h -                                                 xXkXlXxXlX                                                xXyX>Xu.V B B B                                                   lXsX<X+X+X+X@X+X                        ",
"                  1X1X0XsXdXdXdXjXjXpXeXS.z.z.                                      1X1X1XiXdXdXdXdXwXT.@.+.$.%.                                          1X1XuXkXfXY.F z B f *                                           xXiX0XqX9X9XqX                                          xXsX9X!.} { y = f n B B                                         xXpX<X<X.X7.3.6.6.6.d.OX+X@X                  ",
"              ,X0XpXsXsXxXcXcXcXxXjX&X_.G.B.Z.n.v.                                9XiXsXsXxXcXcXcXkX!.! L R ,.&.%.                                      uXsXdXlXzXI.y.9.D N n d *                                         dX9XoXH.H.`.X.m                                       xXdX9X[.] 8 1 < % = d d f n                                     xXjX<Xo...} R +.;.;.;.;.6.8.d.OX                ",
"            0XiXjXlXvXvXxXlXlXjXhX&XG.B.K.=X7X8X-XS.                            1XiXxXxXcXxXlXkXzXXX~ Z Q !.*XT.&.$.%.                                tXlXcXcXlXI.w N U.>Xr.N n d *                                       uXoXK.F.F.F.G o                                     cXdX9X[.[ i @ ; ; 1 % * * * g n                               xXkXyX<X7.E H Z H R :.:.:.;.;.;.:.7.+X<X            ",
"          9XiXxXxXvXvXxXhX$X).'.(.Z.b.G.=XlXvXvXlX6XS.                        2XyXlXxXxXxXkX*XoX/.2.Y k.3XpXxXeX7.&.%.                              tXlXcXxXlX>X] 8 p.tXvXwXO.N f *                                       7XH.B.B.F.B.G o                                     xXsX|.[ s % % 1 > 9 3 * * * - f                               xXjX@Xd.;.-.E R ! k.~.~.f.4.;.;.;.:.g.+X            ",
"        1XiXxXxXvXxXjX$X'.%X$X$X$X'.n.b.'.hXxXvXcXlX6XZ.                      uXxXxXcXjX*X{.#X*XoX8.) R.aXxXxXxX6XA.%.%.                          2XiXcXzX3XW.{.{.X. .6XvXxX!.D n d *                                     =XG.N.b.c.c.v o                                   xXkX0Xj.c % * u 0 9 q q 0 3 = * g B                           vXlX9Xd.:.;.;.4.f.j.|.a.o.a.l.f.1.;.;.:.g.+X          ",
"        9XkXxXxXjX-XE.' ..6X7X&X&X%Xn.( _ E.$XhXcXvXhXS.                    1XdXxXxXlX5X1.` *X<X!.2.E ` T.#XaXvXkX/.$.z.                          2XsXxX3X .z I.3X .z  .gXxX!.N B f *                                     8XN.x.%.z.z.l o                                   xXpX1Xj.c & u 3 q w p u q w i = g n                           vXdX+X:.;.4.f.f.a.j.j.Q Z I o.s.d.:.;.;.3.}.          ",
"        fXlXcXkX%Xv._ T 1.5X_.B.F.Z.z.P P _ ,.'.jXlX7X'.Z.                  uXlXxXlX5X2./ ' ;Xe.J E U Z U :.6XxX3X{.C.$.%.                        tXzXxXt.z = P.Q.q * z {.xX3XX.N b - *                                   =XM.%.%.%.%.l o                                 xXkXyX}.X.p * i r = i x & * i x & * b                         xXxX0Xf.+.-.6.[.o.A } j.Q Z H T ` 5.d.:.;.:.g.          ",
"      9XkXvXcXhXC.( ) ,.S.8X_.B.F.B.*.P >._ / v.7X7X_.'.Z.                1XsXxXxX6X2./ / ' ;Xe.Z E L H P _ ^.{.O.e.8.$.%.                      2XiXxXqX .u b P.Q.q * i y.wXxX!.c B f *                                   =Xb.%.%.%.%.l o                                 xXdX1Xj.D % u q 3 * i x y = u z i * d n                       xXkX}.^ L ^ d.a.` Z } j.Q Z K / / ` a.d.:.;.3.OX        ",
"      9XzXvXlX*X,.) ,.N.J.7X_.B.F.B.=./ v.m.) ' /.J.F.F.b.                1XsXvXjXR._ / K Q  Xe.H E L Z P / -.R Z H ) $.%.                      2XpXlXQ.M & m :XQ.q * d c r.gX!.D B f *                                   $Xz.$.$.$.$.l o                                 cXsX2Xj.c $ 3 c y * i x y b g i x & d B                       xXkX[.Q Z } l.' P Z } j.Q Z Z Z H / ' ~.3.;.6.OX        ",
"      yXlXvXhXA.L -.N.B.J.7X_.B.F.B.*.P m.G.;.P =.B.F.G.S.                tXkXvXlXR.( P Z Q  Xe.A E L Z K ( @.L Z A 2.C.%.%.                    0XkXxXk.3 f B I.W.q * f c 9 9.Y. .M h - *                                 $X*.&.;.;.,.x o                               cXlXyX}.w.w 1 7 S h = i x y s b 3 x & - b                       xXuXl.I Z } ~.>.K Z } j.Q Z Z Z Z K 2./.4.;.:.^.        ",
"    9XdXcXxX-X' T ,.F.B.J.7X_.B.F.B.z./ n.F.<.T ( c.B.L.'.Z.            1XsXxXlXeX8.( K Z Q  Xe.H E L Z Z T +.W Z I {./.$.%.                  ,XfXxXwXq.i b 3 U.Q.3 * y r 8 8 u.Q.D B f *                                 $X&.;.;.:.;.9 o                               xXsX1Xj.N < : 8 r a * i x u 2 b i z u * d B                   cXdX@X1.H A O.5.` Z Z } j.Q Z Z Z Z H -.s.6.:.;.6.OX      ",
"    9XkXcXhXA.T -.M.F.F.J.7X_.B.F.B.=./ n.F.N.,.T =.N.F.L.c.            1XdXvXlX^.W H Z Z Q  Xr.H E L Z Z Z H W L J !.T.$.%.                  ,XiXxX!.M % y 3 i.Q.z * < 5 0 9 u.!.D B h *                                 $X,.;.;.;.;.x o                               xXsX,Xj.c < 7 r 5 , % i x < 2 a * i x & d n                   vXkX}.` Z } k.! Z Z Z } j.Q Z Z Z Z Z J } l.3.;.3.OX      ",
"    9XkXcXhXD.P ,.N.F.B.J.7X_.B.F.B.=./ n.F.B.<.P #.N.F.B.x.            1XsXvXjXT.K Z Z Z Q  Xe.Z E L Z Z Z H E U Z Q -.$.%.                  ,XpXzXW.3 * y q u.Q.p * , < 0 9 9.r.D B f *                                 *X;.;.;.;.;.l o                               cXsX,Xj.c 1 8 r 5 , * i x < 2 a * i x d d B                   vXdX|.Q Z } j.Q Z Z Z } j.Q Z Z Z Z Z Z } l.3.;.4.OX      ",
"    9XkXcXhXD.P v.F.F.B.J.7X_.B.F.B.*./ n.F.F.C._ #.N.B.B.b.            9XsXvXlXT.L Z Z Z ~  Xr.H E L Z Z Z H E U Z Z E $.z.                  ,XpXxXk.j * f q i.j.j * , < w 9 t S D B f *                                 #X>.-.-.-.-.9 o                               xXsX,Xj.C : 7 r < , % i x 5 2 b * i x & - n                   xXdX|.I Z } j.Q Z Z Z } j.Q Z Z Z Z Z A } l.4.;.3.OX      ",
"    0XdXvXhXD./ m.F.B.B.J.7X_.B.F.B.=./ m.G.F.n.) #.N.F.B.x.            1XdXvXjXR.L H Z Z Q  Xe.Z E L Z Z Z H E L Z H E $.%.                  ,XsXzXW.3 * f q u.Q.q % < < w 9 t S D B f *                                 {.I K L H L 6 X                               cXsX,Xj.C : 7 r < < % i x < 2 b * i x & d B                   cXkX].Q Z } j.Q Z Z Z } j.Q Z Z Z Z Z H ! l.6.:.3.OX      ",
"    1XzXvXhXD.P <.V.B.B.J.7X_.F.F.B.=./ m.F.N.<.L #.N.F.B.x.            1XsXvXjXT.P / P Z ~  Xe.H E L Z Z H H E U Z H E *.%.                  ,XpXlXW.3 * f q i.Q.q * < < e 9 9.r.D B h *                                 {.J Z Z Z Z : X                               xXsX,Xj.c 1 7 r 5 1 % i x 5 2 a * i x & d m                   cXdX].J Z } j.Q Z Z Z } k.Q Z Z Z Z L / ` l.3.;.3.OX      ",
"    9XzXvXhXA.P +.<.<.N.J.7X_.B.F.F.z.P v.m.<.-.P *.N.F.B.x.            1XsXvXkX^.T ( #.P ~ ;Xe.Z E L Z K / P T L Z Q ` $.%.                  ,XpXlX!.M & f j U.Q.q * y a 0 9 i.!.D B f *                                 {.Z Z Z Z S , .                               xXsX,Xj.c < 7 r y y * i x 5 4 a = p x & - B                   vXjX].Q Z } k.` / K Z } j.Q Z Z Z P ( ( ..l.3.;.3.OX      ",
"    9XzXvXxX*X,.T +.;.<.A.8X_.B.F.Z.z.P ;.;.-.W ( b.B.F.B.x.            1XsXxXxXeX8.#.%.( ,.;Xo.H E L Z / =.@.W H J s.A.$.%.                  ,XiXvXgXq.i f B I.Q.q * h w 8 > u.W.N B f *                                 {.I Z Z Z D @ .                               cXsX1Xj.c 5 > 8 c a = i x y j b y z y = g n                   vXdX@X| Z J O.s.*.( Z } j.Q Z K ( ( =.v.T.6.:.;.6.OX      ",
"      iXlXcXhXA.W +.;.;.6.8X`.B.F.F.z.P ` >.-.P #.B.F.B.c.                tXkXcXjXE.#.%.%.b.*Xr.H E L H ( %.@.L Z H 2.4.%.%.                    0XkXlXQ.3 b V :Xj.q * f S 9 : D [ N b = *                                 XXI Z Z F M @ .                               xXxXuX}.w.0 : 7 S a * p x y B b p x = = h                       xXyXl.I Z } ~.<.( H } j.Q Z P ( z.z.v.^.4.;.:.l.        ",
"      1XkXxXlX*X>.T +.;.6.6X`.B.F.B.z.P -.-._ ( b.B.F.F.b.                2XdXcXkXR._ #.%.v.*Xe.A E L H ( ( ) W Z J ) *.%.                      ,XpXzX!.z - m :XQ.j % d r 9 6 9 c V f *                                    XN N c M B @ .                                 xXsX,Xj.C : 7 c y * i x y b d i r & d B                       xXdX].Q Z } j.' ( H } j.Q Z P z.z.=...~.4.;.3.OX        ",
"      0XkXxXcXhXC.( E +.8.6X_.B.F.B.z.P E E ( z.B.B.K.'.Z.                1XdXxXxX6X2.T #.x.*Xe.H E L Z P T Y H A 5.8.*.%.                      ,XpXxXqX .u b :XW.p * i 8 6 { X.c B f *                                   :XV B V V b # .                                 cXsX1Xj.S ; > 9 3 % i x y - y w i * g B                       cXdX}.^ A I o.o.) Z | j.! A U ( #.` s.7.:.;.3.OX        ",
"        uXxXcXlX$Xv.( T ` S.Z.c.c.c.=.P L _ ,.E.K.B.G.(.Z.                  yXlXxXlX5X2.T _ T.2.W +.L Z U -.L Z I s.D.%.%.                        tXzXlXW.3 * p...q % w 9 : [ X.N b - *                                   :XV B B B h # .                                 cXlXtX}.X.e : 7 r & i C p * i x & - f                         cXlXqXf.J Z | [.e.J | j.k.r.o._ ` 5.d.<.;.1.R.          ",
"        0XkXcXcXjX-XE.' / _ / ( / / / / _ E.$XrX_.F.F.x.                    1XdXcXcXlX*X1.R E T R R Y ) T.{...Z 5.5.$.%.                          ,XiXxX3X .3 z z q q 9 6 : 9 D B f *                                     :XV B V n d O .                                   xXsX,Xj.C : 6 8 w w z z z z i % - n                           xXkX}.^ Z ~ d.f.a.w.a.a.a.a.w.a.d.:.;.;.3.OX          ",
"        1XpXxXxXxXxXjX$XE.' / / / / _ S.%XhXvXjX'._.G.x.                      uXlXxXcXkX5X^.1.T W E d.oXaXzXk.o.{.A.$.%.                          ,XiXcXxX>Xt.[ q  .] 6 : N ] D B d *                                     :Xm g f g * # .                                   xXkXtXj.S ; k 6 9 0 3 z z 3 % * g n                           cXlX9Xd.U L -.4.f.l.a.o.w.s.l.g.:.;.;.:.g.@X          ",
"          9XiXxXxXvXxXxXhX%XE.n.c.b.(.hXxXvXxXrX&X%XZ.                        2XuXxXxXxXxXzX*X..E T.aXxXxXxX;X{.A.&.%.                              yXlXcXxX3X[ [ 3Xy.; N i.X.N f *                                       :X* * * * % O .                                     xXiX}.[ j ; : , u 0 8 5 % * = b                               xXdX@X5.E -.;.:.3.f.k.h.f.4.;.;.;.;.g.+X            ",
"            1XiXdXxXxXvXvXlX=XK.F.'.hXxXvXxX7X`.'.S.                            2XuXxXxXvXxX3X| Q .XcXvXxXwX*XA.&.$.%.                                uXkXgXu.0.>X4X{ N t.r.N B d *                                       :X* * * % , + .                                     cXdX1Xj.[ 4 ; ; < $ , @ $ * f n                               cXkXyX<X7.-.;.;.;.-.I I +.-.;.;.:.7.+X,X            ",
"              2X0XiXdXdXaX7X_._.&XhXvXlXrX-XH.b.v.                                9XiXdXpX3Xo.O.s.wXxXaX5Xs.>.*.%.                                      tXI.XXfXxXu.8 q.r.N B d *                                         :Xu < < 1 ; + .                                       xXdX0Xj.{ e > 1 % = u u f n                                     xXdX>X5.6.6.;.-.W H H -.6.7.d.}.                ",
"                  1X1X#XK.G.G.$X8X7XrX8XS.n.x.                                      1X1X<X5.! ^.5XeX6X/.,.>.$.z.                                          .X|.3X3Xp.r F N h g *                                           u.+ + + + + .                                           cXdXtX|.| F e i p M M B                                         cXsX<X1X@X7.6.6.3.| o.[.@X<X                  ",
"                        x.z.x.n.C.Z.n.C.                                                  -.-.4.8.8.3.*.%.                                                    ! } I c M h g =                                               o o X X .                                               xXxXuX>Xa.A C C F                                                   lXpX<X+X+X+X}.}.                        ",
"                                                                                                                                                                                                                                                                                                                                                                                                "
};
