/* XPM */
static char *_6a8bbae26f64498fa2f2d94b4b1c215lQDf89pSJKAUwSNH[] = {
/* columns rows colors chars-per-pixel */
"64 64 156 2 ",
"   c black",
".  c #BE4A2F",
"X  c #C54F2D",
"o  c #F07124",
"O  c #F77622",
"+  c #DA6029",
"@  c #BD4A2F",
"#  c #F78E2B",
"$  c #FEAE34",
"%  c #FEAF34",
"&  c #F6A233",
"*  c #C65630",
"=  c #BE492F",
"-  c #BE4A2F",
";  c #BE4A2F",
":  c #BE4A2F",
">  c #C54F2D",
",  c #F07124",
"<  c #F77622",
"1  c #BE4A2F",
"2  c #BE4A2F",
"3  c #BE4A2F",
"4  c #C54F2D",
"5  c #F07124",
"6  c #F77622",
"7  c #BE4A2F",
"8  c #BD4A2F",
"9  c #BA4730",
"0  c #BD4A2F",
"q  c #C24D2E",
"w  c #C54F2D",
"e  c #C6502D",
"r  c #DC6128",
"t  c #FA7921",
"y  c #F77622",
"u  c #F77622",
"i  c #BD4A2F",
"p  c #C54F2D",
"a  c None",
"s  c #F17123",
"d  c #F67522",
"f  c #F77622",
"g  c #F77622",
"h  c #F77622",
"j  c #BD4A2F",
"k  c #F77622",
"l  c #F77622",
"z  c #BD492F",
"x  c #F77622",
"c  c #C44F2E",
"v  c #F07024",
"b  c #F77622",
"n  c #F77622",
"m  c #C44F2E",
"M  c #BD4A2F",
"N  c #BD492F",
"B  c #C44F2E",
"V  c #C24D2E",
"C  c #F77622",
"Z  c #BE4A2F",
"A  c #BE4A2F",
"S  c #F77622",
"D  c #BE4A2F",
"F  c #BE4A2F",
"G  c #BE4A2F",
"H  c #BE4A2F",
"J  c #F87722",
"K  c #F87C24",
"L  c #EF6D23",
"P  c #FB912A",
"I  c #FDA732",
"U  c #FFB235",
"Y  c #FEAF34",
"T  c #FEAE34",
"R  c #FEAE34",
"E  c #FFAF34",
"W  c #F6A234",
"Q  c #C65630",
"!  c #BE492F",
"~  c #FEAE34",
"^  c #FEAE34",
"/  c #FEAE34",
"(  c #FEAF34",
")  c #F6A233",
"_  c #C65630",
"`  c #BE492F",
"'  c #BE4A2F",
"]  c #C54F2D",
"[  c #F07124",
"{  c #F77622",
"}  c #BD492F",
"|  c #C44F2E",
" . c #CB542C",
".. c #F17123",
"X. c #F67522",
"o. c #F87722",
"O. c #F77722",
"+. c #F87C24",
"@. c #F87D24",
"#. c #F77522",
"$. c #F77521",
"%. c #F87B23",
"&. c #FCA130",
"*. c #FDA732",
"=. c #FDA832",
"-. c #F87E25",
";. c #F88329",
":. c #F8842A",
">. c #F98A2B",
",. c #FDAF38",
"<. c #FEB539",
"1. c #FEAF35",
"2. c #FEAE34",
"3. c #FEAF34",
"4. c #F98326",
"5. c #FDAD37",
"6. c #FDD355",
"7. c #FDDA5A",
"8. c #FDD959",
"9. c #FEE05C",
"0. c #FEDA57",
"q. c #FEB439",
"w. c #FEAD34",
"e. c #FEB53A",
"r. c #FEE15C",
"t. c #FEE862",
"y. c #FEE861",
"u. c #FEAD33",
"i. c #FEE761",
"p. c #F87B24",
"a. c #F98327",
"s. c #FDAE37",
"d. c #FEBB3E",
"f. c #F07023",
"g. c #FED957",
"h. c #FEE660",
"j. c #FEB63A",
"k. c #FDA731",
"l. c #F17223",
"z. c #F98427",
"x. c #FEE25D",
"c. c #FEE15D",
"v. c #FDA631",
"b. c #FDAD36",
"n. c #FEB438",
"m. c #F9892B",
"M. c #C44E2E",
"N. c #EA6C25",
"B. c #BF4B2F",
"V. c #F17725",
"C. c #C5502E",
"Z. c #FEA832",
"A. c #F69C32",
"S. c #C6552F",
"D. c #BE492F",
"F. c white",
/* pixels */
"                                                                                                                                ",
"                                                                                                                                ",
"                                                                                                                                ",
"                                                                                                                                ",
"                                                                                                                                ",
"                                                                                                                                ",
"                                                                                                                                ",
"                                                                                                                                ",
"                                                                                                                                ",
"                                                                                                                                ",
"                                    . . . . . . . . . X o O O O O O O o X . . . . .                                             ",
"                                    . - ; : : : : : : > , < < < < < < , > : : ; - .                                             ",
"                                    . ; 1 2 3 3 3 3 3 4 5 6 6 6 6 6 6 5 4 3 2 1 ; .                                             ",
"                                    . : 2 ' ' ' ' ' ' ] [ { { { { { { [ ] ' ' 2 : .                                             ",
"                                . . . 7 3 ' ' ' ' ' } | [ { { { { { { [ | } ' 8 9 + O O O O                                     ",
"                                . - 0 q w ] ] ] ] ] |  ...{ { { { { { .. .| ] e r t < y u O                                     ",
"                                . ; i p a ..[ [ [ [ [ ..X.{ { { { { { X...[ [ s d 6 f g h O O O                                 ",
"                                . : j ] ..o.{ { { { { { { { { { { { { { { { { { { { { k l h u O                                 ",
"                                . : z | [ { { { { { { { { { { { { { { { { { { { { { { x k g y O                                 ",
"                                X > c  ...{ { { { { { O.+.@.@.@.@.+.O.{ { { { { { { { { { f < O                                 ",
"                    . . . . . X o v 5 ..X.{ { { #.#.$.%.&.*.*.*.=.&.+.#.{ { { { { { { { { 6 t + . . . .                         ",
"                    . - ; : : > v b n O.+.@.@.-.;.:.;.>.,.<.1.2.3.=.4.+.@.@.@.+.O.{ { { { d r 9 : ; - .                         ",
"                    . ; 1 2 3 4 5 n x +.&.=.*.5.6.7.8.7.9.0.q.2.2.w.=.*.*.*.=.&.+.{ { { { s e 8 2 1 ; .                         ",
"                    . : 2 ' ' ] [ { { @.=.3.2.e.r.t.y.y.t.r.<.2.2.2.2.2.2.2.3.=.@.{ { { { [ ] ' ' 2 : .                         ",
"                    . : 3 ' ' ] [ { #.+.*.2.u.q.9.i.i.i.i.9.q.u.2.2.2.2.2.2.2.*.+.#.{ { { [ | } ' 3 : .                         ",
"                    . : 3 ' ' ] [ o.p.a.s.e.q.d.r.i.i.i.i.r.d.q.<.q.1.2.2.2.2.=.4.+.@.+.O... .| ] 4 > X                         ",
"                    . : 3 ' ' ] f.+.&.s.g.r.9.r.h.i.i.i.i.h.r.9.r.0.q.2.2.2.2.w.=.*.=.&.+.X...[ [ 5 , o                         ",
"                    . : 3 ' ' ] f.@.*.j.r.t.i.i.i.i.i.i.i.i.i.i.t.r.<.2.2.2.2.2.2.2.3.=.@.{ { { { 6 < O                         ",
"                    . : 3 ' ' ] f.@.k.e.9.i.i.i.i.i.i.i.i.i.i.i.i.9.<.2.2.2.2.2.2.2.2.*.@.{ { { { 6 < O                         ",
"                    . : 3 ' ' ] f.@.k.e.9.i.i.i.i.i.i.i.i.i.i.i.i.9.<.2.2.2.2.2.2.2.2.*.@.{ { { { 6 < O                         ",
"                    . : 3 ' } | f.@.k.e.9.i.i.i.i.i.i.i.i.i.i.i.i.9.<.2.2.2.2.2.2.2.2.*.@.{ { { { 6 < O                         ",
"                    X > 4 ] |  ...@.k.e.9.i.i.i.i.i.i.i.i.i.i.i.i.9.<.2.2.2.2.2.2.2.2.*.@.{ { { { 6 < O                         ",
"                    o , 5 [ [ ..X.@.k.e.9.i.i.i.i.i.i.i.i.i.i.i.i.9.<.2.2.2.2.2.2.2.2.*.@.{ { { { 6 < O                         ",
"                    O < 6 { { { { @.k.e.9.i.i.i.i.i.i.i.i.i.i.i.i.9.<.2.2.2.2.2.2.2.2.*.@.X...[ [ 5 , o                         ",
"                    O < 6 { { { { @.*.j.r.t.i.i.i.i.i.i.i.i.i.i.t.r.<.2.2.2.2.2.2.2.3.=.@... .| ] 4 > X                         ",
"                    o , 5 ..X.{ { +.&.s.g.r.9.r.h.i.i.i.i.h.r.9.r.0.q.2.2.2.2.w.=.*.=.&.+.f.| } ' 3 : .                         ",
"                    X > m  .l.o.{ O.+.z.s.j.<.d.x.t.y.y.t.c.d.q.<.q.1.2.2.2.3.=.4.+.@.+.o.[ ] ' ' 2 : .                         ",
"                    @ M N B a ..[ ..X.+.&.*.v.b.6.7.8.7.9.0.n.u.2.u.=.*.*.*.=.&.+.#.{ { { s e 8 2 1 ; .                         ",
"                    . - 0 q w ] |  ...O.+.@.@.-.;.:.;.m.,.q.1.2.2.=.4.+.@.@.@.+.O.{ { { { d r 9 : ; - .                         ",
"                    . . . 7 3 ' } | [ { { { { { #.#.$.+.k.2.2.2.2.*.+.#.{ { { { { { { { { 6 t + . . . .                         ",
"                        . : 2 ' ' ] ..o.{ { { { { { { @.=.3.2.2.3.=.@.{ { { { { { { { { { f < O                                 ",
"                        . ; 1 2 3 w a ..[ ..X.{ { { { +.&.=.*.*.=.&.+.{ { { { { { { { x k g y O                                 ",
"                        . - ; : 7 V w ] |  .l.o.{ { { O.+.@.@.@.@.+.O.{ { { { { { { { n l h u O                                 ",
"                        . . . . . 7 3 ' } M.N...[ [ [ ..X.{ { { { { { { { { { { { { { 6 C O O O                                 ",
"                                . : 2 ' ' B.| ] ] ] |  ...{ { { { { { { { { { { { { { f < O                                     ",
"                                . ; 1 2 3 Z A ' ' ' } | [ { { { { { { X...[ [ s d 6 f S y O                                     ",
"                                . - ; : 7 D F ' ' ' ' ] [ { { { { { { .. .| ] e r t < y u O                                     ",
"                                . . . . . G H 2 3 3 3 4 5 J K @.@.@.@.V.C.} ' 8 9 + O O O O                                     ",
"                                        . - ; : : : : > L P I *.*.*.Z.A.S.D.' 2 : .                                             ",
"                                        . . . . . . . X # U Y T R R E W Q ! 2 1 ; .                                             ",
"                                                        $ ~ ^ / / / ( ) _ ` : ; - .                                             ",
"                                                        $ $ $ $ $ $ % & * = . . . .                                             ",
"                                                                                                                                ",
"                                                                                                                                ",
"                                                                                                                                ",
"                                                                                                                                ",
"                                                                                                                                ",
"                                                                                                                                ",
"                                                                                                                                ",
"                                                                                                                                ",
"                                                                                                                                ",
"                                                                                                                                ",
"                                                                                                                                ",
"                                                                                                                                "
};
