/* XPM */
static char *_1d528587d69443de93297d9d5848c94i2UYR0da1maad8M8[] = {
/* columns rows colors chars-per-pixel */
"48 48 193 2 ",
"   c black",
".  c #BE4A2F",
"X  c #C54F2D",
"o  c #F07124",
"O  c #F77622",
"+  c #DA6029",
"@  c #BD492F",
"#  c #DB6029",
"$  c #F87722",
"%  c #E36627",
"&  c #F78E2B",
"*  c #FEAE34",
"=  c #FEAF34",
"-  c #F6A233",
";  c #C65630",
":  c #BE492F",
">  c #BE4A2F",
",  c #BE4A2F",
"<  c #BE4A2F",
"1  c #C54F2D",
"2  c #F07124",
"3  c #F77622",
"4  c #BE4A2F",
"5  c #BE4A2F",
"6  c #BE4A2F",
"7  c #C54F2D",
"8  c #F07124",
"9  c #F77622",
"0  c #BE4A2F",
"q  c #BD4A2F",
"w  c #BA4730",
"e  c #BD492F",
"r  c #C24D2E",
"t  c #C54F2D",
"y  c #C6502D",
"u  c #DC6128",
"i  c #FA7921",
"p  c #F77622",
"a  c #F77622",
"s  c #BD492F",
"d  c #C54F2D",
"f  c None",
"g  c #F17123",
"h  c #F67522",
"j  c #F77622",
"k  c #F77622",
"l  c #F77622",
"z  c #BD492F",
"x  c #F77622",
"c  c #F77622",
"v  c #F77622",
"b  c #C44F2E",
"n  c #F77622",
"m  c #F07124",
"M  c #F87722",
"N  c #BE4A2F",
"B  c #BE4A2F",
"V  c #BE4A2F",
"C  c #C54F2D",
"Z  c #F87622",
"A  c #E46726",
"S  c #BC492F",
"D  c #BE4A2F",
"F  c #BE4A2F",
"G  c #BE4A2F",
"H  c #BD492F",
"J  c #DB6029",
"K  c #F87722",
"L  c #F77622",
"P  c #F87722",
"I  c #F87722",
"U  c #C44F2E",
"Y  c #BD492F",
"T  c #BC492F",
"R  c #D1582B",
"E  c #BD492F",
"W  c #D1592B",
"Q  c #F77622",
"!  c #F77622",
"~  c #BE4A2F",
"^  c #BE4A2F",
"/  c #DC6128",
"(  c #F17123",
")  c #F77622",
"_  c #F77622",
"`  c #BE4A2F",
"'  c #BE4A2F",
"]  c #F87A23",
"[  c #BD492F",
"{  c #B74431",
"}  c #EF6A22",
"|  c #FDA230",
" . c #FEB035",
".. c #FEAF34",
"X. c #FEAF34",
"o. c #FFB034",
"O. c #F6A334",
"+. c #C65630",
"@. c #BE492F",
"#. c #BE4A2F",
"$. c #BD492F",
"%. c #C44F2E",
"&. c #F07124",
"*. c #F77622",
"=. c #C54F2D",
"-. c #CB542C",
";. c #F17123",
":. c #F07123",
">. c #F67522",
",. c #F87722",
"<. c #F77722",
"1. c #F87C24",
"2. c #F87D24",
"3. c #F77923",
"4. c #F77522",
"5. c #F77521",
"6. c #F77421",
"7. c #F87A23",
"8. c #FCA02F",
"9. c #FDA732",
"0. c #FDA832",
"q. c #FA8E2A",
"w. c #FA8F2A",
"e. c #FB922B",
"r. c #FB952E",
"t. c #FBAB3F",
"y. c #FAAF42",
"u. c #FBB243",
"i. c #FEC84A",
"p. c #FEBD3F",
"a. c #FEAE34",
"s. c #FEAF34",
"d. c #FCA030",
"f. c #FA922B",
"g. c #FEB63A",
"h. c #FEE25C",
"j. c #FEE962",
"k. c #FEE862",
"l. c #FECB4B",
"z. c #FEAD33",
"x. c #DA6029",
"c. c #FDA631",
"v. c #FEB439",
"b. c #FEE05C",
"n. c #FEE761",
"m. c #FECA4A",
"M. c #FEAC33",
"N. c #BC492F",
"B. c #F07023",
"V. c #F98426",
"C. c #FB992F",
"Z. c #FEC447",
"A. c #FECE4D",
"S. c #FEE45E",
"D. c #FED956",
"F. c #FEBC3F",
"G. c #FEAB33",
"H. c #FB952C",
"J. c #E96B25",
"K. c #DB6029",
"L. c #FEE15C",
"P. c #F47323",
"I. c #FDAF37",
"U. c #FED957",
"Y. c #FEE660",
"T. c #FEC748",
"R. c #FEAD34",
"E. c #FCA130",
"W. c #F97D24",
"Q. c #DA5F28",
"!. c #DE6328",
"~. c #F97722",
"^. c #F87923",
"/. c #F98427",
"(. c #FEE25D",
"). c #FECE4E",
"_. c #FEB539",
"`. c #FEB237",
"'. c #FDA932",
"]. c #F98326",
"[. c #DB6028",
"{. c #FB952D",
"}. c #F87B23",
"|. c #FEB035",
" X c #D75D29",
".X c #C14D2E",
"XX c #F17725",
"oX c #C4502E",
"OX c #FEA832",
"+X c #F69C32",
"@X c #C6552F",
"#X c #BE492F",
"$X c white",
/* pixels */
"                                                                                                ",
"                                                                                                ",
"                                                                                                ",
"                                                                                                ",
"                                                                                                ",
"                                                                                                ",
"                                                                                                ",
"                          . . . . . . . X o O O O O o X . . . .                                 ",
"                          . > , < < < < 1 2 3 3 3 3 2 1 < , > .                                 ",
"                          . , 4 5 6 6 6 7 8 9 9 9 9 8 7 5 4 , .                                 ",
"                        . . 0 5 #.#.#.$.%.&.*.*.*.*.&.%.$.q w + O O O                           ",
"                        . e r t =.=.=.%.-.;.*.*.*.*.;.-.%.y u i p a O                           ",
"                        . s d f :.&.&.&.;.>.*.*.*.*.>.;.&.g h j k l O O                         ",
"                        . z %.:.,.*.*.*.*.*.*.*.*.*.*.*.*.*.*.*.x c v O                         ",
"                        X b -.;.*.*.*.*.<.1.2.2.2.3.*.*.*.*.*.*.*.*.n O                         ",
"              . . . . X o m ;.>.4.4.5.6.7.8.9.9.0.q.4.4.4.4.*.*.*.*.M + . . .                   ",
"              . N B V C m Z 7.w.e.r.t.y.u.i.p.a.s.d.f.e.e.w.3.*.*.*.A S D F .                   ",
"              . < G #.=.&.*.2.0.s.g.h.j.k.j.l.z.a.a.s.s.s.0.2.*.*.,.x.$.#.D .                   ",
"              . < 6 #.=.&.*.1.c.z.v.b.n.n.k.m.M.z.a.a.a.a.9.1.4.4.,.x.N.$.H @                   ",
"              . < 6 #.=.B.V.C.Z.l.A.S.n.n.n.D.m.l.F.a.a.a.G.H.e.w.7.J.x.K.J #                   ",
"              . < 6 #.=.B.e.g.L.k.k.n.n.n.n.n.k.j.l.z.a.a.a.s.s.0.2.*.,.,.K $                   ",
"              . < 6 #.=.B.e.g.b.n.n.n.n.n.n.n.n.k.l.z.a.a.a.a.a.9.2.*.*.*.L O                   ",
"              . < 6 $.%.B.e.g.b.n.n.n.n.n.n.n.n.k.l.z.a.a.a.a.a.9.2.*.*.*.L O                   ",
"              X 1 7 %.-.;.e.g.b.n.n.n.n.n.n.n.n.k.l.z.a.a.a.a.a.9.2.*.*.*.L O                   ",
"              o 2 8 &.;.>.e.g.b.n.n.n.n.n.n.n.n.k.l.z.a.a.a.a.a.9.2.*.,.,.K $                   ",
"              $ P I ,.*.4.e.g.L.k.n.n.n.n.n.n.n.k.l.z.a.a.a.a.s.0.2.J.x.K.J #                   ",
"              o 2 8 P.*.4.q.I.U.L.L.Y.n.n.n.S.b.L.T.z.a.a.R.0.0.E.W.Q.N.$.H @                   ",
"              X 1 U !.~.,.^./.I.g.F.(.j.k.j.).v._.`.s.s.s.'.].1.1.,.x.$.#.D .                   ",
"              @ Y T R [.x.J.^.q.e.{.t.y.u.i.F.z.a.8.f.e.e.w.3.4.*.*.A S D F .                   ",
"              . . . E $.N.x.,.4.4.4.5.6.}.c.a.a.s.f.6.4.4.4.*.*.*.*.M + . . .                   ",
"                  . D #.$.[.~.,.*.*.*.*.2.0.s.s.|.e.4.*.*.*.*.*.*.*.n O                         ",
"                  . F D E W [.x.J.,.*.*.7.w.e.e.e./.*.*.*.*.*.*.Q c v O                         ",
"                  . . . . E $.N. X;.&.&.;.>.4.4.4.*.*.*.*.*.*.*.9 p O O                         ",
"                        . D #.#..X=.=.%.-.;.*.*.*.*.*.,.,.,.*.*.! 3 O                           ",
"                        . F D ~ ^ #.#.$.%.&.*.*.*.*.P.!.x./ ( L ) _ O                           ",
"                        . . . . ` ' 6 6 7 8 ] 2.2.2.XXoX$.[ { % O O O                           ",
"                              . N < < < 1 } | 9.9.OX+X@X#XG < .                                 ",
"                              . . . . . X &  ...X.o.O.+.@.B N .                                 ",
"                                          * * * * = - ; : . . .                                 ",
"                                                                                                ",
"                                                                                                ",
"                                                                                                ",
"                                                                                                ",
"                                                                                                ",
"                                                                                                ",
"                                                                                                ",
"                                                                                                ",
"                                                                                                "
};
