/* XPM */
static char *_03db4a4dbb0482b99773d8de7e01eb0gS0WU5JpLeSGbyFc[] = {
/* columns rows colors chars-per-pixel */
"64 64 92 1 ",
"  c #1F0C12",
". c #210F16",
"X c #231017",
"o c #241219",
"O c #28151C",
"+ c #2D191F",
"@ c #2B1722",
"# c #2D1A21",
"$ c #311D23",
"% c #331D2D",
"& c #3D2424",
"* c #372133",
"= c #382134",
"- c #3A2B33",
"; c #3E253C",
": c #3D2F38",
"> c #3F313A",
", c #442B2B",
"< c #452F34",
"1 c #473137",
"2 c #42343C",
"3 c #4E363B",
"4 c #513738",
"5 c #533A3D",
"6 c #593E3F",
"7 c #5F413F",
"8 c #67433A",
"9 c #69463C",
"0 c #71493B",
"q c #463C45",
"w c #513B40",
"e c #4E444D",
"r c #564446",
"t c #5F4241",
"y c #534A54",
"u c #594850",
"i c #58515B",
"p c #604341",
"a c #724D43",
"s c #7C5344",
"d c #604F57",
"f c #615057",
"g c #60545C",
"h c #6D585A",
"j c #5F5D67",
"k c #645B64",
"l c #685B62",
"z c #726163",
"x c #76737E",
"c c #79747D",
"v c #8B5B45",
"b c #8A695C",
"n c #866A63",
"m c #886D65",
"M c #937366",
"N c #937468",
"B c #767580",
"V c #787580",
"C c #767984",
"Z c #7B7B87",
"A c #7E7D89",
"S c #817C87",
"D c #82838F",
"F c #8B888D",
"G c #8A8791",
"H c #8A8A96",
"J c #878E9A",
"K c #8F929F",
"L c #91929F",
"P c #8C97A3",
"I c #8D99A5",
"U c #9395A2",
"Y c #959AA7",
"T c #9C9EA4",
"R c #979DAA",
"E c #999EAC",
"W c #96A0AD",
"Q c #9BA1AE",
"! c #9BA5B3",
"~ c #9CA8B5",
"^ c #A1A6AD",
"/ c #A5A8AE",
"( c #A7ACB1",
") c #A1ADBA",
"_ c #A6B6C3",
"` c #A7B8C6",
"' c #A9B9C7",
"] c #ABBCCA",
"[ c #AEC3D1",
"{ c #B1C6D4",
"} c #B2C8D6",
"| c #B3CAD8",
/* pixels */
";;;*@oooOoooooooooooooooooooooooooooOoOoOXOOooOOoOOoOoooOoo@*;;;",
";;;*@ooooooXoooooooooooooooo.oooooXo.o.oXXXXXXXX..o..OXoooo@*;;;",
";;;=@oooo..oXX.XXXX..........oX.X.XXX.o.....XXXXO.......oOo@=;;;",
"**=%@oo@->>>>>>>>>>>2:2>2:22>:222:2:2>:2:2222:2::>:22:2-@oo@%***",
"@@@@Ooo-kVxxxxxxxxxxxxxxxxVxxxBxxVxVxBxxxxxxxxxxBBBxxBVk-XX@@@@@",
"ooooo  >BUUUUUUYUULUULUUUUUUUUUUUUUUUUUUULULULPUUUUUUUUB>X ooooo",
"oOooo  >BUULUUUUULULLLULUUUUUUUUUUUUUUUULLLULUUUUUUULUUV:  ooOoo",
"ooo#->>yDQWKAxxZHLKUYRRKAxxxVBVxBVxxBxxAPERULLLGZxxALREDy:>-#ooo",
"ooo-kxxD!'`Pi--yZLLY)''Pi:>>>>>>>>>22--iP__)YULZe::iP`'~DBVk-ooO",
"oXX>BUUQ'}|Iq  :xLLR_{[Pq  ............qP{}_YUUx:  qI||'EPUV>..o",
"ooX>BUUQ'||Iq  -xUUR_{{Pq ..XX .o .... qP}{_RLUx>  qI||'ELUx>ooo",
"ooX>xULKPIYC> X>xLLR_{{Ye+#$&&&&&&&&$#@eU{{_RLLx>  >CYIPPUUx>..O",
"ooX>xUUAiqe>$XX>xLLR_[{Yi1<4800000084<<dR[[_RLLx>.X#>qqiAUUx>ooo",
"ooX>xUUx-  Xoo.>xULR_[{Wl337vvvvvvvvp43lW[[_RLUx>.ooo  -xUUx>..O",
"ooX>xUPx- .XoX.>cULR_[{Wl4370vvvvvv0643lQ{[`RLLx>.Xoo. :xUUx>.oo",
"ooX2ZQQA>XoO@#+qcLLY_{{~cgkznMMNMMmmzllx~[[`RUUcq###Oo.>ZEEZq.oo",
"ooXqJ]]J>..#-11uZLLR_{['~WWW^///^(/^QWW~_{]_YLUZu11,#o.qJ']Jq.oo",
"oXXqP}}Pe..$>75fDLLR){[[{{{{{{{{{{{[[}}{{]{_YLLSi4w1$..qP||Iq..o",
"oXXqI}}I>XX#172iSKLY_[[[{{{{}{{{}{}{}}[[[]{_YLLSi5w1$XXqI|{Pq.XO",
"ooXqP}}Pe.X$47thFRY!'[[)WPIPIPPPPIPPPPPW`{{_!REGhpp4$..qP{|Pq..o",
"oXXqP}}P>XX&8v0mT```][{Wj>qqqqeqqqeqqq2jR[[]```Rn0s0&. qP}}Pq.oO",
"oXXqP}}Pe..&0vvN({[{[}}Pq  ..    .  .. qI}}[[{}(Nvv0&. qP}}Pqo.o",
"oo.qP}}P2.X&0vvN(|}{{}|Iq  oX.o..X.... qI|}[[||(Nvv0&..qP}}Pq..O",
"oXXqP}}Pe X&0vvmFIIPPIICq###&&&&&&&&$##qCIIIPPPFbvv0&..wP}|Uq.Xo",
"oXXqP}}Pq X&0vvsrqqqqqqq2115900000093212qqqqqqqrsvv0&. qP}}PqXXo",
"ooXqP}}Pq.X&0vv0&   .  #1wwpsvvvvvvstw53# .... &avv0&X eP}}PqXoo",
"oX.qP}}Pq.X&0vv0& XXo  @3wwpsvvvvvvstw51#   ...&0vv0&X qP}}Pq.Xo",
"oXXqP}}Pq X&0vva,##$&&&,3wwpavvvvvvstw53<&&&$##,0vv0&.XqP}}Pq.oo",
"ooXqI}}Pq..&0vvs611480a965wtsvvvvvvstwwr90084216svv0&X qP}}Pq.Xo",
"oXXqP}}Pq..&0vvstwwpsvvst55tsvvvvvvstw57vvvspwwpsvv0&X.qP}}Pqooo",
"OXXqP}}Pq .&0vvstwwtsvvstwwtsvvsvvvstwwtsvvst5wtsvv0&..qP}}Pq.Xo",
"oX.qP}}Pe .&0vvstwwtsvvvtwwtsvvvsvvst5wtsvvstwrpsvv0&..qP}}Iq.oo",
"oX.qI{{Pq.X&avvswwwtsvvstwwtavvvvvvstwwtsvvst5wtsvv0&X.qP{|Pe..o",
"oX.qP|{Iq X&0vvspwwtsvvstwwtavvvvvvst3wtsvvstwwtsvv0&..qP|{Pq Xo",
"oo.qP{{Iq.X&0vvspwwtsvvstwwtsvvvvvsstwwtsvvstwwtsvv0&. eP|{Pe.Xo",
"oX eP|{Pq.o&0vvsp557svvsww56svvvvvvstwwtsvvstwwtsvv0&. qP{|Pq.oo",
"oXXeI{{Iq .&0vvspwwwsvvspw5psvvvvvvstwwrsvvstwwtsvv0&o.qP}|Pq..o",
"oo qI}|Ie X&0vvvpwwpsvvspwwpavvvvvvstw57svvstwwtsvv0&X qI}}Pq.Xo",
"oX.qI{}Pq..&0vvspwwpsvvspwwwsvvvvvvswwwtsvvstwwtsvv0&. qI{|Pe.Xo",
"oX.qJ]]Jq..&avvspw4psvvspwwpssvvvvvspwwtsvvswwwtsvva&XXqJ]]J2.oo",
"ooX>AQQZ2..&0vvswwwwvvvspwwpsvvvvsvstwwtsvvstwwtsvv0& o>Z!QZ>Xoo",
"oXo>xUUx>..&0vvspwwpsvvswwwpsvvvvvvstwwtsvvst3wtsvv0&o >xPUx>Xoo",
"ooX>xUPx>..&0vvspwwpsvvstwwtsvvvvvvstwwtsvvstwwtsvva&oo>xLUx>Xoo",
"ooX>ZQQZ1..&0vvspwwpsvvstwwtsvvvvvvstwwtsvvstwwtsvv0&X 2ZQQZ2.oo",
"oo.qJ]]Jq..,0vvswwwpsvvstwwtsvvvvvvs65wtsvvs75wtsvv0&..qJ]]Jq.oo",
"o..qP}}Iq. $0vvspwwpsvvstwwtsvvvsvvstwwtsvvstw5tsvv0&. qI||Pq..o",
"oo.qI||Iq..,0vvspw4psvvspwwpsvvvvvvstw5psvvstww7svva&..qP||Iq.Xo",
"oo.qJ]]Jq..$7vvapw6wassatwwwassssssatwwwassatwwrasv9&..qJ]]Jq.oo",
"oo.2ZEQZ2..$4ppttwwwppptwwwtppppppppwwwwpppptwwwttt4$XX2ZQQZ2Xoo",
"oo.>xUUx:..#<wwwwwwwwwwwwwwwwwwwwwwwwrwwwwwwwwwwwww1+X :xULx>ooo",
"oXo2xUUx-  +3wwwwwwwwwwwwrwwwwwwwwwwwwwwwwwwwwwwwww1#X :xUUx>Xoo",
"oo.:xUUAiqqq11111111113111111111111114111111111111322qqiZUUx>Xoo",
"ooo>xUUKPIICq##$$$$##$$$$$$$$$$$$$$$##$#&#$$$$$$$##qBIPPKLUx>Xoo",
"oo.>VUUE'||Iq....o.oo.o.Xo......oX..o.oo oXoXX.oXX qI||'QUUB>Xoo",
"oo.>VUUE'||Iq.....................X...o.o  o....X  qI||'QUYx>XXo",
"ooo-kBBD!'_Pi--2>:2>:2>22:222:2::2:2>>>>>>>>::22>:-iP]'!Dxxk-ooo",
"ooo#->>yDQEKAxxxBxxVxxVxxBxVxxBBBBVxxBxxVBxVxxxxxxxALRQDy:>-@ooo",
"oooo.. >xUUUUUUUUUUUUUUUUUUUUUUUUUUUUUUUUUUUUUYUUUUUUPUx: XXoooo",
"ooooo. >cUUUUUUUUUUUUUUUUUUUUUUUUUUUUUUUUUUUUUUUUUUUUUYx> Xooooo",
"@@@@ooo-kBVBxxxBxxxxVBBxxVxxBVxxVxVxVxBVxxxxVxBxxVxxxxxj-XXO@#@@",
"===*@oo@->>>22>:2:22:2:22>>>>2:2:2>>22:22:22:2:22>>>>>>-#ooO****",
";;;*@ooo.o.....oXX..XX...oX.o..X.o......X....o..XXo.XXXoooo@*;;;",
";;;*@ooooooo.ooXoooooXooooooo.o.oXooooo.oooooXooooXoooooooo@*;;;",
";;;*@ooOoooOoOooooooooooooooooOoOooooooOooooooooooooOoooooo@*;;;"
};
