/* XPM */
static char *_569c98384084632c136194907426307HWSMV2bihOmwF6Mz[] = {
/* columns rows colors chars-per-pixel */
"64 64 5 1 ",
"  c #355D40",
". c #20774D",
"X c #20774E",
"o c #3E925B",
"O c #3E925C",
/* pixels */
"ooooOOOOOOOOOOOOooooooooOOOOOOOOooooOOOOooooOOOOOOOOOOOOooooOOOO",
"ooooOOOOOOOOOOOOooooooooOOOOOOOOooooOOOOooooOOOOOOOOOOOOooooOOOO",
"ooooOOOOOOOOOOOOooOOooooOOOOOOOOooooOOOOooooOOOOOOOOOOOOooooOOOO",
"ooooOOOOOOOOOOOOOOOOooooOOOOOOOOooooOOOOooooOOOOOOOOOOOOooooOOOO",
"ooooooooOOOOOOOOOOOOOOOOOOOOOOOOooooOOOOOOOOOOOOOOOOOOOOOOOOOOOO",
"ooooooooOOOOOOOOOOOOOOOOOOOOOOOOooooOOOOOOOOOOOOOOOOOOOOOOOOOOOO",
"ooooooooOOOOOOOOOOOOOOOOOOOOOOOOooooOOOOOOOOOOOOOOOOOOOOOOOOOOOO",
"ooooooooOOOOOOOOOOOOOOOOOOOOOOOOooooOOOOOOOOOOOOOOOOOOOOOOOOOOOO",
"OOOOooooooooOOOOOOOOOOOOooooOOOOOOOOOOOOOOOOOOOOOOOOooooooooOOOO",
"OOOOooooooooOOOOOOOOOOOOooooOOOOOOOOOOOOOOOOOOOOOOOOooooooooOOOO",
"OOOOooooooooOOOOOOOOOOOOooooOOOOOOOOOOOOOOOOOOOOOOOOooooooooOOOO",
"OOOOooooooooOOOOOOOOOOOOooooOOOOOOOOOOOOOOOOOOOOOOOOooooooooOOOO",
"OOOOOOOOOOOOooooOOOOXXX.OOOOOOOOOOOOOOOOOOOOOOOOOOOOooooOOOOOOOO",
"OOOOOOOOOOOOooooOOOOXXX.OOOOOOOOOOOOOOOOOOOOOOOOOOOOooooOOOOOOOO",
"OOOOOOOOOOOOooooOOOOXX..OOOOOOOOOOOOOOOOOOOOOOOOOOOOooooOOOOOOOO",
"OOOOOOOOOOOOooooOOOOXX..OOOOOOOOOOOOOOOOOOOOOOOOOOOOooooOOOOOOOO",
"OOOOOOOOXXXXOOooOOOO....ooooOOOO....ooooooooooooOOOOooooOOOOOOOO",
"OOOOOOOOXXXXOOooOOOO....ooooOOOO....ooooooooooooOOOOooooOOOOOOOO",
"OOOOOOOOXX..OoooOOOO....ooOOOOOO....ooooooooooooOOOOooooOOOOOOOO",
"OOOOOOOO....OoooOOOO....OOOOOOOO....ooooooooooooOOOOooooOOOOOOOO",
"OOOOOOOOOOOO....OOOOOOOOOOOOXXX.OOOOOOOOOOOOOOOOOOOOOOOOooooOOOO",
"OOOOOOOOOOOO....OOOOOOOOOOOOXXX.OOOOOOOOOOOOOOOOOOOOOOOOooooOOOO",
"OOOOOOOOOOOO....OOOOOOOOOOOOXX..OOOOOOOOOOOOOOOOOOOOOOOOooooOOOO",
"OOOOOOOOOOOO....OOOOOOOOOOOOXX..OOOOOOOOOOOOOOOOOOOOOOOOooooOOOO",
"OOOOooooOOOOooooOOOOOOOOOOOOOOOOOOOOOOOOOOOOooooOOOOooooooooOOOO",
"OOOOooooOOOOooooOOOOOOOOOOOOOOOOOOOOOOOOOOOOooooOOOOooooooooOOOO",
"OOOOooooOOOOooooOOOOOOOOOOOOOOOOOOOOOOOOOOOOooooOOOOooooooooOOOO",
"OOOOooooOOOOooooOOOOOOOOOOOOOOOOOOOOOOOOOOOOooooOOOOooooooooOOOO",
"OOOOOOOOooooOOOOOOOOOOOOOOOOOOOOooooOOOOooooooooooooOOOOOOOOOOOO",
"OOOOOOOOooooOOOOOOOOOOOOOOOOOOOOooooOOOOooooooooooooOOOOOOOOOOOO",
"OOOOOOOOooooOOOOOOOOOOOOOOOOOOOOooooOOOOooooooooooooOOOOOOOOOOOO",
"OOOOOOOOooooOOOOOOOOOOOOOOOOOOOOooooOOOOooooooooooooOOOOOOOOOOOO",
"OOOOOOOOOOOOOOOOooooOOOOooooooooooooooooOOOOOOOOooooOOOOoooooooo",
"OOOOOOOOOOOOOOOOooooOOOOooooooooooooooooOOOOOOOOooooOOOOoooooooo",
"OOOOOOOOOOOOOOOOooooOOOOooooooooooooooooOOOOOOOOooooOOOOoooooooo",
"OOOOOOOOOOOOOOOOooooOOOOooooooooooooooooOOOOOOOOooooOOOOoooooooo",
"OOOOooooooooOOOOooooOOOOOOOOOOOOooooOOOOoooo    OOOOOOOOooooOOOO",
"OOOOooooooooOOOOooooOOOOOOOOOOOOooooOOOOoooo    OOOOOOOOooooOOOO",
"OOOOooooooooOOOOooooOOOOOOOOOOOOooooOOOOoooo    OOOOOOOOooooOOOO",
"OOOOooooooooOOOOooooOOOOOOOOOOOOooooOOOOoooo    OOOOOOOOooooOOOO",
"ooooOOOOooooOOOOOOOOOOOOooooOOOO    oooooooo    OOOOOOOO    OOOO",
"ooooOOOOooooOOOOOOOOOOOOooooOOOO    oooooooo    OOOOOOOO    OOOO",
"ooooOOOOooooOOOOOOOOOOOOooooOOOO    oooooooo    OOOOOOOO    OOOO",
"ooooOOOOooooOOOOOOOOOOOOooooOOOO    oooooooo    OOOOOOOO    OOOO",
"OOOOOOOOooooOOOOooooooooOOOOOOOOOOOO    OOOOOOOOOOOO    OOOOoooo",
"OOOOOOOOooooOOOOooooooooOOOOOOOOOOOO    OOOOOOOOOOOO    OOOOoooo",
"OOOOOOOOooooOOOOooooooooOOOOOOOOOOOO    OOOOOOOOOOOO    OOOOoooo",
"OOOOOOOOooooOOOOooooooooOOOOOOOOOOOO    OOOOOOOOOOOO    OOOOoooo",
"ooooOOOOOOOOOOOOooooOOOOOOOOOOOOooooOOOOooooOOOOooooOOOOooooOOOO",
"ooooOOOOOOOOOOOOooooOOOOOOOOOOOOooooOOOOooooOOOOooooOOOOooooOOOO",
"ooooOOOOOOOOOOOOooooOOOOOOOOOOOOooooOOOOooooOOOOooooOOOOooooOOOO",
"ooooOOOOOOOOOOOOooooOOOOOOOOOOOOooooOOOOooooOOOOooooOOOOooooOOOO",
"OOOOOOOOOOOOooooOOOOOOOOOOOOOOOOooooooooOOOOOOOOOOOOOOOOOOOOOOOO",
"OOOOOOOOOOOOooooOOOOOOOOOOOOOOOOooooooooOOOOOOOOOOOOOOOOOOOOOOOO",
"OOOOOOOOOOOOooooOOOOOOOOOOOOOOOOooooooooOOOOOOOOOOOOOOOOOOOOOOOO",
"OOOOOOOOOOOOooooOOOOOOOOOOOOOOOOooooooooOOOOOOOOOOOOOOOOOOOOOOOO",
"OOOOOOOOOOOOOOOOOOOOooooOOOOOOOOooooooooooooooooOOOOOOOOOOOOOOOO",
"OOOOOOOOOOOOOOOOOOOOooooOOOOOOOOooooooooooooooooOOOOOOOOOOOOOOOO",
"OOOOOOOOOOOOOOOOOOOOooooOOOOOOOOooooooooooooooooOOOOOOOOOOOOOOOO",
"OOOOOOOOOOOOOOOOOOOOooooOOOOOOOOooooooooooooooooOOOOOOOOOOOOOOOO",
"OOOOOOOOOOOOOOOOOOOOooooooooOOOOooooooooooooOOOOOOOOOOOOOOOOOOOO",
"OOOOOOOOOOOOOOOOOOOOooooooooOOOOooooooooooooOOOOOOOOOOOOOOOOOOOO",
"OOOOOOOOOOOOOOOOOOOOooooooooOOOOooooooooooooOOOOOOOOOOOOOOOOOOOO",
"OOOOOOOOOOOOOOOOOOOOooooooooOOOOooooooooooooOOOOOOOOOOOOOOOOOOOO"
};
