/* XPM */
static char *_7a25813201c4394cb9fbc874016e1e8zqdnYJuHOMcrgS71[] = {
/* columns rows colors chars-per-pixel */
"64 64 107 2 ",
"   c None",
".  c #050506",
"X  c #050009",
"o  c #08070A",
"O  c #0D0D0D",
"+  c #0F110D",
"@  c #11170D",
"#  c #131A0D",
"$  c #19260F",
"%  c #1A2B0F",
"&  c #1D330F",
"*  c #1D2A14",
"=  c #1F2818",
"-  c #1D3110",
";  c #202E15",
":  c #242E1D",
">  c #213314",
",  c #213911",
"<  c #2C2C2C",
"1  c #24440D",
"2  c #274C0C",
"3  c #294E0D",
"4  c #27500B",
"5  c #2B550D",
"6  c #2E5B0F",
"7  c #305D0F",
"8  c #304A1C",
"9  c #346312",
"0  c #376814",
"q  c #396B15",
"w  c #3D7117",
"e  c #344A23",
"r  c #447E1A",
"t  c #414A39",
"y  c gray29",
"u  c #47841A",
"i  c #48861A",
"p  c #4B8C1C",
"a  c #4D901C",
"s  c #529521",
"d  c #559A22",
"f  c #5EA627",
"g  c #5FA828",
"h  c #78C53D",
"j  c #7ACC3C",
"k  c #7DD43C",
"l  c #82DD3F",
"z  c #85DE43",
"x  c #8ADE44",
"c  c #86E540",
"v  c #89E344",
"b  c #8CEB44",
"n  c #90EF45",
"m  c #8EF045",
"M  c #90F245",
"N  c #96FF46",
"B  c #97FD49",
"V  c #99FF4B",
"C  c #9DFF53",
"Z  c #A1FF4F",
"A  c #A2FF5B",
"S  c #8FC567",
"D  c #A1DE73",
"F  c #A0E36E",
"G  c #A6FF62",
"H  c #ABFF6A",
"J  c #A4E375",
"K  c #A5E378",
"L  c #B0FF75",
"P  c #B4FF7B",
"I  c #B8FF7E",
"U  c #B6FF81",
"Y  c #B9FF83",
"T  c #BEFE8C",
"R  c #BEFB90",
"E  c #C2FF89",
"W  c #C2FF95",
"Q  c #C3FF95",
"!  c #C2FF94",
"~  c #C0FF91",
"^  c #CAFFA2",
"/  c #C5C5C5",
"(  c #DDDDDD",
")  c gray87",
"_  c #D9E2D2",
"`  c #D9E3D2",
"'  c #E5FFD2",
"]  c #E7FFD5",
"[  c #DFDDE0",
"{  c #E2E2E2",
"}  c gray89",
"|  c #EDFFE0",
" . c #F1FFE6",
".. c #F1FFE7",
"X. c #F2FFE8",
"o. c #F3FFEA",
"O. c #F3FFEB",
"+. c #F4FFED",
"@. c #F5FFED",
"#. c #F5FFEE",
"$. c #F6FFEE",
"%. c #F6FFF0",
"&. c #F7FFF1",
"*. c #FBFFF4",
"=. c #FBFBFB",
"-. c #FEFFFD",
";. c white",
/* pixels */
"                                        O O O O O O O + O O O O O O O O O O O O O O O O                                         ",
"                                        O O O O O O O O O O O O O O O + O O + O O O O O                                         ",
"                                        o o o o o o o o o o o o o o o o o o . o o o o o                                         ",
"                                        : : : : : : : : : : : : : : : : : : : : : : : :                                         ",
"                                O O o : S J D D J D D D D D D D D D D D J D D D D D J S : o O O                                 ",
"                                O O o : D E T Y Y Y Y Y Y E E Y Y E Y Y Y Y E Y Y T E D : o O O                                 ",
"                                o . X ; D Y U Y Y Y Y Y Y Y Y Y Y Y Y Y U Y Y Y Y Y Y D : X o o                                 ",
"                                < < < t J E Y Y Y Y Y Y Y Y Y Y Y Y U Y Y Y Y U P P I F e * ; =                                 ",
"                        O O . < / } [ ` R U U Y Y Y Y Y Y Y U Y Y Y Y Y Y Y Y P C C C C v z v h * O O O                         ",
"                        O O o < [ -.-.#.W U Y Y Y U Y Y Y Y Y Y Y Y U Y Y Y Y P C V B V V V Z x ; o O O                         ",
"                        . . . < [ -.-.%.~ P U U Y Y U Y U Y Y U U Y Y Y Y Y Y P C B V V V V C z * X o o                         ",
"                        < < < y } -.-.&.^ ~ W ~ Y U Y Y Y Y Y U Y Y Y U Y Y Y P C B V V V V V v 8 * ; ;                         ",
"                O O . < / { ( { =.-.-.-.%.%.%.| R U Y Y Y Y U Y Y Y U Y Y Y Y P C V V V V V V B v x v h ; o O O                 ",
"                O o . < ( -.-.-.-.-.-.-.-.-.-.%.R Y Y Y U Y Y Y Y Y Y Y Y Y Y P C V V B V B V V V V Z x ; o O O                 ",
"                . o . < [ -.-.-.-.-.-.-.-.-.-.%.R U Y Y Y Y Y Y U Y Y Y Y Y Y P C V V V V V V V V V V x * X o O                 ",
"                < < < y } -.-.-.-.-.-.-.-.-.-.%.R U Y Y U Y Y U Y Y Y U P P P L C B V V V V B V V V V v 8 ; ; ;                 ",
"        + O . < / } ) } =.-.-.-.-.-.-.-.-.-.-.%.W U U Y Y U Y Y Y Y Y P A C C C V V V V V V V V V V V B v z v h ; o O O         ",
"        + O o < [ -.-.-.-.-.-.-.-.-.-.-.-.-.-.#.W U Y Y Y Y Y Y Y Y Y P C N V V V V V V V V V V V V V V V Z Z x ; o O O         ",
"        o o . < ) -.-.-.-.-.-.-.-.-.-.-.-.-.-.%.W Y Y Y Y Y Y Y Y Y Y P C V V V V V V V V V V V V V V V V V Z x ; o O O         ",
"        : : < e ` *.%.%.-.-.-.-.-.-.-.-.-.-.-.#.R L P L P P P P P P P L V V V V m m m m V V V V V V V B b b b j ; O O O         ",
"O O o : S J D D R W ~ ^ &.-.-.-.-.-.-.-.-.-.-.o.H V C C C C C C C C C C V V V M g d s g M V V V V V V b r q q 0 - $ % $ + O O O ",
"O O o : D E T Y U U P ~ %.-.-.-.-.-.-.-.-.-.-.o.G N V V V V V V V V V V V V V b d u u d b V V V V V V b 0 2 4 3 & % % % + O O O ",
"O O o : D Y Y Y Y U U W #.-.-.-.-.-.-.-.-.-.-...A N N N N N N N V V V V V V V m d i u d n Z V V V V C b q 2 5 3 & % % % + O O O ",
"O O o : D Y Y Y Y Y U ~ | &.+.%.#.%.#.#.o.o.o.] L G G G G G G G V V V V V V V m g s d f l b b b b b M l q 7 7 5 & % % * + O O O ",
"O O O : D Y Y Y Y Y Y Y R R W W W W W T H G G L ] +.| o.o...o.' G N V V V V V B n n M l r q q w s d d d i i i r , % % % @ O O O ",
"O O o : D E Y Y Y Y Y Y U U Y U U U Y L V N N C o.-.-.-.-.-.-.o.G N V V V B V V V V C b 0 2 4 5 r p p i p p a r , % % $ O O O O ",
"O O o : D Y Y Y Y Y Y U U Y Y Y Y Y Y P C V N G o.-.-.-.-.-.-...G N V V V B V V V V V b q 4 5 6 i p p p p p a r , % % % @ O O O ",
"O O o : D Y Y I Y U Y Y Y Y U Y Y Y Y P C V N G ..-.-.-.-.-.-...G N V V V V V V V V V b w 5 6 9 i a p p p p a r , $ % % O O O O ",
"O O o : J Y Y Y U Y Y Y Y Y Y U Y U Y P C V N G ..-.-.-.-.-.-.o.G N V V V B V V V V V b s i i i p p p p p p a r , % % $ @ O O O ",
"O O o : D Y Y Y U Y U Y U Y Y Y Y Y Y P C V N G o.-.-.-.-.-.-...G N B V V V V V V V V M d i p p p p p p p p a r , % % % O O O O ",
"O O o : D Y Y Y Y U Y Y Y Y Y Y U Y Y P C V N G ..-.-.-.-.-.-...G N V V V V V V V V C n d p p p p p p p p p a r , % % % + O O O ",
"O O o : D E Y Y Y Y Y Y Y Y U Y Y Y Y P C V N G ' o.o...o...#.' G V V B V V V B V V V n d i p p p p p p p p a r , % % $ + O O O ",
"O O o : D T Y Y Y Y Y U U Y U Y Y Y Y P C N V V G G G G G G G A V V V V V B V V V V V b d p p p p p p p p p a u , * % % + O O O ",
"O O o : D Y Y Y Y U Y Y Y Y Y Y Y Y Y P C V V V N N N N N N V N V V V B V V V V V V V n d p p p p p p p p p a r & $ % % + O O O ",
"O O o : D Y Y Y U Y Y Y Y Y Y Y Y Y Y P C V V V V V V V V V V V V V V V V V V B V V V n d p p p p p p p p p p r , % % % + O O O ",
"O O o : D Y Y Y Y Y U Y Y U Y U P P P L C V V V V V V V V V V V V B V V V V V V V V V n s u u i p p p p p p p u , * % % + O O O ",
"O + o : D Y Y Y Y Y Y Y Y Y Y U C C C C V V V V B V V V V V V V V V V B B V V V V V V n w 5 6 7 u p p p p p p r & % % $ + O O O ",
"O O o : D T Y Y U Y U Y Y Y Y P C V V V V V V V V V V B V V V V B V V V V V V B V V V v q 3 5 7 i p p p p p p r , % % % + O O O ",
"O O o : D Y Y U Y U Y Y Y Y Y P C V V V V V C V V B V V V V V V V V V V B V V V V V Z v q 5 5 7 i p p p p p a r , % % % + O O O ",
"O O o : D Y Y U U P P U P P P L C B V B m m m m B V V V V V V V V V V V V V V B b b b k 0 5 5 7 r i i i i i p r , % % % + O O O ",
"O O o : D Y Y Y A V C C C C C V V V V m g s d g n V V V V V V V V V V V V V V b u 0 q 0 7 5 5 5 6 6 7 7 6 7 7 5 & % % % + O O O ",
"+ O o : D Y Y P C B V V V V V V V V C M s i i d n V V V V V V V V B V V V V V v 0 2 4 4 5 5 5 5 5 5 5 5 5 5 5 3 & % % % + O O O ",
"O O o : D E E I C B V V V V V V V V V b d i i d m V V C V V C V V V V V C V C b q 4 5 5 5 5 5 5 5 5 5 5 5 5 5 3 & % & $ + O O O ",
"O O o : S J D F C V V V V V V V V B V M g s d f c M b m M m b m m m m m b b b k q 4 6 5 5 5 6 5 5 5 5 5 3 5 5 3 % % % $ + O O O ",
"        : : : e v V V V V V V N V V V V m m m c f d d d d d d d d d d s w q q q 6 5 5 5 5 5 5 5 5 5 5 5 , & & % @ O + +         ",
"        o o X $ z V V V V V V V V V V V V V V m d u i p p i p p i p p u 5 3 4 4 5 5 5 5 5 5 5 5 5 5 5 3 & % % $ @ O O O         ",
"        O O o : z C C V V V V V V V V V V V V n d p p p p p p p p p p i 6 5 5 5 5 5 5 5 5 5 5 5 5 5 5 5 & % % % O O O O         ",
"        O O o * h v z v B V V V V V V V V V V M d p p p p p p p p p p i 9 6 6 6 5 5 5 5 6 5 5 5 5 3 3 2 % $ % $ O O O O         ",
"                ; ; * 8 v V V V V V V V V V V M d p p p p p p p p p p p i i i r 7 5 5 5 5 5 5 5 - & & % @ @ O O                 ",
"                o o X * z V V V V V V V V V V b d p p p p p p p p p p p p p p i 7 5 5 5 5 5 5 2 - * % % O O O O                 ",
"                O O o > x Z Z V V V V B V V Z n d p p p p p p p p p p p p p p i 7 5 5 5 5 6 5 5 & % & % + O O O                 ",
"                O O o ; h v z v B V V B b v b l s i p p p p p p p p p p p p p i 7 5 5 5 5 2 4 2 % $ $ $ + O O O                 ",
"                        ; ; ; 8 v V V b r 0 q q p p p p p p p p p p p p p p p i 6 5 5 3 , & & % @ + + +                         ",
"                        o o X = z V Z b 0 2 5 6 u p p p p p p p p p p p p p p i 7 5 5 3 & % % $ + O O O                         ",
"                        O O o ; x Z Z b q 5 5 7 i p p p p p p p p p p p p p p i 6 5 5 5 & * % $ + O O O                         ",
"                        O O o ; h v v j 0 2 5 6 r i i i i i i i i i i i u i i r 6 5 5 3 % $ % $ + O O O                         ",
"                                : = * > 5 5 5 5 6 6 6 6 6 6 6 7 7 7 7 7 7 6 6 6 7 5 5 2 # O O @                                 ",
"                                o o o + 2 5 5 5 5 5 5 5 5 5 5 5 5 5 5 5 5 5 5 5 5 5 5 3 @ O O O                                 ",
"                                O O O @ 2 6 5 6 6 5 5 5 5 5 5 5 6 5 5 5 5 5 5 5 5 5 5 3 @ O O O                                 ",
"                                O O O @ 1 3 2 2 2 2 2 2 3 3 2 2 2 2 2 2 3 2 2 3 2 2 3 1 @ O O O                                 ",
"                                        @ + @ @ @ @ @ @ + @ @ @ @ @ @ @ @ @ @ @ @ @ @ @                                         ",
"                                        O O O O O O O O O O O O O O O O O O O O O O O O                                         ",
"                                        O O O O O O O O O O O O O O O O O O O O O O O O                                         ",
"                                        O O O O O O O O O O O O O O O O O O O O O O O O                                         "
};
