/* XPM */
static char *efd4486ad23a4185840e2bdbc45f78172zLcsUM3eMoeGAnG[] = {
/* columns rows colors chars-per-pixel */
"64 64 143 2 ",
"   c #1F1F1F",
".  c #25131A",
"X  c #29171E",
"o  c #201D1E",
"O  c #2E1A1E",
"+  c #331C1F",
"@  c #2C1B22",
"#  c #341E20",
"$  c #272322",
"%  c #2B2524",
"&  c #2E2824",
"*  c #2D222C",
"=  c #372123",
"-  c #3C2425",
";  c #312925",
":  c #3B2D27",
">  c #352229",
",  c #3B2529",
"<  c #3D2E28",
"1  c #3B2930",
"2  c #452725",
"3  c #442B2A",
"4  c #4A2D2A",
"5  c #46352D",
"6  c #4D322D",
"7  c #54342E",
"8  c #533A2F",
"9  c #442F34",
"0  c #4E3436",
"q  c #4D363B",
"w  c #4F383E",
"e  c #5C3D31",
"r  c #533A3E",
"t  c #593E3E",
"y  c #60372E",
"u  c #63382E",
"i  c #623E34",
"p  c #6D3E32",
"a  c #5D443E",
"s  c #644136",
"d  c #694336",
"f  c #64453A",
"g  c #6A4438",
"h  c #6A493A",
"j  c #734D3E",
"k  c #7A513F",
"l  c #523B40",
"z  c #5A4041",
"x  c #624441",
"c  c #734E43",
"v  c #7C4A43",
"b  c #725347",
"n  c #7C5241",
"m  c #755248",
"M  c #80513D",
"N  c #8E573F",
"B  c #844E45",
"V  c #825642",
"C  c #855845",
"Z  c #8A5A45",
"A  c #8B5F4C",
"S  c #915E47",
"D  c #9A5F45",
"F  c #8B604E",
"G  c #9E664F",
"H  c #866254",
"J  c #8C6454",
"K  c #87675A",
"L  c #8B6658",
"P  c #8D695B",
"I  c #906D5F",
"U  c #9F725E",
"Y  c #A36447",
"T  c #AC6647",
"R  c #A26449",
"E  c #AD6748",
"W  c #AC684A",
"Q  c #B76C4B",
"!  c #BA6D4B",
"~  c #BF704D",
"^  c #B67457",
"/  c #B87457",
"(  c #B37359",
")  c #B8765A",
"_  c #BE7859",
"`  c #936E62",
"'  c #8C736D",
"]  c #917062",
"[  c #927B76",
"{  c #C06F4A",
"}  c #C1714D",
"|  c #9B837E",
" . c #B38877",
".. c #B48B7A",
"X. c #B98E7D",
"o. c #9E8684",
"O. c #998984",
"+. c #8F8B94",
"@. c #8F8E9A",
"#. c #928B94",
"$. c #918F9A",
"%. c #8F909E",
"&. c #8F909D",
"*. c #8F909D",
"=. c #90919E",
"-. c #90919F",
";. c #91919E",
":. c #8F92A0",
">. c #8F93A1",
",. c #9092A0",
"<. c #989AA3",
"1. c #9A9DA6",
"2. c #999EAA",
"3. c #999FAB",
"4. c #9BA1AD",
"5. c #9AA1AF",
"6. c #9AA2AF",
"7. c #9BA2AF",
"8. c #9CA5B2",
"9. c #9CA5B3",
"0. c #9BA5B2",
"q. c #ABADB2",
"w. c #ADB2B9",
"e. c #AFB7BF",
"r. c #AEB6BD",
"t. c #A9B6C0",
"y. c #A9B6C1",
"u. c #A9B7C1",
"i. c #AFB8C0",
"p. c #ABBCC8",
"a. c #ABBCC9",
"s. c #ABBDCA",
"d. c #ACBDC9",
"f. c #ACBECB",
"g. c #B0B9C1",
"h. c #ADC1CF",
"j. c #ADC1CF",
"k. c #ADC1D0",
"l. c #ADC2D0",
"z. c #ADC2D1",
"x. c #ADC3D1",
"c. c #AEC2D1",
"v. c #ADC3D1",
/* pixels */
"* * * * ; * * * * * * * 1 v B B V B B V v > * * * * * * * * * * * % % * * * * * $ % % * 9 V B B B B B B g * * * * * * * * * * * ",
"            $           ; Q } } } } } } E &                                             e } } { } } } } N         @             ",
"                        ; Q } } ~ ~ ~ ~ E %   o                                         e } ~ / } } } } N o                     ",
"                        : Q } } ~ } } ~ E &         @                                   e } } { } } } } Z                       ",
"o                       : Y W W W W W W G %                                             a W T Y W W W Q k                       ",
". o                     & V Z Z Z Z Z Z k %                         $                   < Z Z F Z Z Z Z g                       ",
". o                     ; V Z Z Z Z Z Z k $                                             5 Z Z N Z Z Z Z h       $               ",
". o   o                 & V Z Z Z Z Z Z k $                                             5 Z Z Z Z Z Z Z h                       ",
". o o                   & C Z Z Z Z Z Z k $                                             5 F M Z Z Z Z Z h                       ",
". o                     & V Z Z Z Z Z Z n $                                             5 N F N Z Z Z Z h                       ",
". o                     & V C Z Z Z Z Z k $                                             5 F Z Z C Z Z Z f                       ",
". o o o o o     % < : : 0 H J J L I I P K 5 : < : : < < : : < < < < < < < : : : : : : : a I P P P J J J b < < < &       o o o   ",
". . . . . . . . e ! Q ! ( #.*.@.2.a.a.a.i.) ! ! Q Q Q Q Q Q Q Q Q Q Q Q Q Q Q Q Q Q Q Q  .j.j.p.4.@.@.*.| ! Q ! p . . . . . . X ",
". . . . . . . . u } ~ ~ ( $.*.*.3.z.z.z.i.} ! } ~ ~ ~ ~ ~ ~ ~ ~ ~ ~ ~ ~ ~ ~ ~ ~ ~ ~ ~ ! X.j.j.j.0.*.*.*.o.~ ~ } d . . . . . . . ",
". . . . . . . . u { ~ } / #.=.*.0.h.z.z.i._ { ! { / ~ ~ ~ ~ { { ~ ~ ~ _ ~ ~ ~ ~ ~ ~ ~ ~ X.j.j.x.8.*.=.>.o.~ } } p . . . . . . . ",
". . . . . . . . y ! ! ! ( #.@.+.<.y.y.y.q./ ! ! ! ! ! ! ! ! ! Q Q Q Q Q ~ Q ! ! ! ! ! !  .r.r.u.1.+.+.@.| ! ! Q p . . . . . . . ",
". . . . . . . . 6 S S S Z A F F J J J J J S S S S S S S S S S S S Z S S S S S S S S S S A J J J J A A A A S Z S 7 . . . . . . . ",
". . . . . . . . 6 Z Z Z Z Z Z Z Z Z Z Z Z Z Z C Z Z C Z Z C Z Z Z Z B Z C Z Z Z Z Z Z Z Z Z Z Z Z Z Z C Z Z Z Z 7 . . . . . . . ",
". . . . . . . . 4 Z Z Z Z Z Z Z Z Z Z Z Z S Z Z Z Z Z S Z Z Z S Z Z S Z Z Z Z Z Z Z Z Z Z Z Z Z Z Z Z Z Z Z Z Z 7 . . . . . . . ",
". . . . . . . . 2 i i i i c c c c c c c j i i i i i i i i i i i i i i i i i i y i i i i g c c c c c b c j i s s 2 . . . X . . . ",
". . . . . . . . . . . . @ w l l l r l l q X . . . . . . . . . . . . . . . . . . . . . . > l l l r l l l 9 . . . . . . . . . . . ",
". . . . . . . . . . . . @ l l l l l l l q X . . . . . . . . . . . . . . . . . . . . . . > l l l l r l l 9 . . . . . . . . . . . ",
". . . . . . . . . . . . X w l l l l r l q X . . . . . . . . . . . . . . . . . . . . . . # l l l l l l l 9 . . . . . . . . . . . ",
". . . . . . . . . . . . # l x f x x x x t X . . . . . . . . . . . . . . . . . . . . . . > x x x x x z x 0 . . . . . . . . . . . ",
". . . . . . . . . . . . = V Z Z C Z Z C k + . . . . . . . . . . . . . . . . . . . . . . 2 Z Z Z Z Z Z Z g O . . . . . . . . . . ",
". . . . . . . . . . . . + V Z Z Z Z Z Z n O . . . . . . . . . . X . . . . . . . . . . . 4 Z Z C Z Z Z Z g . . . X . . . . . . . ",
". . . . . . . . . . . . # C Z Z Z Z Z Z k O . . . . . . . . . . . . . . . . . . . . . . 4 Z Z Z Z Z Z Z g . . . . . . . . . . . ",
". . . . . . . . . . . . + V Z C Z Z Z Z v O . . . . . . . . . . . . . . . . . . . . . . 4 Z Z Z Z Z Z S g . . . . . . . . . . . ",
". . . . . . O . . . . . + N Z Z Z Z Z Z n O . . . . . . . . . . . . . . . . . . . . . . 4 Z C Z Z Z Z Z g . . . . . . . . . . . ",
". . . . . . . . . . . . # M Z Z Z C Z Z n O . . . . . . . . . . . . . . . . . . . . . . 4 Z Z Z Z Z Z Z g . . . . . . . . . . . ",
". . . . . . . . . . . . # V Z Z Z Z Z Z k O . . . . . . . . . . . . . . X . . . . . . . 4 Z Z Z Z Z Z Z g . . . . . . . . . . . ",
". . . . . . . . . . . . # C Z Z Z Z Z Z k + . . . . . . . . . . . . . . . . . . . . . . 4 Z Z Z Z Z Z Z g . . . . . . . . . . . ",
". . . . . . . . . . . . = M Z C Z Z Z Z n O . . . . . . . . . . . . . . . . . . . . . . 2 N Z Z Z C Z Z g . . . . . . . . . . . ",
". . . . . . . . . . . . = V Z Z Z Z Z Z k O . . . . . . . . . . . . . . . . . . . . . . 4 C Z Z Z Z Z Z g . . . . . . . . . . . ",
". . . . . . . . . . . . + C Z Z Z Z Z Z v O . . . . . . . . . . . . . . . . . . . . .   4 Z Z Z Z Z Z Z g . . . . . . . . . X . ",
". . . . . . . . . . . . # V Z Z Z Z Z Z k O . . . . . . . . . . . . . . . . . . . . . . 4 Z C Z Z Z Z Z g . . . . . . . . . . . ",
". . . . . . . . . . . . + Z Z Z Z Z Z Z k + . . . . . . . . . . . . . . . . . . . . . . 4 Z Z Z Z Z Z Z g . . . . . . . . . . . ",
". . . . . . . . . . . . = V Z Z Z Z Z Z k O . . . . . . . . . . . X . . . . . . . . . . 4 Z Z Z Z Z Z Z g . . . . . . . . . . . ",
". . . . . . . . . . . . # V Z Z Z Z Z Z k + . . . . . . . . . . . . . . . . . . . . . . 4 Z Z Z Z Z Z Z g . . . . . . . . . . . ",
". . . . . . . . . . . . + V Z Z Z Z Z Z B + . . . . . . . . . . . . . . . . . . . . . . 4 Z Z Z Z Z Z Z g . . . . . . . . . . . ",
". . . . . . . . . . . . # V Z Z Z Z Z Z k O . . . . . . . . . . . . . . . . . . . . . . 4 Z Z Z Z Z Z Z p . . . . . . . . . . . ",
". . . . . . . . . . . . + B C Z C C N Z k O   . . . . . . . . . . . . . . . . . . . . . 3 Z Z C Z Z Z Z g . . . . . . . . . . . ",
". . . . . . . . # 2 2 2 4 H L K P I I I K 4 2 2 2 2 2 2 2 2 2 2 2 2 2 2 2 2 2 2 2 2 # 2 f ` ] ] P L L L m 2 2 2 + . . . . . . . ",
". . . . . . . . u ! ! ! ( #.=.$.4.j.j.p.r.! Q Q ! ! ! ! Q Q Q Q ! ! ! { ! ! ! ! ! ! ! Q ..f.f.f.5.@.@.%.o.! ! } p . . . . . . . ",
". . . . . . . . u { { } ) $.*.$.4.h.h.h.e._ / } ~ ~ ~ ~ ~ } { { { { ! } } } ~ ~ { { ~ { o.c.h.h.0.@.%.,.o.} } } p . . . . . O . ",
". . . . . . . . i } } { ) =.,.$.0.z.z.z.g.} } { } ~ } ~ } } } ! } { } } } } ~ ~ } { { { X.c.c.c.9.%.,.>.o.{ } } p . . . . . . . ",
". . . . . . . . 7 Y Y Y R ' ' ' [ O.O.O.O.R R R R R R R R R R R R R R R R R R R R R R R ( O.O.O.[ ' ' ' ` Y Y Y u . . . . . . . ",
". . . . . . . . 6 Z Z C Z Z Z Z Z V N C C Z Z Z Z Z C Z C Z Z C C S B Z Z C Z Z Z Z Z C Z Z Z C Z Z Z Z C Z Z Z 7 . . . . . . . ",
". . . . . . . . 4 S Z Z Z Z Z Z Z Z Z Z Z Z Z Z Z Z Z Z C Z Z Z Z Z Z C Z Z Z V C Z Z Z Z Z Z Z Z Z C Z Z Z Z Z 7 . . . . . . . ",
". . . . . . . . 4 N V V V C C C C C C C C V V n n V V V V n V V n V V V n V V B V V V V V C C Z C C C C C V V V 4 . . . . . . . ",
". . . . . . . . . + + + - t l l z z z z r = # + # # # # # # # # # # # # # + + # # # # # 3 l z z z z l z q # # # X . . . . . . . ",
". . . . . . . . . . . . @ t l l l l l l q X . . . . . . . . . . . . . . . . . . . . . . > l l l l l l l 9 . . . . X . . . . . . ",
". . . . . . X . . . . . @ r l l l l l l q X . . . . . . . . . . . . . . . . . . . . . . > l l l l l l l 9 X . . . . . . . . . . ",
". . . . . . . . . . . . X r l l l l l l q X . . . . . . . . . . . . . . . . . . . . . . > l l l l l l l 9 . . . . . X . . . . . ",
". . . . . . . . . . . . # v n n n n n n j O . . . . . . . . . . . . . . . . . . . . . . 4 n n n V n n V i . . . . . . . . . . . ",
". . . . . . . . . . . . # C Z Z Z Z A Z n O . . . . . . . . . . . . . . . . . . . . . . 4 Z Z C Z Z Z A g . . . . . . . . . . . ",
". . . . . . . . . . . . # V Z Z Z Z Z Z n O . . . . . . . . . . . . . . . . . . . . . . 4 C Z Z Z Z Z Z g . . . . . . . . . . . ",
". . . . . . . . . . . . # V Z Z Z Z Z Z n O . . . . . . . . . . . . . . . . . . . . . . 4 C Z Z Z Z Z Z g . . . . . . . . . . . ",
"$ . . . . . . . . . . . = V Z C Z Z Z Z k O . . . . . . . . . . . . . . . . . . . . .   4 Z Z Z Z Z Z Z g . . . . . . . . . . . ",
"  . . . . . . . . . . . # V Z Z Z Z Z Z n + . . . . . . . . . . . . . . . . . . . . . . 4 Z Z Z Z Z Z Z g . . . . . . . . . . . ",
"  . . . . . . . . . . . # V Z Z Z Z Z Z n @ . . . . . . . . . . . . . . . . . . . . . . 5 Z Z Z Z Z Z Z d . . . . . . . . . . . ",
"  . . o . . . . .   . . = j k k k k k n h @ . . . . . @ . . . . .   . . X . . . . . . . 3 k k n n n n n e   . . . . .   X . X . ",
"                        $ $ $ $ $ $ $ $ $                                   @           o $ $ $ $ $ $ $ @                 @ o o ",
"                                                                                                                              o "
};
