/* XPM */
static char *_f8b5a4220014205b6ea667aebce04bb4tuy657JCWKuVI7j[] = {
/* columns rows colors chars-per-pixel */
"64 64 205 2 ",
"   c None",
".  c #000001",
"X  c #0B0604",
"o  c #020C04",
"O  c #0B0909",
"+  c #160D09",
"@  c #041405",
"#  c #051C06",
"$  c #061909",
"%  c #161407",
"&  c #1B1B01",
"*  c #131416",
"=  c #24140B",
"-  c #28180D",
";  c #2B1B13",
":  c #331C12",
">  c #05220B",
",  c #082308",
"<  c #062A0E",
"1  c #092B09",
"2  c #172305",
"3  c #112B0C",
"4  c #09360B",
"5  c #0B3D0C",
"6  c #16370D",
"7  c #083913",
"8  c #272705",
"9  c #352E0C",
"0  c #2C2113",
"q  c #392516",
"w  c #392B17",
"e  c #452614",
"r  c #482818",
"t  c #532E18",
"y  c #49381B",
"u  c #59341A",
"i  c #663A1D",
"p  c #6C3D1E",
"a  c #713E1E",
"s  c #4B2A20",
"d  c #412E2B",
"f  c #4F3927",
"g  c #673B21",
"h  c #753E20",
"j  c #783E20",
"k  c #0D420D",
"l  c #18450E",
"z  c #11490F",
"x  c #1E500C",
"c  c #0A4414",
"v  c #0D4B11",
"b  c #09441B",
"n  c #0A4B1A",
"m  c #1B4714",
"M  c #134D10",
"N  c #0E5416",
"B  c #0F5817",
"V  c #0B521B",
"C  c #0D5C1B",
"Z  c #145517",
"A  c #185613",
"S  c #1B5C14",
"D  c #28570C",
"F  c #234914",
"G  c #234E1B",
"H  c #374315",
"J  c #25541C",
"K  c #345512",
"L  c #0F641E",
"P  c #0F681F",
"I  c #1E6216",
"U  c #17651D",
"Y  c #256619",
"T  c #216918",
"R  c #2B6D1C",
"E  c #30791E",
"W  c #1A5123",
"Q  c #275420",
"!  c #385332",
"~  c #0D6621",
"^  c #0E6C23",
"/  c #166C24",
"(  c #0F7326",
")  c #0E7927",
"_  c #0F7B29",
"`  c #117526",
"'  c #197628",
"]  c #107B29",
"[  c #246F27",
"{  c #2A752A",
"}  c #4F4C0F",
"|  c #67421E",
" . c #74401F",
".. c #4E700E",
"X. c #787603",
"o. c #57452C",
"O. c #4B5723",
"+. c #535423",
"@. c #6D4421",
"#. c #694927",
"$. c #744120",
"%. c #794724",
"&. c #7C4B26",
"*. c #6A5425",
"=. c #664E38",
"-. c #725636",
";. c #53722A",
":. c #717636",
">. c #1F364C",
",. c #1B5352",
"<. c #2F4E6C",
"1. c #53514D",
"2. c #6E6B6C",
"3. c #897813",
"4. c #814E27",
"5. c #85552B",
"6. c #855935",
"7. c #886D34",
"8. c #926635",
"9. c #966A37",
"0. c #93743B",
"q. c #9D743D",
"w. c #A3773D",
"e. c #9C724D",
"r. c #A47B41",
"t. c #A97E44",
"y. c #A47A4D",
"u. c #A37A56",
"i. c #A67C58",
"p. c #0F802A",
"a. c #17832A",
"s. c #1B8429",
"d. c #268727",
"f. c #218A29",
"g. c #308420",
"h. c #348B22",
"j. c #2D9027",
"k. c #3A9425",
"l. c #389A27",
"z. c #3B9A26",
"x. c #319629",
"c. c #3EA129",
"v. c #3FA829",
"b. c #728F08",
"n. c #518426",
"m. c #489127",
"M. c #4BA927",
"N. c #41A429",
"B. c #47A82A",
"V. c #338F49",
"C. c #569D63",
"Z. c #888800",
"A. c #8F9207",
"S. c #8EAA08",
"D. c #AFA805",
"F. c #A19D28",
"G. c #B3893B",
"H. c #CBB90E",
"J. c #D0AD33",
"K. c #ADCC0F",
"L. c #C8CA00",
"P. c #D8D900",
"I. c #D9C81B",
"U. c #E5D617",
"Y. c #D9EA06",
"T. c #E7E901",
"R. c #E6F205",
"E. c #F6F504",
"W. c yellow",
"Q. c #CDC92F",
"!. c #EAC738",
"~. c #B0874B",
"^. c #BEA77C",
"/. c #C89A4B",
"(. c #CDA74B",
"). c #DCA952",
"_. c #C29E6B",
"`. c #C4A578",
"'. c #01759A",
"]. c #078594",
"[. c #0793B1",
"{. c #758B9B",
"}. c #69D292",
"|. c #0F9DC6",
" X c #07A7D8",
".X c #09AEED",
"XX c #00AFF3",
"oX c #00BEFF",
"OX c #9A9F9C",
"+X c #B2AFA7",
"@X c #CEB289",
"#X c #D5B48B",
"$X c #DAB98E",
"%X c #DBC99E",
"&X c #E6C89B",
"*X c #DCCAA3",
"=X c #E9D3A8",
"-X c #F4D9B0",
";X c #FEE5BC",
":X c #D1D3D2",
">X c #DBDCDE",
",X c #FFEBC2",
"<X c #EEF2ED",
"1X c #F1F9F3",
"2X c white",
/* pixels */
"                                                . . w r.r.r.r.r.r.r.8.j %.                                                      ",
"                                                . . w r.r.r.r.y.r.r.8.h h                                                       ",
"                                            . O y o.:.I.H.I.Q.H.I.Q.H.D.D.J.).).~.r.                                            ",
"                                          . . + 9.w.J.W.W.W.W.W.W.W.W.E.W.!.).).t.r.r.                                          ",
"                                          @ @ * 7.~.F.R.R.R.R.R.R.R.R.R.R.Q.(./.F.0.~.                                          ",
"                                      . . n ( ] m.N.B.M.M.M.M.M.B.B.M.M.M.B.B.B.' ] { e.r.                                      ",
"                                      . . n p.a.v.N.N.N.v.v.N.N.N.N.N.N.N.N.N.N._ _ ;.~.r.                                      ",
"                                      . . I x.j.T T T T T T T I Y Y T T Y Y T U C V S O.O.#.$.$.                                ",
"                                      . . R B.N.k 5 5 5 5 k 5 k 5 k 5 k 5 k 5 k c 5 k k k y  . .                                ",
"                                      o o Y k.h.S A A A A A A A A A A A A A A A c k c M v +.4.&.                                ",
"                                . . $ k k k k M z.z.N.N.z.N.c.c.c.c.z.c.c.c.c.k.z k N ) ] :.w.w.                                ",
"                                . . @ k k k k M z.N.N.N.N.N.N.N.N.N.N.N.v.c.B.z.M k N ] _ :.t.r.                                ",
"                                . . @ k k C P ` z.N.N.N.N.N.N.N.N.N.N.N.N.N.N.z.P / L N B J O.K @.$.                            ",
"                                . . @ k k P ] a.c.N.N.N.N.N.N.N.N.N.N.N.N.N.N.c.s.] P 5 k k 5 l g h a                           ",
"                                $ @ , N N L P ^ x.z.z.v.N.N.N.N.N.N.N.N.N.N.N.c.] ] P N N c k m -.8.8.                          ",
"                      r.w.`.#X^.F 5 N ] ] N k M ` ] s.B.N.N.N.N.N.N.N.N.N.N.N.z.a.] ] ] ) B 5 G ^.#X`.r.r.                      ",
"                      r.~._.$X@XG k N ] _ N 5 v ` ] f.N.N.N.N.N.N.N.N.N.v.c.N.z.a._ ] ) _ V k G `.$X`.t.r.                      ",
"                $.h u.=X&X=X-X%XQ k N ] ] 4 @ # ` ] a.s.s.z.N.N.N.N.N.N.N.j.s.s.] _ C > > 4 5 Q *X-X=X&X&Xi.a $.                ",
"                a a u.,X,X,X,X=XQ 5 N ] ] < . o ^ ] ] ] ] x.N.N.N.N.N.N.N.f.) _ _ p.V . . , c J =X,X,X,X,Xu.a  .                ",
"                 .a e.@X#X$X&X@XG 5 N ~ ^ > . o ^ _ ] ] ] f.x.z.c.N.N.N.N.f.) ) C V 5 @ @ 4 k J @X&X$X@X#Xe.a $.                ",
"                      $.$.8.r.0.m k k k k $ . o ^ _ ] ] ] ] _ ] z.N.N.N.N.f._ ^ o . @ k k k 5 m 0.r.8.$.$.                      ",
"                      $.$.8.r.0.m n c k k @ . o ^ ] ] ] ] ] ] ] c.c.c.c.v.f._ ^ o . $ k k c b W 0.r.8.$.$.                      ",
"                          &.&.-.[. X].k k $ . o v v C ] ] ] ] ] s.s.s.s.s.] _ ^ @ . # k k '.|.[.-.&.&.                          ",
"                          $. .=..XoX[.k k @ . . 5 k N ] ] ] ] _ _ _ ] _ ] ] _ ( o . @ k k [.oXXX=.$.$.                          ",
"                          e e y }.}.C.H H 3 $ $ , 1 5 P L ( ] ] _ _ ] ] _ ~ P B o . % H H C.}.}.f e e                           ",
"                          . . & P.W.L. .$.H 5 5 X . @ k 5 P ] ] _ ] ] ] _ N k 4 . . - $. .H.W.T.& . .                           ",
"                          . . & P.E.H. .$.K x l o . @ 5 5 P ] ] ] ] ] ] _ N 5 4 & O 9 $. .H.E.P.& . .                           ",
"                                8 8 y 9.r.H.Y.L.x 4 1 o o V _ ] ] ) _ ] _ 4 X 2 K.P.H.q.q.y 8 8                                 ",
"                                . . q G.r.U.W.T.D k < . . V a.) ] ] ] ] ] < . & T.W.U.y.t.w . .                                 ",
"                                  . ; o.f 3.Z.Z.A.b.... . 5 L P ) ] ` C L > . % X.Z.X.| o.; .                                   ",
"                                      . . . . & T.W.D.. . 1 k z ` ] ~ k 5 @ . . . . . . .                                       ",
"                                      . . . . 2 P.R.S.o o < 4 c ^ ` L k k $ . . X X X . .                                       ",
"                                      . . , 5 k d.g.s.^ ^ < o o k v k k c @ . X u i e . .                                       ",
"                                      . . < k M ) ] ] ) ] < . . 5 k k k k @ . X i a t . .                                       ",
"                                      . . 5 L C C C P ] ] C b 7 > , # , # 7 b W OX@X2.. .                                       ",
"                                      . . V _ ` k k N ] ] ] _ ( o . . . . V _ V.<X2X+X. .                                       ",
"                                      X X ! V.V.F F Z ` ` ] ] ` # @ @ @ @ N [ d.:X>XOX. .                                       ",
"                                . . + s r +X1X>X-.p y k k ~ ] ] ( ( ( ( ( O. .| + * *                                           ",
"                                . . + s d +X2X<X6.j y 5 k P ] ] _ _ _ _ p.+.a i X . .                                           ",
"                            . X e r =._.OXOXOX{.w - w } y O.O.O.O.O.O.O.O.;.;.;.Z n 7 . .                                       ",
"                          . . X i a i.,X,X{.<.<.O . = j j j j a j j h j h ;.v.v.a.p.V . .                                       ",
"                          . . X i a u.;X,X2.>.,.O o 0 *.*.*.*.*.*.*.*.*.*.n.v.c.] a.V . .                                       ",
"                          . . X i a u.;X;X1.. O 5 5 I N.N.N.N.N.N.N.N.N.N.N.v.z.a.] V . .                                       ",
"                          . . X i a u.,X;X1.. o 5 k I v.N.N.N.c.c.N.N.N.N.N.v.c.' ] V . .                                       ",
"                                = = w 1.o.* . o C ~ f.N.N.N.v.c.N.N.g.6 6 6 6 3 < < >                                           ",
"                                . . . . . . . o ( _ f.N.B.N.B.B.N.B.R . . . . . . . .                                           ",
"                                . . . . . . . o V C U E E E E E E E J 0 0 = + + . . .                                           ",
"                                                . . . . . . . . . . w r.w.5. .p X . .                                           ",
"                                                . . . . . . . . . . w r.r.5. .i O . .                                           ",
"                                                                . . w r.r.q.9.8.u u q . .                                       ",
"                                                                . . w r.r.r.r.q.&. .t . .                                       ",
"                                                                . . q ~.r.r.r.q.%. .r . .                                       ",
"                                                                . . w r.r.r.r.q.%.$.t . .                                       ",
"                                                                . . w w.r.r.r.q.%.$.r . .                                       ",
"                                                                . . - 4.&.&.&.&.u s : . .                                       ",
"                                                                . . - $.$.$.$.$.s s : . .                                       ",
"                                                                . . = e r r r r : : = . .                                       ",
"                                                                      . . . . . . . .                                           ",
"                                                                      . . . . . . . .                                           ",
"                                                                                                                                ",
"                                                                                                                                ",
"                                                                                                                                ",
"                                                                                                                                ",
"                                                                                                                                "
};
