/* XPM */
static char *_e6a992ada9d476adda44d2c5b8d616dOxOzb6DNYvmBJmea[] = {
/* columns rows colors chars-per-pixel */
"64 64 205 2 ",
"   c None",
".  c #000001",
"X  c #0B0604",
"o  c #020C04",
"O  c #0B0909",
"+  c #160D09",
"@  c #041405",
"#  c #051C06",
"$  c #061909",
"%  c #161407",
"&  c #1B1B01",
"*  c #131416",
"=  c #24140B",
"-  c #28180D",
";  c #2B1B13",
":  c #331C12",
">  c #05220B",
",  c #082308",
"<  c #062A0E",
"1  c #092B09",
"2  c #172305",
"3  c #09360B",
"4  c #0B3D0C",
"5  c #16370D",
"6  c #083913",
"7  c #272705",
"8  c #352E0C",
"9  c #2C2113",
"0  c #392516",
"q  c #392B17",
"w  c #091B26",
"e  c #111C27",
"r  c #452614",
"t  c #482818",
"y  c #532E18",
"u  c #49381B",
"i  c #59341A",
"p  c #663A1D",
"a  c #6C3D1E",
"s  c #713E1E",
"d  c #783F1F",
"f  c #4B2A20",
"g  c #4F3927",
"h  c #673B21",
"j  c #753E20",
"k  c #783E20",
"l  c #0D420D",
"z  c #18450E",
"x  c #11490F",
"c  c #1E500C",
"v  c #0A4414",
"b  c #0D4B11",
"n  c #09441B",
"m  c #1B4714",
"M  c #134D10",
"N  c #0E5416",
"B  c #0F5817",
"V  c #0B521B",
"C  c #0D5C1B",
"Z  c #145517",
"A  c #185613",
"S  c #1B5C14",
"D  c #28570C",
"F  c #234914",
"G  c #234E1B",
"H  c #374315",
"J  c #25541C",
"K  c #345512",
"L  c #0F641E",
"P  c #0F681F",
"I  c #1E6216",
"U  c #17651D",
"Y  c #256619",
"T  c #216918",
"R  c #2B6D1C",
"E  c #30791E",
"W  c #1A5123",
"Q  c #275420",
"!  c #385332",
"~  c #0D6621",
"^  c #0E6C23",
"/  c #0F7326",
"(  c #0E7927",
")  c #0F7B29",
"_  c #117526",
"`  c #197628",
"'  c #107B29",
"]  c #276925",
"[  c #246F27",
"{  c #2A752A",
"}  c #4F4C0F",
"|  c #74401F",
" . c #4E700E",
".. c #6B6508",
"X. c #787603",
"o. c #57452C",
"O. c #4B5723",
"+. c #535423",
"@. c #6D4421",
"#. c #694927",
"$. c #744120",
"%. c #794724",
"&. c #7C4B26",
"*. c #6A5425",
"=. c #665B22",
"-. c #664E38",
";. c #725636",
":. c #53722A",
">. c #717636",
",. c #2F4E6C",
"<. c #53514D",
"1. c #685A4D",
"2. c #6E6B6C",
"3. c #814E27",
"4. c #85552B",
"5. c #855935",
"6. c #926635",
"7. c #966A37",
"8. c #93743B",
"9. c #9D743D",
"0. c #A3773D",
"q. c #926542",
"w. c #9C724D",
"e. c #A47B41",
"r. c #A97E44",
"t. c #A37A56",
"y. c #A67C58",
"u. c #2F811F",
"i. c #0F802A",
"p. c #17832A",
"a. c #1B8429",
"s. c #218A29",
"d. c #308420",
"f. c #348B22",
"g. c #2D9027",
"h. c #2E9429",
"j. c #3A9425",
"k. c #389A27",
"l. c #3B9A26",
"z. c #319629",
"x. c #3EA129",
"c. c #3FA829",
"v. c #518426",
"b. c #489127",
"n. c #4BA927",
"m. c #41A429",
"M. c #47A82A",
"N. c #338F49",
"B. c #569D63",
"V. c #888800",
"C. c #8F9207",
"Z. c #AFA805",
"A. c #B3893B",
"S. c #CBB90E",
"D. c #D0AD33",
"F. c #C8CA00",
"G. c #CCCF0F",
"H. c #D8D900",
"J. c #D9C81B",
"K. c #E5D617",
"L. c #D9EA06",
"P. c #E7E901",
"I. c #E6F205",
"U. c #F6F504",
"Y. c yellow",
"T. c #CDC92F",
"R. c #EAC738",
"E. c #B0874B",
"W. c #BBA84A",
"Q. c #9C8864",
"!. c #AE8E6C",
"~. c #BEA77C",
"^. c #C89A4B",
"/. c #CDA74B",
"(. c #DCA952",
"). c #E5B54E",
"_. c #E2AE54",
"`. c #C29E6B",
"'. c #C4A578",
"]. c #01759A",
"[. c #0793B1",
"{. c #69D292",
"}. c #07A7D8",
"|. c #09AEED",
" X c #00BEFF",
".X c #9A9F9C",
"XX c #B2AFA7",
"oX c #CEB289",
"OX c #D5B48B",
"+X c #DAB98E",
"@X c #C7B8AE",
"#X c #DBC99E",
"$X c #E6C89B",
"%X c #DCCAA3",
"&X c #E9D3A8",
"*X c #F4D9B0",
"=X c #FCE5BB",
"-X c #FEE5BC",
";X c #B5C2CC",
":X c #D1D3D2",
">X c #DBDCDE",
",X c #FFEBC2",
"<X c #EEF2ED",
"1X c #F1F9F3",
"2X c white",
/* pixels */
"                                                . . q e.e.e.e.0.e.e.7.k j                                                       ",
"                                                . . q e.e.w.w.0.e.e.q.k a                                                       ",
"                                            . % *.;.8.J.J.J.J.J.J.J.S.Z.Z.D._.(.0.0.                                            ",
"                                          . . % /.).R.Y.Y.Y.U.Y.Y.Y.U.Y.Y.R.(.(.E.0.E.                                          ",
"                                          o o % W./.T.P.I.I.I.I.I.I.I.I.I.T./.^.E.>.8.                                          ",
"                                      . . 1 l M b.M.n.n.n.M.n.n.M.n.n.n.M.M.M.M.{ ' v.w.e.                                      ",
"                                      . . 1 l x l.m.m.m.m.m.m.m.c.c.m.M.m.m.M.x.p.) { A.e.                                      ",
"                                      . . A u.E T T T T R I T T T I T I [ I I ] C C J O.O.#.$.$.                                ",
"                                      . . R M.l.x 4 l 4 4 4 l 4 l l 4 4 4 4 4 4 l l l l 4 u $.$.                                ",
"                                      o o Y j.f.S A A A Z A A A A A A A A A A A l l b x b +.3.&.                                ",
"                                . . $ l 4 l x M j.x.l.m.m.x.x.m.m.l.x.x.l.m.m.j.x l N ( ( >.e.e.                                ",
"                                . . @ l l l l M l.m.m.m.m.m.m.m.m.m.m.c.m.m.m.l.x l N ) ) >.e.e.                                ",
"                                . . @ l l l l x l.m.m.m.m.m.m.m.m.m.m.m.m.h.a.s.P P P N N J K O.                                ",
"                                . . @ l l l l x l.m.m.m.m.m.m.m.m.m.m.m.m.a.) ) ) p.P l l l l l                                 ",
"                                $ o 1 b A N N B l.m.m.m.m.m.m.m.m.m.m.m.m.s.( ' ' ' P l l l l z                                 ",
"                      e.e.`.+X~.G 4 N ' ' _ ' ' x.m.c.m.m.m.m.m.m.m.m.m.m.s.) ' ' ' P l l l l G '.OX'.e.E.                      ",
"                      e.e.'.+X~.G l N ) ( ) ) p.l.m.m.m.m.m.m.m.m.m.m.m.m.s.( ' ' ) ~ l l 4 4 G oXOX~.0.E.                      ",
"                $.s t.$X$X*X*X#XJ l 4 > $ C ) ' a.a.h.m.m.m.m.m.m.m.l.a.a.' ' _ < > 4 ^ ^ N l Q #X*X&X$X$Xt.a |                 ",
"                $.a y.,X-X,X,X&XQ l 1 . . V ' ' ' ( s.m.m.m.m.m.m.m.h.) ' ' ' / o . < ' ) N l Q &X-X-X,X,Xt.| $.                ",
"                $.a w.OXOX+X$XoXG l 1 . . n ^ ^ ( ' a.z.z.z.z.z.z.z.g.' ' ^ P C o . > P P N l J oX$X+XOXoXw.| $.                ",
"                      $.$.6.e.8.m l 1 . . 1 l b _ ' ' ' ' ' ' ' ' ' ' ' ' B l 4 . . $ l l l l m 8.E.6.$.$.                      ",
"                      $.$.6.e.8.m v 3 . . 1 l l ( ' ' ' ' ( ' ' ' ' ' ' ( N l 3 o . $ l l l b m 8.9.6.$.$.                      ",
"                          &.&.;.[.}.].3 3 $ o $ ^ ' ' ' ' ' ' ( ' ' P b b , o @ 1 3 3 l 4 ].}.[.;.&.&.                          ",
"                          $.| -.|. X[.l l $ . o ^ ' ' ' ' ( ' ' ' ' P l l $ . . l l l l 4 [. X|.-.@.$.                          ",
"                          r r g {.{.B.H H % . o C P ~ ' ' ' ' ) ' ' ~ l l @ . X 4 l z H H B.{.{.u r r                           ",
"                          . . & P.Y.S.#.s - . . 4 l N ' ' ) ' ' ' ' ~ l l $ . . 3 l 8 %.k G.U.P.& . .                           ",
"                          . . & H.U.S.k %.0 % % 4 4 N ' ' ' ' ' ' ' L 4 4 , % & z c H $.$.S.P.H.& . .                           ",
"                                7 - } w.e.Z.H.F.2 . 3 ' ' ' ' ( b b 3 o o C.H.H.L.L.S.9.9.} 7 7                                 ",
"                                . . q 0.E.K.Y.P.& . < ' ' ' ' _ l l , . . Z.Y.Y.Y.Y.K.E.r.q . .                                 ",
"                                  . ; o.g X.V.X.% . < ' ' ' ' / 1 , H X.X.V.V.V.V.V.X.g o.9 .                                   ",
"                                      . . . . . . . < ) ) ) ' ^ @ .  .Y.Y.... . . . . . .                                       ",
"                                      . . X X X . . < _ _ _ _ ~ o . } P.L.} . . . o . . .                                       ",
"                                      . . r p i X . $ b b l b v o . # D D z 3 4 3 4 , . .                                       ",
"                                      . . r d p X . @ l l l l 4 . . $ l l l l l l l 1 . .                                       ",
"                                      . . 2.oX.XW v 3 # , # > # , , 1 l l l l x C P 6 . .                                       ",
"                                      . . XX2X<XN.) V . . . . . 4 l l l l l l b ( ) V . .                                       ",
"                                      . . .X>X:X{ ` Z o @ @ @ $ l b b b b z z F N.N.! o *                                       ",
"                                          * O * #.@.O./ / _ / / ' / ( ( / O.s ;.>X1X;X,.,.e . .                                 ",
"                                          . . X p $.+.) ' ) ) ) ) ) ) i.) +.d 5.<X2X;X,.,.w . .                                 ",
"                                      . . F Y R :.:.:.O.O.O.O.O.O.O.O.O.O.q - f @X&X%XXXXX1.r r X .                             ",
"                                      . . R M.M.x.c.v.$.k k k k $.| d s s = . * '.OX$X,X,Xt.| p X . .                           ",
"                                      . . Y x.l.x.M.v.=.*.*.*.=.*.*.*.*.=.9 o % Q.!.oX=X-Xy.s p X . .                           ",
"                                      . . V i.p.l.m.m.m.m.m.m.b.b.m.m.m.m.Y 4 4 O . <.-X-Xy.s h X . .                           ",
"                                      . . V ' ' l.m.m.m.m.m.m.m.M.m.m.m.m.I l 4 o . <.-X-Xt.s h X . .                           ",
"                                          > < < 5 5 5 5 5 d.m.m.m.m.c.x.m.` ~ C o . ; <.o.q = =                                 ",
"                                          . . . . . . . . R M.M.m.m.M.M.n.s.i./ o . . . . . . .                                 ",
"                                          . . . % + - 9 ; J E E E E E E E U L V o . . . . . . .                                 ",
"                                          . . O p | 4.e.0.q . . . . o . . . . .                                                 ",
"                                          . . X p $.4.e.0.q . . . . . . . . . .                                                 ",
"                                      . . 0 i i 7.7.9.e.r.q . .                                                                 ",
"                                      . X y $.%.0.e.e.e.e.q . .                                                                 ",
"                                      . . t $.%.9.e.e.e.e.q . .                                                                 ",
"                                      . . t j %.9.e.e.e.e.q . .                                                                 ",
"                                      . . t %.k 9.e.e.e.e.q . .                                                                 ",
"                                      . . : g i %.&.&.&.&.- . .                                                                 ",
"                                      . . : f f a $.$.%.$.- . .                                                                 ",
"                                      . . = ; : r r r r r = . .                                                                 ",
"                                          . . . . . . . .                                                                       ",
"                                          . . . . . . . .                                                                       ",
"                                                                                                                                ",
"                                                                                                                                ",
"                                                                                                                                ",
"                                                                                                                                ",
"                                                                                                                                "
};
